<svg width="512" height="512" viewBox="0 0 512 512" fill="none" xmlns="http://www.w3.org/2000/svg">
<path d="M376 504C378.122 504 380.157 503.157 381.657 501.657C383.157 500.157 384 498.122 384 496V440H456C458.122 440 460.157 439.157 461.657 437.657C463.157 436.157 464 434.122 464 432V16C464 13.8783 463.157 11.8434 461.657 10.3431C460.157 8.84285 458.122 8 456 8H136C133.878 8 131.843 8.84285 130.343 10.3431C128.843 11.8434 128 13.8783 128 16V72H56C53.8783 72 51.8434 72.8429 50.3431 74.3431C48.8429 75.8434 48 77.8783 48 80V496C48 498.122 48.8429 500.157 50.3431 501.657C51.8434 503.157 53.8783 504 56 504H376ZM360 64C369.493 64 378.774 66.8152 386.667 72.0895C394.561 77.3638 400.713 84.8603 404.346 93.6312C407.979 102.402 408.93 112.053 407.078 121.364C405.226 130.675 400.654 139.228 393.941 145.941C387.228 152.654 378.675 157.226 369.364 159.078C360.053 160.93 350.402 159.979 341.631 156.346C332.86 152.713 325.364 146.561 320.089 138.667C314.815 130.774 312 121.493 312 112C312.013 99.2735 317.074 87.0719 326.073 78.0729C335.072 69.0739 347.273 64.0127 360 64ZM144 24H448V424H384V171.288C393.092 167.64 401.226 161.953 407.773 154.665C414.321 147.378 419.109 138.684 421.767 129.255C424.424 119.825 424.882 109.911 423.104 100.277C421.326 90.6427 417.36 81.5452 411.512 73.6854C405.664 65.8256 398.089 59.4134 389.371 54.9429C380.654 50.4723 371.026 48.0628 361.231 47.9C351.435 47.7372 341.733 49.8254 332.871 54.0037C324.01 58.182 316.226 64.3389 310.12 72H144V24ZM64 88H300.712C296.761 97.711 295.259 108.245 296.339 118.673C297.419 129.101 301.048 139.104 306.906 147.799C312.764 156.494 320.671 163.614 329.93 168.532C339.189 173.45 349.516 176.015 360 176C362.676 175.982 365.347 175.798 368 175.448V488H64V88Z" fill="#999999"/>
<path d="M88 360H264C266.122 360 268.157 359.157 269.657 357.657C271.157 356.157 272 354.122 272 352V112C272 109.878 271.157 107.843 269.657 106.343C268.157 104.843 266.122 104 264 104H88C85.8783 104 83.8434 104.843 82.3431 106.343C80.8429 107.843 80 109.878 80 112V352C80 354.122 80.8429 356.157 82.3431 357.657C83.8434 359.157 85.8783 360 88 360ZM96 120H256V344H96V120Z" fill="#999999"/>
<path d="M202.44 213.784C208.538 208.412 212.856 201.31 214.817 193.424C216.779 185.537 216.292 177.24 213.421 169.637C210.55 162.035 205.431 155.487 198.746 150.865C192.061 146.244 184.127 143.769 176 143.769C167.873 143.769 159.939 146.244 153.254 150.865C146.569 155.487 141.45 162.035 138.579 169.637C135.708 177.24 135.221 185.537 137.183 193.424C139.144 201.31 143.462 208.412 149.56 213.784C138.375 218.863 128.888 227.052 122.228 237.374C115.568 247.696 112.018 259.716 112 272V320C112 322.122 112.843 324.157 114.343 325.657C115.843 327.157 117.878 328 120 328H232C234.122 328 236.157 327.157 237.657 325.657C239.157 324.157 240 322.122 240 320V272C239.982 259.716 236.432 247.696 229.772 237.374C223.112 227.052 213.625 218.863 202.44 213.784ZM152 184C152 179.253 153.408 174.613 156.045 170.666C158.682 166.72 162.43 163.643 166.816 161.827C171.201 160.01 176.027 159.535 180.682 160.461C185.338 161.387 189.614 163.673 192.971 167.029C196.327 170.386 198.613 174.662 199.539 179.318C200.465 183.973 199.99 188.799 198.173 193.184C196.357 197.57 193.28 201.318 189.334 203.955C185.387 206.592 180.747 208 176 208C169.635 208 163.53 205.471 159.029 200.971C154.529 196.47 152 190.365 152 184ZM202.88 232.248L176 253.752L149.12 232.248C157.054 226.873 166.417 224.001 176 224.001C185.583 224.001 194.946 226.873 202.88 232.248ZM224 312H128V272C128.002 261.706 131.336 251.69 137.504 243.448L171 270.248C172.419 271.384 174.182 272.003 176 272.003C177.818 272.003 179.581 271.384 181 270.248L214.496 243.448C220.664 251.69 223.998 261.706 224 272V312ZM80 376H352V392H80V376ZM80 408H352V424H80V408ZM80 440H352V456H80V440ZM352 104H368V144H352V104ZM352 80H368V96H352V80Z" fill="#999999"/>
</svg>
