<svg width="512" height="512" viewBox="0 0 512 512" fill="none" xmlns="http://www.w3.org/2000/svg">
<g clip-path="url(#clip0_14_134)">
<path d="M502.154 467.563H9.84615C7.23479 467.563 4.73039 466.526 2.88387 464.679C1.03736 462.833 0 460.328 0 457.717V54.283C0 51.6717 1.03736 49.1673 2.88387 47.3208C4.73039 45.4742 7.23479 44.4369 9.84615 44.4369H502.154C504.765 44.4369 507.27 45.4742 509.116 47.3208C510.963 49.1673 512 51.6717 512 54.283V457.717C512 460.328 510.963 462.833 509.116 464.679C507.27 466.526 504.765 467.563 502.154 467.563ZM19.6923 447.871H492.308V64.1292H19.6923V447.871Z" fill="#999999"/>
<path d="M502.154 118.345H9.84615C7.23479 118.345 4.73039 117.307 2.88387 115.461C1.03736 113.614 0 111.11 0 108.498C0 105.887 1.03736 103.383 2.88387 101.536C4.73039 99.6896 7.23479 98.6522 9.84615 98.6522H502.154C504.765 98.6522 507.27 99.6896 509.116 101.536C510.963 103.383 512 105.887 512 108.498C512 111.11 510.963 113.614 509.116 115.461C507.27 117.307 504.765 118.345 502.154 118.345ZM55.9569 273.434C53.657 273.436 51.4288 272.633 49.6588 271.165C47.8889 269.696 46.689 267.654 46.2672 265.393C45.8454 263.132 46.2284 260.795 47.3498 258.787C48.4711 256.779 50.26 255.227 52.4062 254.4L333.815 145.477C335.022 145.01 336.309 144.786 337.603 144.816C338.897 144.847 340.172 145.132 341.355 145.656C342.539 146.179 343.607 146.931 344.5 147.867C345.393 148.804 346.093 149.907 346.56 151.114C347.027 152.321 347.251 153.608 347.22 154.901C347.19 156.195 346.904 157.47 346.381 158.654C345.858 159.837 345.106 160.906 344.17 161.799C343.233 162.692 342.13 163.392 340.923 163.858L59.5077 272.781C58.3744 273.216 57.1706 273.437 55.9569 273.434Z" fill="#999999"/>
<path d="M337.366 273.434H55.4646C52.8533 273.434 50.3488 272.397 48.5023 270.55C46.6558 268.704 45.6185 266.199 45.6185 263.588V154.665C45.6185 152.053 46.6558 149.549 48.5023 147.702C50.3488 145.856 52.8533 144.818 55.4646 144.818H337.366C339.978 144.818 342.482 145.856 344.328 147.702C346.175 149.549 347.212 152.053 347.212 154.665V263.588C347.212 266.199 346.175 268.704 344.328 270.55C342.482 272.397 339.978 273.434 337.366 273.434ZM65.3108 253.742H327.52V164.511H65.3108V253.742Z" fill="#999999"/>
<path d="M337.366 273.434C336.154 273.432 334.952 273.207 333.822 272.769L51.92 163.846C50.7064 163.386 49.5959 162.69 48.6523 161.799C47.7086 160.907 46.9505 159.838 46.4215 158.653C45.8925 157.468 45.6031 156.19 45.5699 154.892C45.5367 153.595 45.7603 152.303 46.228 151.092C46.6957 149.882 47.3982 148.775 48.295 147.837C49.1918 146.899 50.2653 146.147 51.4537 145.625C52.6422 145.103 53.922 144.821 55.2198 144.796C56.5175 144.771 57.8074 145.002 59.0154 145.477L340.923 254.4C343.069 255.227 344.858 256.779 345.98 258.787C347.101 260.795 347.484 263.132 347.062 265.393C346.64 267.654 345.44 269.696 343.67 271.165C341.9 272.633 339.672 273.436 337.372 273.434H337.366ZM456.535 275.36H381.674C379.062 275.36 376.558 274.323 374.712 272.476C372.865 270.63 371.828 268.125 371.828 265.514V154.677C371.828 152.065 372.865 149.561 374.712 147.715C376.558 145.868 379.062 144.831 381.674 144.831H456.535C459.147 144.831 461.651 145.868 463.498 147.715C465.344 149.561 466.382 152.065 466.382 154.677V265.514C466.382 268.125 465.344 270.63 463.498 272.476C461.651 274.323 459.147 275.36 456.535 275.36ZM391.52 255.668H446.689V164.523H391.52V255.668ZM210.08 422.732H55.4646C52.8533 422.732 50.3488 421.695 48.5023 419.848C46.6558 418.002 45.6185 415.497 45.6185 412.886V310.043C45.6185 307.432 46.6558 304.927 48.5023 303.081C50.3488 301.234 52.8533 300.197 55.4646 300.197H210.08C212.691 300.197 215.196 301.234 217.042 303.081C218.889 304.927 219.926 307.432 219.926 310.043V412.886C219.926 415.497 218.889 418.002 217.042 419.848C215.196 421.695 212.691 422.732 210.08 422.732ZM65.3108 403.04H200.234V319.889H65.3108V403.04ZM456.535 353.495H266.037C263.426 353.495 260.921 352.458 259.075 350.611C257.228 348.765 256.191 346.26 256.191 343.649V310.043C256.191 307.432 257.228 304.927 259.075 303.081C260.921 301.234 263.426 300.197 266.037 300.197H456.535C459.147 300.197 461.651 301.234 463.498 303.081C465.344 304.927 466.382 307.432 466.382 310.043V343.649C466.382 346.26 465.344 348.765 463.498 350.611C461.651 352.458 459.147 353.495 456.535 353.495ZM275.883 333.803H446.689V319.889H275.883V333.803Z" fill="#999999"/>
<path d="M55.4769 422.732C53.3604 422.736 51.299 422.058 49.5981 420.799C47.8973 419.539 46.6476 417.765 46.0343 415.739C45.421 413.714 45.4768 411.544 46.1933 409.553C46.9098 407.561 48.249 405.854 50.0123 404.683L204.622 301.846C205.698 301.13 206.905 300.632 208.174 300.382C209.442 300.132 210.748 300.135 212.015 300.389C213.283 300.644 214.488 301.146 215.562 301.866C216.636 302.586 217.557 303.511 218.274 304.588C218.99 305.664 219.488 306.871 219.738 308.14C219.988 309.408 219.985 310.714 219.731 311.982C219.476 313.249 218.974 314.454 218.254 315.528C217.534 316.602 216.609 317.524 215.532 318.24L60.9231 421.083C59.3108 422.159 57.4155 422.733 55.4769 422.732Z" fill="#999999"/>
<path d="M210.068 422.732C208.13 422.731 206.235 422.157 204.622 421.083L50.0123 318.24C48.9359 317.524 48.0111 316.602 47.2908 315.528C46.5704 314.454 46.0686 313.249 45.8141 311.982C45.5595 310.714 45.5571 309.408 45.807 308.14C46.057 306.871 46.5544 305.664 47.2708 304.588C47.9872 303.511 48.9086 302.586 49.9824 301.866C51.0562 301.146 52.2614 300.644 53.5291 300.389C54.7969 300.135 56.1023 300.132 57.371 300.382C58.6396 300.632 59.8467 301.13 60.9231 301.846L215.532 404.683C217.296 405.854 218.635 407.561 219.351 409.553C220.068 411.544 220.124 413.714 219.51 415.739C218.897 417.765 217.647 419.539 215.946 420.799C214.246 422.058 212.184 422.736 210.068 422.732ZM464.117 91.2369H455.28C452.669 91.2369 450.164 90.1995 448.318 88.353C446.471 86.5065 445.434 84.0021 445.434 81.3907C445.434 78.7793 446.471 76.2749 448.318 74.4284C450.164 72.5819 452.669 71.5446 455.28 71.5446H464.117C466.728 71.5446 469.233 72.5819 471.079 74.4284C472.926 76.2749 473.963 78.7793 473.963 81.3907C473.963 84.0021 472.926 86.5065 471.079 88.353C469.233 90.1995 466.728 91.2369 464.117 91.2369ZM417.231 91.2369H408.406C405.795 91.2369 403.29 90.1995 401.444 88.353C399.597 86.5065 398.56 84.0021 398.56 81.3907C398.56 78.7793 399.597 76.2749 401.444 74.4284C403.29 72.5819 405.795 71.5446 408.406 71.5446H417.231C419.842 71.5446 422.347 72.5819 424.193 74.4284C426.04 76.2749 427.077 78.7793 427.077 81.3907C427.077 84.0021 426.04 86.5065 424.193 88.353C422.347 90.1995 419.842 91.2369 417.231 91.2369ZM370.375 91.2369H361.539C358.927 91.2369 356.423 90.1995 354.576 88.353C352.73 86.5065 351.692 84.0021 351.692 81.3907C351.692 78.7793 352.73 76.2749 354.576 74.4284C356.423 72.5819 358.927 71.5446 361.539 71.5446H370.375C372.987 71.5446 375.491 72.5819 377.338 74.4284C379.184 76.2749 380.222 78.7793 380.222 81.3907C380.222 84.0021 379.184 86.5065 377.338 88.353C375.491 90.1995 372.987 91.2369 370.375 91.2369Z" fill="#999999"/>
</g>
<defs>
<clipPath id="clip0_14_134">
<rect width="512" height="512" fill="white"/>
</clipPath>
</defs>
</svg>
