<svg width="512" height="512" viewBox="0 0 512 512" fill="none" xmlns="http://www.w3.org/2000/svg">
<g clip-path="url(#clip0_14_154)">
<path d="M508.352 167.158L344.834 3.63957C342.339 1.30126 339.048 0 335.629 0C332.21 0 328.919 1.30126 326.424 3.63957L285.783 44.2803C284.565 45.4838 283.598 46.9171 282.938 48.4973C282.278 50.0774 281.938 51.7728 281.938 53.4853C281.938 55.1977 282.278 56.8932 282.938 58.4733C283.598 60.0534 284.565 61.4867 285.783 62.6902L302.37 79.1897C239.493 111.675 169.164 127.011 98.4712 123.651C95.4535 123.536 92.4906 124.48 90.0958 126.32C87.701 128.16 86.0251 130.779 85.3585 133.725L0.169182 496.192C-0.305666 498.343 -0.230959 500.579 0.386405 502.693C1.00377 504.808 2.14389 506.733 3.70153 508.29C5.25916 509.848 7.18411 510.988 9.29865 511.605C11.4132 512.223 13.6492 512.297 15.8002 511.823L378.267 426.633C381.204 425.951 383.814 424.272 385.651 421.88C387.488 419.489 388.439 416.534 388.34 413.521C384.994 342.829 400.329 272.503 432.802 209.622L449.302 226.208C451.753 228.636 455.057 230.008 458.507 230.029C461.96 230.026 465.271 228.652 467.711 226.208L508.352 185.568C509.57 184.364 510.538 182.931 511.198 181.351C511.858 179.771 512.198 178.075 512.198 176.363C512.198 174.65 511.858 172.955 511.198 171.375C510.538 169.795 509.57 168.361 508.352 167.158ZM362.028 403.621L54.4437 475.958L188.61 341.791C197.868 347.17 208.644 349.337 219.262 347.955C229.879 346.572 239.741 341.719 247.314 334.15C253.817 327.69 258.385 319.54 260.5 310.622C262.616 301.703 262.195 292.37 259.286 283.678C256.377 274.985 251.095 267.279 244.037 261.431C236.979 255.582 228.426 251.824 219.344 250.581C210.262 249.337 201.014 250.658 192.644 254.394C184.273 258.13 177.114 264.132 171.975 271.723C166.837 279.313 163.923 288.189 163.563 297.348C163.203 306.508 165.412 315.585 169.94 323.555L36.0338 457.548L108.371 149.964C182.772 151.912 256.361 134.114 321.648 98.3811L413.697 190.431C378.038 255.719 360.217 329.252 362.028 403.621ZM196.426 282.828C199.666 279.578 203.797 277.362 208.296 276.462C212.796 275.561 217.462 276.016 221.703 277.769C225.944 279.521 229.569 282.493 232.12 286.308C234.671 290.122 236.033 294.608 236.033 299.197C236.033 303.786 234.671 308.271 232.12 312.086C229.569 315.9 225.944 318.872 221.703 320.625C217.462 322.378 212.796 322.833 208.296 321.932C203.797 321.031 199.666 318.816 196.426 315.566C194.27 313.42 192.56 310.869 191.393 308.06C190.225 305.251 189.625 302.239 189.625 299.197C189.625 296.155 190.225 293.143 191.393 290.334C192.56 287.525 194.27 284.974 196.426 282.828ZM458.507 198.594L313.398 53.4853L335.629 31.2544L480.737 176.363L458.507 198.594Z" fill="#999999"/>
</g>
<defs>
<clipPath id="clip0_14_154">
<rect width="512" height="512" fill="white"/>
</clipPath>
</defs>
</svg>
