<svg width="512" height="512" viewBox="0 0 512 512" fill="none" xmlns="http://www.w3.org/2000/svg">
<path d="M502 388.995H10C7.34784 388.995 4.8043 387.941 2.92893 386.066C1.05357 384.191 0 381.647 0 378.995L0 25.375C0 22.7228 1.05357 20.1793 2.92893 18.3039C4.8043 16.4286 7.34784 15.375 10 15.375L502 15.375C504.652 15.375 507.196 16.4286 509.071 18.3039C510.946 20.1793 512 22.7228 512 25.375V378.995C512 381.647 510.946 384.191 509.071 386.066C507.196 387.941 504.652 388.995 502 388.995ZM20 368.995H492V35.375H20V368.995Z" fill="#999999"/>
<path d="M174 496.625C172.087 496.625 170.215 496.076 168.605 495.044C166.994 494.012 165.714 492.54 164.915 490.802C164.116 489.064 163.832 487.134 164.097 485.24C164.362 483.345 165.165 481.567 166.41 480.115C190.66 451.825 190.66 413.805 166.41 385.505C165.497 384.517 164.793 383.355 164.34 382.089C163.887 380.823 163.694 379.478 163.772 378.136C163.85 376.793 164.199 375.48 164.797 374.275C165.394 373.07 166.229 371.998 167.25 371.124C168.272 370.249 169.459 369.589 170.742 369.184C172.024 368.779 173.375 368.636 174.714 368.765C176.053 368.894 177.352 369.292 178.533 369.934C179.715 370.577 180.754 371.451 181.59 372.505C212.04 408.015 212.04 457.625 181.59 493.145C180.65 494.238 179.486 495.115 178.176 495.715C176.866 496.316 175.441 496.626 174 496.625ZM338 496.625C336.558 496.625 335.133 496.313 333.823 495.711C332.513 495.108 331.349 494.23 330.41 493.135C299.97 457.615 299.97 408.005 330.41 372.495C331.246 371.441 332.285 370.567 333.467 369.924C334.648 369.282 335.947 368.884 337.286 368.755C338.625 368.626 339.976 368.768 341.258 369.174C342.541 369.579 343.728 370.239 344.75 371.114C345.771 371.988 346.606 373.06 347.203 374.265C347.801 375.47 348.15 376.783 348.228 378.126C348.306 379.468 348.113 380.813 347.66 382.079C347.207 383.345 346.503 384.507 345.59 385.495C321.34 413.795 321.34 451.815 345.59 480.105C346.838 481.557 347.644 483.336 347.91 485.232C348.177 487.128 347.894 489.06 347.095 490.8C346.295 492.54 345.013 494.013 343.401 495.046C341.789 496.078 339.914 496.627 338 496.625Z" fill="#999999"/>
<path d="M394.38 496.625H117.62C114.968 496.625 112.424 495.571 110.549 493.696C108.674 491.821 107.62 489.277 107.62 486.625C107.62 483.973 108.674 481.429 110.549 479.554C112.424 477.679 114.968 476.625 117.62 476.625H394.38C397.032 476.625 399.576 477.679 401.451 479.554C403.326 481.429 404.38 483.973 404.38 486.625C404.38 489.277 403.326 491.821 401.451 493.696C399.576 495.571 397.032 496.625 394.38 496.625ZM286.75 265.995H71.5C68.8478 265.995 66.3043 264.941 64.4289 263.066C62.5536 261.191 61.5 258.647 61.5 255.995V86.875C61.5 84.2228 62.5536 81.6793 64.4289 79.8039C66.3043 77.9286 68.8478 76.875 71.5 76.875H286.75C289.402 76.875 291.946 77.9286 293.821 79.8039C295.696 81.6793 296.75 84.2228 296.75 86.875V255.995C296.75 258.647 295.696 261.191 293.821 263.066C291.946 264.941 289.402 265.995 286.75 265.995ZM81.5 245.995H276.75V96.875H81.5V245.995ZM455.88 327.495H56.12C53.4678 327.495 50.9243 326.441 49.0489 324.566C47.1736 322.691 46.12 320.147 46.12 317.495C46.12 314.843 47.1736 312.299 49.0489 310.424C50.9243 308.549 53.4678 307.495 56.12 307.495H455.88C458.532 307.495 461.076 308.549 462.951 310.424C464.826 312.299 465.88 314.843 465.88 317.495C465.88 320.147 464.826 322.691 462.951 324.566C461.076 326.441 458.532 327.495 455.88 327.495Z" fill="#999999"/>
<path d="M194.51 266.005C192.861 266.006 191.238 265.599 189.785 264.821C188.332 264.043 187.093 262.917 186.18 261.545L133 181.775L79.82 261.545C79.103 262.663 78.1705 263.626 77.0771 264.38C75.9836 265.133 74.751 265.661 73.4512 265.933C72.1514 266.205 70.8105 266.216 69.5067 265.964C68.2028 265.712 66.9622 265.203 65.8572 264.467C64.7522 263.73 63.8049 262.781 63.0707 261.675C62.3364 260.568 61.8299 259.326 61.5807 258.022C61.3315 256.718 61.3446 255.377 61.6191 254.078C61.8937 252.778 62.4243 251.547 63.18 250.455L124.68 158.205C125.593 156.835 126.83 155.712 128.282 154.936C129.733 154.159 131.354 153.753 133 153.753C134.646 153.753 136.267 154.159 137.718 154.936C139.17 155.712 140.407 156.835 141.32 158.205L202.82 250.455C203.824 251.96 204.401 253.71 204.49 255.517C204.578 257.325 204.174 259.122 203.321 260.718C202.468 262.314 201.198 263.649 199.647 264.58C198.095 265.511 196.32 266.003 194.51 266.005Z" fill="#999999"/>
<path d="M286.76 265.995C285.237 265.997 283.734 265.652 282.364 264.984C280.995 264.317 279.797 263.346 278.86 262.145L211.41 175.555L177.91 224.375C177.18 225.487 176.235 226.442 175.132 227.185C174.028 227.927 172.787 228.442 171.482 228.699C170.176 228.956 168.833 228.949 167.53 228.681C166.228 228.412 164.991 227.886 163.894 227.134C162.797 226.381 161.861 225.417 161.142 224.299C160.422 223.18 159.932 221.929 159.702 220.619C159.471 219.309 159.505 217.966 159.8 216.669C160.095 215.372 160.646 214.147 161.42 213.065L202.65 152.945C203.539 151.647 204.722 150.577 206.103 149.823C207.484 149.068 209.023 148.65 210.596 148.602C212.168 148.555 213.73 148.879 215.154 149.548C216.578 150.217 217.824 151.213 218.79 152.455L294.64 249.835C295.789 251.312 296.5 253.081 296.693 254.942C296.887 256.803 296.554 258.681 295.733 260.362C294.912 262.044 293.636 263.461 292.05 264.453C290.464 265.445 288.631 265.973 286.76 265.975V265.995ZM440.5 204.495H348.25C345.598 204.495 343.054 203.441 341.179 201.566C339.304 199.691 338.25 197.147 338.25 194.495V86.875C338.25 84.2228 339.304 81.6793 341.179 79.8039C343.054 77.9286 345.598 76.875 348.25 76.875H440.5C443.152 76.875 445.696 77.9286 447.571 79.8039C449.446 81.6793 450.5 84.2228 450.5 86.875V194.495C450.5 197.147 449.446 199.691 447.571 201.566C445.696 203.441 443.152 204.495 440.5 204.495ZM358.25 184.495H430.5V96.875H358.25V184.495ZM455.88 265.995H332.88C330.228 265.995 327.684 264.941 325.809 263.066C323.934 261.191 322.88 258.647 322.88 255.995C322.88 253.343 323.934 250.799 325.809 248.924C327.684 247.049 330.228 245.995 332.88 245.995H455.88C458.532 245.995 461.076 247.049 462.951 248.924C464.826 250.799 465.88 253.343 465.88 255.995C465.88 258.647 464.826 261.191 462.951 263.066C461.076 264.941 458.532 265.995 455.88 265.995Z" fill="#999999"/>
</svg>
