<svg width="512" height="512" viewBox="0 0 512 512" fill="none" xmlns="http://www.w3.org/2000/svg">
<path d="M438.187 21.3334H73.8133C59.9 21.3503 46.5613 26.8849 36.7231 36.7231C26.8848 46.5614 21.3502 59.9 21.3333 73.8134V438.187C21.3502 452.1 26.8848 465.439 36.7231 475.277C46.5613 485.115 59.9 490.65 73.8133 490.667H438.187C452.1 490.65 465.439 485.115 475.277 475.277C485.115 465.439 490.65 452.1 490.667 438.187V73.8134C490.65 59.9 485.115 46.5614 475.277 36.7231C465.439 26.8849 452.1 21.3503 438.187 21.3334ZM469.333 73.8134V85.3334H306.069C296.833 85.3486 287.828 82.4494 280.336 77.0486C272.844 71.6477 267.246 64.0206 264.341 55.2534L260.139 42.6667H438.187C455.36 42.6667 469.333 56.64 469.333 73.8134ZM438.187 469.333H73.8133C56.64 469.333 42.6666 455.36 42.6666 438.187V73.8134C42.6666 56.64 56.64 42.6667 73.8133 42.6667H237.632L244.075 61.9947C248.402 75.0116 256.721 86.3339 267.85 94.3532C278.979 102.373 292.352 106.681 306.069 106.667H469.333V438.187C469.333 455.36 455.36 469.333 438.187 469.333Z" fill="#999999"/>
<path d="M181.333 85.3333C187.224 85.3333 192 80.5577 192 74.6667C192 68.7756 187.224 64 181.333 64C175.442 64 170.667 68.7756 170.667 74.6667C170.667 80.5577 175.442 85.3333 181.333 85.3333Z" fill="#999999"/>
<path d="M138.667 85.3333C144.558 85.3333 149.333 80.5577 149.333 74.6667C149.333 68.7756 144.558 64 138.667 64C132.776 64 128 68.7756 128 74.6667C128 80.5577 132.776 85.3333 138.667 85.3333Z" fill="#999999"/>
<path d="M96 85.3333C101.891 85.3333 106.667 80.5577 106.667 74.6667C106.667 68.7756 101.891 64 96 64C90.1089 64 85.3333 68.7756 85.3333 74.6667C85.3333 80.5577 90.1089 85.3333 96 85.3333Z" fill="#999999"/>
<path d="M416 277.333H376.789L288.789 213.333H320C322.829 213.333 325.542 212.21 327.542 210.209C329.543 208.209 330.667 205.496 330.667 202.667V138.667C330.667 135.838 329.543 133.125 327.542 131.124C325.542 129.124 322.829 128 320 128H192C189.171 128 186.458 129.124 184.458 131.124C182.457 133.125 181.333 135.838 181.333 138.667V202.667C181.333 205.496 182.457 208.209 184.458 210.209C186.458 212.21 189.171 213.333 192 213.333H223.211L135.211 277.333H96C93.171 277.333 90.4579 278.457 88.4575 280.458C86.4571 282.458 85.3333 285.171 85.3333 288V352C85.3333 354.829 86.4571 357.542 88.4575 359.542C90.4579 361.543 93.171 362.667 96 362.667H181.333C184.162 362.667 186.875 361.543 188.876 359.542C190.876 357.542 192 354.829 192 352V288C192 285.171 190.876 282.458 188.876 280.458C186.875 278.457 184.162 277.333 181.333 277.333H171.456L245.333 223.616V384H213.333C210.504 384 207.791 385.124 205.791 387.124C203.79 389.125 202.667 391.838 202.667 394.667V437.333C202.667 440.162 203.79 442.875 205.791 444.876C207.791 446.876 210.504 448 213.333 448H298.667C301.496 448 304.209 446.876 306.209 444.876C308.21 442.875 309.333 440.162 309.333 437.333V394.667C309.333 391.838 308.21 389.125 306.209 387.124C304.209 385.124 301.496 384 298.667 384H266.667V223.616L340.544 277.333H330.667C327.838 277.333 325.125 278.457 323.124 280.458C321.124 282.458 320 285.171 320 288V352C320 354.829 321.124 357.542 323.124 359.542C325.125 361.543 327.838 362.667 330.667 362.667H416C418.829 362.667 421.542 361.543 423.542 359.542C425.543 357.542 426.667 354.829 426.667 352V288C426.667 285.171 425.543 282.458 423.542 280.458C421.542 278.457 418.829 277.333 416 277.333ZM170.667 341.333H106.667V298.667H170.667V341.333ZM288 426.667H224V405.333H288V426.667ZM202.667 149.333H309.333V192H202.667V149.333ZM405.333 341.333H341.333V298.667H405.333V341.333Z" fill="#999999"/>
</svg>
