<svg width="512" height="512" viewBox="0 0 512 512" fill="none" xmlns="http://www.w3.org/2000/svg">
<g clip-path="url(#clip0_14_142)">
<path d="M275.247 183.829H264.702V264.419H281.087C283.355 228.957 299.427 217.278 313.771 206.875C328.88 195.876 341.948 186.409 341.948 146.354C341.948 98.9586 303.396 60.407 256 60.407C208.604 60.407 170.052 98.9586 170.052 146.354C170.052 186.409 183.12 195.876 198.258 206.875C212.573 217.278 228.674 228.957 230.913 264.419H247.298V183.829H236.781C231.962 183.829 228.078 179.945 228.078 175.126C228.078 170.336 231.962 166.424 236.781 166.424H275.247C280.038 166.424 283.922 170.336 283.922 175.126C283.922 179.945 280.038 183.829 275.247 183.829ZM214.5 511.915C211.439 511.915 208.547 510.299 206.988 507.578L84.1049 294.75C81.7805 290.696 68.2307 267.679 67.4087 265.695L41.6698 204.692C17.1498 202.821 3.45829 182.582 0.765341 154.292C-2.29611 121.891 9.80797 76.0544 32.7122 59.0747C37.7296 55.2195 44.7312 57.629 46.4887 63.4968C47.1691 65.5944 57.1755 96.4074 77.6135 106.981C116.505 127.107 118.121 151.967 109.277 168.947L147.488 219.433C148.736 221.133 162.087 244.605 164.298 248.46C164.638 249.027 164.922 249.65 165.092 250.274L230.46 457.064C230.885 458.396 230.97 459.813 230.715 461.202L223.061 504.743C222.352 508.853 218.667 511.915 214.5 511.915ZM94.82 278.536L144.909 249.622L137.369 236.582L87.2798 265.496L94.82 278.536ZM103.523 293.588L210.078 478.182L213.225 460.267L151.74 265.751L103.523 293.588ZM50.514 187.174C66.4732 185.7 91.7302 172.66 95.8122 155.879C99.3555 141.252 83.538 129.602 69.6197 122.43C59.9818 117.441 52.2998 109.56 46.347 101.368C47.7927 117.186 52.0447 134.704 62.8732 145.079C68.5993 150.578 64.4606 160.046 56.8637 160.046C54.7093 160.046 52.5266 159.252 50.8541 157.637C33.8461 141.365 29.2255 114.067 28.4318 93.2326C20.6648 110.071 16.2427 133.031 18.0852 152.647C19.0207 162.342 22.4223 179.52 34.9232 185.416C39.8272 187.712 45.2698 187.571 50.514 187.174ZM59.9251 203.247L79.5978 249.849L127.674 222.097L98.2784 183.205C88.1585 192.787 74.0702 200.128 59.9251 203.247ZM297.5 511.915C293.333 511.915 289.648 508.853 288.939 504.743L281.285 461.202C281.03 459.813 281.144 458.396 281.54 457.064L346.908 250.274L347.787 248.318C350.253 244.123 363.151 221.303 364.512 219.461L402.723 168.947C393.879 151.967 395.495 127.107 434.415 106.981C451.961 97.8814 462.818 72.426 465.54 63.3834C467.354 57.3172 474.582 55.4746 479.288 59.0747C502.192 76.0544 514.296 121.891 511.235 154.292C508.542 182.582 494.85 202.821 470.359 204.692L444.62 265.666L444.138 266.658L305.04 507.578C303.453 510.299 300.561 511.915 297.5 511.915ZM367.091 249.622L417.18 278.536L424.72 265.496L374.631 236.582L367.091 249.622ZM298.775 460.267L301.922 478.182L408.506 293.588L360.26 265.751L298.775 460.267ZM420.326 164.468C429.596 177.593 450.261 187.457 466.277 187.457C470.529 187.457 474.185 186.777 477.077 185.416C489.578 179.52 493.008 162.342 493.915 152.647C495.786 133.031 491.335 110.071 483.568 93.2326C482.774 114.067 478.154 141.365 461.174 157.637C457.688 160.953 452.188 160.84 448.872 157.381C445.555 153.923 445.668 148.395 449.127 145.079C459.955 134.704 464.207 117.186 465.653 101.368C459.7 109.589 452.018 117.441 442.38 122.43C428.49 129.602 412.644 141.252 416.216 155.879C416.981 159.082 418.427 161.803 420.326 164.468ZM384.326 222.097L432.43 249.849L452.103 203.247C437.958 200.128 423.87 192.787 413.75 183.205L384.326 222.097ZM256 35.0082C251.209 35.0082 247.298 31.1247 247.298 26.3341V8.78743C247.298 3.96847 251.209 0.0849609 256 0.0849609C260.819 0.0849609 264.702 3.96847 264.702 8.78743V26.3341C264.702 31.1247 260.819 35.0082 256 35.0082ZM324.032 53.2636C317.513 53.2636 313.147 46.0635 316.52 40.224L325.28 25.0018C327.689 20.8632 333.018 19.4175 337.157 21.827C341.324 24.2364 342.741 29.5373 340.36 33.7043L331.573 48.8982C329.957 51.7045 327.037 53.2636 324.032 53.2636ZM187.968 53.2636C184.963 53.2636 182.043 51.7045 180.427 48.8982L171.668 33.7043C169.259 29.5373 170.676 24.2364 174.843 21.827C179.01 19.4175 184.311 20.8632 186.72 25.0018L195.48 40.224C198.853 46.0635 194.487 53.2636 187.968 53.2636ZM298.237 302.092C298.237 306.911 294.325 310.794 289.534 310.794H222.466C217.675 310.794 213.792 306.911 213.792 302.092V273.121C213.792 239.644 202.425 231.395 188.024 220.935C171.47 208.916 152.676 195.281 152.676 146.354C152.676 89.3774 199.023 43.002 256 43.002C312.977 43.002 359.352 89.3774 359.352 146.354C359.352 195.281 340.559 208.916 323.976 220.935C309.575 231.395 298.237 239.644 298.237 273.121V302.092ZM231.168 293.418H280.832V281.824H231.168V293.418ZM290.413 341.21H221.587C216.796 341.21 212.884 337.327 212.884 332.536C212.884 327.717 216.796 323.834 221.587 323.834H290.413C295.232 323.834 299.115 327.717 299.115 332.536C299.115 337.327 295.232 341.21 290.413 341.21ZM275.247 371.343H236.781C231.962 371.343 228.078 367.46 228.078 362.641C228.078 357.85 231.962 353.938 236.781 353.938H275.247C280.038 353.938 283.922 357.85 283.922 362.641C283.922 367.46 280.038 371.343 275.247 371.343Z" fill="#999999"/>
</g>
<defs>
<clipPath id="clip0_14_142">
<rect width="512" height="512" fill="white"/>
</clipPath>
</defs>
</svg>
