<svg width="512" height="512" viewBox="0 0 512 512" fill="none" xmlns="http://www.w3.org/2000/svg">
<path d="M408 232.512V184H456V8H344V88H312V8H200V88H168V8H56V184H104V232.512C60.584 235.072 8 247.784 8 272V464C8 491.288 74.832 504 120 504C165.168 504 232 491.288 232 464V424H280V464C280 491.288 346.832 504 392 504C437.168 504 504 491.288 504 464V272C504 247.784 451.416 235.072 408 232.512ZM488 272C488 279.16 447.464 296 392 296C336.536 296 296 279.16 296 272C296 264.84 336.536 248 392 248C447.464 248 488 264.84 488 272ZM372.904 405.784L334.656 431.288C331.976 433.056 328 430.92 328 427.72V408H184V392H328V372.28C328 369.072 331.976 366.928 334.656 368.72L372.904 394.224C373.856 394.858 374.637 395.717 375.177 396.726C375.717 397.734 376 398.86 376 400.004C376 401.148 375.717 402.274 375.177 403.282C374.637 404.291 373.856 405.15 372.904 405.784ZM152 338.176V310.104C176.056 307.392 200.552 301.712 216 292.824V376H177.416L173.432 374.552L178.192 364.368L152 338.176ZM158.952 432.24L144.256 446.944L134.672 442.464L126.024 446.024L122.392 456H104V439.104C106.624 439.64 109.296 440 112 440C134.056 440 152 422.056 152 400C152 377.944 134.056 360 112 360C109.296 360 106.624 360.36 104 360.896V344H122.392L124.784 350.584L126.408 354.12L134.656 357.528L144.256 353.048L158.952 367.752L154.456 377.36L158.032 385.976L168 389.608V410.392L161.416 412.792L157.84 414.488L154.456 422.64L158.952 432.24ZM120 312C125.096 312 130.48 311.816 136 311.488V334.592L133.608 328H104V311.488C109.52 311.816 114.904 312 120 312ZM104 377.552C106.559 376.582 109.264 376.057 112 376C125.232 376 136 386.768 136 400C136 413.232 125.232 424 112 424C109.24 424 106.576 423.36 104 422.44V377.552ZM343.528 355.408C340.2 353.182 336.284 351.996 332.28 352C326.903 352.006 321.749 354.145 317.947 357.947C314.145 361.749 312.006 366.903 312 372.28V376H296V292.816C311.448 301.704 335.944 307.384 360 310.096V366.384L343.528 355.408ZM360 24H440V168H360V24ZM216 24H296V168H216V24ZM72 24H152V168H72V24ZM120 184H168V104H200V184H312V104H344V184H392V232C346.832 232 280 244.712 280 272V376H232V272C232 244.712 165.168 232 120 232V184ZM120 248C175.464 248 216 264.84 216 272C216 279.16 175.464 296 120 296C64.536 296 24 279.16 24 272C24 264.84 64.536 248 120 248ZM24 292.816C39.448 301.704 63.944 307.384 88 310.096V342.032C45.744 336.984 24 324.624 24 320V292.816ZM24 340.92C42.88 351.6 73.488 356.36 88 358.104V390.04C45.744 384.984 24 372.624 24 368V340.92ZM24 388.92C42.88 399.6 73.488 404.36 88 406.104V438.04C45.744 432.984 24 420.624 24 416V388.92ZM24 464V436.92C42.88 447.6 73.488 452.36 88 454.104V486.072C49.648 481.464 24 469.688 24 464ZM104 487.488V472H133.608L136 465.408V487.488C130.816 487.792 125.504 488 120 488C114.496 488 109.184 487.792 104 487.488ZM216 464C216 469.688 190.352 481.464 152 486.072V461.824L178.192 435.632L173.432 425.448L177.416 424H216V464ZM296 464V424H312V427.72C312.006 433.097 314.145 438.251 317.947 442.053C321.749 445.855 326.903 447.994 332.28 448C336.296 448 340.184 446.824 343.528 444.592L360 433.616V486.072C321.648 481.464 296 469.688 296 464ZM376 487.488V422.952L381.784 419.096C388.176 414.832 392 407.688 392 400C392 392.312 388.176 385.168 381.784 380.904L376 377.056V311.496C381.52 311.816 386.904 312 392 312C397.096 312 402.48 311.816 408 311.488V487.488C402.816 487.792 397.504 488 392 488C386.496 488 381.184 487.792 376 487.488ZM424 486.072V454.096C438.504 452.36 469.12 447.6 488 436.92V464C488 469.688 462.352 481.464 424 486.072ZM424 438.032V406.096C438.488 404.36 469.12 399.6 488 388.912V416C488 420.624 466.256 433 424 438.032ZM424 390.032V358.096C438.488 356.36 469.12 351.6 488 340.912V368C488 372.616 466.256 384.992 424 390.032ZM424 342.032V310.096C448.056 307.384 472.552 301.704 488 292.816V320C488 324.616 466.256 336.992 424 342.032Z" fill="#999999"/>
</svg>
