<svg width="512" height="512" viewBox="0 0 512 512" fill="none" xmlns="http://www.w3.org/2000/svg">
<g clip-path="url(#clip0_14_202)">
<path d="M229.939 401.535C231.345 409.11 231.776 419.97 227.097 431.674C218.693 452.671 200.208 460.507 196.975 461.813M282.051 401.535C280.655 409.12 280.224 419.97 284.903 431.674C293.297 452.671 311.782 460.507 315.025 461.813M472 401.535H40C23.431 401.535 10 388.104 10 371.535V40C10 23.431 23.431 10 40 10H472C488.569 10 502 23.431 502 40V371.535C502 388.104 488.569 401.535 472 401.535ZM351.388 461.814H160.612C138.43 461.814 120.449 479.806 120.449 502H391.551C391.551 479.806 373.569 461.814 351.388 461.814Z" stroke="#999999" stroke-width="20" stroke-miterlimit="10" stroke-linecap="round" stroke-linejoin="round"/>
<path d="M230.898 90.0938V130.28H250.98C262.07 130.28 271.061 121.284 271.062 110.187C271.062 99.0898 262.071 90.0938 250.98 90.0938H230.898ZM230.898 90.0938V170.466M187.178 160.42C179.85 166.905 170.398 170.48 160.612 170.466C138.43 170.466 120.449 152.474 120.449 130.28C120.449 108.086 138.431 90.0938 160.612 90.0938C170.398 90.08 179.85 93.6542 187.178 100.14M240.939 130.28L271.061 170.466M311.224 170.466V90.0938L351.388 150.373L391.551 90.0938V170.466M421.674 351.303H369.901M328.482 351.303H276.709M235.291 351.303H183.518M142.099 351.302H90.326M10 351.303H502" stroke="#999999" stroke-width="20" stroke-miterlimit="10" stroke-linecap="round" stroke-linejoin="round"/>
</g>
<defs>
<clipPath id="clip0_14_202">
<rect width="512" height="512" fill="white"/>
</clipPath>
</defs>
</svg>
