<svg width="512" height="512" viewBox="0 0 512 512" fill="none" xmlns="http://www.w3.org/2000/svg">
<path d="M302.261 277.276C299.885 277.276 297.581 276.34 295.853 274.468C292.613 270.94 292.829 265.468 296.357 262.228L339.485 222.555L296.357 182.883C292.829 179.643 292.613 174.171 295.853 170.643C299.093 167.043 304.565 166.827 308.093 170.067L358.206 216.147C360.006 217.803 361.014 220.107 361.014 222.555C361.014 225.004 360.006 227.308 358.206 228.964L308.093 275.044C306.437 276.556 304.349 277.276 302.261 277.276ZM1.36804 79.9932V8.71214C1.36804 3.88806 5.2561 0 10.0802 0H501.92C506.744 0 510.632 3.88806 510.632 8.71214V323.357C510.632 328.109 506.744 331.997 501.92 331.997H443.959V408.462H501.92C506.744 408.462 510.632 412.35 510.632 417.174V503.288C510.632 508.112 506.744 512 501.92 512H368.574C363.75 512 359.862 508.112 359.862 503.288V417.174C359.862 412.35 363.75 408.462 368.574 408.462H426.535V331.997H264.676V382.902H322.709C327.461 382.902 331.349 386.862 331.349 391.614V503.288C331.349 508.112 327.461 512 322.709 512H189.291C184.539 512 180.651 508.112 180.651 503.288V391.614C180.651 386.862 184.539 382.902 189.291 382.902H247.324V331.997H85.4654V408.462H143.426C148.25 408.462 152.138 412.35 152.138 417.174V503.288C152.138 508.112 148.25 512 143.426 512H10.0802C5.2561 512 1.36804 508.112 1.36804 503.288V417.174C1.36804 412.35 5.2561 408.462 10.0802 408.462H68.1131V331.997H10.0802C5.2561 331.997 1.36804 328.109 1.36804 323.357V79.9932ZM493.208 71.2811V17.4243H18.7923V71.2811H493.208ZM18.7923 314.645H493.208V88.7054H18.7923V314.645ZM68.6891 53.0648H45.5047C40.7527 53.0648 36.8646 49.1768 36.8646 44.3527C36.8646 39.5286 40.7527 35.6406 45.5047 35.6406H68.6891C73.5132 35.6406 77.4012 39.5286 77.4012 44.3527C77.4012 49.1768 73.5132 53.0648 68.6891 53.0648ZM126.938 53.0648H103.754C98.9296 53.0648 95.0415 49.1768 95.0415 44.3527C95.0415 39.5286 98.9296 35.6406 103.754 35.6406H126.938C131.69 35.6406 135.578 39.5286 135.578 44.3527C135.578 49.1768 131.69 53.0648 126.938 53.0648ZM185.115 53.0648H161.931C157.178 53.0648 153.29 49.1768 153.29 44.3527C153.29 39.5286 157.178 35.6406 161.931 35.6406H185.115C189.939 35.6406 193.827 39.5286 193.827 44.3527C193.827 49.1768 189.939 53.0648 185.115 53.0648ZM18.7923 494.576H134.786V425.887H18.7923V494.576ZM198.003 494.576H313.997V400.326H198.003V494.576ZM377.214 494.576H493.208V425.887H377.214V494.576ZM403.206 129.098H108.794C104.042 129.098 100.154 125.21 100.154 120.458C100.154 115.634 104.042 111.746 108.794 111.746H403.206C407.958 111.746 411.846 115.634 411.846 120.458C411.846 125.21 407.958 129.098 403.206 129.098ZM237.964 291.605C237.172 291.605 236.308 291.461 235.516 291.173C230.908 289.805 228.244 284.98 229.684 280.372L265.684 159.77C267.052 155.162 271.948 152.498 276.484 153.866C281.092 155.306 283.756 160.13 282.388 164.739L246.316 285.34C245.164 289.156 241.708 291.605 237.964 291.605ZM209.739 277.276C207.651 277.276 205.563 276.556 203.907 274.972L153.794 228.964C152.066 227.308 150.986 225.004 150.986 222.555C150.986 220.107 152.066 217.803 153.794 216.147L203.907 170.067C207.435 166.827 212.907 167.043 216.147 170.643C219.387 174.171 219.171 179.643 215.643 182.883L172.587 222.555L215.643 262.228C219.171 265.468 219.387 270.94 216.147 274.468C214.491 276.34 212.115 277.276 209.739 277.276Z" fill="#999999"/>
</svg>
