<svg width="512" height="512" viewBox="0 0 512 512" fill="none" xmlns="http://www.w3.org/2000/svg">
<path d="M469.333 21.333H42.667C19.136 21.333 0 40.469 0 64V448C0 471.531 19.136 490.667 42.667 490.667H469.334C492.864 490.667 512 471.531 512 448V64C512 40.469 492.864 21.333 469.333 21.333ZM490.667 448C490.667 459.765 481.099 469.333 469.334 469.333H42.667C30.902 469.333 21.334 459.765 21.334 448V64C21.334 52.235 30.902 42.667 42.667 42.667H469.334C481.099 42.667 490.667 52.235 490.667 64V448Z" fill="#999999"/>
<path d="M74.667 64H64C58.112 64 53.333 68.768 53.333 74.667C53.333 80.566 58.112 85.334 64 85.334H74.667C80.555 85.334 85.334 80.566 85.334 74.667C85.333 68.768 80.555 64 74.667 64ZM128 64H117.333C111.445 64 106.666 68.768 106.666 74.667C106.666 80.566 111.445 85.334 117.333 85.334H128C133.888 85.334 138.667 80.566 138.667 74.667C138.667 68.768 133.888 64 128 64ZM448 64H437.333C435.932 63.9987 434.544 64.2737 433.249 64.8093C431.955 65.3449 430.778 66.1306 429.787 67.1214C428.797 68.1122 428.011 69.2886 427.475 70.5834C426.94 71.8781 426.665 73.2658 426.666 74.667C426.665 76.0682 426.94 77.4559 427.475 78.7506C428.011 80.0454 428.797 81.2219 429.787 82.2126C430.778 83.2034 431.955 83.9891 433.249 84.5247C434.544 85.0603 435.932 85.3353 437.333 85.334H448C449.401 85.3353 450.789 85.0603 452.084 84.5247C453.378 83.9891 454.555 83.2034 455.546 82.2126C456.536 81.2219 457.322 80.0454 457.858 78.7506C458.393 77.4559 458.668 76.0682 458.667 74.667C458.668 73.2658 458.393 71.8781 457.858 70.5834C457.322 69.2886 456.536 68.1122 455.546 67.1214C454.555 66.1306 453.378 65.3449 452.084 64.8093C450.789 64.2737 449.401 63.9987 448 64ZM458.667 106.667H53.333C47.445 106.667 42.666 111.435 42.666 117.334C42.666 123.233 47.445 128.001 53.333 128.001H458.666C460.067 128.002 461.455 127.727 462.75 127.192C464.044 126.656 465.221 125.87 466.212 124.88C467.202 123.889 467.988 122.712 468.524 121.418C469.059 120.123 469.334 118.735 469.333 117.334C469.334 115.933 469.059 114.545 468.524 113.251C467.988 111.956 467.203 110.779 466.212 109.789C465.221 108.798 464.045 108.012 462.75 107.477C461.456 106.941 460.068 106.666 458.667 106.667ZM352 224C350.599 223.999 349.211 224.274 347.916 224.809C346.622 225.345 345.445 226.131 344.454 227.121C343.464 228.112 342.678 229.289 342.142 230.583C341.607 231.878 341.332 233.266 341.333 234.667V341.334C341.333 347.233 346.101 352.001 352 352.001C357.899 352.001 362.667 347.233 362.667 341.334V234.667C362.668 233.266 362.393 231.878 361.858 230.583C361.322 229.289 360.536 228.112 359.546 227.121C358.555 226.131 357.378 225.345 356.084 224.809C354.789 224.274 353.401 223.999 352 224ZM277.333 224H245.333C239.445 224 234.666 228.768 234.666 234.667V341.334C234.666 347.233 239.445 352.001 245.333 352.001C251.221 352.001 256 347.232 256 341.333V309.333H277.333C300.81 309.333 309.333 290.197 309.333 277.333V256C309.333 232.523 290.197 224 277.333 224ZM288 277.205C287.872 282.133 285.931 288 277.333 288H256V245.333H277.205C282.133 245.461 288 247.403 288 256V277.205Z" fill="#999999"/>
<path d="M373.333 224H330.666C329.265 223.999 327.877 224.274 326.582 224.809C325.288 225.345 324.111 226.131 323.12 227.121C322.13 228.112 321.344 229.289 320.808 230.583C320.273 231.878 319.998 233.266 319.999 234.667C319.998 236.068 320.273 237.456 320.808 238.751C321.344 240.045 322.13 241.222 323.12 242.213C324.111 243.203 325.288 243.989 326.582 244.525C327.877 245.06 329.265 245.335 330.666 245.334H373.333C374.734 245.335 376.122 245.06 377.417 244.525C378.711 243.989 379.888 243.203 380.879 242.213C381.869 241.222 382.655 240.045 383.191 238.751C383.726 237.456 384.001 236.068 384 234.667C384.001 233.266 383.726 231.878 383.191 230.583C382.655 229.289 381.869 228.112 380.879 227.121C379.888 226.131 378.711 225.345 377.417 224.809C376.122 224.274 374.734 223.999 373.333 224ZM373.333 330.667H330.666C329.265 330.666 327.877 330.941 326.582 331.476C325.288 332.012 324.111 332.798 323.12 333.788C322.13 334.779 321.344 335.956 320.808 337.25C320.273 338.545 319.998 339.933 319.999 341.334C319.998 342.735 320.273 344.123 320.808 345.418C321.344 346.712 322.13 347.889 323.12 348.88C324.111 349.87 325.288 350.656 326.582 351.192C327.877 351.727 329.265 352.002 330.666 352.001H373.333C374.734 352.002 376.122 351.727 377.417 351.192C378.711 350.656 379.888 349.87 380.879 348.88C381.869 347.889 382.655 346.712 383.191 345.418C383.726 344.123 384.001 342.735 384 341.334C384.001 339.933 383.726 338.545 383.191 337.25C382.655 335.956 381.869 334.779 380.879 333.788C379.888 332.798 378.711 332.012 377.417 331.476C376.122 330.941 374.734 330.666 373.333 330.667ZM170.667 224C147.136 224 128 243.136 128 266.667V341.334C128 347.233 132.779 352.001 138.667 352.001C144.555 352.001 149.334 347.233 149.334 341.334V266.667C149.334 254.902 158.902 245.334 170.667 245.334C182.432 245.334 192 254.902 192 266.667V341.334C192 347.233 196.779 352.001 202.667 352.001C208.555 352.001 213.334 347.233 213.334 341.334V266.667C213.333 243.136 194.197 224 170.667 224Z" fill="#999999"/>
<path d="M202.667 288H138.667C132.779 288 128 292.768 128 298.667C128 304.566 132.779 309.334 138.667 309.334H202.667C208.555 309.334 213.334 304.566 213.334 298.667C213.333 292.768 208.555 288 202.667 288Z" fill="#999999"/>
</svg>
