<svg width="512" height="512" viewBox="0 0 512 512" fill="none" xmlns="http://www.w3.org/2000/svg">
<path d="M456 216H296C287.176 216 280 223.176 280 232V456C280 464.824 287.176 472 296 472H456C464.824 472 472 464.824 472 456V232C472 223.176 464.824 216 456 216ZM456 232L456.008 296H296V232H456ZM456.008 312L456.016 376H296V312H456.008ZM296 456V392H456.008L456.016 456H296Z" fill="#999999"/>
<path d="M464 184H443.688C451.676 172.187 455.963 158.261 456 144C456 104.304 423.704 72 384 72C378.859 72.0023 373.733 72.5602 368.712 73.664C353.104 34.08 315.168 8 272 8C234.752 8 200.184 28.336 181.784 60.448C174.896 57.5138 167.487 56.0009 160 56C131.664 56 108.176 77.16 104.496 104.504C77.16 108.176 56 131.664 56 160C56 188.152 76.912 211.456 104 215.36V296.408C50.392 300.52 8 345.36 8 400C8 457.344 54.656 504 112 504C166.64 504 211.48 461.608 215.592 408H248V464C248 486.056 265.944 504 288 504H464C486.056 504 504 486.056 504 464V224C504 201.944 486.056 184 464 184ZM72 160C72 137.944 89.944 120 112 120H120V112C120 89.944 137.944 72 160 72C167.384 72 174.64 74.08 180.984 78L188.608 82.72L192.432 74.608C206.912 43.864 238.152 24 272 24C310.728 24 344.488 48.816 356.008 85.744L358.448 93.552L366.2 90.944C371.934 89.0036 377.946 88.0093 384 88C414.872 88 440 113.12 440 144C439.977 151.466 438.46 158.851 435.538 165.721C432.615 172.591 428.347 178.806 422.984 184H288C274.984 184 263.512 190.344 256.208 200H112C89.944 200 72 182.056 72 160ZM112 488C103.4 488 94.24 475.784 87.928 456H136.08C129.76 475.784 120.6 488 112 488ZM83.848 440C81.7559 429.451 80.5252 418.749 80.168 408H143.832C143.471 418.748 142.24 429.45 140.152 440H83.848ZM24.408 408H64.176C64.544 419.352 65.648 430.104 67.448 440H33.712C28.5821 430.031 25.4231 419.166 24.408 408ZM112 312C120.6 312 129.76 324.216 136.072 344H87.92C94.24 324.216 103.4 312 112 312ZM140.152 360C142.104 369.672 143.416 380.424 143.832 392H80.168C80.5292 381.252 81.7599 370.55 83.848 360H140.152ZM64.176 392H24.408C25.4258 380.834 28.5875 369.969 33.72 360H67.448C65.5719 370.572 64.4783 381.267 64.176 392ZM159.824 408H199.592C198.574 419.166 195.412 430.031 190.28 440H156.552C158.352 430.104 159.464 419.352 159.824 408ZM159.824 392C159.518 381.268 158.424 370.572 156.552 360H190.28C195.409 369.97 198.57 380.835 199.592 392H159.824ZM152.84 344C149.896 333.64 146.144 324.624 141.712 317.272C156.58 322.609 169.742 331.84 179.824 344H152.84ZM82.288 317.272C77.856 324.624 74.104 333.64 71.16 344H44.168C54.2571 331.843 67.4206 322.614 82.288 317.272ZM44.168 456H71.152C74.096 466.36 77.848 475.376 82.28 482.728C67.4161 477.384 54.2557 468.155 44.168 456ZM141.712 482.728C146.136 475.376 149.896 466.36 152.84 456H179.824C169.74 468.158 156.578 477.388 141.712 482.728ZM215.592 392C211.688 341.04 170.96 300.312 120 296.408V216H248.808C248.27 218.633 248 221.313 248 224V392H215.592ZM488 464C488 477.232 477.232 488 464 488H288C274.768 488 264 477.232 264 464V224C264 210.768 274.768 200 288 200H464C477.232 200 488 210.768 488 224V464Z" fill="#999999"/>
</svg>
