<?xml version="1.0" encoding="utf-8"?>
<!-- Generator: Adobe Illustrator 25.0.0, SVG Export Plug-In . SVG Version: 6.00 Build 0)  -->
<svg version="1.1" id="Layer_1" xmlns="http://www.w3.org/2000/svg" xmlns:xlink="http://www.w3.org/1999/xlink" x="0px" y="0px"
	 viewBox="0 0 379 343" style="enable-background:new 0 0 379 343;" xml:space="preserve">
<style type="text/css">
	.st0{clip-path:url(#SVGID_2_);}
	.st1{fill:none;stroke:#222222;stroke-miterlimit:10;}
	.st2{fill:#111111;}
	.st3{fill:#222222;}
	.st4{opacity:0.1;fill:#FFFEFF;enable-background:new    ;}
	.st5{fill:#FF7208;}
	.st6{fill:#FF6601;}
	.st7{fill:#FFFEFF;}
	.st8{fill:#5C74EF;}
	.st9{fill:#E2F1FF;}
	.st10{fill:#7EC8FF;}
	.st11{fill:url(#SVGID_3_);}
</style>
<g>
	<defs>
		<rect id="SVGID_1_" width="378.8" height="342.8"/>
	</defs>
	<clipPath id="SVGID_2_">
		<use xlink:href="#SVGID_1_"  style="overflow:visible;"/>
	</clipPath>
	<g class="st0">
		<path class="st1" d="M324.6,233.1c20.9,12.1,21,31.6,0.2,43.6l-97.4,56.6c-20.7,12-54.5,12-75.3,0l-98-56.6
			c-20.9-12.1-21-31.6-0.2-43.6l97.4-56.6c20.7-12,54.5-12,75.3,0L324.6,233.1z"/>
		<path class="st2" d="M359.4,198.1l-122.1,71c-26,15.1-68.3,15.1-94.5,0l-122.9-71C6.6,190.5,0,180.5,0,170.5v14.1
			c0,10,6.6,20,19.7,27.6l122.9,71c26.2,15.1,68.5,15.1,94.5,0l122.1-71c12.9-7.5,19.4-17.3,19.4-27.2v-14.1
			C378.8,180.8,372.3,190.6,359.4,198.1z"/>
		<path class="st3" d="M359.1,143.3c26.2,15.1,26.3,39.6,0.3,54.8l-122.1,71c-26,15.1-68.3,15.1-94.5,0l-122.9-71
			c-26.2-15.1-26.3-39.6-0.3-54.8l122.1-71c26-15.1,68.3-15.1,94.5,0L359.1,143.3z"/>
		<path class="st4" d="M219.1,171.3c-11.5-6.7-30.3-6.7-41.9,0c-11.6,6.7-11.7,17.6-0.1,24.2s30.3,6.7,41.9,0
			C230.6,188.9,230.6,178,219.1,171.3z"/>
		<path class="st5" d="M262,127.9v-0.6c0-0.4,0-0.9-0.1-1.3s0-1-0.1-1.5c-0.1-0.5-0.1-0.8-0.1-1.2s-0.1-0.9-0.1-1.4
			c0-0.3,0-0.6-0.1-0.9c-0.1-0.6-0.1-1.3-0.2-1.9l-0.1-1.1c0-0.1,0-0.2,0-0.4c-0.1-1.2-0.3-2.3-0.5-3.5c0,0,0,0,0-0.1l-0.1-0.5
			c-0.2-1-0.3-2-0.5-3c0-0.2-0.1-0.4-0.1-0.5c-0.1-0.5-0.2-0.9-0.3-1.4c-0.1-0.5-0.2-1.2-0.3-1.7c-0.1-0.3-0.2-0.6-0.2-1l-0.4-1.5
			l-0.3-1.2c-0.1-0.5-0.3-1-0.4-1.4c-0.1-0.4-0.3-1-0.4-1.5l-0.2-0.8c-0.2-0.7-0.4-1.4-0.6-2c-0.1-0.4-0.2-0.9-0.4-1.3
			c0-0.1-0.1-0.2-0.1-0.4c-0.4-1.2-0.8-2.4-1.2-3.6l-0.1-0.3c-0.4-1.1-0.7-2.1-1.1-3.2c-0.1-0.2-0.1-0.3-0.2-0.5l-0.5-1.2
			c-0.2-0.6-0.4-1.2-0.7-1.7c-0.1-0.4-0.3-0.7-0.4-1.1l-0.5-1.3l-0.4-1c-0.3-0.7-0.6-1.3-0.8-1.9c-0.1-0.3-0.3-0.7-0.4-1
			c-0.1-0.1-0.1-0.2-0.2-0.4c-0.5-1.1-1-2.3-1.5-3.4l-0.1-0.1l-0.5-1c-0.4-0.9-0.8-1.7-1.3-2.6l-0.2-0.4l-1.1-2.1
			c-0.3-0.6-0.6-1.1-0.9-1.7c-0.1-0.1-0.1-0.2-0.2-0.3c-1-1.8-2-3.6-3-5.4l-0.3-0.5c-0.1-0.2-0.2-0.3-0.3-0.5c-1.5-2.5-3-5-4.6-7.4
			c-0.1-0.1-0.2-0.3-0.2-0.4c-0.1-0.1-0.3-0.4-0.5-0.7c-1.3-1.9-2.6-3.8-4-5.7V46c-1-1.3-1.9-2.6-2.9-3.9l-0.1-0.2
			c-0.7-0.9-1.4-1.8-2.2-2.7c-0.2-0.2-0.3-0.4-0.5-0.6c-0.9-1.1-1.8-2.1-2.7-3.2l-0.1-0.2c-0.3-0.3-0.6-0.6-0.8-0.9
			c-0.6-0.6-1.2-1.3-1.8-2l-0.3-0.3c-0.4-0.4-0.8-0.9-1.2-1.3s-0.9-0.9-1.3-1.4c-0.2-0.2-0.3-0.3-0.5-0.5l-1.3-1.3
			c-0.4-0.4-0.8-0.8-1.1-1.1c-0.2-0.2-0.4-0.4-0.6-0.6l-1.4-1.3c-0.3-0.3-0.7-0.6-1-0.9c-0.3-0.3-0.5-0.5-0.8-0.7l-1.5-1.3
			c-0.3-0.2-0.6-0.5-0.9-0.8l-1-0.8l-1.6-1.1c-0.2-0.2-0.5-0.4-0.7-0.6l-1.2-0.9l-1.3-1l-0.5-0.4c-0.5-0.4-1.1-0.8-1.7-1.2l-1.1-0.8
			l-0.3-0.2c-1-0.7-2-1.3-3-2l-0.2-0.1c-0.9-0.6-1.8-1.1-2.7-1.7L192,9.6c-0.7-0.4-1.5-0.9-2.2-1.2L188.9,8l-1.1-0.6l-0.9-0.5
			l-1.4-0.7l-1-0.5L184,5.6c-0.9-0.4-1.9-0.8-2.8-1.2c-1-0.4-1.9-0.7-2.8-1.1L178,3.2c-0.3-0.1-0.7-0.2-1-0.3
			c-0.3-0.1-1-0.3-1.4-0.5l-0.7-0.2l-1.2-0.3l-1-0.3c-0.3-0.1-0.7-0.1-1-0.2l-1.2-0.3l-0.7-0.1c-0.4-0.1-0.8-0.1-1.2-0.2
			c-0.4-0.1-1-0.2-1.4-0.2l-0.5-0.1l-1.1-0.1c-0.5-0.1-1-0.1-1.5-0.2h-0.4c-0.3,0-0.7,0-1,0c-0.6,0-1.2-0.1-1.8-0.1h-0.5
			c-0.3,0-0.5,0-0.8,0c-0.7,0-1.5,0-2.2,0.1c-0.2,0-0.5,0-0.7,0s-0.3,0.1-0.5,0.1c-1.1,0.1-2.2,0.3-3.3,0.5h-0.3h-0.1
			c-0.2,0-0.4,0.1-0.7,0.1c-0.7,0.2-1.3,0.3-2,0.5c-0.3,0.1-0.6,0.2-0.9,0.3l-1.3,0.4l-0.3,0.1c-0.6,0.2-1.2,0.5-1.9,0.8l-0.9,0.4
			c-0.9,0.4-1.8,0.9-2.6,1.4l-17.2,10c0.9-0.5,1.7-0.9,2.6-1.4c0.3-0.1,0.6-0.2,0.9-0.4c0.6-0.3,1.2-0.5,1.9-0.8
			c0.6-0.2,1-0.4,1.6-0.5c0.3-0.1,0.6-0.2,0.9-0.3c0.7-0.2,1.3-0.3,2-0.5c0.2,0,0.4-0.1,0.7-0.2l0.3-0.1c1.1-0.2,2.2-0.4,3.3-0.5
			l1.1-0.1c0.7-0.1,1.5-0.1,2.2-0.1c0.4,0,0.8,0,1.3,0c0.6,0,1.2,0,1.8,0.1l1.5,0.1c0.5,0,1,0.1,1.5,0.2c0.5,0.1,1.1,0.1,1.7,0.2
			s0.9,0.2,1.4,0.2l1.8,0.3l1.2,0.3c0.6,0.1,1.3,0.3,1.9,0.5l1.2,0.3c0.7,0.2,1.4,0.4,2.1,0.7l1,0.3c2.1,0.7,4.3,1.6,6.4,2.6l1,0.5
			c0.8,0.4,1.5,0.7,2.3,1.1l1.1,0.6c1,0.5,2,1.1,3.1,1.7c1.1,0.6,2.3,1.4,3.4,2.1l0.2,0.1c1.1,0.7,2.2,1.4,3.3,2.2l1.1,0.8l2.2,1.6
			l1.3,1c0.7,0.5,1.3,1,2,1.5c0.5,0.4,0.9,0.8,1.4,1.2l1.9,1.6l1.4,1.3c0.6,0.5,1.2,1.1,1.8,1.6l1.4,1.3l1.8,1.7l1.3,1.3
			c0.6,0.6,1.2,1.3,1.8,1.9c0.4,0.4,0.8,0.8,1.2,1.3c0.7,0.8,1.4,1.5,2.1,2.3c0.3,0.3,0.6,0.6,0.8,0.9c1,1.1,1.9,2.2,2.9,3.4
			l0.5,0.6c0.8,1,1.6,1.9,2.3,2.9c1,1.3,2,2.6,3,3.9c1.4,1.9,2.7,3.8,4,5.7l0.7,1.1c1.6,2.4,3.2,4.9,4.6,7.4l0.6,1
			c1,1.8,2.1,3.6,3,5.4c0.4,0.7,0.7,1.3,1.1,2c0.3,0.7,0.7,1.4,1.1,2.1c0.5,1,1,2,1.5,3l0.5,1c0.6,1.3,1.2,2.6,1.8,3.9
			c0.1,0.3,0.3,0.7,0.4,1c0.4,1,0.8,2,1.2,2.9c0.2,0.4,0.4,0.9,0.5,1.3c0.4,0.9,0.7,1.9,1.1,2.8l0.5,1.2c0.4,1.2,0.9,2.5,1.3,3.7
			l0.1,0.3c0.4,1.3,0.9,2.7,1.3,4c0.1,0.4,0.3,0.9,0.4,1.3c0.3,0.9,0.5,1.9,0.8,2.8c0.1,0.5,0.3,1,0.4,1.5c0.2,0.9,0.5,1.7,0.7,2.6
			c0.1,0.5,0.2,1,0.4,1.5c0.2,0.9,0.4,1.8,0.6,2.7c0.1,0.5,0.2,0.9,0.3,1.4c0.2,1.2,0.4,2.3,0.6,3.5l0.1,0.5c0.2,1.3,0.4,2.7,0.6,4
			c0.1,0.4,0.1,0.8,0.1,1.1c0.1,0.9,0.2,1.9,0.3,2.8c0,0.5,0.1,0.9,0.1,1.4c0.1,0.9,0.1,1.8,0.2,2.7c0,0.4,0.1,0.9,0.1,1.3
			c0.1,1.3,0.1,2.5,0.1,3.8s0,2.6-0.1,3.9c0,0.4,0,0.7-0.1,1.1c-0.1,0.9-0.1,1.7-0.2,2.6c0,0.5-0.1,1-0.1,1.5
			c-0.1,0.7-0.2,1.4-0.3,2.1c-0.1,0.5-0.2,1-0.2,1.5c-0.1,0.5-0.2,1.3-0.3,1.9c-0.1,0.6-0.2,1.1-0.3,1.7c-0.1,0.6-0.2,1.1-0.4,1.7
			c-0.1,0.6-0.3,1.3-0.5,1.9c-0.1,0.5-0.3,1-0.4,1.5c-0.2,0.8-0.5,1.5-0.7,2.2c-0.1,0.4-0.3,0.8-0.4,1.2c-0.5,1.2-1,2.4-1.5,3.6
			c-0.4,0.9-0.9,1.8-1.3,2.6c-0.5,0.8-0.9,1.6-1.4,2.4c-0.7,1.1-1.5,2.2-2.3,3.2l-0.6,0.7c-0.8,0.9-1.6,1.8-2.4,2.7l-0.2,0.2
			c-0.9,0.9-1.8,1.7-2.8,2.4l-0.7,0.6c-1,0.7-2,1.4-3.1,2.1l17.2-10c1.1-0.6,2.1-1.3,3.1-2.1l0.7-0.6c1-0.8,1.9-1.6,2.8-2.4l0.2-0.2
			c0.9-0.8,1.7-1.7,2.4-2.7c0.2-0.2,0.4-0.5,0.6-0.7c0.8-1,1.6-2.1,2.3-3.2l0.1-0.1c0.5-0.7,0.9-1.5,1.4-2.3
			c0.4-0.8,0.9-1.6,1.3-2.5c0,0,0-0.1,0-0.1c0.5-1.1,1-2.3,1.5-3.6c0-0.1,0.1-0.2,0.1-0.3c0.1-0.3,0.2-0.6,0.3-0.9
			c0.3-0.7,0.5-1.5,0.7-2.2c0.1-0.2,0.1-0.4,0.2-0.6c0.1-0.2,0.2-0.6,0.2-0.9c0.2-0.6,0.3-1.3,0.5-1.9c0.1-0.3,0.1-0.5,0.2-0.8
			c0.1-0.3,0.1-0.6,0.2-0.9c0.1-0.5,0.2-1.1,0.3-1.7c0.1-0.3,0.1-0.6,0.2-0.9l0.1-1c0.1-0.5,0.2-1,0.2-1.5c0-0.3,0.1-0.5,0.1-0.8
			c0.1-0.4,0.1-0.9,0.1-1.3l0.1-1.5c0-0.2,0-0.4,0.1-0.6c0-0.6,0.1-1.3,0.1-2c0-0.4,0.1-0.7,0.1-1.1c0-0.1,0-0.2,0-0.3
			c0-1.1,0.1-2.2,0.1-3.4V131C262.1,130,262.1,128.9,262,127.9z"/>
		<path class="st6" d="M224.4,186.1c27.4-15.9,27.3-67.2-0.2-114.5c-27.5-47.3-72-72.8-99.4-56.9C97.4,30.7,97.4,82,124.9,129.3
			C152.4,176.6,197,202.1,224.4,186.1z"/>
		<path class="st7" d="M174.6,151.5c-24.2-14-43.9-48.3-43.8-76.6s19.9-39.8,44.1-25.8s43.9,48.3,43.8,76.5S198.8,165.4,174.6,151.5
			z M174.9,31c-32.8-19-59.6-3.3-59.7,34.9s26.4,84.7,59.3,103.6s59.6,3.3,59.7-34.9S207.7,50,174.9,31z"/>
		<path class="st7" d="M174.7,112.4c-5.7-3.3-10.4-11.4-10.4-18.1c0-6.7,4.7-9.4,10.4-6.1c5.7,3.3,10.4,11.4,10.4,18.1
			C185.1,113,180.4,115.7,174.7,112.4z M174.8,70.1c-14.3-8.3-26-1.4-26,15.2s11.6,36.9,25.9,45.2s26,1.4,26-15.2
			S189.1,78.3,174.8,70.1"/>
		<path class="st8" d="M162.8,120.9c1.5-2.1,1-6.5-1.3-11c-2.7-5.1-6.9-8.6-9.9-8.4l18.6-1.4c0.6-0.1,1.3,0.1,1.9,0.4
			c0.6,0.3,1,0.8,1.4,1.3c0.3,0.6,0.5,1.2,0.5,1.8c0,0.6-0.2,1.3-0.6,1.8L162.8,120.9z"/>
		<path class="st7" d="M150.6,113.8c-2.9-5.6-2.9-11.1,0.1-12.2c3-1.1,7.8,2.6,10.8,8.2c2.9,5.6,2.9,11.1-0.1,12.2
			C158.3,123.1,153.5,119.5,150.6,113.8z"/>
		<path class="st9" d="M157,109.8l-4.3,4.6c0,0,3.8,4.6,6.7,7.7c0.6,0.1,1.3,0.1,1.9-0.1c1.5-0.5,2.2-2.1,2.3-4.2L157,109.8z"/>
		<path class="st8" d="M84.4,165.3c3,3,8.3,4.4,15.5-1.1c9.5-7.2,10.3-21.9,10.4-22.7l-28.4,16.9C81.2,159.8,82.1,163,84.4,165.3z"
			/>
		<path class="st8" d="M72.5,146.1c1.7,3.5,4.8,6.2,6.6,6.5l27.8-16.1c-0.8-0.4-17-8.6-28-4.1C70.5,135.7,70.3,141.5,72.5,146.1z"/>
		<path class="st10" d="M72.6,155.6l8.4-4.9l3.7-2.2l7.5-4.3l4.5-2.6l3.2-1.8l24.4-14.2l3.6-2.1l16.1-9.3l1.5-0.9l8.4-4.9l0.2-0.1
			c0.1-0.1,0.3-0.1,0.5-0.1h0.2c0.1,0,0.2,0,0.3,0.1c0.1,0,0.1,0.1,0.2,0.1l0.2,0.1h0.1l0.3,0.2l0.1,0.1c0.1,0.1,0.3,0.2,0.4,0.4
			l0.1,0.1c0.1,0.1,0.2,0.3,0.3,0.4l0.1,0.1c0.1,0.2,0.2,0.3,0.4,0.5c0,0.1,0.1,0.1,0.1,0.2c0.1,0.1,0.1,0.2,0.2,0.3l0.2,0.3
			c0.1,0.1,0.1,0.3,0.2,0.5c0.1,0.2,0,0.1,0,0.1l0.1,0.3c0.1,0.1,0.1,0.3,0.1,0.4c0,0.1,0.1,0.2,0.1,0.3c0,0.1,0,0.1,0,0.2
			c0,0.1,0,0.1,0,0.2l0.1,0.3c0,0,0,0.1,0,0.2c0,0.1,0,0.1,0,0.2c0,0.1,0,0.2,0,0.2v0.2c0,0.1,0,0.1,0,0.2c0,0.1,0,0.1,0,0.2
			c0,0,0,0.1,0,0.1c0,0,0,0.1,0,0.1c0,0.1,0,0.2-0.1,0.2c0,0,0,0,0,0.1l-0.1,0.1c0,0-0.1,0.1-0.1,0.1c-0.1,0.1-0.2,0.2-0.3,0.2
			l-81.2,47.2L72.6,155.6z"/>
		
			<linearGradient id="SVGID_3_" gradientUnits="userSpaceOnUse" x1="71.1699" y1="183.6499" x2="61.6514" y2="182.9559" gradientTransform="matrix(1 0 0 -1 0 343)">
			<stop  offset="0.22" style="stop-color:#005BC3"/>
			<stop  offset="0.48" style="stop-color:#157ADB"/>
			<stop  offset="0.6" style="stop-color:#208BE8"/>
			<stop  offset="0.97" style="stop-color:#32A5FC"/>
		</linearGradient>
		<path class="st11" d="M72.7,159.8c-1-2-1-3.9,0-4.3c1-0.4,2.8,0.9,3.8,2.9c1,2,1,3.9,0,4.3S73.7,161.8,72.7,159.8z"/>
		<path class="st7" d="M76.5,162.7c1.1-0.4,1.1-2.3,0-4.3c-1.1-2-2.7-3.3-3.8-2.9c-1.1,0.4-1.1,2.3,0,4.3S75.4,163.1,76.5,162.7z
			 M72.9,159.7c-0.8-1.4-1-2.9-0.5-3.7c0.1-0.2,0.3-0.3,0.4-0.4c1-0.3,2.6,0.9,3.6,2.8c0.8,1.4,1,2.9,0.5,3.6
			c-0.1,0.2-0.3,0.3-0.4,0.4C75.5,162.9,73.9,161.6,72.9,159.7L72.9,159.7z"/>
	</g>
</g>
</svg>
