<?xml version="1.0" encoding="utf-8"?>
<!-- Generator: Adobe Illustrator 25.0.0, SVG Export Plug-In . SVG Version: 6.00 Build 0)  -->
<svg version="1.1" id="Layer_1" xmlns="http://www.w3.org/2000/svg" xmlns:xlink="http://www.w3.org/1999/xlink" x="0px" y="0px"
	 viewBox="0 0 379 329" style="enable-background:new 0 0 379 329;" xml:space="preserve">
<style type="text/css">
	.st0{clip-path:url(#SVGID_2_);}
	.st1{fill:none;stroke:#111111;stroke-miterlimit:10;}
	.st2{fill:#111111;}
	.st3{fill:#1E1E1E;}
	.st4{fill:none;stroke:#497DB2;stroke-width:1.56;stroke-linecap:round;stroke-linejoin:round;stroke-dasharray:0.1,3.13;}
	.st5{fill:#57DDED;}
	.st6{fill:#333333;}
	.st7{opacity:0.1;}
	.st8{fill:#4C4C4C;}
	.st9{fill:#FFFFFF;}
	.st10{fill:#757575;}
	.st11{fill:#B1B1B1;}
	.st12{fill:#FF6601;}
	.st13{fill:#FFCEA1;}
	.st14{fill:#D95600;}
</style>
<g>
	<defs>
		<rect id="SVGID_1_" width="378.8" height="328.8"/>
	</defs>
	<clipPath id="SVGID_2_">
		<use xlink:href="#SVGID_1_"  style="overflow:visible;"/>
	</clipPath>
	<g class="st0">
		<path class="st1" d="M324.6,219c20.9,12.1,21,31.6,0.2,43.6l-97.4,56.6c-20.7,12-54.5,12-75.3,0l-98-56.6
			c-20.9-12.1-21-31.6-0.2-43.6l97.4-56.6c20.7-12.1,54.5-12.1,75.3,0L324.6,219z"/>
		<path class="st2" d="M359.4,184.1l-122.1,71c-26,15.1-68.3,15.1-94.5,0l-122.9-71C6.6,176.5,0,166.5,0,156.5v14.1
			c0,10,6.6,20,19.7,27.6l122.9,71c26.2,15.1,68.5,15.1,94.5,0l122.1-71c12.9-7.5,19.4-17.3,19.4-27.2v-14.1
			C378.8,166.7,372.3,176.6,359.4,184.1z"/>
		<path class="st3" d="M359.1,129.3c26.2,15.1,26.3,39.6,0.3,54.8l-122.1,71c-26,15.1-68.3,15.1-94.5,0l-122.9-71
			c-26.2-15.1-26.3-39.6-0.3-54.8l122.1-71c26-15.1,68.3-15.1,94.5,0L359.1,129.3z"/>
		<path class="st4" d="M184.9,160.3l4.6-50.1"/>
		<path class="st5" d="M188.7,140.3c1.1-0.5,1.3-2.4,0.4-4.3c-0.9-1.9-2.5-3-3.6-2.5c-1.1,0.5-1.3,2.4-0.4,4.3
			C186,139.7,187.6,140.8,188.7,140.3z"/>
		<path class="st4" d="M145.7,109.6l-32.8,0.9"/>
		<path class="st4" d="M223.4,135.3l-2.5,26.7l-2.4,10.7"/>
		<path class="st4" d="M186.4,104.5l5.5-59.6"/>
		<path class="st4" d="M189,77l37,42.8"/>
		<path class="st4" d="M220.9,162l33.6,35.5"/>
		<path class="st4" d="M188.5,76.5L150,67.9"/>
		<path class="st4" d="M148.6,82.3l-3,27.2l6.2,12.5"/>
		<path class="st5" d="M186.4,75.2c0,0.9,0.1,1.9,0.5,2.7c0.4,0.8,1,1.6,1.7,2.2c1.4,1,2.7,0.4,2.8-1.3c0-0.9-0.2-1.8-0.6-2.7
			c-0.4-0.8-1-1.6-1.7-2.1C187.9,73,186.6,73.5,186.4,75.2z"/>
		<path class="st5" d="M222.5,165.4c1.1-0.5,1.3-2.4,0.4-4.3c-0.9-1.9-2.5-3-3.6-2.5c-1.1,0.5-1.3,2.4-0.4,4.3
			C219.8,164.8,221.4,165.9,222.5,165.4z"/>
		<path class="st5" d="M148.1,111.3c-0.2,1.7-1.4,2.3-2.8,1.3c-0.7-0.6-1.3-1.3-1.7-2.2c-0.4-0.8-0.6-1.8-0.5-2.7
			c0.2-1.7,1.4-2.3,2.8-1.3c0.7,0.6,1.3,1.3,1.7,2.2C148,109.4,148.2,110.3,148.1,111.3z"/>
		<path class="st6" d="M171,144.8l5.6-2.7c2.8-1.5,6.5-1.1,10.5,1.7c7.5,5.3,12.8,17,12,26.1c-0.4,4.6-2.4,7.7-5.2,8.9l-6.4,2.9
			c-2.8,1.6-6.6,1.2-10.6-1.7c-7.5-5.3-12.8-17-12-26.1C165.5,148.9,167.8,145.7,171,144.8z"/>
		<g class="st7">
			<path d="M193.7,179c2.2-1.5,3.6-4.3,4-8.2c0.8-9.1-4.5-20.8-12-26.1c-3.9-2.8-7.7-3.2-10.5-1.7l-5.6,2.7
				c-0.2,0.1-0.4,0.1-0.6,0.2c0.6-0.4,1.3-0.8,2-1l5.6-2.7c2.8-1.5,6.5-1.1,10.5,1.7c7.5,5.3,12.8,17,12,26.1
				c-0.4,4.6-2.4,7.7-5.2,8.9L193.7,179z"/>
		</g>
		<path class="st8" d="M187,182c5.9-2.7,6.9-13.2,2.2-23.4c-4.7-10.2-13.2-16.3-19.1-13.6c-5.9,2.7-6.9,13.2-2.2,23.4
			C172.6,178.7,181.1,184.7,187,182z"/>
		<path class="st6" d="M169.2,151.8l3.1-1.4c2-1,4.6-0.6,7.3,1.3c5.4,3.8,9.2,12.2,8.6,18.8c-0.3,3.2-1.6,5.3-3.4,6.3
			c-0.2,0.1-0.3,0.1-0.5,0.2l-3.2,1.4c-2,0.9-4.5,0.5-7.2-1.4c-5.4-3.8-9.2-12.2-8.6-18.8C165.7,154.9,167.2,152.6,169.2,151.8z"/>
		<path class="st8" d="M181.2,178.4c4.2-1.9,4.9-9.5,1.6-16.8c-3.4-7.3-9.5-11.7-13.7-9.8c-4.2,1.9-4.9,9.5-1.6,16.8
			C170.8,176,177,180.3,181.2,178.4z"/>
		<path class="st9" d="M179.9,175.4c3.3-1.5,3.8-7.4,1.2-13.1c-2.6-5.7-7.4-9.1-10.7-7.6c-3.3,1.5-3.8,7.4-1.2,13.1
			C171.8,173.6,176.6,177,179.9,175.4z"/>
		<path class="st6" d="M178.4,163.5l0.8-0.3c0.4,0.8,0.6,1.7,0.8,2.6l-1-0.3C178.9,164.9,178.7,164.2,178.4,163.5z"/>
		<path class="st6" d="M170.8,159.5c0.2-0.6,0.6-1,1.1-1.4l0.7,1.4c-0.4,0.3-0.7,0.6-0.9,1.1L170.8,159.5z"/>
		<path class="st6" d="M176.2,160.4l0.2-1.1c0.7,0.6,1.2,1.3,1.7,2l-0.6,0.7C177.2,161.3,176.8,160.8,176.2,160.4z"/>
		<path class="st6" d="M173.1,157.7c0.6,0,1.3,0.1,1.8,0.4l0.1,1.4c-0.4-0.2-0.9-0.3-1.4-0.3L173.1,157.7z"/>
		<path class="st6" d="M174.8,169.4c0.3,0.2,0.5,0.3,0.8,0.5l0.1,1.4c-0.3-0.2-0.7-0.4-1-0.6c-0.3-0.2-0.6-0.4-0.8-0.7l0.3-1.1
			C174.4,169,174.6,169.2,174.8,169.4z"/>
		<path class="st6" d="M173.1,167.5l-0.6,0.8c-0.5-0.8-1-1.6-1.3-2.5l0.9-0.2C172.3,166.3,172.7,166.9,173.1,167.5z"/>
		<path class="st6" d="M179.1,167.4c0-0.1,0-0.1,0-0.2l1,0.7c0,0.1,0,0.1,0,0.2c0,0.6-0.2,1.3-0.5,1.8l-0.9-1.1
			C178.9,168.4,179.1,167.9,179.1,167.4z"/>
		<path class="st6" d="M171.4,161.9c-0.1,0.7,0,1.3,0.1,2l-1-0.2c-0.2-0.8-0.2-1.7-0.2-2.5L171.4,161.9z"/>
		<path class="st6" d="M178.1,169.7l0.7,1.4c-0.5,0.3-1,0.5-1.6,0.5l-0.4-1.4C177.3,170.1,177.7,169.9,178.1,169.7z"/>
		<path class="st6" d="M178.8,167.1c0-1.3-0.2-2.6-0.7-3.7c-0.5-1.2-1.3-2.2-2.3-3c-1.9-1.4-3.6-0.6-3.9,1.8
			c-0.1,1.3,0.2,2.6,0.7,3.7c0.5,1.2,1.3,2.2,2.3,3C176.8,170.2,178.5,169.4,178.8,167.1z M177.3,166.1c-0.1,1.4-1.1,1.8-2.3,1
			c-0.6-0.5-1.1-1.1-1.4-1.7c-0.3-0.7-0.5-1.4-0.4-2.2c0.1-1.4,1.1-1.8,2.3-1c0.6,0.5,1.1,1.1,1.4,1.7
			C177.2,164.6,177.3,165.3,177.3,166.1L177.3,166.1z"/>
		<path class="st6" d="M170.4,154.8c-1,1.1-1.6,2.6-1.7,4.1c-0.5,5.1,2.5,11.6,6.7,14.6c2.1,1.5,4.1,1.8,5.6,1.1
			c-1.6,1.6-4.1,1.6-6.8-0.3c-4.2-3-7.2-9.5-6.7-14.6C167.8,157.2,168.9,155.5,170.4,154.8z"/>
		<path class="st10" d="M205.5,169.3l5.6-2.7c2.8-1.5,6.5-1.1,10.5,1.7c7.5,5.3,12.8,17,12,26.1c-0.4,4.6-2.4,7.7-5.2,8.9l-6.4,2.9
			c-2.8,1.6-6.6,1.2-10.6-1.7c-7.5-5.3-12.8-17-12-26.1C200.1,173.4,202.3,170.2,205.5,169.3z"/>
		<g class="st7">
			<path d="M228.2,203.5c2.2-1.5,3.6-4.3,4-8.2c0.9-9.1-4.5-20.8-12-26.1c-4-2.8-7.7-3.3-10.5-1.7l-5.6,2.6l-0.6,0.2
				c0.6-0.4,1.3-0.8,2-1l5.6-2.7c2.8-1.5,6.5-1.1,10.5,1.7c7.5,5.3,12.8,17,12,26.1c-0.4,4.6-2.4,7.7-5.2,8.9L228.2,203.5z"/>
		</g>
		<path class="st11" d="M221.6,206.5c5.9-2.7,6.9-13.2,2.2-23.4c-4.7-10.2-13.2-16.3-19.1-13.6c-5.9,2.7-6.9,13.2-2.2,23.4
			C207.1,203.2,215.7,209.2,221.6,206.5z"/>
		<path class="st10" d="M203.8,176.3l3.1-1.4c2-1,4.6-0.6,7.3,1.3c5.4,3.8,9.2,12.2,8.6,18.8c-0.3,3.2-1.6,5.3-3.4,6.3
			c-0.1,0.1-0.3,0.1-0.5,0.2l-3.2,1.4c-2,0.9-4.5,0.5-7.2-1.4c-5.4-3.8-9.2-12.2-8.6-18.8C200.3,179.4,201.7,177.1,203.8,176.3z"/>
		<path class="st11" d="M215.8,202.9c4.2-1.9,4.9-9.5,1.6-16.8c-3.4-7.3-9.5-11.7-13.7-9.8c-4.2,1.9-4.9,9.5-1.6,16.8
			C205.4,200.4,211.5,204.8,215.8,202.9z"/>
		<path class="st9" d="M214.4,199.9c3.3-1.5,3.8-7.4,1.2-13.1c-2.6-5.7-7.4-9.1-10.7-7.6c-3.3,1.5-3.8,7.4-1.2,13.1
			C206.3,198,211.1,201.4,214.4,199.9z"/>
		<path class="st10" d="M208.5,184.3l-1.3-0.9l-0.8,8.7c0,0.1,0,0.2,0.1,0.4c0.1,0.1,0.1,0.2,0.2,0.3l6.1,4.3c0,0,0.1,0,0.1,0.1
			s0.1,0,0.1,0c0,0,0.1,0,0.1-0.1c0,0,0-0.1,0-0.1l1-10.3c0-0.1,0-0.2-0.1-0.3c-0.1-0.1-0.1-0.2-0.2-0.3l-4.8-3.4l-0.1,1.6
			C208.8,184.4,208.6,184.4,208.5,184.3z M208.1,191.2c0-0.1,0.1-0.1,0.2-0.1l3.3,2.3c0,0,0.1,0.1,0.1,0.1c0,0,0,0.1,0,0.2
			c0,0.1-0.1,0.1-0.2,0.1l-3.3-2.3c0,0-0.1-0.1-0.1-0.1C208.1,191.3,208.1,191.3,208.1,191.2z M207.5,189.6c0-0.1,0.1-0.1,0.2-0.1
			l4.7,3.3c0,0,0.1,0.1,0.1,0.1c0,0,0,0.1,0,0.1c0,0.1-0.1,0.1-0.2,0.1l-4.7-3.3c0,0-0.1-0.1-0.1-0.1
			C207.5,189.7,207.5,189.7,207.5,189.6z M211.7,191.6l-3.3-2.3c0,0-0.1-0.1-0.1-0.1c0,0,0-0.1,0-0.1c0-0.1,0.1-0.1,0.2-0.1l3.3,2.3
			c0,0,0.1,0.1,0.1,0.1c0,0,0,0.1,0,0.1C211.9,191.6,211.8,191.6,211.7,191.6z M207.7,187.4c0-0.1,0.1-0.1,0.2-0.1l4.7,3.3
			c0,0,0.1,0.1,0.1,0.1c0,0,0,0.1,0,0.2c0,0.1-0.1,0.1-0.2,0.1l-4.7-3.3c0,0-0.1-0.1-0.1-0.1S207.7,187.4,207.7,187.4z M211.9,189.4
			l-3.3-2.3c0,0-0.1-0.1-0.1-0.1c0,0,0-0.1,0-0.1c0-0.1,0.1-0.1,0.2-0.1l3.3,2.3c0,0,0.1,0.1,0.1,0.1c0,0,0,0.1,0,0.2
			C212.1,189.3,212,189.4,211.9,189.4L211.9,189.4z M208.1,185l4.7,3.3c0,0,0.1,0.1,0.1,0.1c0,0,0,0.1,0,0.1c0,0.1-0.1,0.1-0.2,0.1
			l-4.7-3.3c0,0-0.1-0.1-0.1-0.1c0,0,0-0.1,0-0.1C208,185,208,185,208.1,185z"/>
		<path class="st10" d="M208.2,183.8l-1.1-0.8l1.4-0.7l-0.1,1.3C208.5,183.8,208.4,183.8,208.2,183.8z"/>
		<path class="st10" d="M205,179.3c-1,1.1-1.6,2.6-1.7,4.2c-0.5,5.1,2.5,11.6,6.7,14.6c2.1,1.5,4,1.8,5.6,1.1
			c-1.6,1.6-4.1,1.6-6.8-0.3c-2.2-1.7-3.9-4-5.1-6.5c-1.2-2.5-1.7-5.3-1.6-8.1C202.4,181.7,203.4,180,205,179.3z"/>
		<path class="st12" d="M171.7,86.7l6.4-3c3.2-1.8,7.4-1.2,12,2c8.5,6,14.6,19.4,13.6,29.8c-0.5,5.3-2.7,8.8-5.9,10.2l-7.2,3.3
			c-3.2,1.8-7.5,1.3-12-1.9c-8.5-6-14.6-19.4-13.6-29.8C165.4,91.4,168,87.7,171.7,86.7z"/>
		<g class="st7">
			<path d="M197.6,125.6c2.4-1.7,4.1-4.9,4.6-9.4c1-10.4-5.1-23.7-13.7-29.8c-4.5-3.2-8.8-3.7-12-2l-6.4,3c-0.2,0.1-0.5,0.2-0.7,0.2
				c0.7-0.5,1.5-0.9,2.3-1.1l6.4-3c3.2-1.8,7.4-1.2,12,2c8.5,6,14.6,19.4,13.6,29.8c-0.5,5.3-2.7,8.8-5.9,10.2L197.6,125.6z"/>
		</g>
		<path class="st13" d="M190,129.1c6.7-3.1,7.8-15,2.5-26.6c-5.3-11.6-15.1-18.6-21.8-15.5c-6.7,3.1-7.8,15-2.5,26.6
			C173.5,125.3,183.3,132.2,190,129.1z"/>
		<path class="st12" d="M169.7,94.6l3.5-1.6c2.3-1.1,5.2-0.7,8.4,1.5c6.1,4.3,10.5,13.9,9.8,21.4c-0.3,3.6-1.8,6-3.9,7.1
			c-0.2,0.1-0.3,0.2-0.5,0.2l-3.6,1.6c-2.2,1-5.2,0.6-8.2-1.6c-6.1-4.3-10.5-13.9-9.8-21.3C165.7,98.1,167.4,95.6,169.7,94.6z"/>
		<path class="st13" d="M183.4,125c4.8-2.2,5.6-10.8,1.8-19.1c-3.8-8.4-10.8-13.3-15.7-11.1c-4.8,2.2-5.6,10.8-1.8,19.1
			C171.5,122.2,178.5,127.2,183.4,125z"/>
		<path class="st9" d="M181.8,121.6c3.8-1.7,4.4-8.4,1.4-14.9c-3-6.5-8.4-10.4-12.2-8.7c-3.8,1.7-4.4,8.4-1.4,14.9
			C172.6,119.5,178.1,123.3,181.8,121.6z"/>
		<path class="st12" d="M172.2,103.3c1.1-1.4,3.1-1.5,5.1-0.1c1.4,1.1,2.6,2.5,3.4,4.1l-4,1.9C175.1,107.2,173.5,105,172.2,103.3z"
			/>
		<path class="st12" d="M172.8,105.4c1.4,1.9,2.8,3.7,3.4,4.5l-1.2,5.8c-1.3-1.3-2.3-2.8-2.9-4.4c-0.7-1.7-1-3.5-0.9-5.2
			c0.1-0.7,0.2-1.4,0.5-2L172.8,105.4z"/>
		<path class="st12" d="M177.1,110.4l4.2-2c0.7,1.7,1.1,3.5,0.9,5.4c-0.3,3.7-3.1,4.9-6.1,2.8l-0.2-0.2L177.1,110.4z"/>
		<path class="st12" d="M171.1,98.1c-1.2,1.3-1.8,3-1.9,4.7c-0.6,5.8,2.9,13.3,7.6,16.7c2.4,1.7,4.6,2,6.4,1.2
			c-1.8,1.8-4.7,1.8-7.7-0.3c-4.8-3.4-8.2-10.8-7.6-16.6C168.1,100.8,169.3,98.8,171.1,98.1z"/>
		<path class="st12" d="M211.4,114.6l6.4-3c3.2-1.8,7.4-1.2,12,1.9c8.5,6,14.6,19.4,13.7,29.8c-0.5,5.3-2.7,8.8-5.9,10.2l-7.2,3.3
			c-3.2,1.8-7.5,1.3-12.1-1.9c-8.5-6-14.6-19.4-13.7-29.8C205.1,119.4,207.7,115.7,211.4,114.6z"/>
		<g class="st7">
			<path d="M237.3,153.6c2.5-1.7,4.1-4.9,4.6-9.4c1-10.4-5.2-23.7-13.7-29.8c-4.5-3.2-8.8-3.7-11.9-1.9l-6.4,3l-0.7,0.2
				c0.7-0.5,1.5-0.9,2.3-1.1l6.4-3c3.2-1.8,7.4-1.2,12,1.9c8.5,6,14.6,19.4,13.7,29.8c-0.5,5.3-2.7,8.8-5.9,10.2L237.3,153.6z"/>
		</g>
		<path class="st13" d="M229.7,157.1c6.7-3.1,7.8-15,2.5-26.6S217,111.9,210.3,115c-6.7,3.1-7.8,15-2.5,26.6S223,160.2,229.7,157.1z
			"/>
		<path class="st12" d="M209.4,122.6l3.5-1.6c2.2-1.1,5.2-0.7,8.4,1.5c6.1,4.3,10.5,13.9,9.8,21.4c-0.3,3.6-1.8,6.1-3.9,7.1
			c-0.2,0.1-0.4,0.2-0.5,0.2l-3.6,1.6c-2.2,1-5.1,0.6-8.2-1.6c-6.1-4.3-10.5-13.9-9.9-21.3C205.4,126.1,207,123.6,209.4,122.6z"/>
		<path class="st13" d="M223.1,152.9c4.8-2.2,5.6-10.8,1.8-19.1c-3.8-8.3-10.9-13.3-15.7-11.1c-4.8,2.2-5.6,10.8-1.8,19.1
			C211.2,150.2,218.2,155.1,223.1,152.9z"/>
		<path class="st9" d="M221.5,149.6c3.8-1.7,4.4-8.4,1.4-14.9c-3-6.5-8.5-10.4-12.2-8.6c-3.8,1.7-4.4,8.4-1.4,14.9
			S217.8,151.3,221.5,149.6z"/>
		<path class="st12" d="M215.4,138.2c0.2,0.5,0.5,0.9,0.8,1.3l-0.4,0.2c-0.4,0.2-1.1-0.3-1.4-1c-0.4-0.8-0.3-1.6,0.2-1.8l0.4-0.2
			C215,137.3,215.2,137.8,215.4,138.2z"/>
		<path class="st12" d="M214,138.9c0.1,0.3,0.3,0.5,0.5,0.7l-1.8,0.8c-0.2,0.1-0.6-0.1-0.8-0.6c-0.2-0.4-0.2-0.9,0.1-1l1.8-0.8
			C213.8,138.3,213.9,138.6,214,138.9z"/>
		<path class="st12" d="M216.3,132c-1.5,0.7-1.8,3.4-0.6,6.1s3.4,4.2,5,3.5s1.8-3.4,0.6-6.1S217.8,131.3,216.3,132z M216.9,133.4
			c1.1-0.5,2.6,0.6,3.5,2.4c0.8,1.8,0.7,3.7-0.4,4.2c-1.1,0.5-2.6-0.6-3.5-2.5C215.7,135.8,215.9,134,216.9,133.4L216.9,133.4z"/>
		<path class="st12" d="M210.7,126c-1.2,1.3-1.8,3-1.9,4.7c-0.5,5.8,2.9,13.3,7.7,16.6c2.4,1.7,4.6,2,6.4,1.2
			c-1.8,1.8-4.7,1.9-7.7-0.3c-4.8-3.4-8.2-10.8-7.6-16.6C207.7,128.8,209,126.8,210.7,126z"/>
		<path class="st14" d="M177.6,6.2l9.9-4.7c4.9-2.7,11.4-1.9,18.3,3c13.1,9.3,22.5,29.7,21,45.7c-0.8,8.1-4.1,13.5-9,15.6l-11.1,5.1
			c-4.9,2.8-11.5,2-18.5-2.9c-13.1-9.3-22.5-29.7-21-45.7C168,13.5,172,7.9,177.6,6.2z"/>
		<g class="st7">
			<path d="M217.4,66c3.8-2.6,6.3-7.5,7-14.5c1.5-16-7.9-36.4-21-45.7c-6.9-4.9-13.5-5.7-18.3-3l-9.9,4.7c-0.4,0.1-0.7,0.2-1.1,0.4
				c1.1-0.8,2.2-1.3,3.5-1.7l9.9-4.7c4.9-2.7,11.4-1.9,18.3,3c13.1,9.3,22.5,29.7,21,45.7c-0.8,8.1-4.1,13.5-9,15.6L217.4,66z"/>
		</g>
		<path class="st12" d="M205.8,71.4c10.3-4.7,12-23,3.8-40.9C201.3,12.7,186.3,2.1,176,6.8c-10.3,4.7-12,23-3.8,40.9
			C180.5,65.5,195.5,76.1,205.8,71.4z"/>
		<path class="st14" d="M174.6,18.5c1.3-0.6,4.1-1.9,5.4-2.4c3.5-1.7,8-1.1,12.9,2.3c9.4,6.7,16.2,21.3,15.1,32.8
			c-0.5,5.5-2.8,9.3-6,11c-0.3,0.1-0.5,0.3-0.8,0.4l-5.5,2.5c-3.4,1.6-7.9,0.9-12.6-2.4c-9.4-6.7-16.2-21.3-15.1-32.8
			C168.4,23.8,171,19.9,174.6,18.5z"/>
		<path class="st12" d="M195.6,65c7.4-3.4,8.6-16.5,2.7-29.4c-5.9-12.8-16.7-20.4-24.1-17c-7.4,3.4-8.6,16.5-2.7,29.4
			C177.4,60.8,188.2,68.4,195.6,65z"/>
		<path class="st9" d="M193.2,59.9c5.8-2.6,6.7-12.9,2.1-22.8c-4.6-10-13-15.9-18.7-13.3c-5.8,2.6-6.7,12.9-2.1,22.8
			C179.1,56.6,187.5,62.5,193.2,59.9z"/>
		<path class="st14" d="M176.7,23.7c-1.8,2-2.8,4.6-2.9,7.3c-0.8,8.9,4.4,20.4,11.8,25.5c3.6,2.6,7.1,3.1,9.8,1.9
			c-2.8,2.8-7.2,2.8-11.8-0.5c-7.3-5.2-12.6-16.6-11.8-25.5C172.1,27.9,174,24.9,176.7,23.7z"/>
		<path class="st14" d="M186.7,31.3l-2.6,3.7c0,0-0.1,0.1-0.1,0.1c0,0-0.1,0-0.1,0c0,0-0.1,0-0.1,0c0,0-0.1,0-0.1-0.1l-4.8-2.5
			c-0.5-0.2-0.7,0.3-0.4,0.9l3,6.5c0.1,0.2,0.1,0.4,0.1,0.7l-1.3,5.2c-0.1,0.5,0.3,1.2,0.7,1.2l4.5,0.3c0.1,0,0.2,0.1,0.3,0.1
			c0.1,0.1,0.2,0.1,0.2,0.2l4,5.7c0.4,0.5,0.9,0.4,0.8-0.1l-0.2-6.2c0-0.1,0-0.2,0-0.3c0-0.1,0.1-0.2,0.2-0.2l3.8-1.6
			c0.4-0.1,0.2-0.9-0.2-1.3l-4.6-4.2c-0.2-0.2-0.3-0.4-0.4-0.6l-1.6-6.7C187.5,31.4,186.9,31,186.7,31.3z"/>
		<path class="st12" d="M132.1,58.2l6.4-3c3.2-1.8,7.4-1.2,11.9,2c8.5,6,14.6,19.4,13.7,29.8c-0.5,5.3-2.7,8.8-5.9,10.2l-7.2,3.2
			c-3.2,1.8-7.5,1.3-12-1.9c-8.5-6-14.6-19.4-13.7-29.8C125.8,63,128.4,59.3,132.1,58.2z"/>
		<g class="st7">
			<path d="M158,97.2c2.5-1.7,4.1-4.9,4.6-9.4c1-10.4-5.1-23.7-13.6-29.8c-4.5-3.2-8.8-3.7-12-2l-6.4,3c-0.2,0.1-0.5,0.2-0.7,0.2
				c0.7-0.5,1.5-0.9,2.3-1.1l6.4-3c3.2-1.8,7.4-1.2,11.9,2c8.5,6,14.6,19.4,13.7,29.8c-0.5,5.3-2.7,8.8-5.9,10.2L158,97.2z"/>
		</g>
		<path class="st13" d="M150.4,100.7c6.7-3.1,7.8-15,2.5-26.6c-5.3-11.6-15.1-18.6-21.8-15.5c-6.7,3.1-7.8,15-2.5,26.6
			C133.9,96.8,143.6,103.8,150.4,100.7z"/>
		<path class="st12" d="M130.1,66.2l3.5-1.6c2.3-1.1,5.2-0.7,8.4,1.5c6.1,4.3,10.5,13.9,9.8,21.4c-0.3,3.6-1.8,6-3.9,7.1
			c-0.2,0.1-0.3,0.2-0.5,0.2l-3.6,1.6c-2.2,1-5.2,0.6-8.2-1.6c-6.1-4.4-10.5-13.9-9.8-21.4C126.1,69.7,127.7,67.2,130.1,66.2z"/>
		<path class="st13" d="M143.7,96.5c4.8-2.2,5.6-10.8,1.8-19.1c-3.8-8.4-10.8-13.3-15.7-11.1s-5.6,10.8-1.8,19.1
			C131.9,93.8,138.9,98.7,143.7,96.5z"/>
		<path class="st9" d="M142.2,93.2c3.8-1.7,4.4-8.4,1.4-14.9c-3-6.5-8.4-10.4-12.2-8.7c-3.8,1.7-4.4,8.4-1.4,14.9
			C133,91,138.4,94.9,142.2,93.2z"/>
		<path class="st12" d="M140.2,81.5c-0.5,0.8-1.3,1.2-2,0.6c-0.9-0.9-1.5-2-1.7-3.3c-0.4-0.5-0.7-1.2-0.8-1.9
			c-0.1-0.7,0.1-1.1,0.5-1v-0.2c-0.4-0.9-0.5-1.8-0.6-2.8c0,0,0.2,0.6,1.7,0.8c1.5,0.2,2.9,1.7,3.5,2.9c0.3,0.8,0.4,1.8,0.1,2.6
			c0.2,0.2,0.3,0.5,0.3,0.7c0,0.3,0,0.5-0.1,0.8C141,81.3,140.5,81.7,140.2,81.5z"/>
		<path class="st12" d="M135.9,81.6c0.1,0,0.2,0.1,0.3,0.1c0.1,0,0.2,0,0.3,0c0.1,0,0.2-0.1,0.2-0.2c0.1-0.1,0.1-0.2,0.1-0.2
			c0.3,0.6,0.7,1.2,1.2,1.6c0.2,0.1,0.4,0.2,0.7,0.3c0.2,0,0.5,0,0.7-0.1c0.1,0.6,0.4,1.1,0.8,1.6c1.3,1.4,2.5,2.1,2.6,4.7
			c0,0.6-0.3,0.9-0.8,0.8c-1.6-0.6-3-1.4-4.4-2.4c-1.6-1.1-3-2.3-4.3-3.7c-0.2-0.2-0.4-0.5-0.4-0.8c-0.1-0.3-0.1-0.6-0.1-0.9
			C133.4,80.1,134.5,81.1,135.9,81.6z"/>
		<path class="st12" d="M131.4,69.6c-1.2,1.3-1.8,3-1.9,4.7c-0.5,5.8,2.9,13.3,7.6,16.7c2.4,1.7,4.6,2,6.4,1.3
			c-1.8,1.8-4.7,1.8-7.7-0.3c-4.8-3.4-8.2-10.8-7.6-16.7C128.4,72.4,129.7,70.4,131.4,69.6z"/>
		<path class="st10" d="M240.1,193.8l5.6-2.7c2.8-1.5,6.5-1.1,10.5,1.7c7.5,5.3,12.8,17,12,26.1c-0.4,4.6-2.4,7.7-5.2,8.9l-6.3,2.9
			c-2.8,1.6-6.6,1.2-10.6-1.7c-7.5-5.3-12.8-17-12-26.1C234.6,197.9,236.9,194.7,240.1,193.8z"/>
		<g class="st7">
			<path d="M262.8,228c2.2-1.5,3.6-4.3,4-8.2c0.9-9.1-4.5-20.8-12-26.1c-3.9-2.8-7.7-3.3-10.5-1.7l-5.6,2.7
				c-0.2,0.1-0.4,0.1-0.6,0.2c0.6-0.4,1.3-0.8,2-1l5.6-2.7c2.8-1.5,6.5-1.1,10.5,1.7c7.5,5.3,12.8,17,12,26.1
				c-0.4,4.6-2.4,7.7-5.2,8.9L262.8,228z"/>
		</g>
		<path class="st11" d="M256.1,231c5.9-2.7,6.9-13.2,2.2-23.4c-4.7-10.2-13.2-16.3-19.1-13.6c-5.9,2.7-6.9,13.2-2.2,23.4
			C241.7,227.6,250.2,233.7,256.1,231z"/>
		<path class="st10" d="M238.3,200.8l3.1-1.4c2-1,4.6-0.6,7.3,1.3c5.4,3.8,9.2,12.2,8.6,18.8c-0.3,3.2-1.6,5.3-3.4,6.3
			c-0.2,0.1-0.3,0.2-0.5,0.2l-3.2,1.4c-2,0.9-4.5,0.5-7.2-1.4c-5.4-3.8-9.2-12.2-8.6-18.8C234.8,203.8,236.3,201.6,238.3,200.8z"/>
		<path class="st11" d="M250.3,227.4c4.2-1.9,4.9-9.5,1.6-16.8c-3.4-7.3-9.5-11.7-13.7-9.8c-4.2,1.9-4.9,9.5-1.6,16.8
			C239.9,224.9,246.1,229.3,250.3,227.4z"/>
		<path class="st9" d="M249,224.4c3.3-1.5,3.8-7.4,1.2-13.1c-2.6-5.7-7.4-9.1-10.7-7.6c-3.3,1.5-3.8,7.4-1.2,13.1
			C240.9,222.5,245.7,225.9,249,224.4z"/>
		<path class="st10" d="M239.7,210.1c-0.1,1.8,0.3,3.6,1,5.3c0.8,1.7,1.9,3.1,3.3,4.3c2.7,1.9,5.2,0.8,5.5-2.6
			c0.1-1.8-0.3-3.6-1.1-5.3c-0.8-1.7-1.9-3.1-3.3-4.3C242.4,205.6,240,206.8,239.7,210.1z M240.9,211c0.2-2.5,2.1-3.4,4.1-1.9
			c1.1,0.8,1.9,1.9,2.5,3.2c0.6,1.2,0.8,2.6,0.8,4c-0.2,2.5-2.1,3.4-4.1,1.9c-1.1-0.9-1.9-1.9-2.5-3.2
			C241.1,213.7,240.9,212.4,240.9,211L240.9,211z"/>
		<path class="st10" d="M244.7,210l0.5,0.4l-0.1,0.9c0.3,0.3,0.5,0.6,0.7,1c0.2,0.4,0.2,0.8,0.2,1.2c0,0.1,0,0.2-0.1,0.3
			c0,0.1-0.1,0.2-0.2,0.3c-0.1,0.1-0.2,0.1-0.3,0.1c-0.1,0-0.2,0-0.3,0c-0.5,0-0.9-0.2-1,0.2c0,0.2,0.1,0.4,0.1,0.5
			c0.1,0.2,0.2,0.3,0.4,0.4c0.3,0.2,0.7,0.2,1,0.2l0.4,1.3c-0.2,0.1-0.5,0.1-0.8,0c-0.2-0.1-0.5-0.2-0.7-0.3l-0.1,0.9l-0.5-0.4
			l0.1-0.9c-0.3-0.3-0.6-0.6-0.7-1c-0.2-0.4-0.2-0.8-0.2-1.3c0.1-0.7,0.6-0.8,1.1-0.7c0.5,0.1,0.9,0.2,0.9-0.1c0-0.2,0-0.3-0.1-0.4
			c-0.1-0.1-0.2-0.2-0.3-0.3c-0.2-0.2-0.5-0.3-0.8-0.2l-0.3-1.1c0.4,0,0.7,0.1,1,0.3L244.7,210z"/>
		<path class="st10" d="M239.5,203.8c-1,1.1-1.6,2.6-1.7,4.1c-0.1,2.8,0.4,5.6,1.6,8.1c1.2,2.5,2.9,4.8,5.1,6.5
			c2.1,1.5,4.1,1.8,5.6,1.1c-1.6,1.6-4.1,1.6-6.8-0.3c-4.2-3-7.2-9.5-6.7-14.6C236.9,206.2,238,204.5,239.5,203.8z"/>
		<path class="st10" d="M101.9,95.8l5.6-2.7c2.8-1.5,6.5-1.1,10.5,1.7c7.5,5.3,12.8,17,12,26.1c-0.4,4.6-2.4,7.7-5.2,8.9l-6.3,2.9
			c-2.8,1.6-6.6,1.2-10.6-1.7c-7.5-5.3-12.8-17-12-26.1C96.4,100,98.7,96.8,101.9,95.8z"/>
		<g class="st7">
			<path d="M124.6,130c2.2-1.5,3.6-4.3,4-8.3c0.9-9.1-4.5-20.8-12-26.1c-3.9-2.8-7.7-3.3-10.5-1.7l-5.6,2.7
				c-0.2,0.1-0.4,0.1-0.6,0.2c0.6-0.4,1.3-0.8,2-1l5.6-2.7c2.8-1.5,6.5-1.1,10.5,1.7c7.5,5.3,12.8,17,12,26.1
				c-0.4,4.6-2.4,7.7-5.2,8.9L124.6,130z"/>
		</g>
		<path class="st11" d="M117.9,133.1c5.9-2.7,6.9-13.2,2.2-23.4c-4.7-10.2-13.2-16.3-19.1-13.6c-5.9,2.7-6.9,13.2-2.2,23.4
			C103.5,129.7,112.1,135.8,117.9,133.1z"/>
		<path class="st10" d="M100.2,102.8l3.1-1.4c2-1,4.6-0.6,7.3,1.3c5.4,3.8,9.2,12.2,8.6,18.8c-0.3,3.2-1.6,5.3-3.4,6.3l-0.5,0.2
			l-3.2,1.4c-2,0.9-4.5,0.5-7.2-1.4c-5.4-3.8-9.2-12.2-8.6-18.8C96.6,105.9,98.1,103.7,100.2,102.8z"/>
		<path class="st11" d="M112.1,129.4c4.2-1.9,4.9-9.5,1.6-16.8c-3.4-7.3-9.5-11.7-13.7-9.8c-4.2,1.9-4.9,9.5-1.6,16.8
			C101.7,127,107.9,131.4,112.1,129.4z"/>
		<path class="st9" d="M110.8,126.5c3.3-1.5,3.8-7.4,1.2-13.1c-2.6-5.7-7.4-9.1-10.7-7.6c-3.3,1.5-3.8,7.4-1.2,13.1
			C102.7,124.6,107.5,128,110.8,126.5z"/>
		<path class="st10" d="M101.3,105.8c-1,1.2-1.6,2.6-1.7,4.2c-0.5,5.1,2.5,11.6,6.7,14.6c2.1,1.5,4,1.8,5.6,1.1
			c-1.6,1.6-4.1,1.6-6.8-0.3c-4.2-3-7.2-9.5-6.7-14.6C98.7,108.2,99.8,106.5,101.3,105.8z"/>
		<path class="st10" d="M110.5,115.7l-3.9-2.8c0,0-0.9-1.6-0.9-1.5l-1.9-1.4c0,0-0.1,0-0.1,0c0,0-0.1,0-0.1,0l-0.8,0.6v-0.4
			c0-0.1,0.1-0.2,0.1-0.3l0.8-0.6c0,0,0.1,0,0.1,0c0,0,0.1,0,0.1,0l1.9,1.3l0.9,1.5l3.8,2.7c0.2,0.1,0.3,0.3,0.4,0.6
			c0.1,0.2,0.1,0.5,0.1,0.7v0.4C111,116.2,110.8,115.9,110.5,115.7z"/>
		<path class="st10" d="M102.8,111.4l0.8-0.6c0,0,0.1,0,0.1,0c0,0,0.1,0,0.1,0l1.9,1.3c0,0,0.9,1.5,0.9,1.5l3.8,2.7
			c0.2,0.1,0.3,0.3,0.4,0.6c0.1,0.2,0.1,0.5,0.1,0.7l-0.4,4.7c0,0.1,0,0.2-0.1,0.2c0,0.1-0.1,0.1-0.2,0.2c-0.1,0-0.2,0-0.3,0
			c-0.1,0-0.2-0.1-0.2-0.1l-7-4.9c-0.2-0.1-0.3-0.3-0.4-0.6c-0.1-0.2-0.1-0.5-0.1-0.7l0.4-4.7C102.7,111.7,102.7,111.5,102.8,111.4z
			"/>
		<path class="st10" d="M136.4,120.3l5.6-2.7c2.8-1.5,6.5-1.1,10.5,1.7c7.5,5.3,12.8,17,12,26.1c-0.4,4.6-2.4,7.7-5.2,8.9l-6.3,2.9
			c-2.8,1.6-6.6,1.2-10.6-1.7c-7.5-5.3-12.8-17-12-26.1C131,124.4,133.2,121.2,136.4,120.3z"/>
		<g class="st7">
			<path d="M159.1,154.5c2.2-1.5,3.6-4.3,4-8.3c0.9-9.1-4.5-20.8-12-26.1c-4-2.8-7.7-3.2-10.5-1.7l-5.6,2.7
				c-0.2,0.1-0.4,0.1-0.6,0.2c0.6-0.4,1.3-0.8,2-1l5.6-2.7c2.8-1.5,6.5-1.1,10.5,1.7c7.5,5.3,12.8,17,12,26.1
				c-0.4,4.6-2.4,7.7-5.2,8.9L159.1,154.5z"/>
		</g>
		<path class="st11" d="M152.5,157.6c5.9-2.7,6.9-13.2,2.2-23.4c-4.7-10.2-13.2-16.3-19.1-13.6c-5.9,2.7-6.9,13.2-2.2,23.4
			C138,154.2,146.6,160.3,152.5,157.6z"/>
		<path class="st10" d="M134.7,127.3l3.1-1.4c2-1,4.6-0.6,7.3,1.3c5.4,3.8,9.2,12.2,8.6,18.8c-0.3,3.2-1.6,5.3-3.4,6.3l-0.5,0.2
			l-3.2,1.4c-2,0.9-4.5,0.5-7.2-1.4c-5.4-3.8-9.2-12.2-8.6-18.8C131.2,130.4,132.6,128.1,134.7,127.3z"/>
		<path class="st11" d="M146.7,153.9c4.2-1.9,4.9-9.5,1.6-16.8c-3.4-7.3-9.5-11.7-13.7-9.8c-4.2,1.9-4.9,9.5-1.6,16.8
			C136.3,151.5,142.4,155.8,146.7,153.9z"/>
		<path class="st9" d="M145.3,151c3.3-1.5,3.8-7.4,1.2-13.1s-7.4-9.1-10.7-7.6c-3.3,1.5-3.8,7.4-1.2,13.1
			C137.2,149.1,142,152.5,145.3,151z"/>
		<path class="st10" d="M135.9,130.3c-1,1.1-1.6,2.6-1.7,4.1c-0.5,5.1,2.5,11.6,6.7,14.6c2.1,1.5,4,1.8,5.6,1.1
			c-1.6,1.6-4.1,1.6-6.8-0.3c-4.2-3-7.2-9.5-6.7-14.6C133.3,132.7,134.3,131,135.9,130.3z"/>
		<path class="st10" d="M143.9,137.7c0.9,0.7,1.6,1.6,2.1,2.6c0.5,1,0.7,2.2,0.7,3.3c0,0.4-0.1,0.9-0.4,1.3c-0.2,0.4-0.6,0.7-1,0.8
			c0,0.9,0.3,1.9,0.8,2.7c-1-0.8-1.8-1.8-2.4-2.9c-0.2-0.1-0.3-0.2-0.4-0.3c-0.9-0.7-1.6-1.6-2.1-2.6c-0.5-1-0.7-2.2-0.6-3.3
			C140.7,137.2,142.2,136.5,143.9,137.7z"/>
		<path class="st10" d="M137.1,139.6c-0.5-1-0.8-2-0.7-3.1c0.2-1.8,1.5-2.4,2.9-1.3c0.6,0.4,1.1,1,1.4,1.6c-0.5,0.5-0.8,1.3-0.8,2
			c-0.1,1.1,0.1,2.2,0.5,3.2c-0.3,0.1-0.6,0-0.9,0c-0.3-0.1-0.6-0.2-0.8-0.4c-0.1-0.1-0.3-0.2-0.4-0.3c-0.4,0.1-0.8,0.1-1.2,0
			c-0.4-0.1-0.7-0.3-1.1-0.5C136.6,140.7,136.9,140.2,137.1,139.6z"/>
	</g>
</g>
</svg>
