<?xml version="1.0" encoding="utf-8"?>
<!-- Generator: Adobe Illustrator 25.0.0, SVG Export Plug-In . SVG Version: 6.00 Build 0)  -->
<svg version="1.1" id="Layer_1" xmlns="http://www.w3.org/2000/svg" xmlns:xlink="http://www.w3.org/1999/xlink" x="0px" y="0px"
	 viewBox="0 0 379 336" style="enable-background:new 0 0 379 336;" xml:space="preserve">
<style type="text/css">
	.st0{clip-path:url(#SVGID_2_);}
	.st1{fill:none;stroke:#111111;stroke-miterlimit:10;}
	.st2{fill:#111111;}
	.st3{fill:#1E1E1E;}
	.st4{fill:#D95600;}
	.st5{fill:#FFFFFF;}
	.st6{fill:#FF6601;}
	.st7{fill:#FCFCFC;}
</style>
<g>
	<defs>
		<rect id="SVGID_1_" width="378.8" height="335.2"/>
	</defs>
	<clipPath id="SVGID_2_">
		<use xlink:href="#SVGID_1_"  style="overflow:visible;"/>
	</clipPath>
	<g class="st0">
		<path class="st1" d="M324.6,225.5c20.9,12.1,21,31.6,0.2,43.7l-97.4,56.6c-20.7,12.1-54.5,12.1-75.3,0l-98-56.6
			c-20.9-12.1-21-31.6-0.2-43.7l97.4-56.6c20.7-12,54.5-12,75.3,0L324.6,225.5z"/>
		<path class="st2" d="M359.4,190.5l-122.1,71c-26,15.1-68.3,15.1-94.5,0l-122.9-71C6.6,182.9,0,172.9,0,163v14.1
			c0,10,6.6,19.9,19.7,27.6l122.9,71c26.2,15.1,68.5,15.1,94.5,0l122.1-71c12.9-7.5,19.4-17.3,19.4-27.2v-14.1
			C378.8,173.2,372.3,183,359.4,190.5z"/>
		<path class="st3" d="M359.1,135.8c26.2,15.1,26.3,39.6,0.3,54.8l-122.1,71c-26,15.1-68.3,15.1-94.5,0l-122.9-71
			c-26.2-15.1-26.3-39.6-0.3-54.8l122.1-71c26-15.1,68.3-15.1,94.5,0L359.1,135.8z"/>
		<path class="st4" d="M177.5,154.6l-15.6,9.1c-1.5-1-2.9-2.2-4.3-3.3l15.6-9.1C174.6,152.4,176,153.5,177.5,154.6z"/>
		<path class="st4" d="M177.5,154.6c2.2,1.6,4.6,3.1,6.9,4.4l-15.6,9.1c-2.4-1.4-4.7-2.9-6.9-4.4L177.5,154.6z"/>
		<path class="st4" d="M195.7,193.1l15.7-9.1c-2.1,1.2-4,3.6-6.1,4.9l-15.6,9.1C191.7,196.7,193.6,194.3,195.7,193.1z"/>
		<path class="st4" d="M102.3,26l15.7-9.1c3.2-1.8,9.5,0.5,12.7-1.4L115,24.6C111.8,26.5,105.4,24.2,102.3,26z"/>
		<path class="st4" d="M184.3,159c15.4,8.9,29.4,9.7,39.5,3.9l-15.7,9.1c-10.1,5.9-24.1,5-39.5-3.9L184.3,159z"/>
		<path class="st4" d="M128.9,63c-0.1,30.9,18.9,67.6,44.2,88.2l-15.6,9.1c-25.3-20.6-44.3-57.3-44.2-88.2
			c0-17.5,6.2-29.8,16.2-35.6l15.6-9.1C135.2,33.2,129,45.5,128.9,63z"/>
		<path class="st4" d="M222.8,183.8l15.7-9.1c-0.2,0.1-0.4,0.2-0.5,0.4c-3.2,2.8-2.4,12.7-6,14.8l-15.7,9.1c3.6-2.1,2.8-12,6-14.8
			C222.4,184.1,222.6,183.9,222.8,183.8z"/>
		<path class="st4" d="M121.5,9.5l15.6-9.1c0.2-0.1,0.3-0.2,0.5-0.2c1.9-0.7,4.7,0.7,7.6,2.4l1.7,1l1.8,1.1c2.3,1.3,4.5,2.4,6.3,2.5
			c1,0,1.9-0.3,2.7-0.8l-15.6,9.1c-0.8,0.5-1.7,0.8-2.7,0.8c-1.8,0-4-1.1-6.3-2.5l-1.8-1.1l-1.7-1c-2.9-1.7-5.7-3-7.6-2.4
			C121.8,9.3,121.7,9.4,121.5,9.5z"/>
		<path class="st4" d="M251.1,173.3l-15.7,9.1c0.5-0.3,1-0.8,1.3-1.3c2.3-4.2-2.4-15.4-1.2-20.9l15.6-9.1
			c-1.2,5.4,3.5,16.7,1.2,20.9C252.1,172.6,251.7,173,251.1,173.3z"/>
		<path class="st5" d="M223.9,162.9l-15.7,9.1c10-5.8,16.2-18.1,16.2-35.6l15.7-9.1C240.1,144.7,233.9,157.1,223.9,162.9z"/>
		<path class="st5" d="M129.5,36.5l15.6-9.1c10.1-5.9,24.1-5,39.6,3.9l-15.6,9.1C153.6,31.4,139.6,30.6,129.5,36.5z"/>
		<path class="st5" d="M169.1,40.3l15.6-9.1c30.7,17.7,55.5,60.7,55.4,96l-15.7,9.1C224.6,101,199.8,58.1,169.1,40.3z"/>
		<path class="st4" d="M148.2,10.5l15.7-9.1c0.6-0.4,1.3-0.7,2-0.8c0.7-0.1,1.5,0,2.2,0.2c0.5,0.2,0.9,0.4,1.3,0.6
			c4.9,2.8,10.4,12.1,15.4,15c5,2.9,10.6,0.1,15.5,2.9c0.5,0.3,0.9,0.6,1.3,0.9c5.3,4.4,8.1,15.7,12.9,21.1c1.8,1.9,4,3.6,6.3,4.8
			l1.8,1l1.7,1c2.9,1.7,5.7,3.5,7.6,6.4c4.2,6.3,3.1,15.7,6.4,22.5c3.3,6.8,12.1,12.8,14.4,19.8c2.3,7-2.5,12.6-1.3,19.4
			c1.2,6.6,8.7,16.2,8.7,22.5c0,6.3-7.6,7.2-8.8,12.5l-15.7,9.1c1.2-5.2,8.7-6.1,8.8-12.5c0-6.3-7.5-15.9-8.7-22.5
			c-1.2-6.8,3.6-12.6,1.3-19.4s-11.1-13-14.4-19.8c-3.3-6.8-2.2-16.2-6.4-22.5c-1.9-2.8-4.7-4.7-7.6-6.3c-0.6-0.3-1.1-0.7-1.7-1
			l-1.8-1c-2.3-1.2-4.5-2.9-6.3-4.8c-4.8-5.4-7.6-16.7-12.9-21.1c-0.4-0.4-0.9-0.7-1.3-0.9c-4.9-2.8-10.4,0-15.5-2.9
			c-5-2.9-10.6-12.2-15.4-15c-0.4-0.2-0.9-0.4-1.3-0.6c-0.7-0.2-1.4-0.3-2.2-0.2C149.5,9.9,148.8,10.1,148.2,10.5z"/>
		<path class="st6" d="M235.6,160.3c-1.2,5.4,3.5,16.7,1.2,20.9c-2.3,4.2-11.2,0.2-14.5,3c-3.4,2.9-2.3,13.6-6.5,15
			c-1.9,0.6-4.6-0.7-7.5-2.3c-0.6-0.3-1.2-0.7-1.8-1l-1.8-1c-2.3-1.3-4.6-2.5-6.4-2.5c-4.8-0.1-7.6,7.9-13,6.2
			c-0.5-0.2-0.9-0.4-1.3-0.6c-4.9-2.8-10.4-12.1-15.4-15c-5-2.9-10.6-0.1-15.4-2.9c-0.5-0.3-0.9-0.6-1.3-0.9
			c-5.3-4.4-8.1-15.7-12.9-21.1c-1.8-1.9-4-3.6-6.4-4.8c-0.6-0.3-1.2-0.7-1.8-1l-1.7-1c-2.9-1.7-5.6-3.5-7.5-6.3
			c-4.2-6.3-3.1-15.7-6.4-22.5c-3.3-6.8-12.1-12.8-14.4-19.8c-2.3-7,2.5-12.6,1.3-19.4c-1.2-6.5-8.7-16.1-8.7-22.5
			c0-6.4,7.6-7.2,8.8-12.5c1.2-5.4-3.5-16.7-1.2-20.8c2.3-4.2,11.1-0.2,14.5-3c3.4-2.9,2.3-13.6,6.5-15c1.9-0.6,4.7,0.7,7.5,2.4
			l1.7,1l1.8,1.1c2.3,1.3,4.5,2.4,6.3,2.5c4.8,0.1,7.6-7.9,12.9-6.2c0.5,0.2,0.9,0.4,1.3,0.6c4.9,2.8,10.4,12.1,15.4,15
			s10.6,0.1,15.5,2.9c0.5,0.3,0.9,0.6,1.3,0.9c5.3,4.5,8.1,15.7,12.9,21.1c1.8,1.9,4,3.5,6.3,4.8l1.8,1c0.6,0.3,1.1,0.6,1.7,1
			c2.9,1.7,5.6,3.5,7.5,6.4c4.2,6.3,3.1,15.7,6.4,22.5c3.3,6.8,12.1,12.8,14.5,19.7s-2.5,12.6-1.3,19.4c1.2,6.6,8.7,16.2,8.7,22.5
			C244.4,154.1,236.8,155,235.6,160.3z M168.7,168.1c30.7,17.7,55.7,3.5,55.8-31.8c0.1-35.3-24.7-78.2-55.4-96s-55.7-3.5-55.8,31.8
			S138,150.3,168.7,168.1z"/>
		<path class="st7" d="M169.1,40.3c30.7,17.7,55.5,60.7,55.4,96c-0.1,35.3-25.1,49.5-55.8,31.8s-55.5-60.7-55.4-96
			S138.4,22.6,169.1,40.3z"/>
		<path class="st6" d="M172.3,108.5c12.8,7.4,23.1,25.3,23.1,40c0,5.4-3.8,7.6-8.5,4.9l-36-20.8c-4.7-2.7-8.5-9.3-8.5-14.7
			c0-14.7,10.4-20.6,23.2-13.2L172.3,108.5z"/>
		<path class="st6" d="M169.1,65.2c8.1,4.7,14.8,16.1,14.7,25.5c0,9.4-6.7,13.2-14.8,8.4S154.2,83,154.2,73.6
			C154.3,64.2,160.9,60.5,169.1,65.2z"/>
	</g>
</g>
</svg>
