<?xml version="1.0" encoding="utf-8"?>
<!-- Generator: Adobe Illustrator 25.0.0, SVG Export Plug-In . SVG Version: 6.00 Build 0)  -->
<svg version="1.1" id="Layer_1" xmlns="http://www.w3.org/2000/svg" xmlns:xlink="http://www.w3.org/1999/xlink" x="0px" y="0px"
	 viewBox="0 0 379 350" style="enable-background:new 0 0 379 350;" xml:space="preserve">
<style type="text/css">
	.st0{clip-path:url(#SVGID_2_);}
	.st1{fill:none;stroke:#111111;stroke-miterlimit:10;}
	.st2{fill:#111111;}
	.st3{fill:#1E1E1E;}
	.st4{fill:#D95600;}
	.st5{fill:#FF6601;}
	.st6{opacity:0.1;fill:#B9B0C0;enable-background:new    ;}
	.st7{fill:#D3DBFF;}
	.st8{fill:url(#SVGID_3_);}
	.st9{fill:url(#SVGID_4_);}
	.st10{fill:url(#SVGID_5_);}
	.st11{fill:#FF9C78;}
	.st12{fill:url(#SVGID_6_);}
	.st13{fill:url(#SVGID_7_);}
	.st14{fill:#454A5F;}
	.st15{fill:#212430;}
	.st16{fill:#6E717C;}
	.st17{fill:#3B4157;}
	.st18{fill:#553012;}
	.st19{fill:url(#SVGID_8_);}
	.st20{fill:#AACCF0;}
	.st21{fill:url(#SVGID_9_);}
</style>
<g>
	<defs>
		<rect id="SVGID_1_" width="378.8" height="349.4"/>
	</defs>
	<clipPath id="SVGID_2_">
		<use xlink:href="#SVGID_1_"  style="overflow:visible;"/>
	</clipPath>
	<g class="st0">
		<path class="st1" d="M324.6,239.6c20.9,12,21,31.6,0.2,43.6l-97.4,56.6c-20.7,12.1-54.5,12.1-75.3,0l-98-56.6
			c-20.9-12.1-21-31.6-0.2-43.6l97.4-56.6c20.7-12,54.5-12,75.3,0L324.6,239.6z"/>
		<path class="st2" d="M359.4,204.7l-122.1,71c-26,15.1-68.3,15.1-94.5,0l-122.9-71C6.6,197.1,0,187.1,0,177.1v14.1
			c0,10,6.6,19.9,19.7,27.6l122.9,71c26.2,15.1,68.5,15.1,94.5,0l122.1-71c12.9-7.5,19.4-17.3,19.4-27.2v-14.1
			C378.8,187.3,372.3,197.2,359.4,204.7z"/>
		<path class="st3" d="M359.1,149.9c26.2,15.1,26.3,39.6,0.3,54.8l-122.1,71c-26,15.1-68.3,15.1-94.5,0l-122.9-71
			c-26.2-15.1-26.3-39.6-0.3-54.8L141.6,79c26-15.1,68.3-15.1,94.5,0L359.1,149.9z"/>
		<path class="st4" d="M169.6,171.6V38.4l11.3-6.5v133.2L169.6,171.6z"/>
		<path class="st5" d="M169.6,171.6l-32.9-18.9V19.4l32.9,18.9V171.6z"/>
		<path class="st5" d="M169.6,38.4l-32.9-18.9l11.4-6.5l32.9,18.9L169.6,38.4z"/>
		<path class="st4" d="M211.9,195.9V89.3l11.4-6.5v106.6L211.9,195.9z"/>
		<path class="st5" d="M211.9,195.9L178.9,177V70.4l32.9,18.9V195.9z"/>
		<path class="st5" d="M211.9,89.3l-32.9-18.9l11.4-6.5l32.9,18.9L211.9,89.3z"/>
		<path class="st4" d="M254.2,220.2v-79.9l11.4-6.5v79.9L254.2,220.2z"/>
		<path class="st5" d="M254.2,220.2l-32.9-18.9v-79.9l32.9,18.9V220.2z"/>
		<path class="st5" d="M254.2,140.3l-32.9-18.9l11.4-6.5l32.9,18.9L254.2,140.3z"/>
		<path class="st6" d="M157.8,208.2c0,4.2-5.8,7.5-13.1,7.5c-7.3,0-13.2-3.4-13.2-7.6c0-4.2,5.8-7.5,13.1-7.5
			C151.9,200.6,157.8,204,157.8,208.2z"/>
		<path class="st7" d="M176,137.7c0.5,0.2,0.5,0.6-0.1,0.9c-0.6,0.3-1.3,0.4-1.9,0.2c-0.5-0.2-0.5-0.6,0.1-0.9
			C174.7,137.6,175.4,137.5,176,137.7z"/>
		<path class="st7" d="M167.2,134.7c-0.2-1,0.5-2.1,2.2-3c2.9-1.6,7.4-2.1,10.1-1.1c0.1,1.4-0.2,2.8-0.8,4c-0.6,1.3-1.6,2.3-2.7,3.1
			c-0.6-0.2-1.3-0.1-1.9,0.2c-0.5,0.3-0.6,0.7-0.1,0.9c0.6,0.2,1.3,0.1,1.9-0.2c0.5-0.3,0.6-0.7,0.1-0.9c1.2-0.8,2.1-1.8,2.7-3.1
			c0.6-1.3,0.9-2.7,0.8-4.1c1.2,0.5,1.9,1.2,1.9,1.9c0.1,1.4-0.2,2.7-1,3.9c-0.8,1.1-1.8,2-3.1,2.6c-1.3,0.6-2.8,0.9-4.3,0.7
			c-1.5-0.2-2.8-0.8-4-1.7C168.1,137,167.5,135.9,167.2,134.7z"/>
		<path class="st7" d="M181.4,132.5c-0.1-0.8-0.7-1.5-1.9-1.9l-0.2-2.7c1.3,0.5,1.9,1.2,2,2C181.3,130.6,181.4,131.6,181.4,132.5z"
			/>
		<path class="st7" d="M166.6,132.1c-0.2-1,0.5-2.2,2.3-3.1c3-1.6,7.6-2.1,10.4-1.1l0.2,2.7c-2.7-1-7.2-0.5-10.1,1.1
			c-1.7,1-2.4,2.1-2.2,3C167,133.8,166.8,133,166.6,132.1z"/>
		<path class="st7" d="M181.2,129.8c-0.1-0.8-0.7-1.5-2-1.9c0-0.2,0-0.4-0.1-0.6c1.2,0.5,1.9,1.1,2,1.9
			C181.2,129.4,181.2,129.6,181.2,129.8z"/>
		<path class="st7" d="M166.5,131.4c-0.1-1,0.6-2.1,2.3-3c3-1.7,7.6-2.2,10.4-1.1c0,0.2,0.1,0.4,0.1,0.5c-2.8-1-7.4-0.5-10.4,1.1
			c-1.7,1-2.5,2.1-2.3,3.1C166.5,131.8,166.5,131.6,166.5,131.4z"/>
		
			<linearGradient id="SVGID_3_" gradientUnits="userSpaceOnUse" x1="181.46" y1="212.9812" x2="167.2138" y2="212.9812" gradientTransform="matrix(1 0 0 -1 0 349)">
			<stop  offset="0.1" style="stop-color:#6063C1"/>
			<stop  offset="0.74" style="stop-color:#9B9EC0"/>
		</linearGradient>
		<path class="st8" d="M171.2,139.1c-1-0.4-1.9-0.9-2.6-1.7c-0.7-0.8-1.2-1.7-1.4-2.7c0.2,0.4,0.4,0.8,0.7,1.1
			c0.3,0.3,0.7,0.5,1.2,0.6c2.7,1,7.2,0.5,10.1-1.1c1.6-0.9,2.3-1.9,2.2-2.8c0.1,1.1-0.1,2.3-0.6,3.3c-0.6,1.1-1.4,2-2.4,2.6
			c-1.1,0.7-2.3,1.1-3.5,1.2c-0.5,0.1-1.1,0.1-1.6,0C172.6,139.5,171.9,139.4,171.2,139.1z"/>
		
			<linearGradient id="SVGID_4_" gradientUnits="userSpaceOnUse" x1="181.46" y1="215.6544" x2="166.6" y2="215.6544" gradientTransform="matrix(1 0 0 -1 0 349)">
			<stop  offset="0.1" style="stop-color:#6063C1"/>
			<stop  offset="0.74" style="stop-color:#9B9EC0"/>
		</linearGradient>
		<path class="st9" d="M167.2,134.7c-0.2-0.9-0.4-1.7-0.6-2.6c0.2,0.7,0.8,1.3,2,1.7c2.8,1,7.4,0.5,10.4-1.1
			c1.6-0.9,2.4-1.9,2.3-2.9c0.1,0.9,0.1,1.8,0.2,2.7s-0.7,1.9-2.2,2.8c-2.9,1.6-7.4,2.1-10.1,1.1c-0.4-0.1-0.8-0.3-1.2-0.6
			C167.6,135.5,167.4,135.1,167.2,134.7z"/>
		
			<linearGradient id="SVGID_5_" gradientUnits="userSpaceOnUse" x1="181.26" y1="217.2372" x2="166.48" y2="217.2372" gradientTransform="matrix(1 0 0 -1 0 349)">
			<stop  offset="0.1" style="stop-color:#6063C1"/>
			<stop  offset="0.74" style="stop-color:#9B9EC0"/>
		</linearGradient>
		<path class="st10" d="M166.6,132.1c0-0.2-0.1-0.4-0.1-0.6c0.1,0.8,0.8,1.4,2,1.9c2.8,1,7.4,0.5,10.4-1.1c1.7-0.9,2.4-2,2.3-3
			c0,0.2,0.1,0.4,0.1,0.6c0.1,1-0.7,2-2.3,2.9c-3,1.6-7.6,2.1-10.4,1.1C167.4,133.4,166.7,132.8,166.6,132.1z"/>
		<path class="st7" d="M181.1,129.1c-0.1-0.7-0.8-1.4-2-1.8l-9.8-51.1c0.8,0.3,1.3,0.7,1.4,1.2L181.1,129.1z"/>
		<path class="st7" d="M160.6,79c-0.1-0.7,0.5-1.4,1.6-2c2.2-1.2,4.8-1.4,7.2-0.8l9.8,51.1c-2.8-1-7.4-0.5-10.4,1.1
			c-1.6,0.9-2.4,2-2.3,2.9C164.5,113.9,162.6,96.4,160.6,79z"/>
		<path class="st11" d="M179.2,118.4c-1-0.2-2.1-0.3-3.1-0.3c-1.1,0-1.8,0-2.1,0.2c-0.1,0.1-0.2,0.2-0.2,0.4s0,0.3,0.1,0.4
			c0.1,0.1,0.2,0.2,0.3,0.3c0.1,0.1,0.3,0.1,0.4,0.1c0.9,0,1.8-0.1,1.8-0.1l1.7,0.6l-0.1,0.6c0,0-4.2-0.6-4.7-0.3
			c-0.1,0.1-0.2,0.2-0.2,0.3c-0.1,0.1-0.1,0.2-0.1,0.3c0,0.1,0,0.2,0.1,0.3c0,0.1,0.1,0.2,0.2,0.3c0.2,0.2,4.4,0.5,4.4,0.5l0.1,0.5
			c-1.5-0.2-3-0.4-4.4-0.4c-0.2,0.2-0.5,0.9,0.2,1.1c0.7,0.2,3.8,0.6,4.1,0.8c0.3,0.2,0.1,0.4,0.1,0.4l-3.3-0.6c0,0-0.7,0.6,0,1.1
			c1.6,0.6,3.1,1.1,4.8,1.6c0,0,2.4,0.7,2.7-0.7c0.2-1.7,0.1-3.5-0.4-5.2C180.7,119.8,180,119,179.2,118.4z"/>
		
			<linearGradient id="SVGID_6_" gradientUnits="userSpaceOnUse" x1="181.181" y1="243.3688" x2="160.6" y2="243.3688" gradientTransform="matrix(1 0 0 -1 0 349)">
			<stop  offset="0.1" style="stop-color:#6063C1"/>
			<stop  offset="0.74" style="stop-color:#9B9EC0"/>
		</linearGradient>
		<path class="st12" d="M166.5,131.4c-2-17.5-3.9-34.9-5.9-52.4c0.1,0.5,0.5,1,1.4,1.3c2.4,0.7,5,0.4,7.2-0.8
			c1.2-0.7,1.7-1.4,1.6-2.1l10.4,51.7c0.2,1-0.6,2.1-2.3,3.1c-3,1.7-7.6,2.2-10.4,1.1C167.2,132.8,166.6,132.1,166.5,131.4z"/>
		<path class="st7" d="M173.1,77.1c-0.1-0.8-0.8-1.4-2-1.9l-2.2-14c1.2,0.5,1.9,1.1,2,1.9L173.1,77.1z"/>
		<path class="st7" d="M171.1,75.2c2.8,1,2.7,3.3-0.3,4.9s-7.7,2.2-10.5,1.1c-2.8-1-2.7-3.3,0.3-4.9
			C163.6,74.7,168.3,74.2,171.1,75.2z M169.4,76.2c-2.4-0.7-5-0.4-7.2,0.8c-2,1.2-2.1,2.7-0.2,3.4c2.4,0.7,5,0.4,7.2-0.8
			C171.2,78.4,171.3,76.9,169.4,76.2z"/>
		<path class="st7" d="M156.1,65.3c-0.2-1,0.6-2.1,2.3-3.1c3-1.7,7.7-2.2,10.5-1.1l2.2,14c-2.8-1-7.5-0.5-10.5,1.1
			c-1.7,1-2.5,2.1-2.3,3.1L156.1,65.3z"/>
		<path class="st7" d="M168.9,61.2c2.8,1,2.7,3.3-0.3,4.9c-3,1.7-7.7,2.2-10.5,1.1c-2.8-1.1-2.7-3.3,0.3-4.9
			C161.4,60.6,166.1,60.1,168.9,61.2z"/>
		
			<linearGradient id="SVGID_7_" gradientUnits="userSpaceOnUse" x1="172.2824" y1="277.3013" x2="157.403" y2="274.943" gradientTransform="matrix(1 0 0 -1 0 349)">
			<stop  offset="0" style="stop-color:#7FB2EA"/>
			<stop  offset="0.15" style="stop-color:#89B8EB"/>
			<stop  offset="0.4" style="stop-color:#A3C6EE"/>
			<stop  offset="0.43" style="stop-color:#AECFF2"/>
			<stop  offset="0.51" style="stop-color:#CBE5FB"/>
			<stop  offset="0.55" style="stop-color:#D6EEFF"/>
			<stop  offset="0.96" style="stop-color:#D6EEFF"/>
			<stop  offset="1" style="stop-color:#BCDDF8"/>
		</linearGradient>
		<path class="st13" d="M158.2,79.4l-2.2-14.1c0.1,0.8,0.8,1.4,2,1.9c2.8,1,7.5,0.5,10.5-1.1c1.7-1,2.5-2.1,2.3-3l2.2,14
			c0.1,1-0.6,2.1-2.3,3c-3,1.7-7.7,2.2-10.5,1.1C159,80.8,158.4,80.2,158.2,79.4z"/>
		<path class="st11" d="M160.2,84c0.5-1.3,0.7-2.7,0.5-4.1c-0.3-0.7-0.7-1.4-1.2-2.1c0,0-0.4-3.1-0.5-3.3c-0.1-0.2-1.1-0.6-1.2,0
			c-0.1,1.1,0,2.3,0.1,3.4c0,0.9-0.1,1.9-0.2,2.8c-0.1,0.8,0,1.6,0.3,2.3C158.4,83.7,160.2,84,160.2,84z"/>
		<path class="st11" d="M159,79.3c0,0-0.7-3.6-0.2-4.4c0.4-0.8,0.7-1.7,0.9-2.6c0.1-0.7-0.3-0.8-0.3-0.8s0.2-0.5,0.1-0.7
			c-0.1-0.1-0.3-0.2-0.5-0.3c0,0-0.4-0.3-0.6-0.2c-1.2,1.2-2.2,2.5-3.1,3.9c-0.2,1.5-0.3,2.9-0.1,4.4c0.1,0.7,1.6,2.7,1.6,3.3
			c0,0.6-0.1,1.2-0.3,1.8c0,0.1-2.2,3.2-2.2,3.2s3.4,2.2,3.8,1.5l2.1-4.5L159,79.3z"/>
		<path class="st14" d="M157.7,85.1c-0.9-0.6-1.6-1.2-1.9-0.9s-14.1,15.4-14.4,16.2c-0.2,0.8,4,6.7,6.4,4.6c2.4-2,12-16.3,11.8-17.9
			C159.1,86.3,158.5,85.6,157.7,85.1z"/>
		<path class="st14" d="M144.4,100.4l-2.9-0.1c0,0-8,2.9-8.6,3.6c-0.7,0.7-2.2,1.5-1.8,5.3c0.2,2.6,0.9,5.1,2.1,7.4
			c0.2,0.2,7.4-7.2,9-7.6c2.3-0.9,4.3-2.3,5.8-4.2C148.4,104.2,144.4,100.4,144.4,100.4z"/>
		<path class="st15" d="M125.9,206c-0.4,0.4-0.7,0.9-0.9,1.4c-0.1,0.8-0.1,1.5,0,2.3c0.1,0.3,2.5,1.2,4.3,0.5
			c0.6-0.2,1.1-0.5,1.6-0.9c0.5-0.4,0.8-0.9,1-1.5c0.1-0.3,0.5-1.3,0.5-1.3s1-1.1,1.6-1.2c1.3-0.5,2.6-1.2,3.7-2.1
			c0.5-0.3,0.8-0.8,1.1-1.2c0.3-0.5,0.5-1,0.6-1.6c0-0.8-0.1-1.6-0.5-1.8c-0.8,0-1.7,0.1-2.5,0.3L125.9,206z"/>
		<path class="st15" d="M153.3,211c0,0-1.4,0.2-1.5,1.4c-0.1,0.7-0.1,1.4,0,2.1c0.3,0.5,0.7,0.8,1.1,1.1c0.5,0.3,1,0.4,1.5,0.4
			c1.7-0.3,3.2-1,4.5-2.1c0.2-0.3,0.3-0.5,0.4-0.8c0.8-0.4,1.7-0.7,2.5-1c1.5-0.4,2.9-1.1,4.2-2c0.5-0.3,0.9-0.7,1.2-1.2
			c0.3-0.5,0.5-1.1,0.5-1.6c0.1-0.9,0-1.8-0.4-2.6c-0.2-0.4-1-1.2-2.9-1.1C162.7,203.7,153.3,211,153.3,211z"/>
		<path class="st16" d="M125.1,202.2c0,0-0.1,4.7,0.3,5.3c0.7,0.6,1.5,0.9,2.4,1c0.9,0.1,1.8-0.2,2.5-0.7c2.2-1.4,0.5-2.1,3.9-3.8
			c3.4-1.7,5-3.3,4.8-4.5c-0.2-1.2-0.2-1.3-0.4-1.5c-1-0.4-2-0.5-3.1-0.3c-1.8,0.3-3.6,0.8-5.3,1.3L125.1,202.2z"/>
		<path class="st16" d="M152.2,210.4c0.1,1.2-0.1,1.5,0.2,2.4c0.4,0.9,1.1,1.6,3,1.4c1.9-0.2,2.9-2,5.9-2.8c3.1-0.8,5.6-3,5.9-3.8
			c0.2-0.6,0.3-1.3,0.2-2c0-0.5-0.2-1-0.4-1.5c-0.3-0.5-0.6-0.8-1.1-1.1c-0.7-0.3-8.4,1.8-8.4,1.8L152.2,210.4z"/>
		<path class="st17" d="M138,138.1c-1.8,3.1-2.6,7-3.4,12.1c-0.8,5.1,0,6.7-0.2,8.8s-4.2,12.1-3.8,16.1c0.4,3.9,9.4,3.3,11-0.8
			c1.5-4.1,6.8-15.8,7.1-17.6c0.4-1.8,2.1-14.3-0.9-17.3C144.7,136.4,138,138.1,138,138.1z"/>
		<path class="st17" d="M141.8,140.9c-0.8,0.9-1.6,4.6-1.7,10.5c-0.1,6,0.3,9.5,3.3,11.4c3,2,4,6,4.6,10.9
			c0.6,4.9,1.4,10.3,1.9,11.9c0.5,1.6,6.2,1.7,7.6,1.2l1.4-0.6c0,0,1.1-0.8,1.5-3.2c0.3-2.4,0.6-13.5,0.9-21.8
			c0.2-8.3-2.6-20.1-3.1-21S141.8,140.9,141.8,140.9z"/>
		<path class="st15" d="M137.5,139.2l-1.3,3.5c0,0,1.1,1.6,5.3,3.3c4.1,1.7,8.6,3,13.1,2.1c4.5-0.9,5-1.9,5-1.9l-0.8-3.8
			L137.5,139.2z"/>
		<path class="st17" d="M150.3,177.1c0,0-0.6,0.2-0.4,8.5c0.2,8.3,1.7,22.3,2,24.7c0.3,2.4,2.1,2.8,4.8,2.3c2.8-0.5,4.2-3.5,4-5.7
			c-0.2-2.2-0.3-26.5-0.3-26.5L150.3,177.1z"/>
		<path class="st17" d="M141.5,174.6c0,0-4.2,10.5-5.1,14.4s-2.2,11.5-2.7,13.4c-0.5,1.9-4.3,3.7-6.3,3.2s-2.2-0.7-2.5-1.7
			s-0.3-4.7,0.8-12c1.2-7.3,3-16.3,5.5-21.6C133.7,165.1,141.5,174.6,141.5,174.6z"/>
		<path class="st17" d="M158.9,143.3c-1.7,2.2-8.2,2.5-11.1,2c-2.8-0.5-11.1-3.6-10.9-5.4c0.3-3.1,0.4-6.3,0.4-9.5
			c-0.1-1-3.7-8.8-5.3-16.7c-1.6-7.9,2.5-9.5,3.7-9.8c1.2-0.3,1.8-0.6,4.7,0.4c3,1.2,5.9,2.7,8.7,4.5c1.7,1.1,7.2,4.1,7.6,5.5
			c1.2,5.4,1.9,10.8,2.2,16.3C158.9,135.1,158.9,143.3,158.9,143.3z"/>
		<path class="st17" d="M158.5,119.7c-1.2-7.7-27.5-12.7-26.4-5c1.1,7.7,4.7,13.2,4.4,16.6c-0.3,3.3-1.4,12-1.6,14.3
			c-0.2,1.6,1,3.4,4.6,5.1c1.5-6.7,1.7-8.8,1.7-8.8v9.6c1.1,0.4,2.3,0.9,3.7,1.3c7.8,2.4,15.3,1.6,17-2.8
			C161.8,149.8,159.7,127.3,158.5,119.7z"/>
		<path class="st11" d="M182.6,125.3c0.4-0.5,0.6-1.2,0.7-1.8c0-0.8-1.4-2.6-1.7-3.5c-0.5-1.2-1-2.3-1.4-3.5
			c-0.1-0.6-0.1-1.1,0.1-1.2c0.3-0.2,0.4-0.5,0.5-0.9c0-0.4-0.9-0.5-1.3-0.1c-0.5,0.3-0.9,0.9-1,1.5c0,0.5,0.1,0.9,0.2,1.3
			c0,0.2,0,1.2,0,1.2c-0.4,0.6-0.6,1.3-0.7,2c0.1,0.7,0,2.8,0.5,3.3c0.8,1.1,1.5,2.3,2.1,3.5L182.6,125.3z"/>
		<path class="st11" d="M137,100c0.7,0.9,0.9,4.4,0.7,5.7c-0.2,1.2,5.1,1.9,6.7,2.3s3.7,1,3.8,1c0.1,0-0.7-6.5-0.4-7.3
			s2.6-1.5,2.9-2.2c0.3-0.8-0.5-7.1-1-9.7c-0.5-2.6-1.4-4.8-2-5.1c-0.6-0.3-5.6,0.8-5.6,0.8L137,100z"/>
		<path class="st14" d="M148.3,108.4c-2-0.7-4.2-1-6.8-1.7s-3.8-1.2-3.8-1.6c0-0.4,0-0.8,0-0.8c-0.6,0.4-1.1,1-1.4,1.6
			c-0.3,0.6-0.4,1.2-0.4,1.8c0,0.2,1.8,1.4,5.6,2.2c2.4,0.5,4.9,0.7,7.3,0.5c1.4,0.1,2.7,0.3,4,0.7c0,0-1.6-1.3-2.3-1.7
			C149.8,109.1,149.1,108.7,148.3,108.4z"/>
		<path class="st18" d="M147.6,94.7c-0.8-0.7-2,0.2-2.6,2.6s-1.2,4-2.3,4.8c-0.8,0.6-1.8,0.9-2.8,1c-0.9,0-1.7-0.3-2.5-0.8
			c-2.1-2.1-3.9-4.6-5.2-7.2c-2-4-0.4-7.3,0.2-7.8c2-4.3,5.5-5.1,8.7-5.5c2.2-0.4,4.5,0.2,6.3,1.5c0.6,0.6,1,1.3,1.3,2.1
			c0,0.1,0.1,0.3,0,0.4c0,0.1-0.1,0.3-0.2,0.4l-1.1,0.2l1.2,1.7c0.3,0.7,0.4,1.4,0.5,2.1c0,0.7-0.5,2.1-0.4,2.7
			c0,0.5,0.3,2.2,0.3,2.2l-0.8,0.7L147.6,94.7z"/>
		<path class="st11" d="M146.8,94.3c-0.7-0.2-1.2,0.8-1.1,1.9c0,1.1,0.9,2.6,1.5,2.4c0.6-0.2,0-2.2,0.1-2.7
			C147.5,95.4,147.3,94.5,146.8,94.3z"/>
		<path class="st14" d="M152.3,113.4c-2,1.8-3.8,4.8-1.7,9c2.2,4.2,7.2,7,9.5,8.4c2.2,1.4,10.2,6,12,5.9c1.8-0.1,2.1-3.5,1.7-4.8
			c-0.6-1.7-1.5-3.2-2.8-4.5c-1.5-1.4-13.1-12.1-14.7-13.5C154.7,112.5,153,112.7,152.3,113.4z"/>
		<path class="st14" d="M182.2,126.6c0.4-1.6-3-4.8-4.4-3.9c-1.4,0.9-9.2,6.6-9.2,6.6s1,8.6,4.2,7.2
			C176,135.1,182.2,126.6,182.2,126.6z"/>
		
			<linearGradient id="SVGID_8_" gradientUnits="userSpaceOnUse" x1="163.1868" y1="281.7072" x2="133.3946" y2="333.2982" gradientTransform="matrix(1 0 0 -1 0 349)">
			<stop  offset="5.000000e-02" style="stop-color:#A3C6EE"/>
			<stop  offset="0.38" style="stop-color:#88B6EA"/>
			<stop  offset="0.77" style="stop-color:#6DA7E6"/>
			<stop  offset="1" style="stop-color:#63A1E5"/>
		</linearGradient>
		<path class="st19" d="M136.4,14l8.6-5c-3.8,2.2-6.2,6.9-6.2,13.5c0,13.4,9.4,29.7,21.1,36.4c5.9,3.4,11.2,3.7,15.1,1.5l-8.6,5
			c-3.8,2.2-9.2,1.9-15.1-1.5c-11.7-6.7-21.2-23-21.1-36.4C130.3,20.8,132.6,16.1,136.4,14z"/>
		<path class="st7" d="M264.2,119.6c0.3-0.2,0.6-0.5,0.7-0.9c0.1-0.4,0.1-0.8-0.1-1.1l-26.8-46.3l-27.6-15.8L183.5,9.1l-2.6,1.5
			l27.2,47.2l27.6,15.8l26.4,45.5c0.2,0.3,0.5,0.6,0.9,0.7C263.4,119.9,263.8,119.8,264.2,119.6z"/>
		<path class="st7" d="M175.6,0l16.8,14.7l-11,8L175.6,0z"/>
		<path class="st20" d="M175.8,53.6c0,15.3-11,21.5-24.4,13.8C138,59.7,127.1,41,127.2,25.7c0.1-15.3,11-21.6,24.4-13.8
			C164.9,19.6,175.8,38.3,175.8,53.6z M151.4,63.9c11.7,6.7,21.2,1.3,21.3-12.1s-9.4-29.7-21.1-36.4c-11.7-6.7-21.2-1.3-21.3,12.1
			C130.2,40.9,139.7,57.2,151.4,63.9z"/>
		
			<linearGradient id="SVGID_9_" gradientUnits="userSpaceOnUse" x1="181.3409" y1="287.1458" x2="147.1914" y2="346.2924" gradientTransform="matrix(1 0 0 -1 0 349)">
			<stop  offset="0" style="stop-color:#7FB2EA"/>
			<stop  offset="0.15" style="stop-color:#89B8EB"/>
			<stop  offset="0.4" style="stop-color:#A3C6EE"/>
			<stop  offset="0.43" style="stop-color:#AECFF2"/>
			<stop  offset="0.51" style="stop-color:#CBE5FB"/>
			<stop  offset="0.55" style="stop-color:#D6EEFF"/>
			<stop  offset="0.96" style="stop-color:#D6EEFF"/>
			<stop  offset="1" style="stop-color:#BCDDF8"/>
		</linearGradient>
		<path class="st21" d="M142.8,5.2c4.4-2.6,10.5-2.2,17.3,1.7c13.4,7.7,24.3,26.4,24.2,41.8c0,7.6-2.7,13-7.1,15.5l-8.6,5
			c4.4-2.5,7.1-7.9,7.1-15.5c0-15.3-10.8-34-24.2-41.8c-6.8-3.9-12.9-4.2-17.3-1.7L142.8,5.2z"/>
	</g>
</g>
</svg>
