<?xml version="1.0" encoding="utf-8"?>
<!-- Generator: Adobe Illustrator 25.0.0, SVG Export Plug-In . SVG Version: 6.00 Build 0)  -->
<svg version="1.1" id="Layer_1" xmlns="http://www.w3.org/2000/svg" xmlns:xlink="http://www.w3.org/1999/xlink" x="0px" y="0px"
	 viewBox="0 0 379 356" style="enable-background:new 0 0 379 356;" xml:space="preserve">
<style type="text/css">
	.st0{clip-path:url(#SVGID_2_);}
	.st1{fill:none;stroke:#222222;stroke-miterlimit:10;}
	.st2{fill:#111111;}
	.st3{fill:#222222;}
	.st4{fill:#D46100;}
	.st5{fill:#FF6601;}
	.st6{fill:#9F3F00;}
	.st7{fill:#797A8A;}
	.st8{fill:#FFFFFF;}
	.st9{fill:#7C3E00;}
	.st10{opacity:0.1;fill:#B9B0C0;enable-background:new    ;}
	.st11{fill:#24283C;}
	.st12{fill:#6E717C;}
	.st13{fill:#FF9C78;}
	.st14{fill:#71A8FB;}
	.st15{fill:#3B4157;}
	.st16{fill:#363B4D;}
	.st17{fill:#418DFE;}
	.st18{fill:#553012;}
	.st19{fill:#FFFFFF;filter:url(#Adobe_OpacityMaskFilter);}
	.st20{mask:url(#mask0_27_2_1_);}
	.st21{fill:#44454A;}
	.st22{fill:#FFFFFF;filter:url(#Adobe_OpacityMaskFilter_1_);}
	.st23{mask:url(#mask1_27_2_1_);}
	.st24{fill:#FFFFFF;filter:url(#Adobe_OpacityMaskFilter_2_);}
	.st25{mask:url(#mask2_27_2_1_);}
	.st26{fill:#4E4F54;}
	.st27{fill:url(#SVGID_3_);}
	.st28{fill:#F8F7FB;}
	.st29{fill:#F34965;}
	.st30{fill:#FFA698;}
	.st31{fill:#FF806B;}
	.st32{fill:#D95600;}
	.st33{fill:#C43012;}
</style>
<g>
	<defs>
		<rect id="SVGID_1_" width="378.8" height="355.8"/>
	</defs>
	<clipPath id="SVGID_2_">
		<use xlink:href="#SVGID_1_"  style="overflow:visible;"/>
	</clipPath>
	<g class="st0">
		<path class="st1" d="M324.6,246c20.9,12,21,31.6,0.2,43.6l-97.4,56.6c-20.7,12-54.5,12-75.3,0l-98-56.6
			c-20.9-12.1-21-31.6-0.2-43.6l97.4-56.6c20.7-12.1,54.5-12.1,75.3,0L324.6,246z"/>
		<path class="st2" d="M359.4,211l-122.1,71c-26,15.1-68.3,15.1-94.5,0L19.8,211C6.6,203.4,0,193.4,0,183.5v14.1
			c0,10,6.6,20,19.7,27.6l122.9,71c26.2,15.1,68.5,15.1,94.5,0l122.1-71c12.9-7.5,19.4-17.3,19.4-27.2v-14.1
			C378.8,193.7,372.3,203.5,359.4,211z"/>
		<path class="st3" d="M359.1,156.3c26.2,15.1,26.3,39.6,0.3,54.8l-122.1,71c-26,15.1-68.3,15.1-94.5,0L19.8,211
			c-26.2-15.1-26.3-39.6-0.3-54.8l122.1-71c26-15.1,68.3-15.1,94.5,0L359.1,156.3z"/>
		<path class="st4" d="M292.6,50.8L205,0.4c-0.3-0.2-0.7-0.4-1.1-0.4s-0.8,0.1-1.1,0.2l-1.6,1l0.6,0.8c-0.1,0.3-0.1,0.7-0.1,1v61
			c0,1.3,0.3,2.5,0.9,3.6c0.6,1.1,1.4,2.1,2.4,2.8l87.3,50.2l1,1.3l1.5-0.9c0.4-0.3,0.8-0.7,1-1.2c0.2-0.5,0.3-1,0.2-1.5V57.2
			c0-1.3-0.4-2.5-1-3.6C294.5,52.5,293.7,51.5,292.6,50.8z"/>
		<path class="st5" d="M290.9,121.8l-87.7-50.4c-1-0.7-1.9-1.7-2.4-2.8c-0.6-1.1-0.9-2.4-0.9-3.6V3.9c0-2.5,1.5-3.6,3.4-2.5
			l87.7,50.4c1,0.7,1.9,1.7,2.4,2.8c0.6,1.1,0.9,2.3,0.9,3.6v61.1C294.3,121.8,292.8,122.9,290.9,121.8z"/>
		<path class="st6" d="M292.6,120.8L205,70.4c-1-0.7-1.9-1.7-2.5-2.8c-0.6-1.1-0.9-2.4-0.9-3.6V2.9c0-0.7,0.1-1.3,0.4-1.9
			c-1.3-0.1-2.2,1-2.2,2.9V65c0,1.3,0.3,2.5,0.9,3.6s1.4,2.1,2.4,2.8l87.7,50.4c0.2,0.2,0.5,0.3,0.8,0.4c0.3,0.1,0.6,0.1,0.8,0
			c0.3-0.1,0.5-0.2,0.8-0.3s0.4-0.4,0.6-0.6C293.4,121.1,293,121,292.6,120.8z"/>
		<path class="st7" d="M290.2,61.7l-86.3-49.6c-0.7-0.5-1.3-1.2-1.8-2c-0.4-0.8-0.7-1.7-0.7-2.6V5.4c0-1.8,1.1-2.6,2.4-1.8
			l86.3,49.6c0.7,0.5,1.3,1.2,1.8,2c0.4,0.8,0.7,1.7,0.7,2.6v2.2C292.6,61.7,291.5,62.5,290.2,61.7z"/>
		<path class="st8" d="M225,34.8l3.3,1.9c0.2,0.2,0.4,0.4,0.5,0.6c0.1,0.2,0.2,0.5,0.2,0.8c0,0.5-0.3,0.8-0.7,0.5l-3.3-1.9
			c-0.2-0.2-0.4-0.4-0.5-0.6c-0.1-0.2-0.2-0.5-0.2-0.8C224.3,34.8,224.6,34.5,225,34.8z"/>
		<path class="st8" d="M219.5,29.7c-0.1-0.1-0.2,0-0.2,0.2v39.3c0,0.1,0,0.2,0.1,0.2c0,0.1,0.1,0.1,0.2,0.2c0.1,0.1,0.2,0,0.2-0.2
			V30.1c0-0.1,0-0.2-0.1-0.2C219.6,29.8,219.6,29.7,219.5,29.7z"/>
		<path class="st8" d="M225,40.6l3.3,1.9c0.2,0.2,0.4,0.4,0.5,0.6c0.1,0.2,0.2,0.5,0.2,0.8c0,0.5-0.3,0.8-0.7,0.6l-3.3-1.9
			c-0.2-0.2-0.4-0.4-0.5-0.6c-0.1-0.2-0.2-0.5-0.2-0.8C224.3,40.6,224.6,40.4,225,40.6z"/>
		<path class="st8" d="M231.8,44.5l8.2,4.7c0.2,0.2,0.4,0.4,0.5,0.6c0.1,0.2,0.2,0.5,0.2,0.8c0,0.5-0.3,0.8-0.7,0.5l-8.3-4.8
			c-0.2-0.2-0.4-0.4-0.5-0.6c-0.1-0.2-0.2-0.5-0.2-0.8C231,44.5,231.4,44.2,231.8,44.5z"/>
		<path class="st8" d="M244.3,51.7l4,2.3c0.2,0.2,0.4,0.4,0.5,0.6c0.1,0.2,0.2,0.5,0.2,0.8c0,0.5-0.3,0.8-0.7,0.5l-4-2.3
			c-0.2-0.2-0.4-0.4-0.5-0.6c-0.1-0.2-0.2-0.5-0.2-0.8C243.5,51.7,243.9,51.4,244.3,51.7z"/>
		<path class="st8" d="M252.6,56.4l5.7,3.3c0.2,0.2,0.4,0.4,0.5,0.6c0.1,0.2,0.2,0.5,0.2,0.8c0,0.5-0.3,0.8-0.7,0.5l-5.7-3.3
			c-0.2-0.2-0.4-0.4-0.5-0.6c-0.1-0.2-0.2-0.5-0.2-0.8C251.8,56.4,252.2,56.2,252.6,56.4z"/>
		<path class="st8" d="M268.1,73.1l-4-2.3c-0.2-0.2-0.4-0.4-0.5-0.6c-0.1-0.2-0.2-0.5-0.2-0.8c0-0.5,0.3-0.8,0.7-0.6l4,2.3
			c0.2,0.2,0.4,0.4,0.5,0.6c0.1,0.2,0.2,0.5,0.2,0.8C268.9,73.1,268.5,73.4,268.1,73.1z"/>
		<path class="st8" d="M259.8,68.4l-5.7-3.3c-0.2-0.2-0.4-0.4-0.5-0.6c-0.1-0.2-0.2-0.5-0.2-0.8c0-0.5,0.3-0.8,0.7-0.5l5.7,3.3
			c0.2,0.2,0.4,0.4,0.5,0.6c0.1,0.2,0.2,0.5,0.2,0.8C260.6,68.4,260.2,68.6,259.8,68.4z"/>
		<path class="st8" d="M249.9,62.6l-4-2.3c-0.2-0.2-0.4-0.4-0.5-0.6c-0.1-0.2-0.2-0.5-0.2-0.8c0-0.5,0.3-0.8,0.7-0.5l4,2.3
			c0.2,0.2,0.4,0.4,0.5,0.6c0.1,0.2,0.2,0.5,0.2,0.8C250.6,62.6,250.3,62.9,249.9,62.6z"/>
		<path class="st8" d="M241.6,57.9l-4-2.3c-0.2-0.2-0.4-0.4-0.5-0.6c-0.1-0.2-0.2-0.5-0.2-0.8c0-0.5,0.3-0.8,0.7-0.5l4,2.3
			c0.2,0.2,0.4,0.4,0.5,0.6c0.1,0.2,0.2,0.5,0.2,0.8C242.3,57.9,242,58.1,241.6,57.9z"/>
		<path class="st8" d="M233.3,53.1l-8.3-4.8c-0.2-0.2-0.4-0.4-0.5-0.6c-0.1-0.2-0.2-0.5-0.2-0.8c0-0.5,0.3-0.8,0.7-0.6l8.3,4.8
			c0.2,0.2,0.4,0.4,0.5,0.6c0.1,0.2,0.2,0.5,0.2,0.8C234,53.1,233.7,53.3,233.3,53.1z"/>
		<path class="st8" d="M231.8,56.1l8.2,4.7c0.2,0.2,0.4,0.4,0.5,0.6c0.1,0.2,0.2,0.5,0.2,0.8c0,0.5-0.3,0.8-0.7,0.5l-8.3-4.8
			c-0.2-0.2-0.4-0.4-0.5-0.6c-0.1-0.2-0.2-0.5-0.2-0.8C231,56.1,231.4,55.9,231.8,56.1z"/>
		<path class="st8" d="M244.3,63.3l4,2.3c0.2,0.2,0.4,0.4,0.5,0.6c0.1,0.2,0.2,0.5,0.2,0.8c0,0.5-0.3,0.8-0.7,0.6l-4-2.3
			c-0.2-0.2-0.4-0.4-0.5-0.6c-0.1-0.2-0.2-0.5-0.2-0.8C243.5,63.3,243.9,63.1,244.3,63.3z"/>
		<path class="st8" d="M252.6,68.1l5.7,3.3c0.2,0.2,0.4,0.4,0.5,0.6c0.1,0.2,0.2,0.5,0.2,0.8c0,0.5-0.3,0.8-0.7,0.6l-5.7-3.3
			c-0.2-0.2-0.4-0.4-0.5-0.6c-0.1-0.2-0.2-0.5-0.2-0.8C251.8,68.1,252.2,67.9,252.6,68.1z"/>
		<path class="st8" d="M283,93.4l-3.3-1.9c-0.2-0.2-0.4-0.4-0.5-0.6c-0.1-0.2-0.2-0.5-0.2-0.8c0-0.5,0.3-0.8,0.7-0.6l3.3,1.9
			c0.2,0.2,0.4,0.4,0.5,0.6c0.1,0.2,0.2,0.5,0.2,0.8C283.7,93.3,283.4,93.6,283,93.4z"/>
		<path class="st8" d="M215.1,54.4l-3.3-1.9c-0.2-0.2-0.4-0.4-0.5-0.6c-0.1-0.2-0.2-0.5-0.2-0.8c0-0.5,0.3-0.8,0.7-0.6l3.3,1.9
			c0.2,0.2,0.4,0.4,0.5,0.6c0.1,0.2,0.2,0.5,0.2,0.8C215.9,54.3,215.5,54.6,215.1,54.4z"/>
		<path class="st8" d="M215.1,60.2l-3.3-1.9c-0.2-0.2-0.4-0.4-0.5-0.6c-0.1-0.2-0.2-0.5-0.2-0.8c0-0.5,0.3-0.8,0.7-0.5l3.3,1.9
			c0.2,0.2,0.4,0.4,0.5,0.6c0.1,0.2,0.2,0.5,0.2,0.8C215.9,60.2,215.5,60.4,215.1,60.2z"/>
		<path class="st8" d="M215.1,66l-3.3-1.9c-0.2-0.2-0.4-0.4-0.5-0.6c-0.1-0.2-0.2-0.5-0.2-0.8c0-0.5,0.3-0.8,0.7-0.5l3.3,1.9
			c0.2,0.2,0.4,0.4,0.5,0.6c0.1,0.2,0.2,0.5,0.2,0.8C215.9,66,215.5,66.3,215.1,66z"/>
		<path class="st8" d="M215.1,48.5l-3.3-1.9c-0.2-0.2-0.4-0.4-0.5-0.6c-0.1-0.2-0.2-0.5-0.2-0.8c0-0.5,0.3-0.8,0.7-0.5l3.3,1.9
			c0.2,0.2,0.4,0.4,0.5,0.6c0.1,0.2,0.2,0.5,0.2,0.8C215.9,48.5,215.5,48.8,215.1,48.5z"/>
		<path class="st8" d="M215.1,42.7l-3.3-1.9c-0.2-0.2-0.4-0.4-0.5-0.6c-0.1-0.2-0.2-0.5-0.2-0.8c0-0.5,0.3-0.8,0.7-0.6l3.3,1.9
			c0.2,0.2,0.4,0.4,0.5,0.6c0.1,0.2,0.2,0.5,0.2,0.8C215.9,42.7,215.5,42.9,215.1,42.7z"/>
		<path class="st8" d="M215.1,36.9l-3.3-1.9c-0.2-0.2-0.4-0.4-0.5-0.6c-0.1-0.2-0.2-0.5-0.2-0.8c0-0.5,0.3-0.8,0.7-0.6l3.3,1.9
			c0.2,0.2,0.4,0.4,0.5,0.6c0.1,0.2,0.2,0.5,0.2,0.8C215.9,36.8,215.5,37.1,215.1,36.9z"/>
		<path class="st8" d="M215.1,31l-3.3-1.9c-0.2-0.2-0.4-0.4-0.5-0.6c-0.1-0.2-0.2-0.5-0.2-0.8c0-0.5,0.3-0.8,0.7-0.6l3.3,1.9
			c0.2,0.2,0.4,0.4,0.5,0.6c0.1,0.2,0.2,0.5,0.2,0.8C215.9,31,215.5,31.2,215.1,31z"/>
		<path class="st8" d="M276.2,89.5l-3.9-2.2c-0.2-0.2-0.4-0.4-0.5-0.6c-0.1-0.2-0.2-0.5-0.2-0.8c0-0.5,0.3-0.8,0.7-0.6l3.9,2.2
			c0.2,0.2,0.4,0.4,0.5,0.6c0.1,0.2,0.2,0.5,0.2,0.8C277,89.5,276.6,89.7,276.2,89.5z"/>
		<path class="st8" d="M268.1,84.8l-4-2.3c-0.2-0.2-0.4-0.4-0.5-0.6c-0.1-0.2-0.2-0.5-0.2-0.8c0-0.5,0.3-0.8,0.7-0.5l4,2.3
			c0.2,0.2,0.4,0.4,0.5,0.6c0.1,0.2,0.2,0.5,0.2,0.8C268.9,84.8,268.5,85,268.1,84.8z"/>
		<path class="st8" d="M259.8,80.1l-5.7-3.3c-0.2-0.2-0.4-0.4-0.5-0.6c-0.1-0.2-0.2-0.5-0.2-0.8c0-0.5,0.3-0.8,0.7-0.6l5.7,3.3
			c0.2,0.2,0.4,0.4,0.5,0.6c0.1,0.2,0.2,0.5,0.2,0.8C260.6,80,260.2,80.3,259.8,80.1z"/>
		<path class="st8" d="M249.9,74.3l-4-2.3c-0.2-0.2-0.4-0.4-0.5-0.6c-0.1-0.2-0.2-0.5-0.2-0.8c0-0.5,0.3-0.8,0.7-0.5l4,2.3
			c0.2,0.2,0.4,0.4,0.5,0.6c0.1,0.2,0.2,0.5,0.2,0.8C250.6,74.3,250.3,74.5,249.9,74.3z"/>
		<path class="st8" d="M241.6,69.5l-4-2.3c-0.2-0.2-0.4-0.4-0.5-0.6c-0.1-0.2-0.2-0.5-0.2-0.8c0-0.5,0.3-0.8,0.7-0.6l4,2.3
			c0.2,0.2,0.4,0.4,0.5,0.6c0.1,0.2,0.2,0.5,0.2,0.8C242.3,69.5,242,69.8,241.6,69.5z"/>
		<path class="st8" d="M233.3,64.8L225,60c-0.2-0.2-0.4-0.4-0.5-0.6c-0.1-0.2-0.2-0.5-0.2-0.8c0-0.5,0.3-0.8,0.7-0.6l8.3,4.8
			c0.2,0.2,0.4,0.4,0.5,0.6c0.1,0.2,0.2,0.5,0.2,0.8C234,64.8,233.7,65,233.3,64.8z"/>
		<path class="st8" d="M231.8,67.8l8.2,4.8c0.2,0.2,0.4,0.4,0.5,0.6c0.1,0.2,0.2,0.5,0.2,0.8c0,0.5-0.3,0.8-0.7,0.6l-8.3-4.8
			c-0.2-0.2-0.4-0.4-0.5-0.6c-0.1-0.2-0.2-0.5-0.2-0.8C231,67.8,231.4,67.6,231.8,67.8z"/>
		<path class="st8" d="M244.3,75l4,2.3c0.2,0.2,0.4,0.4,0.5,0.6c0.1,0.2,0.2,0.5,0.2,0.8c0,0.5-0.3,0.8-0.7,0.6l-4-2.3
			c-0.2-0.2-0.4-0.4-0.5-0.6c-0.1-0.2-0.2-0.5-0.2-0.8C243.5,75,243.9,74.8,244.3,75z"/>
		<path class="st8" d="M252.6,79.8l5.7,3.3c0.2,0.2,0.4,0.4,0.5,0.6c0.1,0.2,0.2,0.5,0.2,0.8c0,0.5-0.3,0.8-0.7,0.6l-5.7-3.3
			c-0.2-0.2-0.4-0.4-0.5-0.6c-0.1-0.2-0.2-0.5-0.2-0.8C251.8,79.8,252.2,79.5,252.6,79.8z"/>
		<path class="st8" d="M272.4,102.8l5.1,3c0.2,0.2,0.4,0.4,0.5,0.6c0.1,0.2,0.2,0.5,0.2,0.8c0,0.5-0.3,0.8-0.7,0.6l-5.1-2.9
			c-0.2-0.2-0.4-0.4-0.5-0.6c-0.1-0.2-0.2-0.5-0.2-0.8C271.6,102.8,272,102.6,272.4,102.8z"/>
		<path class="st8" d="M262.5,85.5l4,2.3c0.2,0.2,0.4,0.4,0.5,0.6c0.1,0.2,0.2,0.5,0.2,0.8c0,0.5-0.3,0.8-0.7,0.6l-4-2.3
			c-0.2-0.2-0.4-0.4-0.5-0.6c-0.1-0.2-0.2-0.5-0.2-0.8C261.8,85.5,262.1,85.3,262.5,85.5z"/>
		<path class="st8" d="M270.8,90.3l4,2.3c0.2,0.2,0.4,0.4,0.6,0.6s0.2,0.5,0.2,0.8c0,0.5-0.3,0.8-0.7,0.6l-4-2.3
			c-0.2-0.2-0.4-0.4-0.5-0.6c-0.1-0.2-0.2-0.5-0.2-0.8C270.1,90.3,270.4,90,270.8,90.3z"/>
		<path class="st8" d="M279.1,95l3.9,2.2c0.2,0.2,0.4,0.4,0.5,0.6c0.1,0.2,0.2,0.5,0.2,0.8c0,0.5-0.3,0.8-0.7,0.6l-3.9-2.2
			c-0.2-0.2-0.4-0.4-0.5-0.6c-0.1-0.2-0.2-0.5-0.2-0.8C278.4,95,278.7,94.8,279.1,95z"/>
		<path class="st8" d="M249.9,86l-4-2.3c-0.2-0.2-0.4-0.4-0.5-0.6c-0.1-0.2-0.2-0.5-0.2-0.8c0-0.5,0.3-0.8,0.7-0.6l4,2.3
			c0.2,0.2,0.4,0.4,0.5,0.6c0.1,0.2,0.2,0.5,0.2,0.8C250.6,86,250.3,86.2,249.9,86z"/>
		<path class="st8" d="M241.6,81.2l-4-2.3c-0.2-0.2-0.4-0.4-0.5-0.6c-0.1-0.2-0.2-0.5-0.2-0.8c0-0.5,0.3-0.8,0.7-0.6l4,2.3
			c0.2,0.2,0.4,0.4,0.5,0.6c0.1,0.2,0.2,0.5,0.2,0.8C242.3,81.2,242,81.4,241.6,81.2z"/>
		<path class="st8" d="M233.3,76.5l-8.3-4.8c-0.2-0.2-0.4-0.4-0.5-0.6c-0.1-0.2-0.2-0.5-0.2-0.8c0-0.5,0.3-0.8,0.7-0.5l8.3,4.8
			c0.2,0.2,0.4,0.4,0.5,0.6c0.1,0.2,0.2,0.5,0.2,0.8C234,76.4,233.7,76.7,233.3,76.5z"/>
		<path class="st9" d="M290.2,53.1L203.9,3.5c-0.2-0.2-0.5-0.3-0.8-0.3s-0.6,0.1-0.8,0.2L201,4.2l0.6,0.4c-0.1,0.3-0.1,0.5-0.1,0.8
			v2.2c0,0.9,0.2,1.8,0.7,2.6c0.4,0.8,1,1.5,1.8,2l77.5,44.5l9.1,5.9l1.3-0.7c0.3-0.2,0.6-0.5,0.7-0.9c0.2-0.4,0.2-0.7,0.2-1.1v-2.2
			c0-0.9-0.3-1.8-0.7-2.6C291.6,54.3,290.9,53.6,290.2,53.1z"/>
		<path class="st7" d="M288.8,62.5L202.5,13c-0.7-0.5-1.3-1.2-1.8-2c-0.4-0.8-0.7-1.7-0.7-2.6V6.1c0-1.8,1.1-2.6,2.4-1.8l86.3,49.6
			c0.7,0.5,1.3,1.2,1.8,2c0.4,0.8,0.6,1.7,0.7,2.6v2.2C291.2,62.5,290.1,63.3,288.8,62.5z"/>
		<path class="st10" d="M182.1,199.3c0.8,5.6-9.2,11.2-22.3,12.6s-24.3-2-25.1-7.5c-0.8-5.6,9.2-11.2,22.3-12.6
			C170,190.4,181.3,193.7,182.1,199.3z"/>
		<path class="st11" d="M132.9,202.7c-0.8,0.5-0.7,1-0.8,1.9c-0.1,0.9-0.2,2,1.9,2.6c1.7,0.5,3.5,0.4,5.1-0.2
			c0.7-0.2,1.3-0.6,1.7-1.2c0.3-0.4,0.4-1.1,0.8-1.2c2.2-0.6,4.3-1.4,6.3-2.3c1.7-1,3-2.8,2.9-4.1s-0.2-2-1-2.1
			C149,196,132.9,202.7,132.9,202.7z"/>
		<path class="st12" d="M141.1,195.6c1.8-0.3,3.5-0.8,5.3-1.3c1.6-0.6,3.4,0.9,3.8,2.1c0.4,1.2-0.7,3-1.7,4.1
			c-1,0.9-2.3,1.5-3.7,1.7c-1.8,0.4-3.4,1.2-4.9,2.3c-1.2,1.1-3.4,1.3-4.9,1.1c-0.5,0-1-0.2-1.5-0.5c-0.4-0.3-0.8-0.7-1-1.2
			c-0.1-1.8,0-3.5,0.3-5.3c0.4-0.9,3.4-2.7,3.4-2.7L141.1,195.6z"/>
		<path class="st11" d="M168,200.7c-0.6,0.2-0.4,1.6-0.4,2.7c0,1.2,1.8,2.2,4.1,2c1.5-0.1,2.9-0.6,4.1-1.5c1.5-0.9,1.8-1.6,1.8-1.6
			s-0.2-1.1,2.1-1.9c1.8-0.5,3.3-1.7,4.2-3.2c0.5-0.5,0.8-1.2,0.9-1.9c0.1-0.7,0.1-1.4-0.1-2.1c-0.2-0.8-1.8-1.5-2.2-1.4
			C182,191.8,168,200.7,168,200.7z"/>
		<path class="st12" d="M174,192.3c2.1-1.4,4.5-2.3,7.1-2.5c1.4,0,2.9,1.6,3.2,3.3c0.1,0.7,0,1.4-0.2,2.1c-0.2,0.7-0.6,1.3-1.1,1.7
			c-1.1,1.4-2.5,2.4-4.2,3c-2.5,1.1-2.9,2.9-5.6,3.7c-2.8,0.7-4.8,0.1-5.2-1.1c-0.4-1.1,0-6.2,0.2-6.5
			C168.2,195.7,174,192.3,174,192.3z"/>
		<path class="st13" d="M132,101.4c-4,0-8.3,0.2-7.9,2.6c0.5,2.4,3.1,5.7,9.4,10.7c6.3,5,10.7,9.2,10.7,9.2s5.4-2.4,3.7-4.4
			s-4.1-3.6-6.9-6.8S134.3,102.3,132,101.4z"/>
		<path class="st14" d="M132.7,100.2c0.1,0.2,13,16.1,13.1,16.9c0.1,0.8-1.4,6.4-3.3,6.3c-1.9,0-15.5-13.1-17.8-16.4
			s0.2-7.3,0.2-7.3L132.7,100.2z"/>
		<path class="st14" d="M131.1,89.7c-4,5.2-7.6,11.7-7.3,13.6c0.3,1.9,2.9,2.4,4.3,2.1c1.4-0.3,3.4-1.9,5.2-3.4
			c1.8-1.6,5.9-6.8,6.2-8.4C139.9,92,131.1,89.7,131.1,89.7z"/>
		<path class="st14" d="M140.6,79.3c-4.3,1-10.4,11.9-10.4,11.9s-0.4,2.7,3.8,4.4c1.2,0.5,2.5,0.6,3.7,0.3c1.2-0.3,2.3-1,3.1-1.9
			L140.6,79.3z"/>
		<path class="st15" d="M161.1,131.2c0,0-0.9,3-2.1,7.3c-2.6,9-6.8,23.5-7.8,26c-0.6,1.5-2.8,1.7-5.1,1.4c-3.2-0.5-6.7-2.1-6.5-3
			c0-0.1,0-0.4,0.1-0.7c0.5-4.3,2.6-25.5,2.6-30.1c0-4.9,0.9-10.2,4.2-17.7l10.8-7.8L161.1,131.2z"/>
		<path class="st15" d="M151.2,164.4c-3.4,7.6-8,30.4-8.6,32.9c-0.3,1.3-2,2.1-3.9,2.4c-2.2,0.2-4.4-0.4-6.2-1.7
			c-0.3-2,0.3-9.9,0.7-16.5c0.4-6.5,3.2-12.7,5.2-17c0.4-0.8,0.8-1.6,1.3-2.4c1-1.4,1.6-1.1,2.8-2.1c1.8-0.2,3.5,0,5.2,0.7
			c0.8,0.3,1.6,0.8,2.2,1.4C150.5,162.8,151,163.6,151.2,164.4z"/>
		<path class="st16" d="M159,138.5c-2.6,9-6.8,23.5-7.8,26c-3.4,7.6-8,30.4-8.6,32.9c-0.3,1.3-2,2.1-3.9,2.4c0.9-13.4,7-32.5,7-32.5
			s0.2-0.5,0.4-1.4c0.4-1.2,0.9-3,1.6-5.1c2.1-7.2,4.9-18.5,3.9-23.9C154.2,136.7,156.7,137.3,159,138.5z"/>
		<path class="st15" d="M154.1,117.6c-3.1,9.6-4.3,13.1-2.5,19.2c1.9,6.1,6,6.9,7.1,10.2s3.8,18.8,4.3,22.2c0.6,3.5,8.5,2.4,9.5,1.1
			c1-1.3,2.6-2.3,2.9-5.3c0.3-3,1.2-20.7-1-31.8c-1.3-6.6-3-13.1-5.1-19.5L154.1,117.6z"/>
		<path class="st15" d="M164.3,164.4c-1.5,5.5-2.7,7-0.3,17.2c2.4,10.2,3.6,16.1,3.6,16.1s0.2,2.4,5.6,1c1-0.2,1.8-0.8,2.5-1.5
			c0.6-0.7,1-1.7,1.1-2.7c-0.1-0.4-1.4-26.1-1.2-30.8S164.3,164.4,164.3,164.4z"/>
		<path class="st17" d="M171.7,119.6c0.2,2.8-1.9,3.3-2.3,3.8c-0.4,0.5-8.3,1.4-16.4-1.4s-7.7-4.5-7.7-4.5c0-1.9-0.2-3.8-0.8-5.7
			c-0.8-2.2-6-11.6-7.4-18.9s-0.3-10.6,1.6-12.3c2-1.8,4.1-1.9,6.6-1.9c5.1,0.3,10.1,1.3,14.9,3.1c6.1,2.2,10.4,5,10.4,6.2
			C170.8,89.2,171.7,119.6,171.7,119.6z"/>
		<path class="st13" d="M169.9,116.4c-1,2.4-1.2,1.9-1.5,5c-0.3,1.9-0.3,3.8,0,5.6c0.1,1.1-0.1,1.5,0,2.5c0,0.7,0.2,1.3,0.5,1.9
			c0.4,0.5,0.9,0.9,1.6,1.1c1.9,0.8,3.5,0.4,4.1,0.7c0.6,0.3,0.2-1,0.2-1.4s0.4-0.8,0.5-1.7c0.1-0.7,0.1-1.4,0-2.2l-0.3-1.8
			c1.3-1.8,2.1-4,2.1-6.3C176.9,116.6,169.9,116.4,169.9,116.4z"/>
		<path class="st14" d="M175.3,126.7c-0.9,1.1-5.5,3.1-7.6,0c-2.1-3.1,1-10.3,1-10.3s7.7,0.3,8.3,2.6S175.3,126.7,175.3,126.7z"/>
		<path class="st14" d="M163.8,101.4c0.1,2.4,0.5,4.7,1.2,7c1.2,3.3,3.9,11.5,5,12.7c1.1,1.2,3.8,1.5,4.9,1.2
			c0.7-0.2,1.2-0.6,1.6-1.1c0.4-0.6,0.6-1.2,0.5-1.9c-0.1-1.8-3.7-18.3-3.8-18.6C173.3,100.4,163.8,101.4,163.8,101.4z"/>
		<path class="st13" d="M148,73c0.5,2.5,0.1,5.1-1.2,7.3c4,1.9,11.7,2,13.2,1.7c-0.1-3.6,0.4-4.9,0.9-5.3s2.9-0.3,3.6-1.5
			c0.7-1.2,2.1-3.7,0-11.5c-0.4-1.6-3.4-10-5.6-9.7C156.6,54.1,146.6,66.8,148,73z"/>
		<path class="st18" d="M161.2,67.6l-1.1,0.7c0,0-1.1-2-2.4-0.9c-1.3,1.1-0.9,6.4-1.4,8.2c-0.5,1.9-5.9,1.3-5.9,1.3
			c-0.8-0.1-1.6-0.4-2.3-0.7c-0.5-0.4-9.5-7-6.9-15c0.8-9.1,7.8-10.5,11.2-10.6c3.5-0.1,6.8,1.1,7.9,4.2c0.3,0.7-0.6,2.3-0.7,3
			c-0.1,0.7,0.1,1.4,0.6,2c0.4,0.5,0.7,1.2,0.8,1.8c0.1,0.7,0.1,1.4-0.1,2l-0.1,0.5L161.2,67.6z"/>
		<path class="st13" d="M159.2,68.3c-0.2-1.5-0.4-2.3-1.2-1.7s-0.8,2.5-0.4,3.2c0.4,0.7,1.4,2.2,1.8,1.2
			C159.5,70.2,159.5,69.2,159.2,68.3z"/>
		<path class="st14" d="M166.2,85.8c-1.5,0.9-2.6,2.2-3.4,3.7c-0.7,1.5-1,3.3-0.9,5c0.2,3.4,0.9,6.8,2.1,10c0,0,9.9-1.2,9.8-2
			s-0.8-11.6-2.7-14.6C169.3,85.6,167.9,85.1,166.2,85.8z"/>
		<path class="st13" d="M213.6,115.3c1.8-1.4,7.5-6.3,8-6.4c1.1-0.1,2.1-0.4,3.1-0.8c0.6-0.3,1.1-0.8,1.5-1.4c0,0,3-1.9,3.4-2.3
			c0.1-0.2,0.2-0.4,0.3-0.6c0.1-0.2,0.1-0.4,0-0.7c0.2-0.3,0.3-0.6,0.3-0.9c-0.1-0.4-0.2-0.9-0.4-1.3c0-0.2-0.1-0.4-0.2-0.6
			c-0.1-0.2-0.3-0.3-0.5-0.4c-0.2-0.1-0.4-0.1-0.6-0.1c-0.2,0-0.4,0.1-0.6,0.2c-1.7,0.7-4.2,1.4-4.7,2.1c-1.1,1-2.3,2-3.5,2.9
			L208,111L213.6,115.3z"/>
		<defs>
			<filter id="Adobe_OpacityMaskFilter" filterUnits="userSpaceOnUse" x="232.5" y="90.9" width="1" height="0.3">
				<feColorMatrix  type="matrix" values="1 0 0 0 0  0 1 0 0 0  0 0 1 0 0  0 0 0 1 0"/>
			</filter>
		</defs>
		<mask maskUnits="userSpaceOnUse" x="232.5" y="90.9" width="1" height="0.3" id="mask0_27_2_1_">
			<path class="st19" d="M232.5,90.9l0.8,0.2c0.1,0,0.1,0,0.2,0.1l-0.8-0.2C232.6,90.9,232.5,90.9,232.5,90.9z"/>
		</mask>
		<g class="st20">
			<path class="st21" d="M232.5,90.9l0.8,0.2c0.1,0,0.1,0,0.2,0.1l-0.8-0.2C232.6,90.9,232.5,90.9,232.5,90.9z"/>
		</g>
		<defs>
			<filter id="Adobe_OpacityMaskFilter_1_" filterUnits="userSpaceOnUse" x="237.3" y="119.3" width="2.1" height="1">
				<feColorMatrix  type="matrix" values="1 0 0 0 0  0 1 0 0 0  0 0 1 0 0  0 0 0 1 0"/>
			</filter>
		</defs>
		<mask maskUnits="userSpaceOnUse" x="237.3" y="119.3" width="2.1" height="1" id="mask1_27_2_1_">
			<path class="st22" d="M238.1,120.3l-0.8-0.2c0.3,0.1,0.5,0,0.8-0.1c0.2-0.1,0.4-0.3,0.5-0.6l0.8,0.2c-0.1,0.2-0.3,0.5-0.5,0.6
				C238.7,120.3,238.4,120.3,238.1,120.3z"/>
		</mask>
		<g class="st23">
			<path class="st21" d="M238.6,119.3l0.8,0.2c-0.1,0.2-0.3,0.5-0.5,0.6c-0.2,0.1-0.5,0.2-0.8,0.1l-0.8-0.2c0.3,0.1,0.5,0,0.8-0.1
				C238.3,119.8,238.5,119.6,238.6,119.3z"/>
		</g>
		<path class="st21" d="M232.7,91l0.8,0.2l14.4,8.2l-0.8-0.2L232.7,91z"/>
		<path class="st21" d="M247.4,100.9l0.8,0.2l-8.8,18.4l-0.8-0.2L247.4,100.9z"/>
		<defs>
			<filter id="Adobe_OpacityMaskFilter_2_" filterUnits="userSpaceOnUse" x="247" y="99.2" width="1.3" height="1.9">
				<feColorMatrix  type="matrix" values="1 0 0 0 0  0 1 0 0 0  0 0 1 0 0  0 0 0 1 0"/>
			</filter>
		</defs>
		<mask maskUnits="userSpaceOnUse" x="247" y="99.2" width="1.3" height="1.9" id="mask2_27_2_1_">
			<path class="st24" d="M247,99.2l0.8,0.2c0.3,0.2,0.4,0.5,0.5,0.8c0.1,0.3,0,0.6-0.1,0.9l-0.8-0.2c0.2-0.3,0.2-0.6,0.1-0.9
				C247.4,99.7,247.3,99.4,247,99.2z"/>
		</mask>
		<g class="st25">
			<path class="st21" d="M247,99.2l0.8,0.2c0.3,0.2,0.4,0.5,0.5,0.8c0.1,0.3,0,0.6-0.1,0.9l-0.8-0.2c0.2-0.3,0.2-0.6,0.1-0.9
				C247.4,99.7,247.3,99.4,247,99.2z"/>
		</g>
		<path class="st26" d="M247,99.2c0.3,0.2,0.4,0.5,0.5,0.8c0.1,0.3,0,0.6-0.1,0.9l-8.8,18.4c0,0.1-0.1,0.3-0.2,0.4
			c-0.1,0.1-0.2,0.2-0.4,0.3s-0.3,0.1-0.4,0.1c-0.1,0-0.3,0-0.4-0.1l-14.4-8.2c-0.3-0.2-0.4-0.5-0.5-0.8c-0.1-0.3,0-0.6,0.1-0.9
			l8.8-18.4c0.1-0.1,0.1-0.3,0.2-0.4c0.1-0.1,0.2-0.2,0.4-0.3c0.1-0.1,0.3-0.1,0.4-0.1c0.1,0,0.3,0,0.4,0.1L247,99.2z"/>
		
			<linearGradient id="SVGID_3_" gradientUnits="userSpaceOnUse" x1="223.34" y1="249.5394" x2="246.4487" y2="249.5394" gradientTransform="matrix(1 0 0 -1 0 355)">
			<stop  offset="0" style="stop-color:#7EB1FD"/>
			<stop  offset="1" style="stop-color:#BCD6FC"/>
		</linearGradient>
		<path class="st27" d="M246,99.8c0.2,0.2,0.4,0.4,0.5,0.7c0.1,0.3,0,0.6-0.1,0.8l-8,16.9c0,0.1-0.1,0.2-0.2,0.3
			c-0.1,0.1-0.2,0.2-0.3,0.2c-0.1,0.1-0.3,0.1-0.4,0.1c-0.1,0-0.3,0-0.4-0.1l-13.1-7.6c-0.2-0.2-0.4-0.4-0.5-0.7
			c-0.1-0.3,0-0.6,0.1-0.8l8-16.8c0-0.1,0.1-0.2,0.2-0.3c0.1-0.1,0.2-0.2,0.3-0.2c0.1-0.1,0.3-0.1,0.4-0.1s0.3,0,0.4,0.1L246,99.8z"
			/>
		<path class="st28" d="M199.1,104.4c-5.9-2.6-9.1-1.6-10.7,0.1c-1.6,1.7-2.3,5.6-0.7,9.4S199.1,104.4,199.1,104.4z"/>
		<path class="st29" d="M206.8,216.7l0.3,0.4c0,0.6-0.2,1.2-0.4,1.8c-0.4,0.6-1.6,0.8-4.3,0.7c-0.9,0-1.8-0.2-2.6-0.7
			c-0.8-0.5-1.4-1.2-1.7-2.1c-0.1-0.5-0.3-0.9-0.7-1.2c-0.3-0.3-0.8-0.6-1.2-0.7l-2.2-1.7c-0.3-0.6-0.4-1.2-0.4-1.9
			c0.2-0.6,2.7-0.7,2.7-0.7l3.6,4.1L206.8,216.7z"/>
		<path class="st29" d="M193.7,218.8c0.2,0.2,0.4,0.3,0.6,0.4c0.2,0.1,0.4,0.1,0.7,0c0.2-0.1,0.4-0.2,0.5-0.4
			c0.2-0.4,0.3-3.3,0.7-3.6s1.2,0.3,1.2,0.3s-1.2-3.7-2.2-4c-0.3-0.1-0.6,0-0.9,0.1c-0.3,0.1-0.5,0.3-0.7,0.6
			c0.2,0.6,0.2,1.2,0.2,1.8C193.7,214.7,193.6,218.6,193.7,218.8z"/>
		<path class="st29" d="M202.8,213.5c0.9,0.6,1.8,1.1,2.9,1.5c0.5,0.1,0.9,0.3,1.2,0.7c0.3,0.4,0.4,0.8,0.4,1.3
			c-0.1,0.9-1.3,1.3-2.9,1.7s-3.7,0.5-5.2-2.4s-2.8-4.9-3.8-5.1c-0.6-0.1-1.2-0.1-1.8,0c0,0-0.2-3.4,1.9-3c1.1,0.2,2.2,0.5,3.2,0.9
			L202.8,213.5z"/>
		<path class="st30" d="M202.3,203.6c-0.4,2.3-1.5,6.8,2,9.2c1.3,1.5,0.7,3.4-0.8,3c-0.6-0.3-1.2-0.8-1.5-1.5
			c-0.7-1.1-1.3-2.6-2.4-3.1c-3-1.5-4.7-1.3-4.4-2.4c0.3-1.1-0.1-10.7,0-19.8s3.1-12.3,2.9-14.3c-0.1-1-1.1-4.9-2.1-9.4
			c-1-4-1.6-8.2-2-12.3c-0.3-5.4-1.8-12.5,11.9-14.8c0,0,4.3,12.1,2.8,22.7S202.8,200.8,202.3,203.6z"/>
		<path class="st31" d="M204,179.7c-2.9,2.2-0.7,3.9-2.1,8.6s-2.8,19.4-1.6,21.3c1,1.4,1.7,3,1.8,4.7c-0.7-1.1-1.3-2.6-2.4-3.1
			c-3-1.5-4.7-1.3-4.4-2.4c0.3-1.1-0.1-10.7,0-19.8c0.1-9.1,3.1-12.3,2.9-14.3c-0.1-1-1.1-4.9-2.1-9.4c3.2,0.1,6.2,1.8,7.6,2.3
			C206.4,168.5,206.9,177.4,204,179.7z"/>
		<path class="st29" d="M217.3,221.1c0,0,2.7-1.3,2.7-0.6c-0.1,0.7-0.4,1.4-0.9,2.1c-1.8,1-3.8,1.5-5.9,1.4c-0.7,0-1.4-0.2-2-0.5
			c-0.6-0.3-1.1-0.8-1.5-1.4c-0.8-1-1.6-1.8-2.1-1.8s-2.8,0.4-4.1-0.5c-0.4-0.2-0.7-0.5-0.9-0.9c-0.2-0.4-0.4-0.8-0.4-1.2l2.9,0.4
			l5.7,2.3L217.3,221.1z"/>
		<path class="st29" d="M207.2,219.6c0,0-0.8,1.3-0.8,1.6c-0.1,0.3-0.2,2.8-0.2,3.1c0,0.2-0.8,0.2-1.1,0.2c-0.3-0.1-0.5-0.4-0.5-0.4
			c-0.1-1.4-0.4-2.8-0.8-4.1c-0.2-0.4-0.4-0.7-0.6-1.1C204.4,219.4,205.8,219.6,207.2,219.6z"/>
		<path class="st29" d="M212.2,218.1c1-0.4,2-0.5,3.1-0.5c1,0.3,4.3,1.8,4.6,2.5c0.3,0.7-1.9,1.7-2.8,2.3c-1.5,0.8-3.2,1.1-4.9,0.7
			c-1.6-0.5-2.6-3.5-4.4-3.6c-1.8-0.1-3.2,0.3-4.7-0.6s-1.5-5,0-4.6C204.6,214.7,212.2,218.1,212.2,218.1z"/>
		<path class="st30" d="M213.2,220.3c-0.1,0-0.2-0.1-0.3-0.1c-1.4-0.8-2.2-2.8-5.6-4.1c-3.3-1.2-4.7,0-4.4-1.1
			c0.3-1.1,0-11.7,0.2-20.7c0.2-9,3-13.6,2.8-15.5c-0.2-1.7-3.9-6.8-4-16c0-1.9,0.1-3.7,0.4-5.6c0.8-5.3-1.9-12.5,11.9-14.8
			c0,0,2.9,26.3,0.8,36.8c-2,9.7-5.6,28-5.3,30.7c0.2,1.4-0.6,4,5.2,7.8C216.4,218.7,214.6,220.6,213.2,220.3z"/>
		<path class="st31" d="M206.3,190.9c-0.6,3-1.2,22,0.3,22.8c2.8,1.4,5.5,4.8,6.6,6.6c-0.1,0-0.2-0.1-0.3-0.1
			c-1.4-0.8-2.2-2.8-5.6-4.1c-3.3-1.2-4.7,0-4.4-1.1c0.3-1.1,0-11.7,0.2-20.7c0.2-9,3-13.6,2.8-15.5c-0.2-1.7-3.9-6.8-4-16
			c9.9-6.7,12.8,3.6,12.3,6.3C211.6,183.6,208,182.3,206.3,190.9z"/>
		<path class="st32" d="M220.9,173.1c0.1,1-0.1,2.1-0.6,3c-0.5,0.9-1.3,1.6-2.2,2c-1.2,0.7-2.6,1.2-4.1,1.4c-2.1,0.3-4.7-0.1-9.3-1
			c-7.6-1.5-10.9-5.6-10.9-5.6s0-5.8-1.4-18.6c-0.9-8.4,1.2-13.3,2.7-15.7c0.4-0.7,0.9-1.3,1.5-1.8c0,0,10.4-1.1,16.9,0.8
			c1,0.3,2,0.7,2.9,1.2c0.6,0.4,1.2,0.8,1.6,1.4C222,145.5,220.9,172.8,220.9,173.1z"/>
		<path class="st5" d="M214,179.6c-2.1,0.3-4.7-0.1-9.3-1c-7.6-1.5-10.9-5.6-10.9-5.6s0-5.8-1.4-18.6c-0.9-8.4,1.5-11.6,1.7-16.9
			c0.2,0.5,0.9,2,0.9,2.1c-0.2,1.2,0.6,3.8,8.6,5.6c4.5,1,7.6,0.5,9.6-0.3c0.1,4.6,0.7,9.2,1.8,13.7
			C216.5,165.6,216.2,172.8,214,179.6z"/>
		<path class="st5" d="M205.9,107.4c6,3.1,9.1,4.3,10.5,6.4c1.4,2.1,5.2,8.8,5,12.7s-3.7,2.7-4.1,6.6s1.4,6.2,1.2,8.1
			c-0.4,3.1-6.5,7.2-18,3.4c-6.3-2.7-6.2-3.9-6.2-7.3c0.1-12.6-6-19.8-6.6-24.8c-0.6-5,2.5-9.3,6.8-9.2
			C198.2,103.2,205.9,107.4,205.9,107.4z"/>
		<path class="st13" d="M230,127c-0.7-0.8-10.8-8.8-10.8-8.8c-0.5-0.2-1.1-0.3-1.7-0.2c-0.6,0-1.1,0.2-1.6,0.5
			c-0.5,0.3-1,0.6-1.3,1.1c-0.4,0.4-0.7,0.9-0.8,1.5c-1.7,4.2-1.8,5.2,1.2,7.1c3,1.9,10.4,5.8,13.5,5.1c0.9-0.2,1.7-0.6,2.4-1.2
			c0.7-0.6,1.2-1.4,1.5-2.2L230,127z"/>
		<path class="st13" d="M225.8,130.5c-0.6-2.8-1.1-2.4,0.8-4.3c1.9-1.8,8.9-9.8,9.5-11c0.7-1.5,1.4-2.9,2.2-4.3
			c0.6-0.7,1.4-1.4,2.1-1.9c0.1-0.2,0.3-0.4,0.6-0.5c0.2-0.1,0.5-0.2,0.7-0.1c0.8,0.1,0.4,1,0.2,1.3c-0.3,0.3-1.3,1.3-1.3,1.3
			s-0.2,0.5-0.1,0.7c0.1,0.2,1,0.3,1.7,0.2c0.5-0.2,0.9-0.4,1.3-0.8c0,0,0.1-0.3,0.3-1c0.1-0.4,0.3-0.8,0.6-1c0,0,0.8,1.6,1,2
			c0.1,0.3,0,0.7-0.1,1c0.1,0.3,0.2,0.6,0.1,0.8c-0.2,0.5-0.4,1-0.7,1.5c-0.2,0.5-0.4,1-0.6,1.4c-0.4,0.6-0.9,1.2-1.4,1.6
			c-0.7,0.3-1.4,0.6-2.1,0.8c-0.8,0.3-1.7,0.7-2.5,1.1c-0.1,0.2-3.2,7.6-5.2,10.5c-2,2.9-3.9,3.4-3.9,3.4L225.8,130.5z"/>
		<path class="st13" d="M221.8,106.6c2.4,0.4,2.8-1.9,3-2.2c0.6-0.7,1.4-1.2,2.2-1.5c0.7,0,1.6-0.2,1.7-1.3
			c-0.1-0.1-0.2-0.1-0.4-0.1c-0.1,0-0.3,0-0.4,0.1c0,0-1.8,0.3-2.1,0.3c-0.9,0.2-1.8,0.6-2.6,1.1c-0.5,0.4-1.9,1.1-2.3,1.7
			C220.8,105.4,220.5,106.5,221.8,106.6z"/>
		<path class="st13" d="M196.5,95.4c0.7,1.3,0.4,7.7-0.3,8.5c-0.5,0.5-1.2,1-1.9,1.3c0,0,0.3,1.3,4.6,2.4c2.6,0.7,5.4,0.8,8.1,0.3
			c0,0,0.3-5.6,0.7-5.9c0.4-0.3,0.5,0.6,2.7-0.4s3-6.8,3.1-7.6c0.2-0.8,0.1-8.5-1.4-9.8c-1.5-1.3-8.2-1.3-8.2-1.3L196.5,95.4z"/>
		<path class="st13" d="M209.3,95c0-1.1,0.2-1.8-0.4-1.9c-0.7,0-1.4,0.9-1.2,2.4c0.2,1.4,1,3.2,1.2,2C209.1,96.3,209.3,95,209.3,95z
			"/>
		<path class="st18" d="M210.4,96.5c0.8-1.3,1.3-2.7,1.4-4.2c0-0.9,0.1-1.8,0.4-2.6c0.4-1.8,0.5-3.6,0.3-5.4
			c-0.5-2.4-4.8-3.4-4.8-3.4c-1.7-1.1-3.6-1.7-5.6-1.6c-3.8-0.1-9,3.2-9.5,9.6c-0.5,6.4,2.1,6.6,2.7,8.2s1,2.6,1.5,3
			s0.5,0.8,2.9,1.2c2.4,0.4,3.3,0,3.9-1s2.1-3.2,3-3.4c0.9-0.2,1.8-2.6,2.2-3C209.3,93.4,210.2,93.6,210.4,96.5z"/>
		<path class="st32" d="M213.6,111.4c-1.8-0.6-3.6,1-3.6,1c-1.8,2-2.7,4.6-2.6,7.3c0.3,4.4,6.7,8.5,7.8,8.6c4.9,0.4,7.3-6.3,6.3-9
			C218.4,115,216.1,112.7,213.6,111.4z"/>
		<path class="st18" d="M196.3,89.4c-2.8-2-9.9-3-10.9,5.3c-0.6,5.4,2.5,8.1,3,10.9c0.6,3.6,0.4,6.8-5,7.4c3.1,3.6,7.7,4.4,12.5,1
			c8.8-6.1-3.4-16.8,0-20C196.9,93,196.3,89.4,196.3,89.4z"/>
		<path class="st33" d="M193.7,88.4c2.3-0.5,3.5,4,2.2,5.6c1.9-0.5,2.5-1.4,2.2-3.6S195.8,87.6,193.7,88.4z"/>
	</g>
</g>
</svg>
