<?xml version="1.0" encoding="utf-8"?>
<!-- Generator: Adobe Illustrator 25.0.0, SVG Export Plug-In . SVG Version: 6.00 Build 0)  -->
<svg version="1.1" id="Layer_1" xmlns="http://www.w3.org/2000/svg" xmlns:xlink="http://www.w3.org/1999/xlink" x="0px" y="0px"
	 viewBox="0 0 379 351" style="enable-background:new 0 0 379 351;" xml:space="preserve">
<style type="text/css">
	.st0{clip-path:url(#SVGID_2_);}
	.st1{fill:none;stroke:#222222;stroke-miterlimit:10;}
	.st2{fill:#111111;}
	.st3{fill:#222222;}
	.st4{fill:#CF5301;}
	.st5{fill:#FF6601;}
	.st6{fill:#FFFFFF;}
</style>
<g>
	<defs>
		<rect id="SVGID_1_" width="378.8" height="350.6"/>
	</defs>
	<clipPath id="SVGID_2_">
		<use xlink:href="#SVGID_1_"  style="overflow:visible;"/>
	</clipPath>
	<g class="st0">
		<path class="st1" d="M324.6,240.8c20.9,12,21,31.6,0.2,43.6L227.5,341c-20.7,12.1-54.5,12.1-75.3,0l-98-56.6
			c-20.9-12-21-31.6-0.2-43.6l97.4-56.6c20.7-12.1,54.5-12.1,75.3,0L324.6,240.8z"/>
		<path class="st2" d="M359.4,205.9l-122.1,71c-26,15.1-68.3,15.1-94.5,0l-122.9-71C6.6,198.2,0,188.3,0,178.3v14.1
			c0,10,6.6,20,19.7,27.6l122.9,71c26.2,15.1,68.5,15.1,94.5,0l122.1-71c12.9-7.5,19.4-17.3,19.4-27.2v-14.1
			C378.8,188.5,372.3,198.4,359.4,205.9z"/>
		<path class="st3" d="M359.1,151.1c26.2,15.1,26.3,39.6,0.3,54.8l-122.1,71c-26,15.1-68.3,15.1-94.5,0l-122.9-71
			c-26.2-15.1-26.3-39.6-0.3-54.8l122.1-71c26-15.1,68.3-15.1,94.5,0L359.1,151.1z"/>
		<path class="st4" d="M149.5,24.9l2.2-1.3c-1.5,5.7-2.3,11.5-2.2,17.4v8.1c0,29.1,34.9,103.5,47.8,129.8
			c1.3,2.7-9.8,15.4-10.4,16.1c0,0,0,0,0,0c0,0,0,0,0,0l19.5-11c0,0,47.9-38.7,47.9-74.4v-8.1c0-35.6-23.5-78.1-52.4-94.8
			C194,2.2,186.5,0,179.7,0c-5.4-0.1-10.6,1.5-15.1,4.4l-19.3,11.1l-0.6,0.4L149.5,24.9z M154.8,64.3c0-14.8,9.2-21.8,21.4-17.4
			c2.2-12.8,12.9-17.3,25.7-9.8c-1.1,10.7,18.4,44.2,26.2,45.4c0,14.8-9.2,21.8-21.4,17.4c-2.2,12.8-12.9,17.3-25.8,9.9
			C166.5,101.3,154.8,81,154.8,64.3z"/>
		<path class="st5" d="M128.6,53.1v8.1c0,29.5,36,105.6,48.3,130.9c0.4,0.9,1,1.7,1.8,2.3c0.8,0.6,1.6,1.1,2.6,1.4
			c0.9,0.3,1.9,0.3,2.9,0.2c1-0.1,1.9-0.5,2.7-1c0,0,0,0,0,0c0,0,0,0,0,0c0.4-0.2,0.7-0.5,1-0.8c14.3-13.2,45.4-45,45.4-72.5v-8.1
			c-0.1-10.6-1.9-21.1-5.3-31.2C219.6,56,201.7,30.8,181,18.9c-13.8-7.9-26.3-8.6-35.6-3.4l-0.6,0.4
			C134.8,21.8,128.6,34.8,128.6,53.1z M181,109.7c-14.5-8.4-26.2-28.7-26.2-45.4c0-14.8,9.2-21.8,21.4-17.4c1.7,0.6,3.3,1.4,4.8,2.2
			c14.5,8.4,26.2,28.7,26.2,45.4c0,1.8-0.1,3.5-0.5,5.3C204.5,112.6,193.8,117.1,181,109.7z"/>
		<path class="st6" d="M172.4,40.1c2,0.7,3.9,1.7,5.8,2.7c17.5,10.1,31.7,34.7,31.7,54.9c0,2.1-0.2,4.3-0.5,6.4
			c-2.7,15.5-15.6,20.9-31.1,11.9c-17.5-10.1-31.7-34.7-31.7-54.9C146.5,43.2,157.6,34.7,172.4,40.1z"/>
		<path class="st4" d="M178.4,56c-6-3.5-10.9-0.7-10.9,6.3s4.9,15.3,10.9,18.8c6,3.5,10.8,0.7,10.8-6.3
			C189.3,67.9,184.4,59.5,178.4,56z"/>
		<path class="st4" d="M199.1,118.9c-5.6,2.4-12.9,1.7-20.9-3c-8-4.7-15.3-12.3-20.9-21.2v-1.8c0-11.4,8-16,17.8-10.3l6.2,3.6
			c9.8,5.7,17.8,19.5,17.8,30.9V118.9z"/>
	</g>
</g>
</svg>
