<svg width="379" height="330" viewBox="0 0 379 330" fill="none" xmlns="http://www.w3.org/2000/svg">
<g clip-path="url(#clip0_26_781)">
<path d="M324.65 219.62C345.53 231.68 345.65 251.22 324.89 263.27L227.53 319.85C206.79 331.85 173.06 331.85 152.19 319.85L54.1902 263.27C33.3102 251.27 33.1902 231.68 53.9402 219.62L151.3 163.05C172.04 150.99 205.78 150.99 226.65 163.05L324.65 219.62Z" stroke="#111111" stroke-miterlimit="10"/>
<path d="M359.37 184.66L237.24 255.66C211.24 270.78 168.9 270.78 142.71 255.66L19.77 184.66C6.59 177.05 0 167.07 0 157.09V171.22C0 181.22 6.55 191.22 19.73 198.79L142.67 269.79C168.86 284.92 211.18 284.92 237.2 269.79L359.33 198.79C372.26 191.27 378.73 181.44 378.76 171.6V157.47C378.77 167.32 372.3 177.15 359.37 184.66Z" fill="#111111"/>
<path d="M359.06 129.91C385.25 145.03 385.39 169.54 359.37 184.66L237.24 255.66C211.24 270.78 168.9 270.78 142.71 255.66L19.7701 184.66C-6.4199 169.54 -6.5499 145.03 19.4701 129.91L141.6 58.9099C167.6 43.7899 209.94 43.7899 236.13 58.9099L359.06 129.91Z" fill="#1E1E1E"/>
<path d="M146.06 157.17L172.39 141.87L182.44 147.67L156.11 162.97L146.06 157.17Z" fill="#909090"/>
<path d="M146.09 145.62L172.42 130.32L172.39 141.87L146.06 157.17L146.09 145.62Z" fill="#919191"/>
<path d="M146.09 145.62L172.42 130.32L182.47 136.12L156.14 151.42L146.09 145.62Z" fill="#177A7A"/>
<path d="M156.14 151.42L182.47 136.12L182.44 147.67L156.11 162.97L156.14 151.42Z" fill="#177B7A"/>
<path d="M158.43 164.31L184.75 149L194.8 154.81L168.47 170.11L158.43 164.31Z" fill="#909090"/>
<path d="M158.46 152.76L184.79 137.46L184.75 149L158.43 164.31L158.46 152.76Z" fill="#919191"/>
<path d="M146.1 142.96L172.43 127.66L182.48 133.46L156.15 148.76L146.1 142.96Z" fill="#909090"/>
<path d="M146.13 131.42L172.46 116.12L172.43 127.66L146.1 142.96L146.13 131.42Z" fill="#919191"/>
<path d="M168.5 158.56L194.83 143.26L194.8 154.81L168.47 170.11L168.5 158.56Z" fill="#40175A"/>
<path d="M158.46 152.76L184.79 137.46L194.83 143.26L168.5 158.56L158.46 152.76Z" fill="#3F175A"/>
<path d="M168.5 158.56L168.47 170.11L158.43 164.31L158.46 152.76L168.5 158.56Z" fill="#592781"/>
<path d="M146.13 131.42L172.46 116.12L182.51 121.92L156.18 137.22L146.13 131.42Z" fill="#177A7A"/>
<path d="M156.18 137.22L156.15 148.76L146.1 142.96L146.13 131.42L156.18 137.22Z" fill="#1EAFAF"/>
<path d="M156.18 137.22L182.51 121.92L182.48 133.46L156.15 148.76L156.18 137.22Z" fill="#177B7A"/>
<path d="M170.79 171.44L197.12 156.14L207.16 161.94L180.84 177.25L170.79 171.44Z" fill="#909090"/>
<path d="M170.82 159.9L197.15 144.6L197.12 156.14L170.79 171.44L170.82 159.9Z" fill="#919191"/>
<path d="M158.47 150.1L184.79 134.8L194.84 140.6L168.51 155.9L158.47 150.1Z" fill="#909090"/>
<path d="M158.5 138.56L184.83 123.26L184.79 134.8L158.47 150.1L158.5 138.56Z" fill="#919191"/>
<path d="M146.14 128.76L172.47 113.46L182.52 119.26L156.19 134.56L146.14 128.76Z" fill="#909090"/>
<path d="M146.17 117.21L172.5 101.91L172.47 113.46L146.14 128.76L146.17 117.21Z" fill="#919191"/>
<path d="M180.87 165.7L180.84 177.25L170.79 171.44L170.82 159.9L180.87 165.7Z" fill="#E34F14"/>
<path d="M170.82 159.9L197.15 144.6L207.2 150.4L180.87 165.7L170.82 159.9Z" fill="#993807"/>
<path d="M180.87 165.7L207.2 150.4L207.16 161.94L180.84 177.25L180.87 165.7Z" fill="#9A3807"/>
<path d="M168.54 144.36L194.87 129.06L194.84 140.6L168.51 155.9L168.54 144.36Z" fill="#40175A"/>
<path d="M158.5 138.56L184.83 123.26L194.87 129.06L168.54 144.36L158.5 138.56Z" fill="#3F175A"/>
<path d="M146.17 117.21L172.5 101.91L182.55 107.71L156.22 123.01L146.17 117.21Z" fill="#177A7A"/>
<path d="M156.22 123.01L182.55 107.71L182.52 119.26L156.19 134.56L156.22 123.01Z" fill="#177B7A"/>
<path d="M183.15 178.58L209.48 163.28L219.53 169.08L193.2 184.38L183.15 178.58Z" fill="#909090"/>
<path d="M183.19 167.04L209.52 151.74L209.48 163.28L183.15 178.58L183.19 167.04Z" fill="#919191"/>
<path d="M170.83 157.24L197.16 141.94L207.21 147.74L180.88 163.04L170.83 157.24Z" fill="#909090"/>
<path d="M170.86 145.7L197.19 130.4L197.16 141.94L170.83 157.24L170.86 145.7Z" fill="#919191"/>
<path d="M158.51 135.9L184.84 120.59L194.88 126.39L168.55 141.7L158.51 135.9Z" fill="#909090"/>
<path d="M158.54 124.35L184.87 109.05L184.84 120.59L158.51 135.9L158.54 124.35Z" fill="#919191"/>
<path d="M146.18 114.55L172.51 99.25L182.56 105.05L156.23 120.35L146.18 114.55Z" fill="#909090"/>
<path d="M146.21 103.01L172.54 87.7L172.51 99.25L146.18 114.55L146.21 103.01Z" fill="#919191"/>
<path d="M193.23 172.84L219.56 157.54L219.53 169.08L193.2 184.38L193.23 172.84Z" fill="#A4790E"/>
<path d="M183.19 167.04L209.52 151.74L219.56 157.54L193.23 172.84L183.19 167.04Z" fill="#A3780E"/>
<path d="M193.23 172.84L193.2 184.38L183.16 178.58L183.19 167.04L193.23 172.84Z" fill="#F3AD14"/>
<path d="M180.91 151.5L207.24 136.2L207.21 147.74L180.88 163.04L180.91 151.5Z" fill="#9A3807"/>
<path d="M170.86 145.7L197.19 130.4L207.24 136.2L180.91 151.5L170.86 145.7Z" fill="#993807"/>
<path d="M168.59 130.15L168.55 141.7L158.51 135.9L158.54 124.35L168.59 130.15Z" fill="#592781"/>
<path d="M158.54 124.35L184.87 109.05L194.91 114.85L168.59 130.15L158.54 124.35Z" fill="#3F175A"/>
<path d="M168.59 130.15L194.91 114.85L194.88 126.39L168.55 141.7L168.59 130.15Z" fill="#40175A"/>
<path d="M156.26 108.81L156.23 120.35L146.18 114.55L146.21 103.01L156.26 108.81Z" fill="#1EAFAF"/>
<path d="M146.21 103.01L172.54 87.7L182.59 93.5L156.26 108.81L146.21 103.01Z" fill="#177A7A"/>
<path d="M156.26 108.81L182.59 93.5L182.56 105.05L156.23 120.35L156.26 108.81Z" fill="#177B7A"/>
<path d="M183.19 164.38L209.52 149.07L219.56 154.87L193.24 170.17L183.19 164.38Z" fill="#909090"/>
<path d="M183.23 152.84L209.56 137.54L209.52 149.07L183.19 164.38L183.23 152.84Z" fill="#919191"/>
<path d="M170.87 143.03L197.2 127.73L207.25 133.53L180.92 148.84L170.87 143.03Z" fill="#909090"/>
<path d="M170.9 131.49L197.23 116.19L197.2 127.73L170.87 143.03L170.9 131.49Z" fill="#919191"/>
<path d="M158.55 121.69L184.88 106.39L194.92 112.19L168.59 127.49L158.55 121.69Z" fill="#909090"/>
<path d="M158.58 110.14L184.91 94.84L184.88 106.39L158.55 121.69L158.58 110.14Z" fill="#919191"/>
<path d="M146.22 100.34L172.55 85.0399L182.6 90.8399L156.27 106.14L146.22 100.34Z" fill="#909090"/>
<path d="M146.25 88.8L172.58 73.5L172.55 85.04L146.22 100.34L146.25 88.8Z" fill="#919191"/>
<path d="M183.23 152.84L209.56 137.54L219.6 143.33L193.27 158.63L183.23 152.84Z" fill="#A3780E"/>
<path d="M193.27 158.63L193.24 170.17L183.19 164.38L183.23 152.84L193.27 158.63Z" fill="#F3AD14"/>
<path d="M193.27 158.63L219.6 143.33L219.56 154.87L193.24 170.17L193.27 158.63Z" fill="#A4790E"/>
<path d="M180.95 137.29L207.28 121.99L207.25 133.53L180.92 148.84L180.95 137.29Z" fill="#9A3807"/>
<path d="M170.9 131.49L197.23 116.19L207.28 121.99L180.95 137.29L170.9 131.49Z" fill="#993807"/>
<path d="M180.95 137.29L180.92 148.84L170.87 143.03L170.9 131.49L180.95 137.29Z" fill="#E34F14"/>
<path d="M158.58 110.14L184.91 94.84L194.95 100.64L168.63 115.94L158.58 110.14Z" fill="#3F175A"/>
<path d="M168.63 115.94L168.59 127.49L158.55 121.69L158.58 110.14L168.63 115.94Z" fill="#592781"/>
<path d="M168.63 115.94L194.95 100.64L194.92 112.19L168.59 127.49L168.63 115.94Z" fill="#40175A"/>
<path d="M156.3 94.5999L182.63 79.2999L182.6 90.8399L156.27 106.14L156.3 94.5999Z" fill="#177B7A"/>
<path d="M156.3 94.5999L156.27 106.14L146.22 100.34L146.25 88.7999L156.3 94.5999Z" fill="#1EAFAF"/>
<path d="M146.25 88.8L172.58 73.5L182.63 79.3L156.3 94.6L146.25 88.8Z" fill="#177A7A"/>
<path d="M183.24 150.17L209.56 134.87L219.61 140.67L193.28 155.97L183.24 150.17Z" fill="#909090"/>
<path d="M183.27 138.63L209.6 123.33L209.56 134.87L183.24 150.17L183.27 138.63Z" fill="#919191"/>
<path d="M170.91 128.83L197.24 113.53L207.29 119.33L180.96 134.63L170.91 128.83Z" fill="#909090"/>
<path d="M170.94 117.28L197.27 101.98L197.24 113.53L170.91 128.83L170.94 117.28Z" fill="#919191"/>
<path d="M158.59 107.48L184.92 92.1799L194.96 97.9799L168.63 113.28L158.59 107.48Z" fill="#909090"/>
<path d="M158.62 95.94L184.95 80.64L184.92 92.18L158.59 107.48L158.62 95.94Z" fill="#919191"/>
<path d="M146.26 86.13L172.59 70.83L182.64 76.63L156.31 91.93L146.26 86.13Z" fill="#909090"/>
<path d="M146.29 74.5899L172.62 59.2899L172.59 70.8299L146.26 86.1299L146.29 74.5899Z" fill="#919191"/>
<path d="M193.31 144.43L193.28 155.97L183.24 150.17L183.27 138.63L193.31 144.43Z" fill="#F3AD14"/>
<path d="M183.27 138.63L209.6 123.33L219.64 129.13L193.31 144.43L183.27 138.63Z" fill="#A3780E"/>
<path d="M193.31 144.43L219.64 129.13L219.61 140.67L193.28 155.97L193.31 144.43Z" fill="#A4790E"/>
<path d="M180.99 123.08L207.32 107.78L207.29 119.33L180.96 134.63L180.99 123.08Z" fill="#9A3807"/>
<path d="M170.94 117.28L197.27 101.98L207.32 107.78L180.99 123.08L170.94 117.28Z" fill="#993807"/>
<path d="M180.99 123.08L180.96 134.63L170.91 128.83L170.94 117.28L180.99 123.08Z" fill="#E34F14"/>
<path d="M168.66 101.74L168.63 113.28L158.59 107.48L158.62 95.9399L168.66 101.74Z" fill="#592781"/>
<path d="M168.66 101.74L195 86.4399L194.96 97.9799L168.63 113.28L168.66 101.74Z" fill="#40175A"/>
<path d="M158.62 95.94L184.95 80.64L195 86.44L168.66 101.74L158.62 95.94Z" fill="#3F175A"/>
<path d="M156.34 80.39L182.67 65.09L182.64 76.63L156.31 91.93L156.34 80.39Z" fill="#177B7A"/>
<path d="M146.29 74.5899L172.62 59.2899L182.67 65.0899L156.34 80.3899L146.29 74.5899Z" fill="#177A7A"/>
<path d="M156.34 80.39L156.31 91.93L146.26 86.13L146.29 74.59L156.34 80.39Z" fill="#1EAFAF"/>
<path d="M183.28 135.97L209.6 120.67L219.65 126.46L193.32 141.76L183.28 135.97Z" fill="#909090"/>
<path d="M183.31 124.42L209.64 109.12L209.6 120.67L183.28 135.97L183.31 124.42Z" fill="#919191"/>
<path d="M170.95 114.62L197.28 99.3199L207.33 105.12L181 120.42L170.95 114.62Z" fill="#909090"/>
<path d="M170.98 103.08L197.31 87.77L197.28 99.32L170.95 114.62L170.98 103.08Z" fill="#919191"/>
<path d="M158.63 93.27L184.96 77.97L195 83.77L168.67 99.07L158.63 93.27Z" fill="#909090"/>
<path d="M158.66 81.7299L184.99 66.4299L184.96 77.9699L158.63 93.2699L158.66 81.7299Z" fill="#919191"/>
<path d="M146.3 71.93L172.63 56.63L182.68 62.42L156.35 77.73L146.3 71.93Z" fill="#909090"/>
<path d="M146.34 60.38L172.66 45.08L172.63 56.63L146.3 71.93L146.34 60.38Z" fill="#919191"/>
<path d="M193.35 130.22L193.32 141.76L183.28 135.97L183.31 124.42L193.35 130.22Z" fill="#F3AD14"/>
<path d="M183.31 124.42L209.64 109.12L219.68 114.92L193.35 130.22L183.31 124.42Z" fill="#A3780E"/>
<path d="M193.35 130.22L219.68 114.92L219.65 126.46L193.32 141.76L193.35 130.22Z" fill="#A4790E"/>
<path d="M181.03 108.88L207.36 93.58L207.33 105.12L181 120.42L181.03 108.88Z" fill="#9A3807"/>
<path d="M181.03 108.88L181 120.42L170.95 114.62L170.98 103.08L181.03 108.88Z" fill="#E34F14"/>
<path d="M170.98 103.08L197.31 87.77L207.36 93.58L181.03 108.88L170.98 103.08Z" fill="#993807"/>
<path d="M158.66 81.7299L184.99 66.4299L195.03 72.2299L168.71 87.5299L158.66 81.7299Z" fill="#3F175A"/>
<path d="M168.71 87.53L195.03 72.23L195 83.77L168.67 99.07L168.71 87.53Z" fill="#40175A"/>
<path d="M156.38 66.18L182.71 50.88L182.68 62.43L156.35 77.73L156.38 66.18Z" fill="#177B7A"/>
<path d="M146.34 60.38L172.66 45.08L182.71 50.88L156.38 66.18L146.34 60.38Z" fill="#177A7A"/>
<path d="M183.32 121.76L209.65 106.46L219.69 112.25L193.36 127.56L183.32 121.76Z" fill="#909090"/>
<path d="M183.35 110.21L209.68 94.9099L209.65 106.46L183.32 121.76L183.35 110.21Z" fill="#919191"/>
<path d="M170.99 100.41L197.32 85.11L207.37 90.91L181.04 106.21L170.99 100.41Z" fill="#909090"/>
<path d="M171.02 88.8699L197.35 73.5699L197.32 85.1099L170.99 100.41L171.02 88.8699Z" fill="#919191"/>
<path d="M158.67 79.06L185 63.76L195.04 69.56L168.71 84.86L158.67 79.06Z" fill="#909090"/>
<path d="M158.7 67.52L185.03 52.22L185 63.76L158.67 79.06L158.7 67.52Z" fill="#919191"/>
<path d="M146.34 57.7199L172.67 42.4199L182.72 48.2199L156.39 63.5199L146.34 57.7199Z" fill="#909090"/>
<path d="M146.38 46.18L172.71 30.88L172.67 42.42L146.34 57.72L146.38 46.18Z" fill="#919191"/>
<path d="M183.35 110.21L209.68 94.9099L219.72 100.71L193.39 116.01L183.35 110.21Z" fill="#A3780E"/>
<path d="M193.39 116.01L219.72 100.71L219.69 112.25L193.36 127.56L193.39 116.01Z" fill="#A4790E"/>
<path d="M171.02 88.8699L197.35 73.5699L207.4 79.3699L181.07 94.6699L171.02 88.8699Z" fill="#993807"/>
<path d="M181.07 94.67L181.04 106.21L170.99 100.41L171.02 88.87L181.07 94.67Z" fill="#E34F14"/>
<path d="M181.07 94.67L207.4 79.37L207.37 90.91L181.04 106.21L181.07 94.67Z" fill="#9A3807"/>
<path d="M168.75 73.32L195.07 58.02L195.04 69.56L168.71 84.86L168.75 73.32Z" fill="#40175A"/>
<path d="M158.7 67.52L185.03 52.22L195.07 58.02L168.75 73.32L158.7 67.52Z" fill="#3F175A"/>
<path d="M168.75 73.32L168.71 84.86L158.67 79.06L158.7 67.52L168.75 73.32Z" fill="#592781"/>
<path d="M146.38 46.18L172.71 30.88L182.75 36.68L156.42 51.98L146.38 46.18Z" fill="#7F7F7F"/>
<path d="M156.42 51.9799L182.75 36.6799L182.72 48.2199L156.39 63.5199L156.42 51.9799Z" fill="#7F7F7F"/>
<path d="M156.42 51.9799L156.39 63.5199L146.34 57.7199L146.38 46.1799L156.42 51.9799Z" fill="#CCCCCC"/>
<path d="M183.36 107.55L209.69 92.25L219.73 98.05L193.4 113.35L183.36 107.55Z" fill="#909090"/>
<path d="M183.39 96.01L209.72 80.7L209.69 92.25L183.36 107.55L183.39 96.01Z" fill="#919191"/>
<path d="M171.03 86.2L197.36 70.9L207.41 76.7L181.08 92L171.03 86.2Z" fill="#909090"/>
<path d="M171.06 74.66L197.39 59.36L197.36 70.9L171.03 86.2L171.06 74.66Z" fill="#919191"/>
<path d="M158.71 64.8599L185.04 49.5599L195.08 55.3599L168.75 70.6599L158.71 64.8599Z" fill="#909090"/>
<path d="M158.74 53.32L185.07 38.02L185.04 49.56L158.71 64.86L158.74 53.32Z" fill="#919191"/>
<path d="M146.38 43.52L172.71 28.21L182.76 34.02L156.43 49.32L146.38 43.52Z" fill="#909090"/>
<path d="M146.42 31.9699L172.75 16.6699L172.71 28.2099L146.38 43.5199L146.42 31.9699Z" fill="#919191"/>
<path d="M183.39 96.01L209.72 80.7L219.76 86.5L193.43 101.8L183.39 96.01Z" fill="#A3780E"/>
<path d="M193.43 101.8L193.4 113.35L183.36 107.55L183.39 96.01L193.43 101.8Z" fill="#F3AD14"/>
<path d="M193.43 101.8L219.76 86.5L219.73 98.05L193.4 113.35L193.43 101.8Z" fill="#A4790E"/>
<path d="M181.11 80.4599L207.44 65.1599L207.41 76.6999L181.08 91.9999L181.11 80.4599Z" fill="#7F7F7F"/>
<path d="M181.11 80.4599L181.08 91.9999L171.03 86.1999L171.06 74.6599L181.11 80.4599Z" fill="#CCCCCC"/>
<path d="M171.06 74.66L197.39 59.36L207.44 65.16L181.11 80.46L171.06 74.66Z" fill="#7F7F7F"/>
<path d="M168.79 59.1199L195.12 43.8199L195.08 55.3599L168.75 70.66L168.79 59.1199Z" fill="#40175A"/>
<path d="M168.79 59.1199L168.75 70.66L158.71 64.8599L158.74 53.3199L168.79 59.1199Z" fill="#592781"/>
<path d="M158.74 53.32L185.07 38.02L195.12 43.82L168.79 59.12L158.74 53.32Z" fill="#3F175A"/>
<path d="M156.46 37.77L182.79 22.47L182.76 34.02L156.43 49.32L156.46 37.77Z" fill="#7F7F7F"/>
<path d="M146.42 31.9699L172.75 16.6699L182.79 22.4699L156.46 37.7699L146.42 31.9699Z" fill="#7F7F7F"/>
<path d="M183.4 93.3399L209.72 78.0399L219.77 83.8399L193.44 99.1399L183.4 93.3399Z" fill="#909090"/>
<path d="M183.43 81.8L209.76 66.5L209.72 78.04L183.4 93.34L183.43 81.8Z" fill="#919191"/>
<path d="M171.07 72L197.4 56.7L207.45 62.49L181.12 77.8L171.07 72Z" fill="#909090"/>
<path d="M171.1 60.4599L197.43 45.1599L197.4 56.6999L171.07 71.9999L171.1 60.4599Z" fill="#919191"/>
<path d="M158.75 50.66L185.08 35.35L195.12 41.15L168.79 56.45L158.75 50.66Z" fill="#909090"/>
<path d="M158.78 39.1099L185.11 23.8099L185.08 35.3499L158.75 50.6599L158.78 39.1099Z" fill="#919191"/>
<path d="M146.42 29.31L172.75 14.01L182.8 19.81L156.47 35.11L146.42 29.31Z" fill="#909090"/>
<path d="M146.46 17.76L172.78 2.45996L172.75 14.01L146.42 29.31L146.46 17.76Z" fill="#919191"/>
<path d="M183.43 81.8L209.76 66.5L219.8 72.3L193.47 87.6L183.43 81.8Z" fill="#A3780E"/>
<path d="M193.47 87.5999L193.44 99.1399L183.4 93.3399L183.43 81.7999L193.47 87.5999Z" fill="#F3AD14"/>
<path d="M193.47 87.5999L219.8 72.2999L219.77 83.8399L193.44 99.1399L193.47 87.5999Z" fill="#A4790E"/>
<path d="M181.15 66.26L207.48 50.96L207.45 62.49L181.12 77.8L181.15 66.26Z" fill="#7F7F7F"/>
<path d="M181.15 66.26L181.12 77.8L171.07 72L171.1 60.46L181.15 66.26Z" fill="#CCCCCC"/>
<path d="M171.1 60.4599L197.43 45.1599L207.48 50.9599L181.15 66.2599L171.1 60.4599Z" fill="#7F7F7F"/>
<path d="M168.83 44.91L195.16 29.61L195.12 41.15L168.79 56.45L168.83 44.91Z" fill="#40175A"/>
<path d="M158.78 39.1099L185.11 23.8099L195.16 29.6099L168.83 44.9099L158.78 39.1099Z" fill="#3F175A"/>
<path d="M156.5 23.57L182.83 8.26001L182.8 19.81L156.47 35.11L156.5 23.57Z" fill="#7F7F7F"/>
<path d="M146.46 17.77L172.78 2.45996L182.83 8.25996L156.5 23.57L146.46 17.77Z" fill="#7F7F7F"/>
<path d="M183.44 79.13L209.77 63.83L219.81 69.63L193.48 84.93L183.44 79.13Z" fill="#909090"/>
<path d="M183.47 67.5999L209.8 52.2999L209.77 63.8299L183.44 79.1299L183.47 67.5999Z" fill="#919191"/>
<path d="M171.11 57.79L197.44 42.49L207.49 48.29L181.16 63.59L171.11 57.79Z" fill="#909090"/>
<path d="M171.15 46.25L197.47 30.95L197.44 42.49L171.11 57.79L171.15 46.25Z" fill="#919191"/>
<path d="M158.79 36.45L185.12 21.15L195.16 26.95L168.83 42.25L158.79 36.45Z" fill="#909090"/>
<path d="M158.82 24.9L185.15 9.59998L185.12 21.15L158.79 36.45L158.82 24.9Z" fill="#919191"/>
<path d="M183.47 67.5999L209.8 52.2999L219.84 58.0899L193.51 73.3899L183.47 67.5999Z" fill="#A3780E"/>
<path d="M193.51 73.39L193.48 84.93L183.44 79.13L183.47 67.6L193.51 73.39Z" fill="#F3AD14"/>
<path d="M193.51 73.39L219.84 58.09L219.81 69.63L193.48 84.93L193.51 73.39Z" fill="#A4790E"/>
<path d="M171.15 46.25L197.47 30.95L207.52 36.75L181.19 52.0499L171.15 46.25Z" fill="#7F7F7F"/>
<path d="M181.19 52.05L207.52 36.75L207.49 48.29L181.16 63.59L181.19 52.05Z" fill="#7F7F7F"/>
<path d="M168.87 30.7L168.83 42.25L158.79 36.45L158.82 24.9L168.87 30.7Z" fill="#CCCCCC"/>
<path d="M158.82 24.9L185.15 9.59998L195.2 15.4L168.87 30.7L158.82 24.9Z" fill="#7F7F7F"/>
<path d="M168.87 30.7L195.2 15.4L195.16 26.95L168.83 42.25L168.87 30.7Z" fill="#7F7F7F"/>
<path d="M183.48 64.93L209.81 49.63L219.85 55.43L193.52 70.73L183.48 64.93Z" fill="#909090"/>
<path d="M183.51 53.39L209.84 38.09L209.81 49.63L183.48 64.93L183.51 53.39Z" fill="#919191"/>
<path d="M171.15 43.5899L197.48 28.2899L207.53 34.0899L181.2 49.3899L171.15 43.5899Z" fill="#909090"/>
<path d="M171.19 32.04L197.51 16.74L197.48 28.29L171.15 43.59L171.19 32.04Z" fill="#919191"/>
<path d="M193.55 59.19L219.88 43.88L219.85 55.43L193.52 70.73L193.55 59.19Z" fill="#7F7F7F"/>
<path d="M193.55 59.19L193.52 70.73L183.48 64.93L183.51 53.39L193.55 59.19Z" fill="#CCCCCC"/>
<path d="M183.51 53.39L209.84 38.09L219.88 43.88L193.55 59.19L183.51 53.39Z" fill="#7F7F7F"/>
<path d="M181.23 37.8399L207.56 22.5399L207.53 34.0899L181.2 49.3899L181.23 37.8399Z" fill="#7F7F7F"/>
<path d="M171.19 32.04L197.51 16.74L207.56 22.54L181.23 37.84L171.19 32.04Z" fill="#7F7F7F"/>
<path d="M183.52 50.7199L209.85 35.4199L219.89 41.2199L193.56 56.5199L183.52 50.7199Z" fill="#909090"/>
<path d="M183.55 39.18L209.88 23.88L209.85 35.42L183.52 50.72L183.55 39.18Z" fill="#919191"/>
<path d="M193.59 44.9799L193.56 56.5199L183.52 50.7199L183.55 39.1799L193.59 44.9799Z" fill="#CCCCCC"/>
<path d="M193.59 44.9799L219.92 29.6799L219.89 41.2199L193.56 56.5199L193.59 44.9799Z" fill="#7F7F7F"/>
<path d="M183.55 39.18L209.88 23.88L219.92 29.68L193.59 44.98L183.55 39.18Z" fill="#7F7F7F"/>
<path d="M192.72 41.92C193.621 42.5066 194.371 43.2979 194.908 44.2294C195.445 45.1609 195.754 46.2062 195.81 47.28L195.42 184.64C195.42 186.64 194.02 187.41 192.31 186.42L146.94 160.23C146.037 159.645 145.286 158.854 144.749 157.922C144.212 156.99 143.904 155.944 143.85 154.87L144.24 17.5C144.24 15.5 145.63 14.74 147.35 15.73L192.72 41.92ZM181.2 49.39V37.84L171.2 32.04V43.59L181.2 49.39ZM156.2 134.56V123.01L146.15 117.21V128.76L156.2 134.56ZM156.2 120.35V108.81L146.2 103.01V114.55L156.2 120.35ZM156.2 106.14V94.6L146.15 88.8V100.34L156.2 106.14ZM156.2 91.93V80.39L146.2 74.59V86.13L156.25 91.93M156.25 77.73V66.18L146.25 60.38V71.93L156.25 77.73ZM156.11 163V151.45L146.11 145.65V157.2L156.16 163M181.16 63.62V52.08L171.11 46.28V57.82L181.11 63.62M156.43 49.32V37.77L146.43 31.97V43.52L156.48 49.32M156.48 35.11V23.56L146.48 17.76V29.31L156.53 35.11M168.53 170.11V158.56L158.53 152.76V164.31L168.53 170.11ZM181.08 92V80.46L171.03 74.66V86.2L181.08 92ZM168.55 141.7V130.15L158.55 124.35V135.9L168.55 141.7ZM168.55 127.49V115.94L158.55 110.14V121.69L168.55 127.49ZM168.55 113.28V101.74L158.55 95.94V107.48L168.55 113.28ZM168.55 99.07V87.53L158.5 81.73V93.27L168.5 99.07M168.5 84.86V73.32L158.45 67.52V79.06L168.45 84.86M181 106.21V94.67L171 88.87V100.41L181 106.21ZM168.79 56.45V44.91L158.74 39.11V50.65L168.74 56.45M168.74 42.25V30.7L158.69 24.9V36.45L168.69 42.25M180.69 177.25V165.71L170.64 159.91V171.45L180.69 177.25ZM180.85 120.43V108.89L171 103.08V114.62L181.05 120.42M180.97 148.83V137.29L170.97 131.49V143.03L180.97 148.83ZM180.97 134.63V123.08L170.92 117.28V128.83L180.97 134.63ZM168.76 70.63V59.09L158.76 53.29V64.83L168.76 70.63ZM168.52 155.87V144.33L158.52 138.53V150.07L168.52 155.87ZM181.13 77.77V66.23L171.08 60.43V71.97L181.13 77.77ZM156.39 63.52V51.98L146.39 46.18V57.72L156.39 63.52ZM180.88 163V151.46L170.88 145.66V157.2L180.88 163ZM156.15 148.72V137.18L146.1 131.38V142.92L156.15 148.72ZM193.52 70.72V59.18L183.52 53.38V64.92L193.52 70.72ZM193.28 156V144.46L183.28 138.66V150.2L193.33 156M193.33 141.79V130.25L183.33 124.45V136L193.33 141.79ZM193.33 127.59V116.04L183.33 110.24V121.79L193.33 127.59ZM193.17 184.41V172.87L183.17 167.07V178.61L193.17 184.41ZM193.37 113.41V101.86L183.37 96.07V107.61L193.37 113.41ZM193.37 99.2V87.66L183.37 81.86V93.4L193.37 99.2ZM193.49 56.58V45.04L183.49 39.24V50.78L193.49 56.58ZM193.17 170.23V158.69L183.17 152.9V164.44L193.22 170.23M193.46 84.99V73.45L183.46 67.66V79.19L193.46 84.99Z" fill="white"/>
<path d="M156.14 151.42L156.11 162.97L146.06 157.17L146.09 145.62L156.14 151.42Z" fill="#1EAFAF"/>
<path d="M168.54 144.36L168.51 155.9L158.47 150.1L158.5 138.56L168.54 144.36Z" fill="#592781"/>
<path d="M156.22 123.01L156.19 134.56L146.14 128.76L146.17 117.21L156.22 123.01Z" fill="#1EAFAF"/>
<mask id="mask0_26_781" style="mask-type:luminance" maskUnits="userSpaceOnUse" x="194" y="169" width="28" height="18">
<path d="M220.85 171.34L194.52 186.64C194.832 186.414 195.079 186.111 195.237 185.76C195.395 185.409 195.458 185.023 195.42 184.64L221.75 169.34C221.788 169.723 221.725 170.109 221.567 170.46C221.409 170.811 221.162 171.114 220.85 171.34Z" fill="white"/>
</mask>
<g mask="url(#mask0_26_781)">
<path d="M195.42 184.64L221.75 169.34C221.76 169.506 221.76 169.673 221.75 169.84L195.42 185.14C195.43 184.973 195.43 184.806 195.42 184.64Z" fill="#898989"/>
<path d="M195.39 185.14L221.72 169.84C221.697 170.139 221.607 170.429 221.456 170.689C221.305 170.949 221.098 171.171 220.85 171.34L194.52 186.64C194.768 186.471 194.975 186.249 195.126 185.989C195.277 185.729 195.367 185.439 195.39 185.14Z" fill="#848484"/>
</g>
<path d="M180.91 151.5L180.88 163.04L170.83 157.24L170.86 145.7L180.91 151.5Z" fill="#E34F14"/>
<path d="M168.71 87.53L168.67 99.07L158.63 93.27L158.66 81.73L168.71 87.53Z" fill="#592781"/>
<path d="M156.38 66.18L156.35 77.73L146.3 71.93L146.34 60.38L156.38 66.18Z" fill="#1EAFAF"/>
<path d="M193.39 116.01L193.36 127.56L183.32 121.76L183.35 110.21L193.39 116.01Z" fill="#F3AD14"/>
<path d="M156.46 37.77L156.43 49.32L146.38 43.52L146.42 31.97L156.46 37.77Z" fill="#CCCCCC"/>
<path d="M145.14 15.51L171.47 0.209968C171.824 0.0452301 172.216 -0.0212662 172.605 0.0174367C172.994 0.0561397 173.365 0.198619 173.68 0.429968L147.35 15.73C147.035 15.4986 146.664 15.3561 146.275 15.3174C145.886 15.2787 145.494 15.3452 145.14 15.51Z" fill="#C24E02"/>
<mask id="mask1_26_781" style="mask-type:luminance" maskUnits="userSpaceOnUse" x="145" y="0" width="29" height="16">
<path d="M145.14 15.51L171.47 0.209968C171.824 0.0452301 172.216 -0.0212662 172.605 0.0174367C172.994 0.0561397 173.365 0.198619 173.68 0.429968L147.35 15.73C147.035 15.4986 146.664 15.3561 146.275 15.3174C145.886 15.2787 145.494 15.3452 145.14 15.51Z" fill="white"/>
</mask>
<g mask="url(#mask1_26_781)">
<path d="M173.36 0.259959C173.074 0.0964045 172.751 0.00624961 172.421 -0.00247421C172.092 -0.011198 171.765 0.0617801 171.47 0.209959L145.14 15.51C145.435 15.3618 145.762 15.2888 146.091 15.2975C146.421 15.3063 146.744 15.3964 147.03 15.56L147.35 15.73L173.68 0.429959C173.577 0.367594 173.47 0.310846 173.36 0.259959Z" fill="#C24E02"/>
</g>
<path d="M168.83 44.91L168.79 56.45L158.75 50.66L158.78 39.11L168.83 44.91Z" fill="#592781"/>
<path d="M156.5 23.57L156.47 35.11L146.42 29.31L146.46 17.77L156.5 23.57Z" fill="#CCCCCC"/>
<path d="M181.19 52.05L181.16 63.59L171.11 57.79L171.15 46.25L181.19 52.05Z" fill="#CCCCCC"/>
<path d="M181.23 37.8399L181.2 49.3899L171.15 43.5899L171.19 32.0399L181.23 37.8399Z" fill="#CCCCCC"/>
<path d="M195.81 47.28L222.14 31.98L221.75 169.34L195.42 184.65L195.81 47.28Z" fill="#FF6601"/>
<path d="M147.35 15.7299L173.68 0.429932L219.04 26.6199L192.72 41.9199L147.35 15.7299Z" fill="#D55501"/>
<mask id="mask2_26_781" style="mask-type:luminance" maskUnits="userSpaceOnUse" x="192" y="26" width="31" height="22">
<path d="M192.72 41.92L219.05 26.62C219.954 27.2086 220.705 28.0031 221.242 28.9383C221.78 29.8735 222.087 30.9228 222.14 32L195.81 47.3C195.757 46.2228 195.45 45.1735 194.912 44.2383C194.375 43.3031 193.624 42.5085 192.72 41.92Z" fill="white"/>
</mask>
<g mask="url(#mask2_26_781)">
<path d="M222 31C221.696 29.5689 220.964 28.2643 219.9 27.26C219.629 27.0046 219.331 26.7799 219.01 26.59L192.68 41.89C193.001 42.0799 193.299 42.3046 193.57 42.56C194.634 43.5661 195.369 44.8695 195.68 46.3C195.743 46.6296 195.773 46.9645 195.77 47.3L222.14 32C222.132 31.6624 222.085 31.3269 222 31Z" fill="#C24E02"/>
</g>
</g>
<defs>
<clipPath id="clip0_26_781">
<rect width="378.8" height="329.39" fill="white"/>
</clipPath>
</defs>
</svg>
