<?xml version="1.0" encoding="utf-8"?>
<!-- Generator: Adobe Illustrator 25.0.0, SVG Export Plug-In . SVG Version: 6.00 Build 0)  -->
<svg version="1.1" id="Layer_1" xmlns="http://www.w3.org/2000/svg" xmlns:xlink="http://www.w3.org/1999/xlink" x="0px" y="0px"
	 viewBox="0 0 379 333" style="enable-background:new 0 0 379 333;" xml:space="preserve">
<style type="text/css">
	.st0{clip-path:url(#SVGID_2_);}
	.st1{fill:none;stroke:#111111;stroke-miterlimit:10;}
	.st2{fill:#111111;}
	.st3{fill:#1E1E1E;}
	.st4{fill:#FFFFFF;filter:url(#Adobe_OpacityMaskFilter);}
	.st5{mask:url(#mask0_26_1041_1_);}
	.st6{fill:#B5B8FD;}
	.st7{fill:#DCDDF8;}
	.st8{fill:#FFFFFF;filter:url(#Adobe_OpacityMaskFilter_1_);}
	.st9{mask:url(#mask1_26_1041_1_);}
	.st10{fill:#CFD2FA;}
	.st11{fill:#F2F2FC;}
	.st12{fill:#FFFFFF;filter:url(#Adobe_OpacityMaskFilter_2_);}
	.st13{mask:url(#mask2_26_1041_1_);}
	.st14{fill:#1248A5;}
	.st15{fill:#D55501;}
	.st16{fill:#FFFFFF;filter:url(#Adobe_OpacityMaskFilter_3_);}
	.st17{mask:url(#mask3_26_1041_1_);}
	.st18{fill:#FFFFFF;filter:url(#Adobe_OpacityMaskFilter_4_);}
	.st19{mask:url(#mask4_26_1041_1_);}
	.st20{fill:#FF6601;}
	.st21{fill:#FFFFFF;filter:url(#Adobe_OpacityMaskFilter_5_);}
	.st22{mask:url(#mask5_26_1041_1_);}
	.st23{fill:#FFFFFF;filter:url(#Adobe_OpacityMaskFilter_6_);}
	.st24{mask:url(#mask6_26_1041_1_);}
	.st25{fill:#CF2819;}
	.st26{fill:#FFFFFF;filter:url(#Adobe_OpacityMaskFilter_7_);}
	.st27{mask:url(#mask7_26_1041_1_);}
	.st28{fill:#FFFFFF;filter:url(#Adobe_OpacityMaskFilter_8_);}
	.st29{mask:url(#mask8_26_1041_1_);}
	.st30{fill:#842017;}
	.st31{fill:#8B2218;}
	.st32{fill:#FFFFFF;filter:url(#Adobe_OpacityMaskFilter_9_);}
	.st33{mask:url(#mask9_26_1041_1_);}
	.st34{fill:#FFFFFF;filter:url(#Adobe_OpacityMaskFilter_10_);}
	.st35{mask:url(#mask10_26_1041_1_);}
	.st36{fill:#FFFFFF;filter:url(#Adobe_OpacityMaskFilter_11_);}
	.st37{mask:url(#mask11_26_1041_1_);}
	.st38{fill:#FFFFFF;filter:url(#Adobe_OpacityMaskFilter_12_);}
	.st39{mask:url(#mask12_26_1041_1_);}
	.st40{fill:#FFFFFF;filter:url(#Adobe_OpacityMaskFilter_13_);}
	.st41{mask:url(#mask13_26_1041_1_);}
	.st42{fill:#FFFFFF;filter:url(#Adobe_OpacityMaskFilter_14_);}
	.st43{mask:url(#mask14_26_1041_1_);}
	.st44{fill:#FFFFFF;filter:url(#Adobe_OpacityMaskFilter_15_);}
	.st45{mask:url(#mask15_26_1041_1_);}
	.st46{fill:#FFFFFF;filter:url(#Adobe_OpacityMaskFilter_16_);}
	.st47{mask:url(#mask16_26_1041_1_);}
	.st48{fill:#FFFFFF;filter:url(#Adobe_OpacityMaskFilter_17_);}
	.st49{mask:url(#mask17_26_1041_1_);}
	.st50{fill:#FFFFFF;filter:url(#Adobe_OpacityMaskFilter_18_);}
	.st51{mask:url(#mask18_26_1041_1_);}
	.st52{fill:#FFFFFF;filter:url(#Adobe_OpacityMaskFilter_19_);}
	.st53{mask:url(#mask19_26_1041_1_);}
	.st54{fill:#FFFFFF;filter:url(#Adobe_OpacityMaskFilter_20_);}
	.st55{mask:url(#mask20_26_1041_1_);}
	.st56{fill:#E7E8FC;}
	.st57{fill:#A9291D;}
	.st58{fill:#FFFFFF;filter:url(#Adobe_OpacityMaskFilter_21_);}
	.st59{mask:url(#mask21_26_1041_1_);}
	.st60{fill:#F74E3E;}
	.st61{fill:#FFFFFF;filter:url(#Adobe_OpacityMaskFilter_22_);}
	.st62{mask:url(#mask22_26_1041_1_);}
	.st63{fill:#FFFFFF;filter:url(#Adobe_OpacityMaskFilter_23_);}
	.st64{mask:url(#mask23_26_1041_1_);}
	.st65{fill:#FFFFFF;filter:url(#Adobe_OpacityMaskFilter_24_);}
	.st66{mask:url(#mask24_26_1041_1_);}
	.st67{fill:#FFFFFF;filter:url(#Adobe_OpacityMaskFilter_25_);}
	.st68{mask:url(#mask25_26_1041_1_);}
	.st69{fill:#FFFFFF;filter:url(#Adobe_OpacityMaskFilter_26_);}
	.st70{mask:url(#mask26_26_1041_1_);}
	.st71{fill:#FFFFFF;filter:url(#Adobe_OpacityMaskFilter_27_);}
	.st72{mask:url(#mask27_26_1041_1_);}
	.st73{fill:#8B2118;}
	.st74{fill:#FFFFFF;filter:url(#Adobe_OpacityMaskFilter_28_);}
	.st75{mask:url(#mask28_26_1041_1_);}
	.st76{fill:#FFFFFF;filter:url(#Adobe_OpacityMaskFilter_29_);}
	.st77{mask:url(#mask29_26_1041_1_);}
	.st78{fill:#FFFFFF;filter:url(#Adobe_OpacityMaskFilter_30_);}
	.st79{mask:url(#mask30_26_1041_1_);}
	.st80{fill:#FFFFFF;filter:url(#Adobe_OpacityMaskFilter_31_);}
	.st81{mask:url(#mask31_26_1041_1_);}
	.st82{fill:#FFFFFF;filter:url(#Adobe_OpacityMaskFilter_32_);}
	.st83{mask:url(#mask32_26_1041_1_);}
	.st84{fill:#FFFFFF;filter:url(#Adobe_OpacityMaskFilter_33_);}
	.st85{mask:url(#mask33_26_1041_1_);}
	.st86{fill:#E43727;}
	.st87{fill:#FFFFFF;filter:url(#Adobe_OpacityMaskFilter_34_);}
	.st88{mask:url(#mask34_26_1041_1_);}
	.st89{fill:#FFFFFF;filter:url(#Adobe_OpacityMaskFilter_35_);}
	.st90{mask:url(#mask35_26_1041_1_);}
	.st91{fill:#FFFFFF;filter:url(#Adobe_OpacityMaskFilter_36_);}
	.st92{mask:url(#mask36_26_1041_1_);}
	.st93{fill:#15151A;}
	.st94{fill:#292930;}
	.st95{fill:#47464E;}
	.st96{fill:#F4F5FA;}
	.st97{fill:#FFC7AD;}
	.st98{fill:#B98C74;}
	.st99{fill:#F3A984;}
	.st100{fill:#FFFFFF;filter:url(#Adobe_OpacityMaskFilter_37_);}
	.st101{mask:url(#mask37_26_1041_1_);}
	.st102{fill:#FFFFFF;filter:url(#Adobe_OpacityMaskFilter_38_);}
	.st103{mask:url(#mask38_26_1041_1_);}
	.st104{fill:#FFFFFF;filter:url(#Adobe_OpacityMaskFilter_39_);}
	.st105{mask:url(#mask39_26_1041_1_);}
	.st106{fill:#FFFFFF;filter:url(#Adobe_OpacityMaskFilter_40_);}
	.st107{mask:url(#mask40_26_1041_1_);}
	.st108{fill:#FFFFFF;filter:url(#Adobe_OpacityMaskFilter_41_);}
	.st109{mask:url(#mask41_26_1041_1_);}
	.st110{fill:#F7736A;}
	.st111{fill:#117FD2;}
	.st112{fill:#FFFFFF;filter:url(#Adobe_OpacityMaskFilter_42_);}
	.st113{mask:url(#mask42_26_1041_1_);}
	.st114{fill:#FFFFFF;filter:url(#Adobe_OpacityMaskFilter_43_);}
	.st115{mask:url(#mask43_26_1041_1_);}
	.st116{fill:#FFFFFF;filter:url(#Adobe_OpacityMaskFilter_44_);}
	.st117{mask:url(#mask44_26_1041_1_);}
	.st118{fill:#F9D5C3;}
	.st119{fill:#D6AF75;}
	.st120{fill:#FFBFA2;}
</style>
<g>
	<defs>
		<rect id="SVGID_1_" width="378.8" height="332.5"/>
	</defs>
	<clipPath id="SVGID_2_">
		<use xlink:href="#SVGID_1_"  style="overflow:visible;"/>
	</clipPath>
	<g class="st0">
		<path class="st1" d="M324.6,222.7c20.9,12,21,31.6,0.2,43.6l-97.4,56.6c-20.7,12.1-54.5,12.1-75.3,0l-98-56.6
			c-20.9-12.1-21-31.6-0.2-43.6l97.4-56.6c20.7-12,54.5-12,75.3,0L324.6,222.7z"/>
		<path class="st2" d="M359.4,187.7l-122.1,71c-26,15.1-68.3,15.1-94.5,0l-122.9-71C6.6,180.1,0,170.1,0,160.2v14.1
			c0,10,6.6,20,19.7,27.6l122.9,71c26.2,15.1,68.5,15.1,94.5,0l122.1-71c12.9-7.5,19.4-17.3,19.4-27.2v-14.1
			C378.8,170.4,372.3,180.2,359.4,187.7z"/>
		<path class="st3" d="M359.1,133c26.2,15.1,26.3,39.6,0.3,54.8l-122.1,71c-26,15.1-68.3,15.1-94.5,0l-122.9-71
			c-26.2-15.1-26.3-39.6-0.3-54.8l122.1-71c26-15.1,68.3-15.1,94.5,0L359.1,133z"/>
		<defs>
			<filter id="Adobe_OpacityMaskFilter" filterUnits="userSpaceOnUse" x="263.6" y="145" width="8.3" height="12">
				<feColorMatrix  type="matrix" values="1 0 0 0 0  0 1 0 0 0  0 0 1 0 0  0 0 0 1 0"/>
			</filter>
		</defs>
		<mask maskUnits="userSpaceOnUse" x="263.6" y="145" width="8.3" height="12" id="mask0_26_1041_1_">
			<path class="st4" d="M271.9,150.9v6.1c0-1.5-1-3-3-4.2c-1.6-0.9-3.4-1.4-5.2-1.6v-6.1c1.8,0.2,3.6,0.7,5.2,1.6
				C270.9,147.8,271.9,149.3,271.9,150.9z"/>
		</mask>
		<g class="st5">
			<path class="st6" d="M271.9,150.9v6.1c0-0.6-0.1-1.2-0.4-1.7v-6.1C271.7,149.7,271.9,150.3,271.9,150.9L271.9,150.9z"/>
			<path class="st6" d="M271.5,149.2v6.1c-0.6-1-1.4-1.9-2.4-2.4v-6.1C270.1,147.3,270.9,148.2,271.5,149.2L271.5,149.2z"/>
			<path class="st6" d="M269,146.8v6.1l-0.1-0.1c-1.6-0.9-3.4-1.4-5.2-1.6V145c1.8,0.2,3.6,0.7,5.2,1.6L269,146.8L269,146.8z"/>
		</g>
		<path class="st7" d="M251.7,167.6l0,6.1l-13.5-7.8l0-6.1L251.7,167.6z"/>
		<defs>
			<filter id="Adobe_OpacityMaskFilter_1_" filterUnits="userSpaceOnUse" x="243.7" y="173.3" width="20.2" height="12">
				<feColorMatrix  type="matrix" values="1 0 0 0 0  0 1 0 0 0  0 0 1 0 0  0 0 0 1 0"/>
			</filter>
		</defs>
		<mask maskUnits="userSpaceOnUse" x="243.7" y="173.3" width="20.2" height="12" id="mask1_26_1041_1_">
			<path class="st8" d="M243.7,179.4v-6.1c0,1.5,1,3,3,4.2c2.2,1.1,4.7,1.7,7.2,1.7c2.5,0,5-0.6,7.2-1.7c1.2-0.6,2.2-1.7,2.7-2.9
				v6.1c-0.5,1.3-1.5,2.3-2.7,2.9c-2.2,1.1-4.7,1.7-7.2,1.7c-2.5,0-5-0.6-7.2-1.7C244.7,182.4,243.7,180.9,243.7,179.4z"/>
		</mask>
		<g class="st9">
			<path class="st6" d="M263.9,174.6v6.1c-0.5,1.3-1.5,2.3-2.7,2.9c-1,0.6-2,1-3.1,1.2v-6.1c1.1-0.3,2.1-0.7,3.1-1.2
				C262.4,176.9,263.4,175.9,263.9,174.6z"/>
			<path class="st6" d="M258.1,178.7v6.1c-1.6,0.4-3.2,0.6-4.8,0.5v-6.1C254.9,179.3,256.5,179.1,258.1,178.7L258.1,178.7z"/>
			<path class="st6" d="M253.3,179.2v6.1c-2.3,0-4.5-0.6-6.6-1.7l-0.1-0.1v-6.1l0.1,0.1C248.8,178.6,251,179.2,253.3,179.2
				L253.3,179.2z"/>
			<path class="st6" d="M246.6,177.4v6.1c-1-0.6-1.9-1.4-2.4-2.4V175C244.7,176,245.6,176.9,246.6,177.4L246.6,177.4z"/>
			<path class="st6" d="M244.2,175v6.1c-0.3-0.5-0.4-1.1-0.4-1.7v-6.1C243.7,173.9,243.9,174.5,244.2,175L244.2,175z"/>
		</g>
		<path class="st7" d="M277.4,182.4l0,6.1l-13.4-7.8l0-6.1L277.4,182.4z"/>
		<path class="st10" d="M316.2,159.8l0,6.1l-38.9,22.6l0-6.1L316.2,159.8z"/>
		<path class="st11" d="M316.2,159.8l-38.8,22.6l-13.4-7.8c-0.6,1.2-1.5,2.3-2.7,2.9c-2.2,1.1-4.7,1.7-7.2,1.7c-2.5,0-5-0.6-7.2-1.7
			c-4-2.3-4-6,0-8.3c1.5-0.9,3.2-1.4,5-1.6l-13.4-7.8l13.4-7.8c0.5,1.3,1.5,2.4,2.8,3c2.2,1.1,4.7,1.7,7.2,1.7s5-0.6,7.2-1.7
			c4-2.3,4-6,0-8.4c-1.6-0.9-3.4-1.4-5.2-1.6l13.5-7.8L316.2,159.8z"/>
		<defs>
			<filter id="Adobe_OpacityMaskFilter_2_" filterUnits="userSpaceOnUse" x="239.2" y="135.1" width="8" height="11.9">
				<feColorMatrix  type="matrix" values="1 0 0 0 0  0 1 0 0 0  0 0 1 0 0  0 0 0 1 0"/>
			</filter>
		</defs>
		<mask maskUnits="userSpaceOnUse" x="239.2" y="135.1" width="8" height="11.9" id="mask2_26_1041_1_">
			<path class="st12" d="M239.2,141.2v-6.1c0,1.5,1,3,3,4.2c1.5,0.9,3.2,1.4,5,1.6v6.1c-1.8-0.2-3.5-0.7-5-1.6
				C240.2,144.3,239.2,142.8,239.2,141.2z"/>
		</mask>
		<g class="st13">
			<path class="st14" d="M247.3,140.9v6.1c-1.8-0.2-3.5-0.7-5-1.6l-0.1-0.1v-6.1l0.2,0.1C243.8,140.2,245.5,140.7,247.3,140.9
				L247.3,140.9z"/>
			<path class="st14" d="M242.1,139.3v6.1c-1-0.6-1.9-1.4-2.4-2.4v-6.1C240.2,137.8,241.1,138.7,242.1,139.3L242.1,139.3z"/>
			<path class="st14" d="M239.6,136.8v6.1c-0.3-0.5-0.4-1.1-0.4-1.7v-6.1C239.2,135.7,239.4,136.3,239.6,136.8z"/>
		</g>
		<path class="st15" d="M311.8,148.7l0,6.1l-13.4,7.8l0-6.1L311.8,148.7z"/>
		<path class="st15" d="M247.4,156.5l0,6.1l-13.6-7.8l0-6.1L247.4,156.5z"/>
		<defs>
			<filter id="Adobe_OpacityMaskFilter_3_" filterUnits="userSpaceOnUse" x="247.4" y="151.8" width="20.2" height="12">
				<feColorMatrix  type="matrix" values="1 0 0 0 0  0 1 0 0 0  0 0 1 0 0  0 0 0 1 0"/>
			</filter>
		</defs>
		<mask maskUnits="userSpaceOnUse" x="247.4" y="151.8" width="20.2" height="12" id="mask3_26_1041_1_">
			<path class="st16" d="M267.6,157.8v6.1c0-1.5-1-3-3-4.2c-2.2-1.1-4.7-1.7-7.2-1.7c-2.5,0-5,0.6-7.2,1.7c-1.2,0.6-2.2,1.7-2.8,3
				v-6.1c0.5-1.3,1.5-2.4,2.8-3c2.2-1.1,4.7-1.7,7.2-1.7c2.5,0,5,0.6,7.2,1.7C266.6,154.7,267.6,156.2,267.6,157.8z"/>
		</mask>
		<g class="st17">
			<path class="st14" d="M267.6,157.8v6.1c0-0.6-0.1-1.2-0.4-1.7v-6.1C267.5,156.6,267.6,157.2,267.6,157.8L267.6,157.8z"/>
			<path class="st14" d="M267.2,156.1v6.1c-0.6-1-1.4-1.9-2.4-2.4v-6.1C265.8,154.2,266.6,155.1,267.2,156.1z"/>
			<path class="st15" d="M264.8,153.7v6.1l-0.2-0.1c-2-1.1-4.3-1.7-6.5-1.7v-6.1c2.3,0,4.5,0.6,6.5,1.7L264.8,153.7L264.8,153.7z"/>
			<path class="st15" d="M258.1,151.9v6.1c-1.6-0.1-3.2,0.1-4.8,0.5v-6.1C254.9,151.9,256.5,151.8,258.1,151.9L258.1,151.9z"/>
			<path class="st15" d="M253.3,152.3v6.1c-1.1,0.3-2.1,0.7-3.1,1.2c-1.2,0.6-2.2,1.7-2.8,3v-6.1c0.5-1.3,1.5-2.4,2.8-3
				C251.2,153,252.2,152.6,253.3,152.3z"/>
		</g>
		<defs>
			<filter id="Adobe_OpacityMaskFilter_4_" filterUnits="userSpaceOnUse" x="286.5" y="162.3" width="20.2" height="12">
				<feColorMatrix  type="matrix" values="1 0 0 0 0  0 1 0 0 0  0 0 1 0 0  0 0 0 1 0"/>
			</filter>
		</defs>
		<mask maskUnits="userSpaceOnUse" x="286.5" y="162.3" width="20.2" height="12" id="mask4_26_1041_1_">
			<path class="st18" d="M306.6,162.3v6.1c0,1.5-1,3-3,4.2c-2.2,1.1-4.7,1.7-7.2,1.7c-2.5,0-5-0.6-7.2-1.7c-1.3-0.6-2.2-1.7-2.8-3
				v-6.1c0.5,1.3,1.5,2.4,2.8,3c2.2,1.1,4.7,1.7,7.2,1.7c2.5,0,5-0.6,7.2-1.7C305.6,165.3,306.6,163.8,306.6,162.3z"/>
		</mask>
		<g class="st19">
			<path class="st15" d="M306.6,162.3v6.1c0,1.5-1,3-3,4.2c-1,0.5-2,1-3.1,1.2v-6.1c1.1-0.3,2.1-0.7,3.1-1.2
				C305.6,165.3,306.6,163.8,306.6,162.3z"/>
			<path class="st15" d="M300.6,167.7v6.1c-1.6,0.4-3.2,0.6-4.8,0.5v-6.1C297.4,168.3,299,168.1,300.6,167.7z"/>
			<path class="st15" d="M295.8,168.2v6.1c-2.3,0-4.5-0.6-6.5-1.7l-0.2-0.1v-6.1l0.2,0.1C291.2,167.6,293.5,168.2,295.8,168.2
				L295.8,168.2z"/>
			<path class="st14" d="M289.1,166.4v6.1c-1-0.6-1.9-1.4-2.4-2.4V164C287.2,165,288.1,165.8,289.1,166.4z"/>
			<path class="st14" d="M286.7,164v6.1c-0.1-0.2-0.2-0.3-0.2-0.5v-6.1C286.5,163.7,286.6,163.8,286.7,164L286.7,164z"/>
		</g>
		<path class="st15" d="M273,171.3l0,6.1l-13.4-7.8l0-6.1L273,171.3z"/>
		<path class="st15" d="M286.4,163.5l0,6.1l-13.4,7.8l0-6.1L286.4,163.5z"/>
		<path class="st20" d="M311.8,148.7l-13.4,7.8c1.8,0.2,3.6,0.7,5.2,1.6c4,2.3,4,6,0,8.3c-2.2,1.1-4.7,1.7-7.2,1.7s-5-0.6-7.2-1.7
			c-1.3-0.6-2.3-1.7-2.8-3l-13.4,7.8l-13.4-7.8c1.8-0.2,3.5-0.7,5.1-1.6c4-2.3,3.9-6,0-8.3c-2.2-1.1-4.7-1.7-7.2-1.7
			c-2.5,0-5,0.6-7.2,1.7c-1.2,0.6-2.2,1.7-2.8,3l-13.6-7.8l13.4-7.8c-1.8-0.2-3.5-0.7-5-1.6c-4-2.3-4-6-0.1-8.4
			c2.2-1.1,4.7-1.7,7.2-1.7c2.5,0,5,0.6,7.2,1.7c1.2,0.6,2.2,1.6,2.8,2.9l13.4-7.8L311.8,148.7z"/>
		<defs>
			<filter id="Adobe_OpacityMaskFilter_5_" filterUnits="userSpaceOnUse" x="312" y="130.5" width="7.9" height="11.8">
				<feColorMatrix  type="matrix" values="1 0 0 0 0  0 1 0 0 0  0 0 1 0 0  0 0 0 1 0"/>
			</filter>
		</defs>
		<mask maskUnits="userSpaceOnUse" x="312" y="130.5" width="7.9" height="11.8" id="mask5_26_1041_1_">
			<path class="st21" d="M319.9,130.5v6.1c0,1.5-1,3-3,4.1c-1.5,0.8-3.2,1.4-5,1.6v-6.1c1.8-0.2,3.5-0.7,5-1.6
				C318.9,133.5,319.9,132,319.9,130.5z"/>
		</mask>
		<g class="st22">
			<path class="st6" d="M319.9,130.5v6.1c0,1.5-1,3-3,4.1c-1,0.5-2,1-3.1,1.2v-6.1c1.1-0.3,2.1-0.7,3.1-1.2
				C318.9,133.5,319.9,132,319.9,130.5z"/>
			<path class="st6" d="M313.9,135.9v6.1c-0.6,0.2-1.3,0.3-1.9,0.4v-6.1C312.6,136.1,313.3,136,313.9,135.9L313.9,135.9z"/>
		</g>
		<path class="st10" d="M325.4,144l0,6.1l-13.5,7.8l0-6.1L325.4,144z"/>
		<defs>
			<filter id="Adobe_OpacityMaskFilter_6_" filterUnits="userSpaceOnUse" x="291.8" y="147" width="20.2" height="12">
				<feColorMatrix  type="matrix" values="1 0 0 0 0  0 1 0 0 0  0 0 1 0 0  0 0 0 1 0"/>
			</filter>
		</defs>
		<mask maskUnits="userSpaceOnUse" x="291.8" y="147" width="20.2" height="12" id="mask6_26_1041_1_">
			<path class="st23" d="M291.8,159v-6.1c0-1.5,1-3,3-4.1c2.2-1.1,4.7-1.7,7.2-1.7c2.5,0,5,0.6,7.2,1.7c1.3,0.6,2.3,1.7,2.8,3v6.1
				c-0.5-1.3-1.5-2.4-2.8-3c-2.2-1.1-4.7-1.7-7.2-1.7s-5,0.6-7.2,1.7C292.8,156,291.8,157.5,291.8,159z"/>
		</mask>
		<g class="st24">
			<path class="st6" d="M312,151.8v6.1c-0.1-0.2-0.1-0.3-0.2-0.5v-6.1C311.9,151.5,311.9,151.6,312,151.8L312,151.8z"/>
			<path class="st6" d="M311.8,151.3v6.1c-0.6-1-1.4-1.9-2.4-2.4v-6.1C310.4,149.4,311.2,150.3,311.8,151.3z"/>
			<path class="st6" d="M309.3,148.9v6.1l-0.2-0.1c-2-1.1-4.3-1.7-6.5-1.7v-6.1c2.3,0,4.5,0.6,6.5,1.7L309.3,148.9z"/>
			<path class="st6" d="M302.6,147.1v6.1c-1.6-0.1-3.2,0.1-4.8,0.5v-6.1C299.4,147.2,301,147,302.6,147.1z"/>
			<path class="st6" d="M297.8,147.5v6.1c-1.1,0.3-2.1,0.7-3.1,1.2c-2,1.1-3,2.7-3,4.2v-6.1c0-1.5,1-3,3-4.1
				C295.7,148.2,296.8,147.8,297.8,147.5L297.8,147.5z"/>
		</g>
		<path class="st10" d="M300,158.7l0,6.1l-13.5,7.8l0-6.1L300,158.7z"/>
		<path class="st7" d="M286.6,166.6l0,6.1l-39.1-22.6l0-6.1L286.6,166.6z"/>
		<path class="st11" d="M316.9,126.3c4,2.3,4,6,0,8.3c-1.5,0.9-3.2,1.4-5,1.6l13.5,7.8l-13.4,7.8c-0.5-1.3-1.5-2.4-2.8-3
			c-2.2-1.1-4.7-1.7-7.2-1.7c-2.5,0-5,0.6-7.2,1.7c-4,2.3-4,6,0,8.4c1.6,0.9,3.4,1.4,5.2,1.6l-13.5,7.8L247.5,144l38.8-22.6
			l13.5,7.8c0.6-1.3,1.5-2.3,2.7-2.9c2.2-1.1,4.7-1.7,7.2-1.7C312.2,124.6,314.7,125.1,316.9,126.3z"/>
		<path class="st6" d="M189,82.1l5.3-3.1c-1.3,0.8-2.1,2.4-2.1,4.6c0.1,2.5,0.9,4.9,2.1,7.1c1.3,2.2,3,4,5.1,5.4
			c1.2,0.8,2.6,1.1,4,0.9l-5.3,3.1c-1.4,0.2-2.8-0.1-4-0.9c-2.1-1.4-3.8-3.2-5.1-5.4c-1.3-2.2-2-4.6-2.1-7.1
			C186.9,84.5,187.7,82.9,189,82.1z"/>
		<path class="st25" d="M134.3,68.2l5.3-3.1c-1.3,0.8-2.1,2.4-2.1,4.6c0,1.8,0.4,3.6,1.2,5.3l-5.3,3.1c-0.8-1.7-1.2-3.5-1.2-5.3
			C132.2,70.6,133,69,134.3,68.2z"/>
		<defs>
			<filter id="Adobe_OpacityMaskFilter_7_" filterUnits="userSpaceOnUse" x="132.2" y="65.1" width="7.4" height="13">
				<feColorMatrix  type="matrix" values="1 0 0 0 0  0 1 0 0 0  0 0 1 0 0  0 0 0 1 0"/>
			</filter>
		</defs>
		<mask maskUnits="userSpaceOnUse" x="132.2" y="65.1" width="7.4" height="13" id="mask7_26_1041_1_">
			<path class="st26" d="M134.3,68.2l5.3-3.1c-1.3,0.8-2.1,2.4-2.1,4.6c0,1.8,0.4,3.6,1.2,5.3l-5.3,3.1c-0.8-1.7-1.2-3.5-1.2-5.3
				C132.2,70.6,133,69,134.3,68.2z"/>
		</mask>
		<g class="st27">
			<path class="st15" d="M134.3,68.2l5.3-3.1c-1.3,0.8-2.1,2.4-2.1,4.6c0,1.8,0.4,3.6,1.2,5.3l-5.3,3.1c-0.8-1.7-1.2-3.5-1.2-5.3
				C132.2,70.6,133,69,134.3,68.2z"/>
		</g>
		<path class="st6" d="M149.7,103.9l5.3-3.1c1.3-0.8,3.1-0.7,5.1,0.5c1.6,1,2.9,2.2,4,3.7l-5.3,3.1c-1.1-1.5-2.4-2.8-4-3.7
			C152.9,103.2,151,103.1,149.7,103.9z"/>
		<defs>
			<filter id="Adobe_OpacityMaskFilter_8_" filterUnits="userSpaceOnUse" x="149.7" y="100.3" width="14.4" height="7.8">
				<feColorMatrix  type="matrix" values="1 0 0 0 0  0 1 0 0 0  0 0 1 0 0  0 0 0 1 0"/>
			</filter>
		</defs>
		<mask maskUnits="userSpaceOnUse" x="149.7" y="100.3" width="14.4" height="7.8" id="mask8_26_1041_1_">
			<path class="st28" d="M149.7,103.9l5.3-3.1c1.3-0.8,3.1-0.7,5.1,0.5c1.6,1,2.9,2.2,4,3.7l-5.3,3.1c-1.1-1.5-2.4-2.8-4-3.7
				C152.9,103.2,151,103.1,149.7,103.9z"/>
		</mask>
		<g class="st29">
			<path class="st6" d="M149.7,103.9l5.3-3.1c1.3-0.8,3.1-0.7,5.1,0.5c1.6,1,2.9,2.2,4,3.7l-5.3,3.1c-1.1-1.5-2.4-2.8-4-3.7
				C152.9,103.2,151.1,103.1,149.7,103.9L149.7,103.9z"/>
		</g>
		<path class="st30" d="M159,92.6l5.3-3.1l-0.1,0.3l-5.3,3.1L159,92.6z"/>
		<path class="st31" d="M159,77.7l5.3-3.1l0,14.9l-5.3,3.1L159,77.7z"/>
		<path class="st11" d="M158.9,92.5l5.3-3.1l13.2,7.6l-5.3,3.1L158.9,92.5z"/>
		<path class="st31" d="M197.9,144.6l5.3-3.1l-0.1,15.4l-5.3,3.1L197.9,144.6z"/>
		<path class="st31" d="M159,77.4l5.3-3.1v0.2l-5.3,3.1V77.4z"/>
		<path class="st11" d="M172.1,100.2l5.3-3.1l0.3,0.1l-5.3,3.1L172.1,100.2z"/>
		<path class="st15" d="M120,25.4l5.3-3.1l13.5,7.8l-5.3,3.1L120,25.4z"/>
		<defs>
			<filter id="Adobe_OpacityMaskFilter_9_" filterUnits="userSpaceOnUse" x="171.3" y="93.1" width="6.1" height="7.1">
				<feColorMatrix  type="matrix" values="1 0 0 0 0  0 1 0 0 0  0 0 1 0 0  0 0 0 1 0"/>
			</filter>
		</defs>
		<mask maskUnits="userSpaceOnUse" x="171.3" y="93.1" width="6.1" height="7.1" id="mask9_26_1041_1_">
			<path class="st32" d="M177,95.7c0.1,0.5,0.3,0.9,0.4,1.4l-5.3,3.1c-0.2-0.5-0.3-0.9-0.4-1.4l2.7-1.6l1.3-0.7L177,95.7z"/>
		</mask>
		<g class="st33">
			<path class="st6" d="M171.3,96.2l5.3-3.1c0.1,1.4,0.3,2.7,0.8,4l-5.3,3.1C171.6,98.9,171.4,97.6,171.3,96.2L171.3,96.2z"/>
		</g>
		<defs>
			<filter id="Adobe_OpacityMaskFilter_10_" filterUnits="userSpaceOnUse" x="171.3" y="93.1" width="6.1" height="7.1">
				<feColorMatrix  type="matrix" values="1 0 0 0 0  0 1 0 0 0  0 0 1 0 0  0 0 0 1 0"/>
			</filter>
		</defs>
		<mask maskUnits="userSpaceOnUse" x="171.3" y="93.1" width="6.1" height="7.1" id="mask10_26_1041_1_">
			<path class="st34" d="M177,95.7l-2.6,1.5l-2.7,1.6c-0.2-0.8-0.3-1.7-0.4-2.6l5.3-3.1C176.6,94,176.8,94.9,177,95.7z"/>
		</mask>
		<g class="st35">
			<path class="st6" d="M171.3,96.2l5.3-3.1c0.1,1.4,0.3,2.7,0.8,4l-5.3,3.1C171.6,98.9,171.4,97.6,171.3,96.2L171.3,96.2z"/>
		</g>
		<path class="st25" d="M149.9,46.9l-5.3,3.1c-1.3,0.8-3.1,0.7-5.1-0.5c-2.1-1.4-3.9-3.2-5.1-5.4c-1.3-2.2-2-4.6-2.1-7.1
			c-0.1-1.4,0.3-2.7,1.2-3.8l5.3-3.1c-0.8,1.1-1.2,2.5-1.2,3.9c0.1,2.5,0.8,4.9,2.1,7.1c1.3,2.2,3,4,5.1,5.4
			C146.8,47.6,148.6,47.7,149.9,46.9z"/>
		<defs>
			<filter id="Adobe_OpacityMaskFilter_11_" filterUnits="userSpaceOnUse" x="132.3" y="30.1" width="17.6" height="20.4">
				<feColorMatrix  type="matrix" values="1 0 0 0 0  0 1 0 0 0  0 0 1 0 0  0 0 0 1 0"/>
			</filter>
		</defs>
		<mask maskUnits="userSpaceOnUse" x="132.3" y="30.1" width="17.6" height="20.4" id="mask11_26_1041_1_">
			<path class="st36" d="M149.9,46.9l-5.3,3.1c-1.3,0.8-3.1,0.7-5.1-0.5c-2.1-1.4-3.9-3.2-5.1-5.4c-1.3-2.2-2-4.6-2.1-7.1
				c-0.1-1.4,0.3-2.7,1.2-3.8l5.3-3.1c-0.8,1.1-1.2,2.5-1.2,3.9c0.1,2.5,0.8,4.9,2.1,7.1c1.3,2.2,3,4,5.1,5.4
				C146.8,47.6,148.6,47.7,149.9,46.9z"/>
		</mask>
		<g class="st37">
			<path class="st15" d="M133.5,33.2l5.3-3.1c-0.8,1.1-1.2,2.5-1.2,3.9c0.1,2.5,0.8,4.9,2.1,7.1c1.3,2.2,3,4,5.1,5.4
				c2,1.2,3.8,1.3,5.1,0.5l-5.3,3c-1.3,0.8-3.1,0.7-5.1-0.5c-2.1-1.4-3.9-3.2-5.1-5.4c-1.3-2.2-2-4.6-2.1-7.1
				C132.2,35.6,132.6,34.3,133.5,33.2L133.5,33.2z"/>
		</g>
		<defs>
			<filter id="Adobe_OpacityMaskFilter_12_" filterUnits="userSpaceOnUse" x="171.2" y="87.5" width="7.4" height="8.7">
				<feColorMatrix  type="matrix" values="1 0 0 0 0  0 1 0 0 0  0 0 1 0 0  0 0 0 1 0"/>
			</filter>
		</defs>
		<mask maskUnits="userSpaceOnUse" x="171.2" y="87.5" width="7.4" height="8.7" id="mask12_26_1041_1_">
			<path class="st38" d="M176.5,92.1c0,0.3,0,0.7,0,1l-5.3,3.1c0-0.3-0.1-0.7-0.1-1l2.6-1.5L176.5,92.1z"/>
		</mask>
		<g class="st39">
			<path class="st6" d="M173.4,90.5l5.3-3.1c-1.3,0.8-2.1,2.4-2.1,4.6c0,0.3,0,0.7,0,1l-5.3,3.1c0-0.3-0.1-0.7-0.1-1
				C171.2,92.9,172,91.3,173.4,90.5L173.4,90.5z"/>
		</g>
		<defs>
			<filter id="Adobe_OpacityMaskFilter_13_" filterUnits="userSpaceOnUse" x="197.9" y="141.5" width="14.4" height="7.6">
				<feColorMatrix  type="matrix" values="1 0 0 0 0  0 1 0 0 0  0 0 1 0 0  0 0 0 1 0"/>
			</filter>
		</defs>
		<mask maskUnits="userSpaceOnUse" x="197.9" y="141.5" width="14.4" height="7.6" id="mask13_26_1041_1_">
			<path class="st40" d="M208.2,145.6l-5.3,3.1c-0.4-0.2-0.7-0.3-1.1-0.5c-1.5-0.9-2.8-2.1-3.9-3.6l5.3-3.1c1.1,1.4,2.4,2.6,3.9,3.6
				C207.5,145.3,207.8,145.5,208.2,145.6z"/>
		</mask>
		<g class="st41">
			<path class="st6" d="M197.9,144.6l5.3-3.1c1.1,1.4,2.4,2.6,3.9,3.6c2,1.2,3.9,1.3,5.2,0.5l-5.3,3.1c-1.3,0.8-3.2,0.6-5.2-0.5
				C200.3,147.2,198.9,146,197.9,144.6L197.9,144.6z"/>
		</g>
		<defs>
			<filter id="Adobe_OpacityMaskFilter_14_" filterUnits="userSpaceOnUse" x="159" y="74.6" width="14.3" height="7.6">
				<feColorMatrix  type="matrix" values="1 0 0 0 0  0 1 0 0 0  0 0 1 0 0  0 0 0 1 0"/>
			</filter>
		</defs>
		<mask maskUnits="userSpaceOnUse" x="159" y="74.6" width="14.3" height="7.6" id="mask14_26_1041_1_">
			<path class="st42" d="M168.2,78.2c2,1.2,3.8,1.3,5.2,0.5l-5.3,3.1c-1.3,0.8-3.1,0.7-5.1-0.5c-1.5-0.9-2.8-2.1-3.9-3.6l5.3-3.1
				C165.3,76.1,166.7,77.3,168.2,78.2z"/>
		</mask>
		<g class="st43">
			<path class="st6" d="M159,77.7l5.3-3.1c1.1,1.4,2.4,2.7,3.9,3.6c2,1.2,3.8,1.3,5.2,0.5l-5.3,3.1c-1.3,0.8-3.1,0.7-5.2-0.5
				C161.4,80.3,160.1,79.1,159,77.7z"/>
		</g>
		<defs>
			<filter id="Adobe_OpacityMaskFilter_15_" filterUnits="userSpaceOnUse" x="197.9" y="141.5" width="14.4" height="7.6">
				<feColorMatrix  type="matrix" values="1 0 0 0 0  0 1 0 0 0  0 0 1 0 0  0 0 0 1 0"/>
			</filter>
		</defs>
		<mask maskUnits="userSpaceOnUse" x="197.9" y="141.5" width="14.4" height="7.6" id="mask15_26_1041_1_">
			<path class="st44" d="M208.2,145.6c0.6,0.3,1.3,0.5,2.1,0.5s1.4-0.2,2.1-0.5l-5.3,3.1c-0.6,0.3-1.3,0.5-2.1,0.5
				c-0.7,0-1.4-0.2-2.1-0.5L208.2,145.6z"/>
		</mask>
		<g class="st45">
			<path class="st6" d="M197.9,144.6l5.3-3.1c1.1,1.4,2.4,2.6,3.9,3.6c2,1.2,3.9,1.3,5.2,0.5l-5.3,3.1c-1.3,0.8-3.2,0.6-5.2-0.5
				C200.3,147.2,198.9,146,197.9,144.6L197.9,144.6z"/>
		</g>
		<defs>
			<filter id="Adobe_OpacityMaskFilter_16_" filterUnits="userSpaceOnUse" x="171.2" y="87.5" width="7.4" height="8.7">
				<feColorMatrix  type="matrix" values="1 0 0 0 0  0 1 0 0 0  0 0 1 0 0  0 0 0 1 0"/>
			</filter>
		</defs>
		<mask maskUnits="userSpaceOnUse" x="171.2" y="87.5" width="7.4" height="8.7" id="mask16_26_1041_1_">
			<path class="st46" d="M178.6,87.5c-1.3,0.8-2.1,2.4-2.1,4.6l-5.3,3.1c0-2.3,0.8-3.9,2.1-4.6L178.6,87.5z"/>
		</mask>
		<g class="st47">
			<path class="st6" d="M173.4,90.5l5.3-3.1c-1.3,0.8-2.1,2.4-2.1,4.6c0,0.3,0,0.7,0,1l-5.3,3.1c0-0.3-0.1-0.7-0.1-1
				C171.2,92.9,172,91.3,173.4,90.5L173.4,90.5z"/>
		</g>
		<path class="st11" d="M184.6,107.3l5.3-3.1l0.3,0.2l-5.3,3.1L184.6,107.3z"/>
		<defs>
			<filter id="Adobe_OpacityMaskFilter_17_" filterUnits="userSpaceOnUse" x="173.4" y="87" width="10.4" height="4">
				<feColorMatrix  type="matrix" values="1 0 0 0 0  0 1 0 0 0  0 0 1 0 0  0 0 0 1 0"/>
			</filter>
		</defs>
		<mask maskUnits="userSpaceOnUse" x="173.4" y="87" width="10.4" height="4" id="mask17_26_1041_1_">
			<path class="st48" d="M173.4,90.5l5.3-3.1c1.3-0.8,3.1-0.6,5.1,0.5l-5.3,3C176.5,89.9,174.7,89.8,173.4,90.5z"/>
		</mask>
		<g class="st49">
			<path class="st10" d="M173.4,90.5l5.3-3.1c1.3-0.8,3.1-0.6,5.1,0.5l-5.3,3C176.5,89.8,174.7,89.7,173.4,90.5L173.4,90.5z"/>
		</g>
		<defs>
			<filter id="Adobe_OpacityMaskFilter_18_" filterUnits="userSpaceOnUse" x="198" y="127.5" width="16.4" height="21.2">
				<feColorMatrix  type="matrix" values="1 0 0 0 0  0 1 0 0 0  0 0 1 0 0  0 0 0 1 0"/>
			</filter>
		</defs>
		<mask maskUnits="userSpaceOnUse" x="198" y="127.5" width="16.4" height="21.2" id="mask18_26_1041_1_">
			<path class="st50" d="M212.2,145.6l-5.2,3.1c1.3-0.8,2.1-2.4,2.1-4.6c-0.1-2.5-0.9-4.9-2.1-7.1c-1.3-2.2-3-4-5.1-5.4
				c-1.2-0.7-2.5-1.1-3.9-0.9l5.3-3.1c1.4-0.1,2.7,0.2,3.9,0.9c2.1,1.4,3.8,3.2,5.1,5.4c1.3,2.2,2,4.6,2.1,7.1
				C214.3,143.2,213.5,144.8,212.2,145.6z"/>
		</mask>
		<g class="st51">
			<path class="st10" d="M198,130.6l5.3-3.1c1.4-0.1,2.7,0.2,3.9,0.9c2.1,1.4,3.8,3.2,5.1,5.4c1.3,2.2,2,4.6,2.1,7.1
				c0,2.3-0.8,3.9-2.1,4.6l-5.3,3.1c1.3-0.8,2.1-2.4,2.1-4.6c-0.1-2.5-0.9-4.9-2.1-7.1c-1.3-2.2-3-4-5.1-5.4
				C200.8,130.8,199.4,130.4,198,130.6L198,130.6z"/>
		</g>
		<defs>
			<filter id="Adobe_OpacityMaskFilter_19_" filterUnits="userSpaceOnUse" x="159" y="60.4" width="16.4" height="21.2">
				<feColorMatrix  type="matrix" values="1 0 0 0 0  0 1 0 0 0  0 0 1 0 0  0 0 0 1 0"/>
			</filter>
		</defs>
		<mask maskUnits="userSpaceOnUse" x="159" y="60.4" width="16.4" height="21.2" id="mask19_26_1041_1_">
			<path class="st52" d="M173.3,78.4l-5.3,3.1c1.3-0.8,2.1-2.4,2.1-4.6c0-0.2,0-0.5,0-0.7c-0.2-2.4-1-4.7-2.3-6.7s-2.9-3.8-4.9-5.1
				c-1.2-0.7-2.5-1.1-3.9-0.9l5.3-3.1c1.4-0.1,2.7,0.2,3.9,0.9c2,1.3,3.7,3,4.9,5.1c1.2,2,2,4.3,2.3,6.7c0,0.2,0,0.5,0,0.7
				C175.4,76.1,174.6,77.7,173.3,78.4z"/>
		</mask>
		<g class="st53">
			<path class="st10" d="M159.1,63.5l5.3-3.1c1.4-0.1,2.7,0.2,3.9,0.9c2,1.3,3.7,3,4.9,5.1c1.2,2,2,4.3,2.3,6.7c0,0.2,0,0.5,0,0.7
				c0,2.3-0.8,3.9-2.1,4.6l-5.3,3.1c1.3-0.8,2.1-2.4,2.1-4.6c0-0.2,0-0.5,0-0.7c-0.2-2.4-1-4.7-2.3-6.7s-2.9-3.8-4.9-5.1
				C161.8,63.6,160.4,63.3,159.1,63.5L159.1,63.5z"/>
		</g>
		<path class="st31" d="M198,115.7l5.3-3.1l0,14.9l-5.3,3.1L198,115.7z"/>
		<path class="st15" d="M145.6,40.2l5.3-3.1l13.3,7.7l-5.3,3.1L145.6,40.2z"/>
		<path class="st11" d="M184.9,107.5l5.3-3.1l13.1,7.6l-5.3,3.1L184.9,107.5z"/>
		<path class="st31" d="M198,115.1l5.3-3.1v0.6l-5.3,3.1V115.1z"/>
		<path class="st31" d="M159.1,48.1l5.3-3.1l0,15.4l-5.3,3.1L159.1,48.1z"/>
		<path class="st20" d="M158.9,47.9l0.2,0.2v15.4c1.4-0.1,2.7,0.2,3.9,0.9c2,1.3,3.7,3,4.9,5.1c1.2,2,2,4.3,2.3,6.7
			c0,0.2,0,0.5,0,0.7c0,4.6-3.3,6.4-7.2,4.1c-1.5-0.9-2.9-2.1-3.9-3.6v0.2v14.9v0.3l-13.5-7.8c0.9-1.1,1.3-2.5,1.2-3.9
			c-0.1-2.5-0.9-4.9-2.1-7.1c-1.3-2.2-3-4-5.1-5.4c-4-2.3-7.2-0.4-7.2,4.1c0,1.8,0.4,3.6,1.2,5.3l-13.5-7.8l0.1-44.9l13.5,7.8
			c-0.8,1.1-1.2,2.4-1.2,3.8c0.1,2.5,0.8,4.9,2.1,7.1c1.3,2.2,3,4,5.1,5.4c4,2.3,7.2,0.4,7.2-4.1c0-1.8-0.4-3.5-1.1-5.1L158.9,47.9z
			"/>
		<path class="st11" d="M159.1,48.2l5.3-3.1l13.5,7.8l-5.3,3.1L159.1,48.2z"/>
		<defs>
			<filter id="Adobe_OpacityMaskFilter_20_" filterUnits="userSpaceOnUse" x="171.3" y="42.9" width="7.4" height="12.9">
				<feColorMatrix  type="matrix" values="1 0 0 0 0  0 1 0 0 0  0 0 1 0 0  0 0 0 1 0"/>
			</filter>
		</defs>
		<mask maskUnits="userSpaceOnUse" x="171.3" y="42.9" width="7.4" height="12.9" id="mask20_26_1041_1_">
			<path class="st54" d="M173.4,46l5.3-3.1c-1.3,0.8-2.1,2.4-2.1,4.6c0,1.8,0.4,3.6,1.1,5.2l-5.3,3.1c-0.7-1.6-1.1-3.4-1.1-5.2
				C171.3,48.3,172.1,46.7,173.4,46z"/>
		</mask>
		<g class="st55">
			<path class="st10" d="M173.4,46l5.3-3.1c-1.3,0.8-2.1,2.4-2.1,4.6c0,1.8,0.4,3.6,1.1,5.2l-5.3,3.1c-0.7-1.6-1.1-3.4-1.1-5.2
				C171.3,48.4,172.1,46.7,173.4,46z"/>
		</g>
		<path class="st56" d="M178.7,46.7c2.7,1.8,4.9,4.3,6.1,7.3c0.6,1.6,1,3.2,1,4.9c0.1,1.4-0.4,2.8-1.2,3.9l0.2,0.1l13.4,7.9v15.5
			c-1.1-1.5-2.4-2.8-4-3.7c-4-2.3-7.2-0.4-7.3,4.1c0.1,2.5,0.9,4.9,2.1,7.1c1.3,2.2,3,4,5.1,5.4c1.2,0.8,2.6,1.1,4,0.9v15v0.6v-0.6
			l-13.1-7.6c0.6-1,0.9-2.2,0.9-3.4c0-0.3,0-0.7,0-1c-0.2-2.5-1-4.8-2.2-7c-1.3-2.1-3-3.9-5.1-5.2c-4-2.3-7.2-0.5-7.3,4.1
			c0,0.3,0,0.7,0.1,1c0.1,1.4,0.3,2.7,0.8,4L159,92.6V77.7c1.1,1.4,2.4,2.7,3.9,3.6c4,2.3,7.2,0.5,7.3-4.1c0-0.3,0-0.6,0-1
			c-0.2-2.4-1-4.7-2.3-6.7c-1.2-2-2.9-3.8-4.9-5.1c-1.2-0.7-2.5-1.1-3.9-0.9V48.1l13.4,7.7c-0.7-1.6-1-3.2-1-4.9
			C171.4,46.3,174.7,44.4,178.7,46.7z"/>
		<path class="st10" d="M178.5,91c2,1.3,3.7,3.1,5,5.2c1.2,2.1,2,4.4,2.2,6.9c0,0.1,0,0.3,0,0.4c0.1,1.4-0.3,2.7-1.2,3.8l0.3,0.2
			l13.1,7.6v0.6v14.9c1.4-0.1,2.7,0.2,3.9,0.9c2.1,1.4,3.8,3.2,5.1,5.4c1.2,2.2,2,4.6,2.1,7.1c0,4.6-3.2,6.4-7.2,4.2
			c-1.5-0.9-2.9-2.1-3.9-3.6v15.5l-39.1-22.6v-15.6c-1.4,0.2-2.8-0.1-4-0.9c-2.1-1.4-3.8-3.2-5.1-5.4c-1.3-2.2-2-4.6-2.1-7.1
			c0-4.6,3.3-6.4,7.3-4.1c1.6,1,2.9,2.2,4,3.7l0.1-15.2v-0.3l13.2,7.6l0.3,0.2c-0.6-1.3-0.9-2.7-1.1-4.1c0-0.3-0.1-0.7-0.1-1
			C171.3,90.6,174.5,88.7,178.5,91z"/>
		<path class="st57" d="M158.9,47.9l5.3-3.1l0.2,0.2l-5.3,3.1L158.9,47.9z"/>
		<path class="st6" d="M198.1,115.1l5.3-3.1l0,0.6l-5.3,3.1L198.1,115.1z"/>
		<path class="st10" d="M198.1,100.2l5.3-3.1l0,15l-5.3,3.1L198.1,100.2z"/>
		<path class="st11" d="M198.1,115.1l5.3-3.1l13.3,7.7l-5.3,3.1L198.1,115.1z"/>
		<path class="st11" d="M184.6,62.8l5.3-3.1l0.2,0.1l-5.3,3.1L184.6,62.8z"/>
		<path class="st15" d="M150,14.5l5.3-3.1c1.3-0.8,3.1-0.7,5.1,0.5c1.5,0.9,2.8,2.1,3.9,3.6l-5.3,3.1c-1.1-1.4-2.4-2.6-3.9-3.5
			C153.1,13.8,151.3,13.7,150,14.5z"/>
		<defs>
			<filter id="Adobe_OpacityMaskFilter_21_" filterUnits="userSpaceOnUse" x="150" y="10.9" width="14.3" height="7.6">
				<feColorMatrix  type="matrix" values="1 0 0 0 0  0 1 0 0 0  0 0 1 0 0  0 0 0 1 0"/>
			</filter>
		</defs>
		<mask maskUnits="userSpaceOnUse" x="150" y="10.9" width="14.3" height="7.6" id="mask21_26_1041_1_">
			<path class="st58" d="M150,14.5l5.3-3.1c1.3-0.8,3.1-0.7,5.1,0.5c1.5,0.9,2.8,2.1,3.9,3.6l-5.3,3.1c-1.1-1.4-2.4-2.6-3.9-3.5
				C153.1,13.8,151.3,13.7,150,14.5z"/>
		</mask>
		<g class="st59">
			<path class="st60" d="M150,14.5l5.3-3.1c1.3-0.8,3.1-0.7,5.1,0.5c1.5,0.9,2.8,2.1,3.9,3.6l-5.3,3.1c-1.1-1.4-2.4-2.6-3.9-3.5
				C153.1,13.8,151.3,13.7,150,14.5L150,14.5z"/>
		</g>
		<defs>
			<filter id="Adobe_OpacityMaskFilter_22_" filterUnits="userSpaceOnUse" x="184.5" y="51" width="6.5" height="11.8">
				<feColorMatrix  type="matrix" values="1 0 0 0 0  0 1 0 0 0  0 0 1 0 0  0 0 0 1 0"/>
			</filter>
		</defs>
		<mask maskUnits="userSpaceOnUse" x="184.5" y="51" width="6.5" height="11.8" id="mask22_26_1041_1_">
			<path class="st61" d="M191.1,55.9c0.1,1.4-0.4,2.8-1.2,3.9l-5.3,3.1c0.8-1.1,1.2-2.4,1.2-3.8L191.1,55.9z"/>
		</mask>
		<g class="st62">
			<path class="st6" d="M184.8,54l5.2-3c0.6,1.6,1,3.2,1,4.9c0.1,1.4-0.4,2.8-1.2,3.9l-5.3,3.1c0.8-1.1,1.3-2.4,1.2-3.8
				C185.8,57.3,185.4,55.7,184.8,54L184.8,54z"/>
		</g>
		<defs>
			<filter id="Adobe_OpacityMaskFilter_23_" filterUnits="userSpaceOnUse" x="173.5" y="42.7" width="10.4" height="4">
				<feColorMatrix  type="matrix" values="1 0 0 0 0  0 1 0 0 0  0 0 1 0 0  0 0 0 1 0"/>
			</filter>
		</defs>
		<mask maskUnits="userSpaceOnUse" x="173.5" y="42.7" width="10.4" height="4" id="mask23_26_1041_1_">
			<path class="st63" d="M173.5,46.2l5.3-3.1c1.3-0.8,3.1-0.7,5.1,0.5l-5.3,3.1C176.7,45.6,174.9,45.5,173.5,46.2z"/>
		</mask>
		<g class="st64">
			<path class="st6" d="M173.5,46.2l5.3-3.1c1.3-0.8,3.1-0.7,5.1,0.5l-5.3,3.1C176.7,45.6,174.9,45.5,173.5,46.2z"/>
		</g>
		<defs>
			<filter id="Adobe_OpacityMaskFilter_24_" filterUnits="userSpaceOnUse" x="212.4" y="109.5" width="10.4" height="4.1">
				<feColorMatrix  type="matrix" values="1 0 0 0 0  0 1 0 0 0  0 0 1 0 0  0 0 0 1 0"/>
			</filter>
		</defs>
		<mask maskUnits="userSpaceOnUse" x="212.4" y="109.5" width="10.4" height="4.1" id="mask24_26_1041_1_">
			<path class="st65" d="M212.4,113.1l5.3-3.1c1.3-0.8,3.1-0.7,5.1,0.5l-5.3,3.1C215.5,112.4,213.7,112.3,212.4,113.1z"/>
		</mask>
		<g class="st66">
			<path class="st6" d="M212.4,113.1l5.3-3.1c1.3-0.8,3.1-0.7,5.1,0.5l-5.3,3.1C215.5,112.4,213.7,112.3,212.4,113.1z"/>
		</g>
		<defs>
			<filter id="Adobe_OpacityMaskFilter_25_" filterUnits="userSpaceOnUse" x="184.5" y="51" width="6.5" height="11.8">
				<feColorMatrix  type="matrix" values="1 0 0 0 0  0 1 0 0 0  0 0 1 0 0  0 0 0 1 0"/>
			</filter>
		</defs>
		<mask maskUnits="userSpaceOnUse" x="184.5" y="51" width="6.5" height="11.8" id="mask25_26_1041_1_">
			<path class="st67" d="M190,51c0.6,1.6,1,3.2,1,4.9l-5.2,3.1c0-1.7-0.4-3.3-1-4.9L190,51z"/>
		</mask>
		<g class="st68">
			<path class="st6" d="M184.8,54l5.2-3c0.6,1.6,1,3.2,1,4.9c0.1,1.4-0.4,2.8-1.2,3.9l-5.3,3.1c0.8-1.1,1.3-2.4,1.2-3.8
				C185.8,57.3,185.4,55.7,184.8,54L184.8,54z"/>
		</g>
		<defs>
			<filter id="Adobe_OpacityMaskFilter_26_" filterUnits="userSpaceOnUse" x="178.7" y="43.7" width="11.3" height="10.4">
				<feColorMatrix  type="matrix" values="1 0 0 0 0  0 1 0 0 0  0 0 1 0 0  0 0 0 1 0"/>
			</filter>
		</defs>
		<mask maskUnits="userSpaceOnUse" x="178.7" y="43.7" width="11.3" height="10.4" id="mask26_26_1041_1_">
			<path class="st69" d="M184,43.7c2.7,1.8,4.8,4.3,6,7.3l-5.3,3.1c-1.2-3-3.3-5.6-6.1-7.3L184,43.7z"/>
		</mask>
		<g class="st70">
			<path class="st6" d="M178.7,46.7l5.3-3.1c2.7,1.8,4.8,4.3,6,7.3l-5.3,3.1C183.5,51,181.4,48.5,178.7,46.7L178.7,46.7z"/>
		</g>
		<defs>
			<filter id="Adobe_OpacityMaskFilter_27_" filterUnits="userSpaceOnUse" x="217.5" y="110.5" width="12.5" height="19.4">
				<feColorMatrix  type="matrix" values="1 0 0 0 0  0 1 0 0 0  0 0 1 0 0  0 0 0 1 0"/>
			</filter>
		</defs>
		<mask maskUnits="userSpaceOnUse" x="217.5" y="110.5" width="12.5" height="19.4" id="mask27_26_1041_1_">
			<path class="st71" d="M217.5,113.6l5.3-3.1c2.1,1.4,3.8,3.2,5.1,5.4c1.2,2.2,2,4.6,2.1,7.1c0.1,1.4-0.3,2.7-1.1,3.8l-5.3,3.1
				c0.8-1.1,1.2-2.4,1.1-3.8c-0.1-2.5-0.8-4.9-2.1-7.1C221.4,116.8,219.6,114.9,217.5,113.6z"/>
		</mask>
		<g class="st72">
			<path class="st6" d="M217.5,113.6l5.3-3.1c2.1,1.4,3.8,3.2,5.1,5.4c1.2,2.2,2,4.6,2.1,7.1c0.1,1.4-0.3,2.7-1.1,3.8l-5.3,3.1
				c0.8-1.1,1.2-2.4,1.1-3.8c-0.1-2.5-0.9-4.9-2.1-7.1C221.4,116.8,219.6,114.9,217.5,113.6L217.5,113.6z"/>
		</g>
		<path class="st11" d="M184.8,62.9l5.3-3.1l13.4,7.9l-5.3,3.1L184.8,62.9z"/>
		<path class="st10" d="M198.2,70.8l5.3-3.1l0,15.6l-5.3,3.1L198.2,70.8z"/>
		<path class="st11" d="M223.6,129.9l5.3-3.1l13.5,7.8l-5.3,3.1L223.6,129.9z"/>
		<path class="st56" d="M217.5,113.6c2.1,1.4,3.9,3.2,5.1,5.4c1.3,2.2,2,4.6,2.1,7.1c0.1,1.4-0.3,2.7-1.1,3.8l13.5,7.8l-0.1,44.9
			L197.8,160l0.1-15.4c1,1.4,2.4,2.6,3.9,3.6c4,2.3,7.3,0.5,7.3-4.1c-0.1-2.5-0.9-4.9-2.1-7.1c-1.3-2.2-3-4-5.1-5.4
			c-1.2-0.8-2.6-1.1-4-1v-14.9v-0.6l13.3,7.7c-0.7-1.6-1.1-3.4-1.1-5.1C210.3,113.1,213.6,111.3,217.5,113.6z"/>
		<path class="st6" d="M237.1,137.6l5.3-3.1l-0.1,44.9l-5.3,3.1L237.1,137.6z"/>
		<path class="st73" d="M198.1,55.1l5.3-3.1l-0.1,15.5l-5.3,3.1L198.1,55.1z"/>
		<defs>
			<filter id="Adobe_OpacityMaskFilter_28_" filterUnits="userSpaceOnUse" x="198.1" y="52" width="14.4" height="7.7">
				<feColorMatrix  type="matrix" values="1 0 0 0 0  0 1 0 0 0  0 0 1 0 0  0 0 0 1 0"/>
			</filter>
		</defs>
		<mask maskUnits="userSpaceOnUse" x="198.1" y="52" width="14.4" height="7.7" id="mask28_26_1041_1_">
			<path class="st74" d="M203.4,52c1,1.3,2.1,2.4,3.4,3.3l-5.3,3.1c-1.3-0.9-2.5-2-3.4-3.3L203.4,52z"/>
		</mask>
		<g class="st75">
			<path class="st6" d="M198.1,55.1l5.3-3.1c1,1.3,2.1,2.4,3.4,3.3c0.2,0.1,0.4,0.2,0.6,0.3c2,1.2,3.8,1.3,5.2,0.5l-5.3,3.1
				c-1.3,0.8-3.1,0.7-5.1-0.5c-0.2-0.1-0.4-0.2-0.6-0.4C200.2,57.5,199.1,56.4,198.1,55.1L198.1,55.1z"/>
		</g>
		<defs>
			<filter id="Adobe_OpacityMaskFilter_29_" filterUnits="userSpaceOnUse" x="198.1" y="52" width="14.4" height="7.7">
				<feColorMatrix  type="matrix" values="1 0 0 0 0  0 1 0 0 0  0 0 1 0 0  0 0 0 1 0"/>
			</filter>
		</defs>
		<mask maskUnits="userSpaceOnUse" x="198.1" y="52" width="14.4" height="7.7" id="mask29_26_1041_1_">
			<path class="st76" d="M207.4,55.7c1.2,0.8,2.7,1.1,4.2,0.9l-5.3,3.1c-1.5,0.3-3-0.1-4.2-0.9c-0.2-0.1-0.4-0.2-0.6-0.4l0.6-0.4
				l0.3-0.2l0.7-0.4l1.4-0.8l0.3-0.2l0.3-0.2l0.3-0.2l0.6-0.4c0.2-0.1,0.4-0.3,0.6-0.4C207,55.5,207.2,55.6,207.4,55.7z"/>
		</mask>
		<g class="st77">
			<path class="st6" d="M198.1,55.1l5.3-3.1c1,1.3,2.1,2.4,3.4,3.3c0.2,0.1,0.4,0.2,0.6,0.3c2,1.2,3.8,1.3,5.2,0.5l-5.3,3.1
				c-1.3,0.8-3.1,0.7-5.1-0.5c-0.2-0.1-0.4-0.2-0.6-0.4C200.2,57.5,199.1,56.4,198.1,55.1L198.1,55.1z"/>
		</g>
		<defs>
			<filter id="Adobe_OpacityMaskFilter_30_" filterUnits="userSpaceOnUse" x="198.1" y="52" width="14.4" height="7.7">
				<feColorMatrix  type="matrix" values="1 0 0 0 0  0 1 0 0 0  0 0 1 0 0  0 0 0 1 0"/>
			</filter>
		</defs>
		<mask maskUnits="userSpaceOnUse" x="198.1" y="52" width="14.4" height="7.7" id="mask30_26_1041_1_">
			<path class="st78" d="M211.6,56.6c0.3-0.1,0.6-0.2,0.9-0.4l-5.3,3.1c-0.3,0.2-0.6,0.3-0.9,0.4l2.7-1.5l0.4-0.2l2-1.2
				C211.4,56.7,211.5,56.6,211.6,56.6z"/>
		</mask>
		<g class="st79">
			<path class="st6" d="M198.1,55.1l5.3-3.1c1,1.3,2.1,2.4,3.4,3.3c0.2,0.1,0.4,0.2,0.6,0.3c2,1.2,3.8,1.3,5.2,0.5l-5.3,3.1
				c-1.3,0.8-3.1,0.7-5.1-0.5c-0.2-0.1-0.4-0.2-0.6-0.4C200.2,57.5,199.1,56.4,198.1,55.1L198.1,55.1z"/>
		</g>
		<defs>
			<filter id="Adobe_OpacityMaskFilter_31_" filterUnits="userSpaceOnUse" x="222.8" y="82.3" width="7.4" height="12.8">
				<feColorMatrix  type="matrix" values="1 0 0 0 0  0 1 0 0 0  0 0 1 0 0  0 0 0 1 0"/>
			</filter>
		</defs>
		<mask maskUnits="userSpaceOnUse" x="222.8" y="82.3" width="7.4" height="12.8" id="mask31_26_1041_1_">
			<path class="st80" d="M228,92.1l-5.3,3.1c1.3-0.8,2.1-2.4,2.1-4.6c0-1.8-0.4-3.5-1.1-5.1l5.3-3.1c0.7,1.6,1.1,3.4,1.1,5.1
				C230.1,89.8,229.3,91.4,228,92.1z"/>
		</mask>
		<g class="st81">
			<path class="st6" d="M223.7,85.4l5.3-3.1c0.7,1.6,1.1,3.4,1.1,5.1c0,2.3-0.8,3.9-2.1,4.6l-5.3,3.1c1.3-0.8,2.1-2.4,2.1-4.6
				C224.8,88.8,224.4,87,223.7,85.4L223.7,85.4z"/>
		</g>
		<defs>
			<filter id="Adobe_OpacityMaskFilter_32_" filterUnits="userSpaceOnUse" x="198.1" y="38.1" width="16.5" height="21.1">
				<feColorMatrix  type="matrix" values="1 0 0 0 0  0 1 0 0 0  0 0 1 0 0  0 0 0 1 0"/>
			</filter>
		</defs>
		<mask maskUnits="userSpaceOnUse" x="198.1" y="38.1" width="16.5" height="21.1" id="mask32_26_1041_1_">
			<path class="st82" d="M212.5,56.2l-5.3,3.1c1.3-0.8,2.1-2.4,2.1-4.6c-0.1-2.5-0.9-4.9-2.1-7.1c-1.3-2.2-3-4-5.1-5.4
				c-1.2-0.8-2.6-1.1-4-0.9l5.3-3.1c1.4-0.2,2.8,0.2,4,0.9c2.1,1.4,3.8,3.2,5.1,5.4c1.3,2.2,2,4.6,2.1,7.1
				C214.6,53.8,213.8,55.4,212.5,56.2z"/>
		</mask>
		<g class="st83">
			<path class="st10" d="M198.1,41.2l5.3-3.1c1.4-0.2,2.8,0.2,4,0.9c2.1,1.4,3.8,3.2,5.1,5.4c1.3,2.2,2,4.6,2.1,7.1
				c0,2.3-0.8,3.9-2.1,4.6l-5.3,3.1c1.3-0.8,2.1-2.4,2.1-4.6c-0.1-2.5-0.9-4.9-2.1-7.1c-1.3-2.2-3-4-5.1-5.4
				C200.9,41.3,199.5,41,198.1,41.2z"/>
		</g>
		<path class="st31" d="M198.1,25.6l5.3-3.1l-0.1,15.6l-5.3,3.1L198.1,25.6z"/>
		<path class="st15" d="M159.1,3.1l5.3-3.1l39.1,22.6l-5.3,3.1L159.1,3.1z"/>
		<path class="st56" d="M237.3,48.2l-0.1,44.9l-13.4-7.8c0.7,1.6,1.1,3.4,1.1,5.1c0,4.6-3.3,6.4-7.2,4.1c-2.1-1.4-3.9-3.2-5.1-5.4
			c-1.3-2.2-2-4.6-2.1-7.1c-0.1-1.4,0.3-2.7,1.1-3.8l-13.4-7.8V55.1c0.9,1.3,2.1,2.4,3.4,3.3c0.2,0.1,0.4,0.3,0.6,0.4
			c4,2.3,7.2,0.5,7.2-4.1c-0.1-2.5-0.9-4.9-2.1-7.1c-1.3-2.2-3-4-5.1-5.4c-1.2-0.8-2.6-1.1-4-1l0-15.5L237.3,48.2z"/>
		<path class="st20" d="M198.1,25.6l0,15.6c1.4-0.2,2.8,0.2,4,0.9c2.1,1.4,3.8,3.2,5.1,5.4c1.3,2.2,2,4.6,2.1,7.1
			c0,4.6-3.3,6.4-7.2,4.1l-0.5-0.3c-1.3-0.9-2.5-2-3.4-3.3L198,70.6l-13.2-7.6l-0.2-0.1c0.8-1.1,1.3-2.4,1.2-3.8
			c0-1.7-0.4-3.3-1-4.9c-1.2-3-3.3-5.6-6.1-7.3c-3.7-2.2-7.2-0.6-7.2,4c0,1.7,0.3,3.5,1,5.1l-13.4-7.7l-0.2-0.1l0.1-15.5
			c-1.4,0.1-2.7-0.2-3.9-0.9c-2.1-1.4-3.8-3.2-5.1-5.4c-1.3-2.2-2-4.6-2.1-7.1c0-4.6,3.3-6.4,7.2-4.1c1.5,0.9,2.8,2.1,3.9,3.5V3.1
			L198.1,25.6z"/>
		<path class="st6" d="M237.3,48.2l5.3-3.1l-0.1,44.9l-5.3,3.1L237.3,48.2z"/>
		<path class="st11" d="M198.2,25.7l5.3-3.1l39.1,22.6l-5.3,3.1L198.2,25.7z"/>
		<defs>
			<filter id="Adobe_OpacityMaskFilter_33_" filterUnits="userSpaceOnUse" x="91.2" y="106.2" width="14.4" height="7.8">
				<feColorMatrix  type="matrix" values="1 0 0 0 0  0 1 0 0 0  0 0 1 0 0  0 0 0 1 0"/>
			</filter>
		</defs>
		<mask maskUnits="userSpaceOnUse" x="91.2" y="106.2" width="14.4" height="7.8" id="mask33_26_1041_1_">
			<path class="st84" d="M105.6,110.4l-5.3,3.1c-1.3,0.8-3.1,0.7-5.2-0.5c-1.6-1-2.9-2.2-4-3.7l5.3-3.1c1.1,1.5,2.4,2.8,4,3.7
				C102.5,111.1,104.3,111.2,105.6,110.4z"/>
		</mask>
		<g class="st85">
			<path class="st86" d="M91.2,109.3l5.3-3.1c1.1,1.5,2.4,2.8,4,3.7c2,1.2,3.8,1.3,5.1,0.5l-5.3,3.1c-1.3,0.8-3.1,0.7-5.2-0.5
				C93.6,112,92.2,110.8,91.2,109.3L91.2,109.3z"/>
		</g>
		<path class="st15" d="M130.3,131.9l5.3-3.1l0,15.5l-5.3,3.1L130.3,131.9z"/>
		<path class="st15" d="M91.3,79.9l5.3-3.1l13.5,7.8l-5.3,3.1L91.3,79.9z"/>
		<defs>
			<filter id="Adobe_OpacityMaskFilter_34_" filterUnits="userSpaceOnUse" x="119.2" y="110.8" width="16.4" height="21.2">
				<feColorMatrix  type="matrix" values="1 0 0 0 0  0 1 0 0 0  0 0 1 0 0  0 0 0 1 0"/>
			</filter>
		</defs>
		<mask maskUnits="userSpaceOnUse" x="119.2" y="110.8" width="16.4" height="21.2" id="mask34_26_1041_1_">
			<path class="st87" d="M121.3,113.9l5.3-3.1c-1.3,0.8-2.1,2.4-2.1,4.6c0.1,2.5,0.9,4.9,2.1,7.1c1.3,2.2,3,4,5.1,5.4
				c1.2,0.8,2.5,1.1,3.9,0.9l-5.3,3.1c-1.4,0.1-2.8-0.2-3.9-0.9c-2.1-1.4-3.8-3.2-5.1-5.4c-1.3-2.2-2-4.6-2.1-7.1
				C119.2,116.2,120,114.6,121.3,113.9z"/>
		</mask>
		<g class="st88">
			<path class="st15" d="M121.3,113.9l5.3-3.1c-1.3,0.8-2.1,2.4-2.1,4.6c0.1,2.5,0.9,4.9,2.1,7.1c1.3,2.2,3,4,5.1,5.4
				c1.2,0.8,2.5,1.1,3.9,0.9l-5.3,3.1c-1.4,0.1-2.8-0.2-3.9-0.9c-2.1-1.4-3.8-3.2-5.1-5.4c-1.3-2.2-2-4.6-2.1-7.1
				C119.2,116.2,120,114.6,121.3,113.9z"/>
		</g>
		<path class="st15" d="M105.7,77.9l5.3-3.1c1.3-0.8,3.1-0.7,5.1,0.5l-5.3,3.1C108.8,77.2,107,77.1,105.7,77.9z"/>
		<defs>
			<filter id="Adobe_OpacityMaskFilter_35_" filterUnits="userSpaceOnUse" x="105.7" y="74.3" width="10.4" height="4.1">
				<feColorMatrix  type="matrix" values="1 0 0 0 0  0 1 0 0 0  0 0 1 0 0  0 0 0 1 0"/>
			</filter>
		</defs>
		<mask maskUnits="userSpaceOnUse" x="105.7" y="74.3" width="10.4" height="4.1" id="mask35_26_1041_1_">
			<path class="st89" d="M105.7,77.9l5.3-3.1c1.3-0.8,3.1-0.7,5.1,0.5l-5.3,3.1C108.8,77.2,107,77.1,105.7,77.9z"/>
		</mask>
		<g class="st90">
			<path class="st86" d="M105.7,77.9l5.3-3.1c1.3-0.8,3.1-0.7,5.1,0.5l-5.3,3.1C108.9,77.2,107.1,77.1,105.7,77.9L105.7,77.9z"/>
		</g>
		<defs>
			<filter id="Adobe_OpacityMaskFilter_36_" filterUnits="userSpaceOnUse" x="110.8" y="75.3" width="12.5" height="19.4">
				<feColorMatrix  type="matrix" values="1 0 0 0 0  0 1 0 0 0  0 0 1 0 0  0 0 0 1 0"/>
			</filter>
		</defs>
		<mask maskUnits="userSpaceOnUse" x="110.8" y="75.3" width="12.5" height="19.4" id="mask36_26_1041_1_">
			<path class="st91" d="M110.8,78.4l5.3-3.1c2.1,1.4,3.9,3.2,5.1,5.4c1.3,2.2,2,4.6,2.1,7.1c0.1,1.4-0.3,2.7-1.2,3.8l-5.3,3.1
				c0.8-1.1,1.2-2.4,1.2-3.8c-0.1-2.5-0.8-4.9-2.1-7.1C114.7,81.6,112.9,79.8,110.8,78.4z"/>
		</mask>
		<g class="st92">
			<path class="st15" d="M110.8,78.4l5.3-3.1c2.1,1.4,3.9,3.2,5.1,5.4c1.3,2.2,2,4.6,2.1,7.1c0.1,1.4-0.3,2.7-1.2,3.8l-5.3,3.1
				c0.8-1.1,1.2-2.4,1.2-3.8c-0.1-2.5-0.8-4.9-2.1-7.1C114.7,81.6,112.9,79.8,110.8,78.4z"/>
		</g>
		<path class="st15" d="M116.9,94.7l5.3-3.1l13.5,7.8l-5.3,3.1L116.9,94.7z"/>
		<path class="st20" d="M110.8,78.4c2.1,1.4,3.8,3.2,5.1,5.4c1.3,2.2,2,4.6,2.1,7.1c0.1,1.4-0.3,2.7-1.2,3.8l13.5,7.8v15.5
			c-1.1-1.4-2.4-2.6-3.9-3.6c-4-2.3-7.2-0.5-7.3,4.1c0.1,2.5,0.8,4.9,2.1,7.1c1.2,2.2,3,4,5.1,5.4c1.2,0.8,2.5,1.1,3.9,0.9
			l-0.1,15.5l-39.1-22.6l0.1-15.5c1.1,1.5,2.4,2.8,4,3.7c4,2.3,7.2,0.5,7.3-4.1c-0.1-2.5-0.8-4.9-2.1-7.1c-1.3-2.2-3-4-5.1-5.4
			c-1.2-0.8-2.6-1.1-4-0.9l0.1-15.6l13.5,7.8c-0.7-1.6-1.1-3.4-1.1-5.1C103.6,77.9,106.8,76.1,110.8,78.4z"/>
		<path class="st15" d="M130.4,102.5l5.3-3.1l0,15.5l-5.3,3.1L130.4,102.5z"/>
		<path class="st93" d="M99.6,161.8c0-0.1,0-0.2,0-0.3c0-0.9,0.2-1.7,0.6-2.5c0.1-0.3,0.3-0.6,0.5-0.9c0.2-0.1,0.3-0.1,0.5-0.2
			c0.2,0,0.4,0,0.6,0.1c0.2,0.1,0.3,0.2,0.5,0.3c0.1,0.1,0.3,0.3,0.3,0.4c0.2,0.3,0.3,0.7,0.4,1c0.1,0.3,0.4,0.7,0.6,0.9
			c0.3,0.2,0.6,0.4,1,0.5c1-0.1,2.1-0.2,3.1-0.3c0.4-0.1,0.8,0,1.2,0.1c0.4,0.3,0.7,0.6,0.8,1.1c0.1,0.4,0.1,0.9,0,1.4
			c-0.2,0.5-0.6,0.8-1.1,1c-0.7,0.3-1.5,0.5-2.4,0.5c-0.8-0.1-1.6,0-2.3,0.4c-1.3,0.6-2.8,1.5-4.1,0.3c-0.3-0.3-0.5-0.8-0.6-1.2
			C99.4,163.4,99.5,162.6,99.6,161.8z"/>
		<path class="st93" d="M92.6,159.9c0.1-0.3,0.3-0.2,0.6-0.3c0.3-0.1,0.6-0.3,0.8-0.5c0.3-0.3,0.6-0.6,0.8-0.9
			c0.7-0.8,1.6-1.4,2.5-1.8c0.3-0.1,0.6-0.2,0.9-0.3c0.6,0,1.2,0.2,1.7,0.5c0.5,0.3,0.5,0.6,0.6,1.1c0,0.2,0,0.5,0,0.7
			c-0.2,0.5-0.4,0.9-0.8,1.3c-0.4,0.4-0.8,0.8-1.3,1.1c-0.4,0.2-0.9,0.3-1.3,0.6c-0.3,0.2-0.5,0.4-0.7,0.7c-0.1,0.2-0.3,0.4-0.5,0.6
			c-0.5,0.3-1,0.5-1.5,0.6c-0.2,0-0.5,0-0.7,0c-0.2-0.1-0.5-0.2-0.6-0.3c-0.2-0.2-0.3-0.4-0.5-0.6c-0.1-0.2-0.2-0.5-0.2-0.7
			c0-0.4,0-0.8,0.1-1.2C92.5,160.2,92.5,160,92.6,159.9z"/>
		<path class="st94" d="M100.7,129.8c-0.3-0.3-0.6-0.4-1-0.4c-1.6-0.3-3.2-0.9-4.7-1.3c-0.7-0.2-1.4-0.3-2.1-0.3l-1.5-1.4
			c-0.2,1.3-0.3,2.7-0.2,4.1c0.3,3,1.1,11.6,1.3,14.8c0.1,1.5,0,3-0.1,4.5c-0.1,1.4,0,2.8-0.1,4.3c-0.1,1.4-0.3,2.9-0.3,4.4
			c0,0.5-0.1,2.4,0.3,2.7c0.6,0.4,1.3,0.5,2,0.5c0.4,0,0.8,0,1.2-0.2c0.4-0.2,0.7-0.4,1-0.7c0.5-0.7,0.7-5.7,0.7-6.5
			c0.1-1.7,0.2-3.4,0.3-5.1c0.1-0.9,0.1-1.7,0.2-2.5c0-0.5,0.1-0.9,0.1-1.4c0-0.5,0-1,0.2-1.5c0.7-1.2,1.3-2.6,1.6-4
			c0.2-1.2,0.2-4.4,0.3-5.6c0.1-1.2,0.5-2.2,0.7-3.3c0.1-0.2,0.1-0.3,0.1-0.5S100.8,129.9,100.7,129.8z"/>
		<path class="st95" d="M103.8,147.3v0.2c0,1.5-0.1,3-0.1,4.4c0,0.8,0.2,6.6,0.2,7.6c0.1,0.8,0.1,1.6,0.1,2.3c0,0.2-0.1,0.5-0.2,0.7
			c-0.1,0.2-0.3,0.4-0.5,0.5c-2.3,1-3.6-0.2-3.9-0.8c-1.6-2.8-1.1-12.7-1.3-15.4c0-0.7,0-0.4,0-1.1c-0.1-0.6-0.2-1.2-0.1-1.9
			c0.3-1,1.6-0.4,2.3-0.2c1.1,0.2,2.1,0.6,3,1.1C104,145.3,103.9,146.4,103.8,147.3z"/>
		<path class="st95" d="M104.1,127.7c-0.9-0.8-3.5,0.2-4.5,0.2c-1,0.1-1.8,0.1-2.8,0c-0.4,0-0.9,0-1.3,0c-0.3-0.1-0.6-0.4-1-0.4
			s-1.1-0.7-1.3-0.5c-0.2,0.2,0.1,1.4,0.2,1.9c0.8,3.9,3.4,8.9,4.1,12.8c0.3,1.6,0.2,3.3,0.4,4.9c0,0.2,0.1,0.4,0.1,0.6
			c0.2,0.3,0.4,0.6,0.7,0.8c0.7,0.5,1.5,0.8,2.4,0.9c0.5,0.1,0.9,0.1,1.4,0.1c0.4,0,0.8-0.2,1.1,0c0.2-1.4,0.1-2.8,0.3-4.1
			c0.2-1.5,0.3-2.9,0.3-4.4c0.1-3.2,0.2-8.3,0.1-11.5c0-0.4-0.1-0.8-0.2-1.2C104.1,127.8,104.1,127.7,104.1,127.7z"/>
		<path class="st56" d="M89.5,105.1c0.3-0.5,0.8-0.9,1.3-1.2c0.5-0.3,1.1-0.5,1.7-0.5c-0.1,0,1.3,0,4.8-0.3l-2,6.1
			c-0.5,0.1-1,0.2-1.6,0.4c-0.9,0.4-2,0.4-2.9,0c-0.4-0.2-0.8-0.4-1-0.8c-0.3-0.3-0.5-0.7-0.6-1.1c-0.1-0.4-0.1-0.8-0.1-1.1
			C89.2,106.1,89.3,105.6,89.5,105.1z"/>
		<path class="st96" d="M105.6,111.5c0,0.4,0,1.1-0.4,1.3c-0.4,0.1-0.8,0.2-1.3,0.2c-1.1,0.1-2.1,0.2-3.2,0.2c-0.5,0-1,0.1-1.4,0.1
			c-1.4,0-2.8,0-4.1-0.3c-0.6,0-1.3-0.2-1.8-0.6c-0.2-0.2-0.3-0.4-0.4-0.7c-0.1-0.3-0.1-0.5,0-0.8c0-0.5,0.2-1,0.5-1.4
			c0.3-0.4,0.7-0.7,1.1-1c0.9-0.3,1.9-0.3,2.8-0.1c2.2,0.3,4.3,0.7,6.5,1.3c0.4,0.1,0.7,0.2,1.1,0.4c0.2,0.2,0.3,0.4,0.4,0.6
			C105.5,111,105.6,111.3,105.6,111.5z"/>
		<path class="st97" d="M117.5,117.9c0.2-0.1,0.4-0.3,0.6-0.4c0.3-0.2,0.6-0.3,0.9-0.4l2.6-0.9c0.1-0.1,0.3-0.1,0.4,0
			c0,0.1,0.1,0.1,0.1,0.2c0,0.1-0.1,0.2-0.1,0.3c-0.1,0.1-0.1,0.2-0.2,0.2c-0.2,0.1-0.4,0.2-0.5,0.3c-0.3,0.1-0.6,0.3-0.9,0.5
			c0,0-0.1,0-0.1,0.1s0,0.1,0.1,0.1c0.3,0,0.7,0.3,1,0.3c0.4,0,0.8,0,1.3-0.1c0.1,0,0.2,0,0.3,0c0.1,0,0.1,0.1,0.1,0.2
			c0,0.1,0,0.1,0,0.2c0,0.2-0.1,0.3-0.2,0.4l-0.6,1.1c-0.1,0.1-0.2,0.3-0.3,0.3c-0.1,0.1-0.2,0.1-0.4,0.1c-0.1,0.1-0.3,0.2-0.4,0.3
			c-0.1,0.1-0.3,0.2-0.4,0.2c-0.2,0-0.3,0-0.5,0c-0.9-0.2-1.7-0.8-2.7-0.9c-0.3,0-0.7,0-1-0.1c-0.1,0-0.2,0-0.2-0.1
			c-0.1-0.1-0.1-0.2-0.1-0.3c0-0.3,0-0.6,0.2-0.9c0.1-0.2,0.3-0.6,0.5-0.6C117.2,118,117.4,117.9,117.5,117.9z"/>
		<path class="st56" d="M105.2,110.3L105.2,110.3c0.1-0.7-0.1-1.3-0.4-1.8c-0.4-0.4-0.8-0.7-1.3-0.9c-1.4-0.9-3-1.7-4.6-2.3
			c-2.5-0.9-5-2.7-7.6-1.2c-0.3,0.1-0.5,0.3-0.7,0.5c-1.3,1.3-1.2,3.4-1,5.1c0.2,1.7,0.6,3.1,0.9,4.7c0.3,2,0.4,4,0.2,6
			c0,1.8,0,3.6,0,5.4c0,1,0,1.9,0,2.9c0,1,0,2.1,1.1,2.6c0.8,0.3,1.6,0.5,2.5,0.5c2.6,0.2,5.2,0.9,7.9,0.7c0.5,0,0.9-0.1,1.3-0.3
			c1.1-0.5,1-1.4,1-2.4c0-1-0.1-1.9-0.1-2.8c-0.2-1.5-0.3-3.1-0.2-4.6c0.2-2.4,0.5-4.9,0.7-7.3C105.1,113.5,105.2,111.9,105.2,110.3
			z"/>
		<path class="st11" d="M101.9,108.4c0.4-0.3,0.8-0.5,1.3-0.6c1.2-0.2,1.9,0.6,2.5,1.6c0.2,0.4,1.6,3.3,2.1,4.3
			c0.2,0.6,0.6,1.2,1.1,1.7s1.1,0.8,1.7,1c0.2,0,3.7,0.4,5.3,0.7c1,0.2,2,0.5,2,1.8c0,0.5,0.1,1.2-0.4,1.6c-0.4,0.2-8.3,0.7-10,0
			c-0.5-0.2-0.9-0.4-1.4-0.7c-0.5-0.4-0.9-0.8-1.4-1.3c-1.1-1.1-4.2-6.3-4.1-7.7C100.8,109.8,101.3,109,101.9,108.4z"/>
		<path class="st97" d="M99.6,103.2c0.1-0.6,0.6-0.5,0.3-1.1c-0.2-0.5-0.6-1-1-1.3c-0.4-0.3-1-0.5-1.5-0.5c-0.2,0-0.3,0.1-0.5,0.1
			c-0.5,0-1,0-1.5,0c-0.5,0.1-1,0.1-1,0.7c0.1,0.8,0,1.5-0.2,2.2c-0.2,0.4-0.3,0.8-0.4,1.2c-0.1,0.8,1.5,1,2.2,1.3
			c0.9,0.4,3.5-0.5,3.5-0.9C99.5,104.4,99.5,103.8,99.6,103.2z"/>
		<path class="st97" d="M101.8,94.9c0.3,0.4,0.5,0.8,0.6,1.3c0.2,1.1-0.3,2.2,0,3.3c0.2,0.8,0,1.7-0.4,2.5c-0.4,0.7-1.1,1.3-1.9,1.6
			c-1.3,0.2-2.6,0.1-3.8-0.4c-0.9-0.5-1.5-1.3-2-2.2C89.9,94.1,98.8,91.3,101.8,94.9z"/>
		<path class="st98" d="M93,93.5c0.2-0.2,0.5-0.4,0.8-0.6c0.1,0,0.2-0.1,0.3-0.2c0-0.1,0.1-0.1,0.1-0.2c0.2-0.3,0.4-0.6,0.8-0.7
			c1.2-0.6,2.6-0.8,3.9-0.5c0.4,0,0.9,0.2,1.3,0.3c0.5,0.2,0.9,0.5,1.3,0.9c0.6,0.5,1,1.1,1.3,1.8c0.1,0.3,0.2,0.7,0.2,1
			c0,0.1,0,0.3,0,0.4c0,0.1-0.1,0.3-0.2,0.4c-0.1,0.1-0.2,0.1-0.3,0.2c-0.4,0.3-0.5,1-0.7,1.5c-0.1,0.3-0.4,0.4-0.4,0.8
			c0,0.3-0.1,0.7-0.2,1c0,0.2-0.1,0.3-0.3,0.3c-0.1,0-0.1,0-0.2,0c-0.2-0.1-0.3-0.3-0.3-0.6c0-0.2-0.1-0.4-0.2-0.6
			c0,0,0-0.1-0.1-0.1c0,0-0.1,0-0.1,0c-0.1,0-0.2,0.1-0.3,0.1c-0.1,0.1-0.1,0.2-0.2,0.3c-0.1,0.2-0.2,0.5-0.3,0.7
			c-0.1,0.4-0.1,0.7-0.2,1.1c0,0.4-0.2,0.8-0.4,1.1c-0.4,0.3-0.8,0.5-1.3,0.5c-0.5,0.1-0.9,0-1.4-0.1c-0.3-0.1-0.6-0.1-0.9-0.3
			c-0.6-0.4-1.1-0.9-1.5-1.5c-0.4-0.5-0.8-1.1-1-1.8c-0.1-0.4-0.2-0.7-0.2-1.1C92.1,96.5,91.9,94.6,93,93.5z"/>
		<path class="st97" d="M99.4,97.9c-0.8-0.2-1.2,0.8-0.7,1.7c0.2,0.3,0.4,0.5,0.6,0.7c1.3,1.5,1.9,0.2,1.5-0.3
			C99.8,98.8,100.5,98.1,99.4,97.9z"/>
		<path class="st99" d="M99.5,99.5c-0.1-0.1-0.9-0.8-0.2-1.1c0,0,0.1,0,0.1,0c0,0,0.1,0,0.1,0.1c0,0,0.1,0.1,0.1,0.1
			c0,0,0,0.1,0,0.1c0,0.1,0,0.2,0,0.3c0,0.1,0,0.1,0,0.2c0.1,0.2,0.3,0.3,0.2,0.5C99.7,99.9,99.5,99.5,99.5,99.5z"/>
		<path class="st10" d="M210.2,182.6l0,6.1l-13.4,7.8l0-6.1L210.2,182.6z"/>
		<path class="st56" d="M145.8,190.4l0,6.1l-13.5-7.8l0-6.1L145.8,190.4z"/>
		<defs>
			<filter id="Adobe_OpacityMaskFilter_37_" filterUnits="userSpaceOnUse" x="176.6" y="185.7" width="20.2" height="12">
				<feColorMatrix  type="matrix" values="1 0 0 0 0  0 1 0 0 0  0 0 1 0 0  0 0 0 1 0"/>
			</filter>
		</defs>
		<mask maskUnits="userSpaceOnUse" x="176.6" y="185.7" width="20.2" height="12" id="mask37_26_1041_1_">
			<path class="st100" d="M176.6,197.7v-6.1c0-1.5,1-3,3-4.1c2.2-1.1,4.7-1.7,7.2-1.7c2.5,0,5,0.6,7.2,1.7c1.3,0.6,2.3,1.7,2.8,3
				v6.1c-0.5-1.3-1.5-2.4-2.8-3c-2.2-1.1-4.7-1.7-7.2-1.7s-5,0.6-7.2,1.7C177.6,194.7,176.6,196.2,176.6,197.7z"/>
		</mask>
		<g class="st101">
			<path class="st6" d="M196.8,190.5v6.1c-0.1-0.2-0.1-0.4-0.2-0.5v-6.1C196.6,190.1,196.7,190.3,196.8,190.5L196.8,190.5z"/>
			<path class="st6" d="M196.6,190v6.1c-0.6-1-1.4-1.8-2.4-2.4v-6.1C195.2,188.1,196,189,196.6,190z"/>
			<path class="st6" d="M194.1,187.5v6.1l-0.2-0.1c-2-1.1-4.3-1.7-6.5-1.7v-6.1c2.3,0,4.5,0.6,6.5,1.7L194.1,187.5z"/>
			<path class="st6" d="M187.4,185.7v6.1c-1.6-0.1-3.2,0.1-4.8,0.5v-6.1C184.2,185.8,185.8,185.7,187.4,185.7z"/>
			<path class="st6" d="M182.6,186.2v6.1c-1.1,0.3-2.1,0.7-3.1,1.2c-2,1.1-3,2.6-3,4.1v-6.1c0-1.5,1-3,3-4.1
				C180.5,186.9,181.6,186.5,182.6,186.2L182.6,186.2z"/>
		</g>
		<defs>
			<filter id="Adobe_OpacityMaskFilter_38_" filterUnits="userSpaceOnUse" x="137.8" y="196.1" width="20.2" height="12">
				<feColorMatrix  type="matrix" values="1 0 0 0 0  0 1 0 0 0  0 0 1 0 0  0 0 0 1 0"/>
			</filter>
		</defs>
		<mask maskUnits="userSpaceOnUse" x="137.8" y="196.1" width="20.2" height="12" id="mask38_26_1041_1_">
			<path class="st102" d="M137.8,202.2v-6.1c0,1.5,1,3,3,4.2c2.2,1.1,4.7,1.7,7.2,1.7c2.5,0,5-0.6,7.2-1.7c1.2-0.6,2.2-1.7,2.7-2.9
				v6.1c-0.6,1.2-1.5,2.3-2.7,2.9c-2.2,1.1-4.7,1.7-7.2,1.7s-5-0.6-7.2-1.7C138.8,205.3,137.8,203.8,137.8,202.2z"/>
		</mask>
		<g class="st103">
			<path class="st6" d="M157.9,197.4v6.1c-0.6,1.2-1.5,2.3-2.7,2.9c-1,0.5-2,1-3.1,1.2v-6.1c1.1-0.3,2.1-0.7,3.1-1.2
				C156.4,199.7,157.4,198.7,157.9,197.4L157.9,197.4z"/>
			<path class="st6" d="M152.1,201.6v6.1c-1.6,0.4-3.2,0.5-4.8,0.5v-6.1C148.9,202.1,150.5,202,152.1,201.6L152.1,201.6z"/>
			<path class="st6" d="M147.3,202.1v6.1c-2.3,0-4.5-0.6-6.5-1.7l-0.1-0.1v-6.1l0.1,0.1C142.8,201.4,145,202,147.3,202.1z"/>
			<path class="st6" d="M140.6,200.3v6.1c-1-0.6-1.9-1.4-2.4-2.4v-6.1C138.8,198.9,139.6,199.7,140.6,200.3L140.6,200.3z"/>
			<path class="st6" d="M138.2,197.8v6.1c-0.3-0.5-0.4-1.1-0.4-1.7v-6.1C137.8,196.7,137.9,197.3,138.2,197.8L138.2,197.8z"/>
		</g>
		<path class="st56" d="M171.4,205.2l0,6.1l-13.4-7.8l0-6.1L171.4,205.2z"/>
		<path class="st10" d="M184.8,197.4l0,6.1l-13.5,7.8l0-6.1L184.8,197.4z"/>
		<path class="st11" d="M210.2,182.6l-13.5,7.8c-0.5-1.3-1.5-2.4-2.8-3c-2.2-1.1-4.7-1.7-7.2-1.7s-5,0.6-7.2,1.7
			c-4,2.3-3.9,6,0.1,8.3c1.6,0.9,3.4,1.4,5.2,1.6l-13.4,7.8l-13.4-7.8c-0.6,1.2-1.5,2.3-2.7,2.9c-2.2,1.1-4.7,1.7-7.2,1.7
			s-5-0.6-7.2-1.7c-4-2.3-4-6,0-8.3c1.5-0.8,3.2-1.4,5-1.6l-13.5-7.8l38.8-22.6L210.2,182.6z"/>
		<defs>
			<filter id="Adobe_OpacityMaskFilter_39_" filterUnits="userSpaceOnUse" x="193.1" y="167.9" width="8" height="11.8">
				<feColorMatrix  type="matrix" values="1 0 0 0 0  0 1 0 0 0  0 0 1 0 0  0 0 0 1 0"/>
			</filter>
		</defs>
		<mask maskUnits="userSpaceOnUse" x="193.1" y="167.9" width="8" height="11.8" id="mask39_26_1041_1_">
			<path class="st104" d="M193.2,179.7v-6.1c0-1.5,1-3,3-4.2c1.5-0.9,3.2-1.4,5-1.6v6.1c-1.8,0.2-3.5,0.7-5,1.6
				C194.1,176.7,193.2,178.2,193.2,179.7z"/>
		</mask>
		<g class="st105">
			<path class="st15" d="M201.2,167.9v6.1c-0.7,0.1-1.3,0.2-1.9,0.4v-6.1C199.9,168.1,200.5,168,201.2,167.9L201.2,167.9z"/>
			<path class="st15" d="M199.2,168.2v6.1c-1.1,0.3-2.1,0.7-3.1,1.2c-2,1.1-3,2.6-3,4.1v-6.1c0-1.5,1-3,3-4.2
				C197.1,168.9,198.1,168.5,199.2,168.2z"/>
		</g>
		<path class="st15" d="M226.8,182.7l0,6.1l-13.4,7.8l0-6.1L226.8,182.7z"/>
		<path class="st15" d="M162.4,190.5l0,6.1l-13.5-7.8l0-6.1L162.4,190.5z"/>
		<defs>
			<filter id="Adobe_OpacityMaskFilter_40_" filterUnits="userSpaceOnUse" x="162.4" y="185.7" width="20.2" height="12">
				<feColorMatrix  type="matrix" values="1 0 0 0 0  0 1 0 0 0  0 0 1 0 0  0 0 0 1 0"/>
			</filter>
		</defs>
		<mask maskUnits="userSpaceOnUse" x="162.4" y="185.7" width="20.2" height="12" id="mask40_26_1041_1_">
			<path class="st106" d="M182.6,191.7v6.1c0-1.5-1-3-3-4.2c-2.2-1.1-4.7-1.7-7.2-1.7c-2.5,0-5,0.6-7.2,1.7c-1.3,0.6-2.2,1.7-2.8,3
				v-6.1c0.5-1.3,1.5-2.4,2.8-3c2.2-1.1,4.7-1.7,7.2-1.7c2.5,0,5,0.6,7.2,1.7C181.6,188.6,182.6,190.1,182.6,191.7z"/>
		</mask>
		<g class="st107">
			<path class="st15" d="M182.6,191.7v6.1c0-0.6-0.1-1.2-0.4-1.7V190C182.5,190.5,182.6,191.1,182.6,191.7L182.6,191.7z"/>
			<path class="st15" d="M182.2,190v6.1c-0.6-1-1.4-1.9-2.4-2.4v-6.1C180.7,188.1,181.6,189,182.2,190L182.2,190z"/>
			<path class="st15" d="M179.7,187.5v6.1l-0.1-0.1c-2-1.1-4.3-1.7-6.5-1.7v-6.1c2.3,0,4.5,0.6,6.5,1.7L179.7,187.5z"/>
			<path class="st15" d="M173,185.7v6.1c-1.6-0.1-3.2,0.1-4.8,0.5v-6.1C169.8,185.8,171.4,185.7,173,185.7L173,185.7z"/>
			<path class="st15" d="M168.2,186.2v6.1c-1.1,0.3-2.1,0.7-3.1,1.2c-1.3,0.6-2.2,1.7-2.8,3v-6.1c0.5-1.3,1.5-2.4,2.8-3
				C166.1,186.9,167.2,186.5,168.2,186.2L168.2,186.2z"/>
		</g>
		<defs>
			<filter id="Adobe_OpacityMaskFilter_41_" filterUnits="userSpaceOnUse" x="201.3" y="196.2" width="20.1" height="12">
				<feColorMatrix  type="matrix" values="1 0 0 0 0  0 1 0 0 0  0 0 1 0 0  0 0 0 1 0"/>
			</filter>
		</defs>
		<mask maskUnits="userSpaceOnUse" x="201.3" y="196.2" width="20.1" height="12" id="mask41_26_1041_1_">
			<path class="st108" d="M221.5,196.2v6.1c0,1.5-1,3-3,4.1c-2.2,1.1-4.7,1.7-7.2,1.7c-2.5,0-5-0.6-7.2-1.7
				c-1.2-0.6-2.2-1.6-2.8-2.9v-6.1c0.6,1.3,1.5,2.3,2.8,2.9c2.2,1.1,4.7,1.7,7.2,1.7c2.5,0,5-0.6,7.2-1.7
				C220.5,199.2,221.5,197.7,221.5,196.2z"/>
		</mask>
		<g class="st109">
			<path class="st15" d="M221.5,196.2v6.1c0,1.5-1,3-3,4.1c-1,0.6-2,1-3.1,1.2v-6.1c1.1-0.3,2.1-0.7,3.1-1.2
				C220.5,199.2,221.5,197.7,221.5,196.2z"/>
			<path class="st15" d="M215.4,201.6v6.1c-1.6,0.4-3.2,0.6-4.8,0.5v-6.1C212.2,202.2,213.9,202,215.4,201.6L215.4,201.6z"/>
			<path class="st15" d="M210.6,202.1v6.1c-2.3,0-4.5-0.6-6.5-1.7l-0.2-0.1v-6.1l0.2,0.1C206.1,201.4,208.3,202,210.6,202.1z"/>
			<path class="st15" d="M203.9,200.3v6.1c-1-0.6-1.9-1.4-2.4-2.4v-6.1C202.1,198.9,202.9,199.7,203.9,200.3L203.9,200.3z"/>
			<path class="st15" d="M201.5,197.9v6.1c-0.1-0.1-0.1-0.3-0.2-0.4v-6.1C201.4,197.6,201.4,197.7,201.5,197.9L201.5,197.9z"/>
		</g>
		<path class="st15" d="M187.9,205.2l0,6.1l-13.5-7.8l0-6.1L187.9,205.2z"/>
		<path class="st15" d="M201.3,197.5l0,6.1l-13.4,7.8l0-6.1L201.3,197.5z"/>
		<path class="st20" d="M226.8,182.7l-13.4,7.8c1.8,0.2,3.5,0.7,5,1.6c4,2.3,4,6,0.1,8.3c-2.2,1.1-4.7,1.7-7.2,1.7
			c-2.5,0-5-0.6-7.2-1.7c-1.2-0.6-2.2-1.6-2.8-2.9l-13.3,7.8l-13.5-7.8c1.8-0.2,3.6-0.7,5.2-1.6c4-2.3,3.9-6,0-8.4
			c-2.2-1.1-4.7-1.7-7.2-1.7c-2.5,0-5,0.6-7.2,1.7c-1.3,0.6-2.2,1.7-2.8,3l-13.5-7.8l38.9-22.6l13.5,7.8c-1.8,0.2-3.5,0.7-5,1.6
			c-4,2.3-3.9,6.1,0,8.4c2.2,1.1,4.7,1.7,7.2,1.7c2.5,0,5-0.6,7.2-1.7c1.2-0.6,2.2-1.7,2.7-2.9L226.8,182.7z"/>
		<path class="st93" d="M238.6,204.1c-0.3-0.6-2.4-1.2-3-1.4c-1.6-0.4-3.2-0.7-4.9-0.9c-0.3-0.1-0.7-0.1-1,0
			c-0.8,0.2-1.1,1.7-0.9,2.4c0.2,0.5,0.5,0.9,1,1.2c0.7,0.4,1.5,0.7,2.3,0.8c0.8,0,1.6,0.2,2.3,0.7c0.9,0.6,1.6,1.2,2.7,1.2
			c0.3,0,0.5,0,0.8-0.1c0.2-0.1,0.5-0.2,0.6-0.4c0.2-0.2,0.3-0.4,0.4-0.7c0.1-0.2,0.1-0.5,0.1-0.8c0-0.4-0.1-0.8-0.3-1.2
			C238.7,204.5,238.7,204.3,238.6,204.1z"/>
		<path class="st94" d="M243,203.8l-0.2-0.2c-0.6-0.7-1.3-1.2-2.1-1.6c-0.3-0.2-0.6-0.3-1-0.3c-0.8,0-1.3,1-1.1,1.7
			c0.1,0.4,0.2,0.7,0.3,1.1c0.1,0.4,0.1,0.7,0.1,1.1c-0.1,0.4-0.2,0.7-0.5,1c-0.8,0.7-1.8,1.1-2.7,1.7c-0.3,0.2-0.6,0.5-0.8,0.8
			c-0.1,0.5-0.1,1,0.1,1.4c0.2,0.4,0.5,0.8,0.9,1.1c0.5,0.2,1,0.3,1.5,0.1c0.8-0.2,1.5-0.6,2.2-1.1c0.6-0.6,1.3-1,2.1-1.2
			c1.4-0.3,3.1-0.6,3.4-2.4c0-0.5-0.1-1-0.4-1.3C244.2,205,243.6,204.4,243,203.8z"/>
		<path class="st14" d="M237.2,168.1c-0.6,0.6-3-0.5-3-0.8c-2.8-2.2-2.5,6.5-1.7,10c0.4,1.9,0.3,3.8,0.6,5.7
			c0.3,2.1,0.7,4.2,1.3,6.3c0.1,0.5,0.3,0.9,0.6,1.2c0.4,0.3,0.8,0.5,1.3,0.6c0.5,0.1,1,0.1,1.4-0.1c0.4,0,0.8-0.1,1.2-0.3
			c0.4-0.2,0.7-0.5,0.9-0.8c0.2-0.5,0.3-1,0.2-1.5c-0.1-1.3,0-2.7,0.2-4c0.3-1.4,0.6-2.8,0.9-4.2c0.3-1.2,0.5-2.5,0.6-3.7
			c0.2-2.3,0.1-4.5-0.3-6.8c-0.2-1.2,0.2-3.4-1.4-3.6C238.4,165.8,237.6,167.6,237.2,168.1z"/>
		<path class="st110" d="M233.8,185.4l-0.5-2C233.5,184.1,233.7,184.8,233.8,185.4z"/>
		<path class="st14" d="M234.7,188.4c0.3-0.3,0.6-0.4,1-0.5c0.4-0.1,0.8-0.1,1.1,0.1c0.3,0.1,2.6-1.2,3.3-1.7c0,0.2,0,0.4,0,0.7
			c0,0.2,0,0.5,0,0.7c0,0.5,0,0.9,0.1,1.4c0,0.9,0.1,1.8,0,2.7s0,1.8-0.1,2.8c-0.1,0.8-0.1,1.6-0.1,2.4c0,0.4,0,0.9-0.1,1.3
			l-0.2,1.4c-0.1,0.9-0.2,1.9-0.3,2.8c0,0.1,0,0.3-0.1,0.4c-0.1,0.7-0.1,1.9-0.7,2.4c-0.3,0.3-0.7,0.5-1.1,0.6
			c-0.4,0.1-0.8,0.1-1.2,0c-0.6-0.1-1.2-0.5-1.6-1c-0.4-0.6-0.5-1.4-0.4-2.1c0-2.9,0.2-5.9,0.2-8.8c0-2.3-0.2-4.5-0.6-6.8
			L234.7,188.4z"/>
		<path class="st111" d="M232.8,168.7c-0.3-0.1-1.7-0.8-1.6-1.2c0-0.4-0.7-0.5-0.8-0.5c-0.3,0-0.6,0.2-0.9,0.4
			c-0.6,0.5-1.1,1.1-1.4,1.9c-0.3,1-0.5,2.1-0.6,3.2c-0.2,3.3-0.1,6.6,0.2,9.8c0.2,1.7,0.4,3.3,0.7,4.9c0.2,0.8,0.3,1.6,0.5,2.4
			c0,0.3,0.1,0.6,0.3,0.8c0.2,0.2,0.4,0.5,0.7,0.6c1.4,0.9,3.9,0.8,4.9-0.8c1-1.6,0.6-4.3,1-6.3c0.5-2.8,2.4-4.8,3.2-7.4
			c0.5-1.9,0.6-3.8,0.2-5.7c-0.1-0.9-0.4-3.2-1.4-3.7c-0.6-0.2-1.2-0.2-1.8-0.1c-0.6,0.1-1.1,0.5-1.6,0.9
			C233.7,168.8,233.8,169.2,232.8,168.7z"/>
		<path class="st111" d="M230.4,192.3c0.8,1.2,1.5,2.4,2.3,3.6c0.6,1,1.2,1.9,1.7,2.9c0.4,0.8,0.9,1.5,1.3,2.3
			c0.5,1,1.1,1.9,1.7,2.9c0.4,0.7,0.7,1.7,1.6,2.1c0.4,0.1,0.9,0.1,1.3,0c0.4-0.1,0.8-0.3,1.1-0.6c0.6-0.4,1.1-0.9,1.5-1.5
			c0.1-0.6,0-1.3-0.3-1.9c-0.5-1.3-1.1-2.7-1.8-3.9c-1.1-2.2-2.2-4.3-3.5-6.4c-1.2-2.1-2.1-4.1-3.1-6.1c-0.1-0.1-0.2-0.2-0.3-0.3
			c-0.1-0.1-0.2-0.1-0.4-0.1c-0.3,0-4.2,4.5-4.4,5.3L230.4,192.3z"/>
		<path class="st6" d="M242.3,157.6c0.1-0.5,0.1-1,0.2-1.5c0.4-2.3,1.1-4.6,1.4-7c0.2-1.8,0.4-4.1-1.1-5.5c-0.2-0.2-0.5-0.4-0.8-0.6
			c-2.8-1.6-5.5,0.3-8.1,1.3c-1.7,0.6-3.4,1.4-4.9,2.4c-0.6,0.3-1.1,0.6-1.5,1.1c-0.4,0.6-0.6,1.2-0.6,1.9c0,0.8,0.1,1.6,0.2,2.3
			c0.8,4.5,1,9.1,0.6,13.6c-0.2,2-0.3,4.1-0.4,6.1c0,0.2-0.1,0.8,0,0.9c0.2,0.4,1.7,0.6,2.1,0.7c1.6,0.4,3.2,0.7,4.8,0.8
			c2.1,0.2,4.3,0,6.3-0.6c0.6-0.1,1.1-0.4,1.5-0.8c0.6-0.9,0.2-1.8,0.2-2.8c0-1.4,0-2.8,0-4.2C242,163.1,242,160.3,242.3,157.6z"/>
		<defs>
			<filter id="Adobe_OpacityMaskFilter_42_" filterUnits="userSpaceOnUse" x="220.9" y="121.2" width="6.5" height="12.5">
				<feColorMatrix  type="matrix" values="1 0 0 0 0  0 1 0 0 0  0 0 1 0 0  0 0 0 1 0"/>
			</filter>
		</defs>
		<mask maskUnits="userSpaceOnUse" x="220.9" y="121.2" width="6.5" height="12.5" id="mask42_26_1041_1_">
			<path class="st112" d="M223,123.8l4.4-2.6c-1.3,0.8-2.1,2.4-2.1,4.6c0,1.8,0.4,3.6,1.2,5.3l-4.4,2.6c-0.8-1.7-1.2-3.5-1.2-5.3
				C220.9,126.2,221.7,124.5,223,123.8z"/>
		</mask>
		<g class="st113">
			<path class="st14" d="M223,123.8l4.4-2.6c-1.3,0.8-2.1,2.4-2.1,4.6c0,1.8,0.4,3.6,1.2,5.3l-4.4,2.6c-0.8-1.7-1.2-3.5-1.2-5.3
				C220.9,126.2,221.7,124.5,223,123.8z"/>
		</g>
		<defs>
			<filter id="Adobe_OpacityMaskFilter_43_" filterUnits="userSpaceOnUse" x="199.6" y="89.4" width="13.4" height="7.1">
				<feColorMatrix  type="matrix" values="1 0 0 0 0  0 1 0 0 0  0 0 1 0 0  0 0 0 1 0"/>
			</filter>
		</defs>
		<mask maskUnits="userSpaceOnUse" x="199.6" y="89.4" width="13.4" height="7.1" id="mask43_26_1041_1_">
			<path class="st114" d="M199.6,92.4l4.4-2.6c1.3-0.8,3.1-0.7,5.1,0.5c1.5,0.9,2.8,2.1,3.9,3.6l-4.4,2.5c-1.1-1.4-2.4-2.6-3.9-3.5
				C202.7,91.8,200.9,91.6,199.6,92.4z"/>
		</mask>
		<g class="st115">
			<path class="st15" d="M199.6,92.4l4.4-2.6c1.3-0.8,3.1-0.7,5.1,0.5c1.5,0.9,2.8,2.1,3.9,3.6l-4.4,2.5c-1.1-1.4-2.4-2.6-3.9-3.5
				C202.7,91.8,200.9,91.6,199.6,92.4z"/>
		</g>
		<path class="st15" d="M208.6,81l4.4-2.6l13.5,7.8l-4.4,2.5L208.6,81z"/>
		<defs>
			<filter id="Adobe_OpacityMaskFilter_44_" filterUnits="userSpaceOnUse" x="221" y="86.2" width="16.7" height="19.9">
				<feColorMatrix  type="matrix" values="1 0 0 0 0  0 1 0 0 0  0 0 1 0 0  0 0 0 1 0"/>
			</filter>
		</defs>
		<mask maskUnits="userSpaceOnUse" x="221" y="86.2" width="16.7" height="19.9" id="mask44_26_1041_1_">
			<path class="st116" d="M237.7,103l-4.4,2.6c-1.3,0.8-3.1,0.7-5.1-0.5c-2.1-1.4-3.8-3.2-5.1-5.4c-1.2-2.2-2-4.6-2.1-7.1
				c-0.1-1.4,0.3-2.7,1.2-3.8l4.4-2.5c-0.8,1.1-1.2,2.5-1.2,3.8c0.1,2.5,0.9,4.9,2.1,7.1c1.3,2.2,3,4,5.1,5.4
				C234.6,103.7,236.4,103.8,237.7,103z"/>
		</mask>
		<g class="st117">
			<path class="st15" d="M222.1,88.8l4.4-2.5c-0.8,1.1-1.2,2.5-1.2,3.8c0.1,2.5,0.8,4.9,2.1,7.1c1.3,2.2,3,4,5.1,5.4
				c2,1.2,3.8,1.3,5.1,0.5l-4.4,2.5c-1.3,0.8-3.1,0.7-5.1-0.5c-2.1-1.4-3.8-3.2-5.1-5.4c-1.2-2.2-2-4.6-2.1-7.1
				C220.9,91.2,221.3,89.9,222.1,88.8L222.1,88.8z"/>
		</g>
		<path class="st15" d="M247.8,103.6l4.4-2.6l-0.1,44.9l-4.4,2.6L247.8,103.6z"/>
		<path class="st15" d="M234.3,95.8l4.4-2.6l13.5,7.8l-4.4,2.6L234.3,95.8z"/>
		<path class="st20" d="M234.3,95.8l13.5,7.8l-0.1,44.9l-13.5-7.8c0.9-1.1,1.3-2.5,1.2-3.9c-0.1-2.5-0.9-4.9-2.1-7.1
			c-1.3-2.2-3-4-5.1-5.4c-4-2.3-7.2-0.5-7.3,4.1c0,1.8,0.4,3.6,1.2,5.3l-13.5-7.8v-15.5c-1.4,0.1-2.7-0.2-3.9-0.9
			c-2.1-1.4-3.8-3.2-5.1-5.4c-1.2-2.2-2-4.6-2.1-7.1c0-4.6,3.3-6.4,7.3-4.1c1.5,0.9,2.8,2.1,3.9,3.5V81l13.5,7.8
			c-0.8,1.1-1.2,2.5-1.1,3.9c0.1,2.5,0.9,4.9,2.1,7.1c1.3,2.2,3,4,5.1,5.4c4,2.3,7.2,0.5,7.3-4.1C235.4,99.2,235,97.4,234.3,95.8z"
			/>
		<path class="st118" d="M232.1,142c-0.1-0.7-0.7-0.6-0.4-1.2c0.2-0.6,0.6-1.1,1.1-1.4c0.5-0.4,1.1-0.6,1.7-0.6
			c0.2,0,0.4,0.1,0.6,0.1c0.6,0,1.1,0,1.7,0c0.6,0.1,1.1,0.1,1.1,0.8c-0.1,0.8,0,1.7,0.2,2.5c0.2,0.4,0.3,0.9,0.4,1.3
			c0,0.5-0.1,0.9-0.4,1.3c-0.3,0.4-0.6,0.7-1,0.9c-1,0.4-2.2,0.5-3.3,0.3c-0.5-0.1-1.3-0.2-1.6-0.7c-0.2-0.4-0.2-0.9-0.1-1.3
			C232.2,143.3,232.2,142.7,232.1,142z"/>
		<path class="st118" d="M229.8,133.4c-0.4,0.4-0.6,0.9-0.7,1.4c-0.2,1.2,0.3,2.5,0,3.7c-0.3,1.2,0.2,3.9,2.6,4.6
			c1.4,0.2,2.9,0.1,4.2-0.4c1-0.6,1.7-1.4,2.3-2.4C243.1,132.5,233.1,129.4,229.8,133.4z"/>
		<path class="st119" d="M240.5,136.8c0,0.2-0.1,0.5-0.1,0.7c0,0.2-0.1,0.3-0.1,0.5c0,0.1-0.1,0.3-0.2,0.4c-0.2,0.5-0.5,1-0.9,1.4
			c-0.4,0.7-1,1.3-1.6,1.7c-0.3,0.1-0.7,0.2-1,0.3c-0.5,0.2-1,0.2-1.6,0.1c-0.5-0.1-1-0.3-1.4-0.6c-0.3-0.4-0.5-0.8-0.5-1.3
			c0-0.4-0.1-0.8-0.2-1.3l-0.1-0.3c-0.1-0.2-0.1-0.3-0.2-0.5c-0.1-0.3-0.4-0.5-0.6-0.6c-0.5-0.1-1.1,0.1-1.5-0.1
			c-0.2-0.2-0.3-0.4-0.4-0.6c-0.1-0.2-0.2-0.5-0.3-0.8c-0.1-0.3-0.3-0.7-0.5-0.9c-0.1-0.1-0.2-0.3-0.3-0.4c-0.1-0.2-0.2-0.4-0.3-0.7
			c0.1-0.6,0.2-1.2,0.5-1.7c0.3-0.5,0.7-1,1.1-1.3c0.4-0.4,0.9-0.8,1.4-1c0.5-0.2,1-0.3,1.4-0.4c1.5-0.3,3-0.1,4.3,0.6
			c0.4,0.2,0.6,0.4,0.8,0.8c0,0.1,0.1,0.2,0.1,0.2c0.1,0.1,0.2,0.1,0.3,0.2c0.3,0.1,0.6,0.4,0.9,0.6
			C240.9,133.1,240.7,135.1,240.5,136.8z"/>
		<path class="st118" d="M232.5,136.8c0.9-0.1,1.2,1.1,0.6,2c-0.2,0.3-0.5,0.5-0.8,0.7c-1.7,1.4-2.1-0.1-1.6-0.6
			C231.9,137.8,231.3,136.9,232.5,136.8z"/>
		<path class="st120" d="M232.2,138.7c0.1-0.1,1.1-0.8,0.3-1.1c0,0-0.1,0-0.1,0c-0.1,0-0.1,0-0.1,0.1s-0.1,0.1-0.1,0.1
			c0,0,0,0.1,0,0.1c0,0.1,0,0.2,0,0.3c0,0.1,0,0.1-0.1,0.2c-0.1,0.2-0.4,0.3-0.3,0.5S232.2,138.8,232.2,138.7z"/>
		<path class="st120" d="M222.3,128.6c-0.9-1.4-1.8-4.2-1.3-5.3c0.6-1.3,0.5-1.6,0.9-1.8c1-0.5,0.8,0.5,1,0.6
			c0.2,0.1,0.3-0.1,1.1-0.2s0.4,0.4,0.6,0.5c0.2,0.1,0.3-0.1,0.5,0.1c0.1,0.2,0,0.2,0.1,0.2s0.2-0.1,0.6,0.4
			c0.4,0.4-0.9,0.9-0.8,2.2c0,0.3,0.1,0.6,0.2,0.9c0.1,0.4,0.1,0.8,0.1,1.1c0,0.3-0.1,1-0.1,1.1L222.3,128.6z"/>
		<path class="st6" d="M232.3,146.7c0.7,0.1-2.8,10.4-5.6,4.7c-2.6-5.2-9.2-11.7-5.7-14.1c0.4-0.3,0.8-0.5,1.2-0.7
			c0.5-0.2,1.1-0.1,1.6,0.1c0.5,0.2,0.9,0.7,1.1,1.2C229.6,144.1,232.2,146.7,232.3,146.7z"/>
		<path class="st6" d="M221.6,127.7c-0.4,0.4-2.4,10.6-1.3,12.8c0.5,1.1,4.1,0.9,4.7-1.1c0.6-1.9,1.1-10.5,0.5-11.4
			C225,127.1,222.1,127.1,221.6,127.7z"/>
	</g>
</g>
</svg>
