<?xml version="1.0" encoding="utf-8"?>
<!-- Generator: Adobe Illustrator 25.0.0, SVG Export Plug-In . SVG Version: 6.00 Build 0)  -->
<svg version="1.1" id="Layer_1" xmlns="http://www.w3.org/2000/svg" xmlns:xlink="http://www.w3.org/1999/xlink" x="0px" y="0px"
	 viewBox="0 0 379 336" style="enable-background:new 0 0 379 336;" xml:space="preserve">
<style type="text/css">
	.st0{clip-path:url(#SVGID_2_);}
	.st1{fill:none;stroke:#111111;stroke-miterlimit:10;}
	.st2{fill:#111111;}
	.st3{fill:#1E1E1E;}
	.st4{opacity:0.1;fill:#F2F2F2;enable-background:new    ;}
	.st5{fill:#999999;}
	.st6{fill:#E6E6E6;}
	.st7{fill:#CCCCCC;}
	.st8{fill:#333333;}
	.st9{fill:#FFE8D9;}
	.st10{fill:#FFAF66;}
	.st11{fill:#B3B3B3;}
	.st12{fill:#666666;}
	.st13{fill:#BFBFBF;}
	.st14{fill:#D55501;}
	.st15{fill:#FF6601;}
	.st16{fill:#FFFFFF;}
	.st17{fill:#FFB78C;}
	.st18{fill:#424242;}
	.st19{fill:#D9D9D9;}
	.st20{fill:#FFE5CC;}
	.st21{fill:#733118;}
	.st22{fill:#F2F2F2;}
</style>
<g>
	<defs>
		<rect id="SVGID_1_" width="378.8" height="335.1"/>
	</defs>
	<clipPath id="SVGID_2_">
		<use xlink:href="#SVGID_1_"  style="overflow:visible;"/>
	</clipPath>
	<g class="st0">
		<path class="st1" d="M324.6,225.3c20.9,12,21,31.6,0.2,43.6l-97.4,56.6c-20.7,12.1-54.5,12.1-75.3,0l-98-56.6
			c-20.9-12-21-31.6-0.2-43.6l97.4-56.6c20.7-12.1,54.5-12.1,75.3,0L324.6,225.3z"/>
		<path class="st2" d="M359.4,190.3l-122.1,71c-26,15.1-68.3,15.1-94.5,0l-122.9-71C6.6,182.7,0,172.7,0,162.8v14.1
			c0,10,6.6,20,19.7,27.6l122.9,71c26.2,15.1,68.5,15.1,94.5,0l122.1-71c12.9-7.5,19.4-17.3,19.4-27.2v-14.1
			C378.8,173,372.3,182.8,359.4,190.3z"/>
		<path class="st3" d="M359.1,135.6c26.2,15.1,26.3,39.6,0.3,54.8l-122.1,71c-26,15.1-68.3,15.1-94.5,0l-122.9-71
			c-26.2-15.1-26.3-39.6-0.3-54.8l122.1-71c26-15.1,68.3-15.1,94.5,0L359.1,135.6z"/>
		<path class="st4" d="M165.2,186.2c0-8.1-11.3-14.7-25.4-14.8c-14-0.1-25.5,6.4-25.5,14.5c0,8.1,11.3,14.7,25.3,14.8
			C153.7,200.8,165.1,194.3,165.2,186.2z"/>
		<path class="st4" d="M227,190l-56.3-32.5c-1.2-0.7-1.1-1.9,0.3-2.7l3.2-1.8c0.7-0.4,1.5-0.6,2.3-0.7c0.8,0,1.6,0.1,2.4,0.5
			l56.3,32.5c1.2,0.7,1,1.9-0.3,2.7l-3.2,1.8c-0.7,0.4-1.5,0.6-2.3,0.7C228.6,190.5,227.7,190.3,227,190z"/>
		<path class="st5" d="M232.5,30.4L180.7,0.5c-0.4-0.3-0.8-0.4-1.2-0.4c-0.4,0-0.9,0.1-1.3,0.3l-5.1,3l6,4.7l1.5-0.4v122.7
			c0,2.9,1.8,6.2,3.9,7.5l45.4,33.2v2.1l5.3-3.1c0.4-0.4,0.8-0.9,1-1.4c0.2-0.5,0.3-1.1,0.2-1.7V37.8
			C236.4,35,234.7,31.6,232.5,30.4z"/>
		<path class="st6" d="M224.6,41.3v-5.8l-5.1,3.8L197.2,30l-16.7-12.1V7.5l-1.5,0.4l-6-4.7l5.1-3c0.4-0.2,0.8-0.3,1.3-0.3
			c0.4,0,0.9,0.2,1.2,0.4l51.8,29.9c1.6,1.1,2.8,2.6,3.3,4.5L224.6,41.3z"/>
		<path class="st7" d="M227.4,172.9l-51.8-29.9c-2.2-1.2-3.9-4.6-3.9-7.5V6.4c0-2.9,1.8-4.2,3.9-3l51.8,30c2.2,1.2,3.9,4.6,3.9,7.5
			v129.1C231.3,172.8,229.6,174.1,227.4,172.9z"/>
		<path class="st8" d="M172.8,136.2V7c0-2.1,1.3-3.1,2.8-2.2l51.7,29.8c0.9,0.6,1.6,1.4,2.1,2.4c0.5,0.9,0.8,2,0.8,3.1v129.2
			c0,2.1-1.3,3.1-2.8,2.2l-51.7-29.8c-0.9-0.6-1.6-1.4-2.1-2.4C173.1,138.3,172.8,137.3,172.8,136.2z"/>
		<path class="st9" d="M228.6,41.5v125.2c0,1.9-1.3,2.6-2.9,1.7l-48.5-28c-0.9-0.6-1.6-1.3-2.1-2.2s-0.8-1.9-0.9-2.9V10.1
			c0-1.9,1.3-2.6,2.9-1.7l8.9,5.1c0.4,0.3,0.7,0.7,0.8,1.1l0.4,1.9c0.2,1,0.6,1.9,1.2,2.7c0.6,0.8,1.3,1.5,2.2,2l21.6,12.5
			c1.7,1,3.1,0.6,3.4-0.8l0.4-1.4c0.1-0.4,0.4-0.4,0.8-0.2l8.9,5.1c0.9,0.6,1.6,1.3,2.1,2.2C228.3,39.4,228.6,40.4,228.6,41.5z"/>
		<path class="st10" d="M217.8,72.5c0.4,0.3,0.8,0.7,1.1,1.1c0.3,0.5,0.4,1,0.4,1.5v5.3c0,1-0.7,1.4-1.5,0.9l-31.1-17.9
			c-0.4-0.3-0.8-0.7-1.1-1.1c-0.3-0.5-0.4-1-0.4-1.5v-5.3c0-1,0.7-1.4,1.5-0.9L217.8,72.5z"/>
		<path class="st10" d="M217.8,91.1c0.4,0.3,0.8,0.7,1.1,1.1c0.3,0.5,0.4,1,0.4,1.5V99c0,1-0.7,1.4-1.5,0.9L186.7,82
			c-0.4-0.3-0.8-0.7-1.1-1.1c-0.3-0.5-0.4-1-0.4-1.5v-5.3c0-1,0.7-1.4,1.5-0.9L217.8,91.1z"/>
		<g>
			<path class="st11" d="M174.3,87.4v9l-2.7-1.5v-9L174.3,87.4z"/>
		</g>
		<path class="st10" d="M219.3,115.7v4.2c0,1.3-0.9,1.8-2.1,1.2l-42.9-24.8v-9l42.9,24.8c0.6,0.4,1.1,0.9,1.5,1.5
			C219.1,114.3,219.3,115,219.3,115.7z"/>
		<path class="st10" d="M194.4,122.6c0.4,0.3,0.8,0.7,1,1.1c0.3,0.4,0.4,0.9,0.4,1.5v14.5c0,0.9-0.7,1.3-1.5,0.8l-12.7-7.3
			c-0.4-0.3-0.8-0.7-1-1.1c-0.3-0.4-0.4-0.9-0.4-1.4v-14.5c0-0.9,0.7-1.3,1.5-0.8L194.4,122.6z"/>
		<path class="st10" d="M217.8,136.2c0.4,0.3,0.8,0.7,1,1.1c0.3,0.4,0.4,0.9,0.4,1.5v14.5c0,0.9-0.7,1.3-1.5,0.9l-12.6-7.3
			c-0.4-0.3-0.8-0.7-1-1.1c-0.3-0.4-0.4-0.9-0.4-1.5v-14.5c0-0.9,0.7-1.3,1.5-0.8L217.8,136.2z"/>
		<path class="st10" d="M216.9,43.6c0.7,0.5,1.3,1.1,1.7,1.8c0.4,0.7,0.7,1.5,0.7,2.4v12.4c0,1.5-1.1,2.1-2.4,1.4L181,40.8
			c-0.7-0.5-1.3-1.1-1.7-1.8c-0.4-0.7-0.7-1.5-0.7-2.4V24.2c0-1.5,1.1-2.1,2.4-1.4L216.9,43.6z"/>
		<g>
			<path class="st11" d="M174.3,48.5v24.4l-2.7-1.5V47L174.3,48.5z"/>
		</g>
		<path class="st10" d="M178.3,53.2l-0.1,19.6c0,1.3-0.9,1.8-2.1,1.2l-1.8-1.1V48.5l1.9,1.1c0.6,0.4,1.1,0.9,1.5,1.5
			C178.1,51.8,178.3,52.5,178.3,53.2z"/>
		<path class="st12" d="M192.7,19.5c0,1-0.7,1.4-1.6,0.9c-0.5-0.3-0.8-0.7-1.1-1.2c-0.3-0.5-0.4-1-0.5-1.5c0-1,0.7-1.4,1.6-0.9
			c0.5,0.3,0.8,0.7,1.1,1.2C192.5,18.4,192.6,18.9,192.7,19.5z"/>
		<path class="st8" d="M192,19c0,0.6-0.4,0.8-0.9,0.5c-0.2-0.2-0.5-0.4-0.6-0.6c-0.1-0.3-0.2-0.5-0.3-0.8c0-0.5,0.4-0.8,0.9-0.5
			c0.2,0.2,0.5,0.4,0.6,0.6C191.9,18.5,192,18.8,192,19z"/>
		<path d="M209,26.7l-15.4-8.9c-0.1-0.1-0.3-0.2-0.3-0.4c-0.1-0.2-0.1-0.3-0.1-0.5v-0.6c0-0.3,0.2-0.5,0.5-0.3l15.4,8.9
			c0.1,0.1,0.3,0.2,0.3,0.4c0.1,0.2,0.1,0.3,0.1,0.5v0.6C209.5,26.7,209.3,26.9,209,26.7z"/>
		<path class="st6" d="M235,57.7c-0.2-0.1-0.4-0.1-0.6-0.1c-0.2,0-0.4,0.1-0.6,0.2c-0.5,0.3-0.9,0.7-1.2,1.3
			c-0.3,0.5-0.5,1.1-0.5,1.6v15.3c0,0.2,0,0.4,0.1,0.6c0.1,0.2,0.2,0.3,0.4,0.5l0.9,0.5c-0.2-0.1-0.3-0.3-0.4-0.5
			c-0.1-0.2-0.1-0.4-0.1-0.6V61.3c0-0.6,0.2-1.1,0.5-1.6c0.3-0.5,0.7-0.9,1.2-1.3c0.2-0.1,0.4-0.2,0.6-0.2c0.2,0,0.4,0,0.6,0.1
			L235,57.7z"/>
		<path class="st13" d="M234.8,58.4c0.9-0.5,1.7-0.1,1.7,1v15.3c0,0.6-0.2,1.1-0.5,1.6c-0.3,0.5-0.7,0.9-1.2,1.3
			c-0.9,0.5-1.7,0.1-1.7-1V61.3c0-0.6,0.2-1.1,0.5-1.6C233.9,59.1,234.3,58.7,234.8,58.4z"/>
		<path class="st7" d="M235,60.1c0.8-0.4,1.4-0.1,1.4,0.8v12.6c0,0.5-0.2,0.9-0.4,1.4c-0.2,0.4-0.6,0.8-1,1
			c-0.8,0.4-1.4,0.1-1.4-0.8V62.5c0-0.5,0.2-0.9,0.4-1.4C234.3,60.7,234.6,60.4,235,60.1z"/>
		<path class="st14" d="M170.1,18l-12.6-7.3c-0.1-0.1-0.3-0.2-0.5-0.2c-0.2,0-0.4,0-0.5,0.1L154,12c0.2-0.1,0.3-0.1,0.5-0.1
			c0.2,0,0.3,0.1,0.5,0.2l12.6,7.3c0.4,0.3,0.8,0.7,1,1.1c0.3,0.4,0.4,0.9,0.4,1.5v14.5c0,0.2,0,0.4-0.1,0.5
			c-0.1,0.2-0.2,0.3-0.3,0.4l2.4-1.4c0.2-0.1,0.3-0.3,0.4-0.4c0.1-0.2,0.1-0.4,0.1-0.6V20.5c0-0.5-0.2-1-0.4-1.4
			C170.8,18.6,170.5,18.3,170.1,18z"/>
		<path class="st15" d="M167.7,19.4c0.4,0.3,0.8,0.7,1,1.1c0.3,0.4,0.4,0.9,0.4,1.5v14.5c0,0.9-0.7,1.3-1.5,0.8L155,30
			c-0.4-0.3-0.8-0.7-1-1.1s-0.4-0.9-0.4-1.5V12.9c0-0.9,0.7-1.3,1.5-0.9L167.7,19.4z"/>
		<path class="st16" d="M160.4,25.4l-1.2,3.2l-4.9-2.8l3.1-4.3c0.4-0.6,1.5,0,1.9,1.1L160.4,25.4z"/>
		<path class="st6" d="M162.4,30.4l-3.1-1.8l1.2-3.2L162.4,30.4z"/>
		<path class="st16" d="M167.3,33.3l-5-2.9l-1.9-5l1.5-4c0.4-1.2,2.3-0.2,2.7,1.6L167.3,33.3z"/>
		<path class="st6" d="M160.4,19.8c0,0.7-0.5,1-1.1,0.6c-0.3-0.2-0.6-0.5-0.8-0.8c-0.2-0.3-0.3-0.7-0.3-1.1c0-0.7,0.5-1,1.1-0.6
			c0.3,0.2,0.6,0.5,0.8,0.8C160.3,19,160.4,19.4,160.4,19.8z"/>
		<path class="st14" d="M216.6,73.3l-31.1-17.9c-0.2-0.1-0.3-0.2-0.5-0.2c-0.2,0-0.4,0-0.6,0.1l-2.4,1.4c0.2-0.1,0.4-0.1,0.6-0.1
			c0.2,0,0.4,0.1,0.5,0.2l31.1,17.9c0.4,0.3,0.8,0.7,1.1,1.1c0.3,0.5,0.4,1,0.4,1.5v5.3c0,0.2,0,0.4-0.1,0.6
			c-0.1,0.2-0.2,0.3-0.4,0.4l2.4-1.4c0.2-0.1,0.3-0.3,0.4-0.4c0.1-0.2,0.1-0.4,0.1-0.6v-5.3c0-0.5-0.2-1-0.4-1.5
			C217.4,74,217,73.6,216.6,73.3z"/>
		<path class="st15" d="M214.2,74.7c0.4,0.3,0.8,0.7,1.1,1.1c0.3,0.5,0.4,1,0.4,1.5v5.3c0,1-0.7,1.4-1.5,0.9l-31.1-17.9
			c-0.4-0.3-0.8-0.7-1.1-1.1c-0.3-0.5-0.4-1-0.4-1.5v-5.3c0-1,0.7-1.4,1.5-0.9L214.2,74.7z"/>
		<path class="st16" d="M213.2,77.9l-28.5-16.5c-0.3-0.2-0.6,0-0.6,0.5c0,0.2,0.1,0.4,0.2,0.6c0.1,0.2,0.2,0.4,0.4,0.5l28.5,16.5
			c0.3,0.2,0.6,0,0.6-0.5c0-0.2-0.1-0.4-0.2-0.6C213.5,78.2,213.3,78,213.2,77.9z"/>
		<path class="st14" d="M216.6,91.8l-31.1-17.9c-0.2-0.1-0.3-0.2-0.5-0.2s-0.4,0-0.6,0.1l-2.4,1.4c0.2-0.1,0.4-0.1,0.6-0.1
			c0.2,0,0.4,0.1,0.5,0.2l31.1,17.9c0.4,0.3,0.8,0.7,1.1,1.1c0.3,0.5,0.4,1,0.4,1.5v5.3c0,0.2,0,0.4-0.1,0.6
			c-0.1,0.2-0.2,0.3-0.4,0.4l2.4-1.4c0.2-0.1,0.3-0.3,0.4-0.4c0.1-0.2,0.1-0.4,0.1-0.6v-5.3c0-0.5-0.2-1-0.4-1.5
			C217.4,92.5,217,92.1,216.6,91.8z"/>
		<path class="st15" d="M214.2,93.2c0.4,0.3,0.8,0.7,1.1,1.1c0.3,0.5,0.4,1,0.4,1.5v5.3c0,1-0.7,1.4-1.5,0.9l-31.1-17.9
			c-0.4-0.3-0.8-0.7-1.1-1.1c-0.3-0.5-0.4-1-0.4-1.5v-5.3c0-1,0.7-1.4,1.5-0.9L214.2,93.2z"/>
		<path class="st16" d="M213.2,96.1l-28.5-16.5c-0.3-0.2-0.6,0-0.6,0.4c0,0.2,0.1,0.4,0.2,0.6c0.1,0.2,0.2,0.4,0.4,0.5l28.5,16.5
			c0.3,0.2,0.6,0,0.6-0.4c0-0.2-0.1-0.4-0.2-0.6C213.5,96.4,213.3,96.3,213.2,96.1z"/>
		<path class="st14" d="M170.1,110.1l-12.6-7.3c-0.1-0.1-0.3-0.2-0.5-0.2c-0.2,0-0.4,0-0.5,0.1l-2.4,1.4c0.2-0.1,0.3-0.1,0.5-0.1
			c0.2,0,0.3,0.1,0.5,0.2l12.6,7.3c0.4,0.3,0.8,0.7,1,1.1c0.3,0.4,0.4,0.9,0.4,1.5v14.5c0,0.2,0,0.4-0.1,0.5
			c-0.1,0.2-0.2,0.3-0.3,0.4l2.4-1.4c0.2-0.1,0.3-0.2,0.3-0.4c0.1-0.2,0.1-0.4,0.1-0.5v-14.5c0-0.5-0.2-1-0.4-1.5
			C170.8,110.7,170.5,110.4,170.1,110.1z"/>
		<path class="st15" d="M167.7,111.4c0.4,0.3,0.8,0.7,1,1.1c0.3,0.4,0.4,0.9,0.4,1.5v14.5c0,0.9-0.7,1.3-1.5,0.8l-12.7-7.3
			c-0.4-0.3-0.8-0.7-1-1.1s-0.4-0.9-0.4-1.5V105c0-0.9,0.7-1.3,1.5-0.8L167.7,111.4z"/>
		<path class="st16" d="M167.3,116.4l-6,0.5l-6.1-7.5c0-0.2,0.2-0.3,0.4-0.2l11.4,6.6c0.1,0.1,0.2,0.2,0.3,0.3
			C167.2,116.1,167.3,116.3,167.3,116.4z"/>
		<path class="st16" d="M161.2,117.4l6-0.5v7.3c0,0.2-0.2,0.3-0.4,0.2l-11.4-6.6c-0.1-0.1-0.2-0.2-0.3-0.3s-0.1-0.2-0.1-0.4v-7.4
			l6,7.4L161.2,117.4z"/>
		<path class="st14" d="M216,112.9l-56.2-32.5c-0.2-0.2-0.5-0.2-0.7-0.3c-0.3,0-0.5,0-0.8,0.1l-2.3,1.4c0.2-0.1,0.5-0.2,0.8-0.1
			c0.3,0,0.5,0.1,0.7,0.3l56.2,32.5c0.6,0.4,1.1,0.9,1.5,1.5c0.4,0.6,0.6,1.3,0.6,2v4.2c0,0.3,0,0.5-0.1,0.7
			c-0.1,0.2-0.3,0.4-0.5,0.6l2.4-1.4c0.2-0.1,0.4-0.3,0.5-0.6c0.1-0.2,0.1-0.5,0.1-0.7v-4.2c0-0.7-0.3-1.4-0.6-2
			C217.1,113.8,216.6,113.3,216,112.9z"/>
		<path class="st15" d="M213.7,114.3c0.6,0.4,1.1,0.9,1.5,1.5c0.4,0.6,0.6,1.3,0.6,2v4.2c0,1.3-0.9,1.8-2.1,1.2l-56.3-32.5
			c-0.6-0.4-1.1-0.9-1.4-1.5c-0.3-0.6-0.5-1.3-0.6-2V83c0-1.3,0.9-1.8,2.1-1.2L213.7,114.3z"/>
		<path class="st16" d="M212.2,117.5L158,86c-0.3-0.2-0.6,0-0.6,0.4c0,0.2,0.1,0.4,0.2,0.6c0.1,0.2,0.2,0.4,0.4,0.5l54.2,31.4
			c0.3,0.2,0.6,0,0.6-0.4c0-0.2-0.1-0.4-0.2-0.6C212.5,117.7,212.4,117.6,212.2,117.5z"/>
		<path class="st14" d="M193.1,123.4l-12.6-7.3c-0.1-0.1-0.3-0.2-0.5-0.2c-0.2,0-0.4,0-0.5,0.1l-2.4,1.4c0.2-0.1,0.4-0.1,0.5-0.1
			c0.2,0,0.4,0.1,0.5,0.2l12.6,7.3c0.4,0.3,0.8,0.7,1,1.1c0.3,0.4,0.4,0.9,0.4,1.5v14.5c0,0.2,0,0.4-0.1,0.5
			c-0.1,0.2-0.2,0.3-0.3,0.4l2.4-1.4c0.2-0.1,0.3-0.2,0.3-0.4c0.1-0.2,0.1-0.3,0.1-0.5v-14.5c0-0.5-0.2-1-0.4-1.5
			C193.9,124,193.6,123.6,193.1,123.4z"/>
		<path class="st15" d="M190.8,124.8c0.4,0.3,0.8,0.7,1,1.1c0.3,0.4,0.4,0.9,0.4,1.5v14.5c0,0.9-0.7,1.3-1.5,0.8l-12.6-7.3
			c-0.4-0.3-0.8-0.7-1-1.1c-0.3-0.4-0.4-0.9-0.4-1.5v-14.5c0-0.9,0.7-1.3,1.5-0.9L190.8,124.8z"/>
		<path class="st16" d="M189.6,137.8l-10.4-6c-0.3-0.2-0.6-0.5-0.8-0.9c-0.2-0.3-0.3-0.7-0.3-1.1v-5.8c0-0.7,0.5-1,1.2-0.7l10.4,6
			c0.3,0.2,0.6,0.5,0.8,0.9c0.2,0.3,0.3,0.7,0.3,1.1v5.8C190.8,137.9,190.3,138.2,189.6,137.8z M179.2,124c-0.4-0.2-0.7,0-0.7,0.4
			v5.8c0,0.2,0.1,0.5,0.2,0.7c0.1,0.2,0.3,0.4,0.5,0.5l10.4,6c0.4,0.2,0.7,0,0.7-0.4v-5.8c0-0.2-0.1-0.5-0.2-0.7
			c-0.1-0.2-0.3-0.4-0.5-0.5L179.2,124z"/>
		<path class="st16" d="M184.4,133.9c-0.8-0.5-1.5-1.2-2-2.1s-0.8-1.8-0.8-2.7c0-1.8,1.2-2.5,2.8-1.6c0.8,0.5,1.5,1.2,2,2.1
			c0.5,0.8,0.8,1.8,0.8,2.7C187.2,134,185.9,134.7,184.4,133.9z M184.4,128c-1.3-0.7-2.3-0.1-2.3,1.3c0,0.8,0.3,1.6,0.7,2.3
			c0.4,0.7,1,1.3,1.6,1.7c1.3,0.7,2.3,0.1,2.3-1.3c0-0.8-0.3-1.6-0.7-2.3C185.6,129,185.1,128.4,184.4,128L184.4,128z"/>
		<path class="st16" d="M187.7,128.8l-6.6-3.8v-1.4c0-0.5,0.3-0.7,0.8-0.4l5.1,2.9c0.2,0.1,0.4,0.3,0.5,0.6c0.1,0.2,0.2,0.5,0.2,0.7
			V128.8z M181.6,124.7l5.6,3.3v-0.8c0-0.1,0-0.2-0.1-0.3c0-0.1-0.1-0.2-0.2-0.2l-5.1-2.9c-0.1-0.1-0.3,0-0.3,0.2V124.7z"/>
		<path class="st14" d="M216.6,136.9l-12.6-7.3c-0.2-0.1-0.3-0.2-0.5-0.2c-0.2,0-0.4,0-0.5,0.1l-2.4,1.4c0.2-0.1,0.3-0.1,0.5-0.1
			c0.2,0,0.3,0.1,0.5,0.2l12.6,7.3c0.4,0.3,0.8,0.7,1,1.1c0.3,0.4,0.4,0.9,0.4,1.5v14.5c0,0.2,0,0.4-0.1,0.5
			c-0.1,0.2-0.2,0.3-0.3,0.4l2.4-1.4c0.2-0.1,0.3-0.2,0.3-0.4c0.1-0.2,0.1-0.4,0.1-0.5v-14.5c0-0.5-0.2-1-0.4-1.5
			C217.4,137.6,217,137.2,216.6,136.9z"/>
		<path class="st15" d="M214.2,138.3c0.4,0.3,0.8,0.7,1,1.1c0.3,0.4,0.4,0.9,0.4,1.5v14.5c0,0.9-0.7,1.3-1.5,0.8l-12.6-7.3
			c-0.4-0.3-0.8-0.7-1-1.1c-0.3-0.4-0.4-0.9-0.4-1.5v-14.5c0-0.9,0.7-1.3,1.5-0.9L214.2,138.3z"/>
		<path class="st16" d="M208,138c-2.9-1.7-5.2-0.8-5.2,1.9c0.2,2.1,1,4.1,2.5,5.6c-0.1,0.5-0.4,1.4-1.7,0.7c0,0,1.8,2,3.6,1.1
			c0.3,0.2,0.6,0.4,0.9,0.6c2.9,1.7,5.2,0.8,5.2-2C213.2,143.1,210.8,139.6,208,138z"/>
		<path class="st14" d="M215.7,44.3l-35.9-20.7c-0.2-0.2-0.5-0.3-0.8-0.3c-0.3,0-0.6,0-0.9,0.2l-2.4,1.4c0.3-0.1,0.6-0.2,0.9-0.1
			c0.3,0,0.6,0.1,0.8,0.3l35.9,20.7c0.7,0.5,1.3,1.1,1.7,1.8c0.4,0.7,0.7,1.5,0.7,2.4v12.4c0,0.3,0,0.6-0.1,0.9
			c-0.1,0.3-0.3,0.5-0.6,0.7l2.4-1.4c0.2-0.2,0.4-0.4,0.6-0.7c0.1-0.3,0.2-0.6,0.1-0.9V48.4c0-0.8-0.3-1.6-0.7-2.4
			C217,45.4,216.4,44.7,215.7,44.3z"/>
		<path class="st15" d="M213.3,45.7c0.7,0.5,1.3,1.1,1.7,1.8c0.4,0.7,0.7,1.5,0.7,2.4v12.4c0,1.5-1.1,2.1-2.4,1.4l-35.9-20.7
			c-0.7-0.4-1.3-1.1-1.7-1.8c-0.4-0.7-0.7-1.5-0.7-2.3V26.3c0-1.5,1.1-2.1,2.4-1.4L213.3,45.7z"/>
		<path class="st16" d="M212.4,48.7L178.6,29c-0.3-0.2-0.6,0-0.6,0.5c0,0.2,0.1,0.4,0.2,0.6c0.1,0.2,0.2,0.4,0.4,0.5l33.8,19.6
			c0.3,0.2,0.6,0,0.6-0.4c0-0.2-0.1-0.4-0.2-0.6C212.8,49,212.6,48.8,212.4,48.7z"/>
		<path class="st16" d="M212.4,53.4l-33.8-19.6c-0.3-0.2-0.6,0-0.6,0.5c0,0.2,0.1,0.4,0.2,0.6c0.1,0.2,0.2,0.4,0.4,0.5l33.8,19.6
			c0.3,0.2,0.6,0,0.6-0.4c0-0.2-0.1-0.4-0.2-0.6S212.6,53.5,212.4,53.4z"/>
		<path class="st16" d="M212.4,58.1l-33.8-19.6c-0.3-0.2-0.6,0-0.6,0.4c0,0.2,0.1,0.4,0.2,0.6c0.1,0.2,0.2,0.4,0.4,0.5l33.8,19.6
			c0.3,0.2,0.6,0,0.6-0.4c0-0.2-0.1-0.4-0.2-0.6C212.8,58.4,212.6,58.2,212.4,58.1z"/>
		<path class="st17" d="M157.7,49.1c0-0.1-0.1-0.2-0.1-0.3c0-0.1,0-0.2,0-0.4c0-0.1,0-0.3-0.1-0.4c-0.1-0.1-0.1-0.2-0.3-0.3
			c-0.1-0.1-0.2-0.1-0.3-0.2c-0.1-0.1-0.1-0.2-0.2-0.2c-0.2-0.2-0.4-0.3-0.6-0.4c-0.2-0.1-0.5-0.1-0.7,0c-1,0.1-2,0.5-2.9,1
			c-1.2,0.7-2.3,1.6-3.1,2.8c-0.3,0.5-0.6,1-0.8,1.5c-0.2,0.5-0.3,0.9-0.5,1.4c-0.1,0.3-0.2,0.6-0.3,0.9c0,0.1-0.1,0.3-0.1,0.5
			c0,0.1,0,0.3-0.1,0.4c-0.1,0.2-9.7,12.2-10.4,13c-0.5,0.8-1.1,1.6-1.8,2.3c-1.5,1.3-3.3,2.4-5.1,3.2c-1.4,0.7-4,1.3-3.4,3.5
			c0.3,0.6,0.7,1.2,1.2,1.6c0.8,0.8,1.4,1.8,1.9,2.9c0,0.1,0.1,0.1,0.1,0.2c0,0,0.1,0,0.1,0s0.1,0,0.1,0c2.5-1.3,9.4-6.2,10.5-6.9
			c0,0,0-0.1,0-0.1c0.4-0.2,0.7-0.5,0.9-0.9c0.9-1.1,1.6-2.3,2.4-3.5c0.8-1.2,1.5-2.4,2.1-3.7c0.7-1.2,1.3-2.5,1.9-3.8
			c0.6-1.3,2.1-4.4,2.2-4.6s0.1-0.5,0.3-0.6c0.2-0.1,0.3-0.1,0.4-0.1c0.2-0.1,0.3-0.2,0.4-0.3c1.4-1.3,2.2-3.1,3.3-4.7
			c0.2-0.3,0.4-0.5,0.7-0.8c0.5-0.4,1.2-0.6,1.5-1.2c0.1-0.2,0.2-0.5,0.3-0.7C157.7,49.8,157.7,49.4,157.7,49.1z"/>
		<path class="st15" d="M120.7,189.5c0,0.4,0.1,0.8,0.3,1.2c0.2,0.4,0.4,0.7,0.7,1c0.4,0.2,0.8,0.3,1.3,0.3c1.3,0,2.5-0.4,3.5-1.2
			c1.1-0.9,1.8-2.3,2.9-3.1c0.6-0.4,1.3-0.7,2-1c1.7-0.8,3.3-1.8,4.8-3.1c0.3-0.3,0.6-0.6,0.8-1c0.1-0.3,0.1-0.6,0-0.9
			c-0.1-0.3-0.3-0.6-0.6-0.7c-0.3-0.2-0.7-0.3-1.1-0.4c-1.4-0.2-2.9-0.2-4.3,0c-1.8,0.1-3.6,0.4-5.4,1c-0.7,0.3-1.5,0.6-2.1,1.1
			c-0.2,0.2-0.6,0.6-0.9,0.7c-0.3,0-0.5-0.1-0.8-0.3c-0.4,1.3-0.8,2.6-1,3.9C120.7,187.7,120.6,188.6,120.7,189.5z"/>
		<path class="st8" d="M133.9,122.1c-0.1-0.5-0.3-1-0.6-1.4c-1.6-3-2.3-6.3-3.4-9.5c-0.5-1.5-1.2-3-2.1-4.4c-0.5-0.8-2-3-3.2-2.5
			c-0.2,0.1-0.3,0.2-0.5,0.3c-2.3,2.2-4.2,4.9-5.6,7.7c-1.4,2.8-2.1,5.9-2.1,9c0,2.4,0.4,4.9,1.1,7.2c0.3,0.8,0.6,1.6,0.8,2.5
			c0.2,0.9,0.2,1.8,0.2,2.7c0,3.5,0.1,7.1,0.1,10.6c0,1.6,0,3.2,0.1,4.9c0.2,1.6,0.1,3.3-0.3,4.9c-0.5,1.6-0.8,3.3-1,5
			c-0.5,4.5,0.4,9,1.3,13.4c0.8,4,1.7,8,2.5,11.9c0,0.2,0.1,0.5,0.3,0.6c0.1,0.1,0.3,0.2,0.5,0.2c1.1,0.3,2.3,0.2,3.3-0.3
			c1-0.5,2-1.1,2.8-1.9c0.2-0.2,0.4-0.3,0.5-0.6c0.1-0.2,0.2-0.5,0.3-0.8c0-0.3,0-0.5-0.1-0.8c-0.1-0.3-0.2-0.5-0.4-0.7
			c-2.5-6.2-2.3-13.2-0.8-19.6c0.5-2.2,1.2-4.4,1.5-6.7c0-0.2,0-0.3,0-0.5c2.4-10,3.6-20.2,4.7-30.4
			C133.9,122.7,133.9,122.4,133.9,122.1z"/>
		<path class="st15" d="M152.2,179.4c-1.4-0.1-2.9,0-4.3,0.1c-1.1,0.1-2.2,0.5-3.1,1.3c-0.5,0.5-1,1.1-1.4,1.8
			c-1.1,1.7-3.1,5.8-0.2,7c0.5,0.2,1.1,0.2,1.6,0.1c1.8-0.3,3.4-1.5,5.2-1.8c0.7-0.1,1.4-0.1,2.1-0.1c2.5,0,4.9-0.6,7.1-1.9
			c0.5-0.3,0.9-0.7,1.2-1.2c0.3-0.5,0.6-1,0.7-1.6c0.4-1.6-0.6-2.6-2-2.9C156.8,179.7,154.5,179.4,152.2,179.4z"/>
		<path class="st18" d="M149.8,178.3c-1.5-4.9-2.2-9.9-2.2-15c0-4.1-0.5-8.3,0-12.4c0.4-4.2,0.3-8.4-0.5-12.5
			c-1.2-6.5-4-12.7-4.6-19.3c-0.2-2.5-0.1-5-0.5-7.4c-3,1.5-6.4,1.9-9.6,1.2c-1.7-0.5-3.3-1-4.9-1.7c-0.7-0.3-1.4-0.3-2.1-0.6
			c-0.6-0.2-1.1-0.6-1.5-1c-2.3,2.7-3.7,6-4.1,9.5c-0.4,3.5,0.1,7.1,1.7,10.3c1.4,2.9,3.6,4.9,5.9,7s4.7,3.9,6.3,6.5
			c1.3,2.3,2.3,4.9,2.9,7.5c0.8,2.8,1.3,5.6,1.5,8.5c0.1,2.7-0.2,5.2,0.2,7.9c0.2,1.2,0.5,2.4,0.9,3.6c1.4,4.3,3.9,8.5,3.7,13.1
			c0,0.2,0,0.4,0.1,0.6c0.1,0.1,0.2,0.2,0.4,0.2c1.9,0.6,3.9-0.2,5.5-1.4c0.6-0.4,1-0.9,1.3-1.5
			C150.4,180.3,150.3,179.2,149.8,178.3z"/>
		<path class="st19" d="M116.4,76.6c-0.5,3-0.3,6.1,0.3,9.1c0.8,4.1,2,8.1,3.5,12c0.7,1.6,1.2,3.2,1.4,4.9c0.2,3-1.2,5.8-2.6,8.4
			c-0.2,0.2-0.3,0.4-0.3,0.7c0,0.3,0.1,0.5,0.3,0.7c1.8,2.4,4.3,4.2,7.1,5.2c2.8,0.9,5.8,1.4,8.8,1.3c2.5,0.1,5.1-0.4,7.4-1.4
			c0.1-3.7,0.3-7.4,0.2-11.2c0-3.5-0.9-7.2,0-10.6c0.3-1.2,0.8-2.4,1.1-3.7c0.3-1.3,0.5-2.7,0.4-4.1c0-0.6-0.1-1.1-0.3-1.6
			c-0.2-0.5-0.6-0.9-1-1.3c-0.3-0.2-0.6-0.3-0.9-0.4c-1.5-0.8-1.8-2.8-3.2-3.7c-0.5-0.3-1.1-0.5-1.7-0.6c-6.2-1.7-10.8-9.2-17.7-8.2
			c-0.4,0-0.7,0.1-1,0.3c-0.3,0.2-0.6,0.6-0.7,0.9C116.9,74.3,116.6,75.4,116.4,76.6z"/>
		<path class="st17" d="M119.4,74.2c-0.1,0.2-0.2,0.3-0.2,0.5c-0.4,1.3,0.8,2.2,1.8,2.8c1.7,0.9,3.5,1.3,5.4,1.3
			c1.1,0,2.3-0.1,3.4-0.4c0.4-0.1,0.7-0.1,0.9-0.5c0.2-0.5,0.3-1,0.3-1.5c0.1-1.1,0.1-2.3,0.1-3.4c0-1.8,0.1-3.5,0.1-5.3
			c0-0.7-1-0.5-1.6-0.6c-0.8-0.1-1.6-0.2-2.4-0.4c-1.6-0.3-3.1-0.8-4.6-1.4c-0.4-0.3-0.9-0.5-1.4-0.7c-0.5,0-0.5,0.7-0.6,1.1
			c-0.1,1.2-0.2,2.4-0.2,3.6c0,1.4-0.3,2.8-0.8,4.1C119.6,73.7,119.5,73.9,119.4,74.2z"/>
		<path class="st20" d="M134.3,56.7c0.2,0.2,0.3,0.5,0.4,0.8c0,0.3,0,0.6,0,0.9c0,1,1,1.7,1.8,2.3c0.3,0.2,0.6,0.6,0.6,1
			c0,0.2-0.1,0.3-0.2,0.4c-0.5,1.1-0.7,2.4-0.5,3.6c0,0.8,0.6,2.8-0.1,3.3c-0.9,0.6-1.9,1-3,1.4c-0.3,0.1-0.6,0.2-1,0.2
			c-0.3,0-0.7-0.1-1-0.2c-0.5-0.3-0.8-0.9-1.3-1.3c-0.5-0.4-1.3,0.2-1.9,0.4c-2.3,0.7-4.8,0.7-7-0.2c-0.9-0.3-1.8-0.9-2.6-1.5
			c-0.8-0.8-1.5-1.7-2-2.7c-0.8-1.3-1.4-2.7-1.6-4.2c-0.1-1.6,0.2-3.2,1-4.6c0.7-1.3,1.7-2.4,3-3.3c2.3-1.7,5.3-2.1,8.1-2.1
			c1,0,1.9,0.1,2.8,0.5c1,0.4,1.8,1.1,2.2,2C132.7,54.6,133.4,55.7,134.3,56.7z"/>
		<path class="st21" d="M128.1,64.1c0.4-0.6,0.9-1.1,1.6-1.4c1.5-0.8,1.8-2.7,2-4.2c0.3-2,0.1-4-0.5-5.9c-0.6-1.7-2.7-2.4-4.3-2.6
			c-2-0.3-4,0-5.9,0.7c-2.8,1.3-5,3.5-6.3,6.3c-1.5,3.2-1.6,6.5-1.3,10c-0.1,1.1,0.3,2.1,0.9,2.9c0.5,0.5,1.1,1,1.7,1.4
			c1.8,1,3.8,1.6,5.8,1.8c2,0.2,4.1-0.1,6-0.8c0.6-0.2,1.1-0.5,1.6-0.8c0.2-0.2,0.4-0.5,0.6-0.8c0.1-0.3,0.2-0.6,0.2-0.9
			c0-0.3-0.1-0.6-0.2-0.9c-0.1-0.3-0.3-0.6-0.6-0.8c-0.5-0.5-1.3-0.6-1.7-1.3c-0.2-0.3-0.2-0.7-0.2-1.1
			C127.6,65.1,127.8,64.6,128.1,64.1z"/>
		<path class="st14" d="M175,50.4l-18.1-10.5c-0.2-0.2-0.5-0.2-0.7-0.3c-0.3,0-0.5,0-0.8,0.1l-2.4,1.4c0.2-0.1,0.5-0.1,0.8-0.1
			c0.3,0,0.5,0.1,0.7,0.3l18.1,10.5c0.6,0.4,1.1,0.9,1.5,1.5c0.4,0.6,0.6,1.3,0.6,2l-0.1,19.6c0,0.3,0,0.5-0.1,0.7
			c-0.1,0.2-0.3,0.4-0.5,0.6l2.4-1.4c0.2-0.1,0.4-0.3,0.5-0.6c0.1-0.2,0.1-0.5,0.1-0.7l0.1-19.5c0-0.7-0.2-1.4-0.6-2.1
			C176.1,51.3,175.6,50.8,175,50.4z"/>
		<path class="st15" d="M172.6,51.8c0.6,0.4,1.1,0.9,1.5,1.5c0.4,0.6,0.6,1.3,0.6,2l-0.1,19.6c0,1.3-0.9,1.8-2.1,1.2l-18.1-10.5
			c-0.6-0.4-1.1-0.9-1.5-1.5c-0.4-0.6-0.6-1.3-0.6-2l0.1-19.6c0-1.3,0.9-1.8,2.1-1.2L172.6,51.8z"/>
		<path class="st16" d="M162.9,52.1c-3.2-1.8-5.8-0.4-5.8,3.3c0.1,2,0.7,4,1.7,5.7c1,1.7,2.4,3.2,4.1,4.3c3.2,1.8,5.8,0.4,5.8-3.3
			c-0.1-2-0.7-4-1.7-5.7C166,54.7,164.6,53.2,162.9,52.1z M161.5,61v-6l4.5,5.6L161.5,61z"/>
		<path class="st20" d="M144.6,93.6c5.7,0.4,11.5,0.2,17.2-0.4h0.1c1.4-0.1,1.8-1.4,2.3-2.5c0.6-1.1,1-2.1,1.4-3.1
			c2.4-5.6,4.5-11.3,6.3-17.2c0.4-0.5,0.8-0.9,1.4-1.3c2-1.6,3.6-3.6,4.7-5.9c0.2-0.3,0.4-0.7,0.4-1.1c0-0.4,0-0.8-0.1-1.2
			c-0.1-0.2-0.3-0.4-0.4-0.6c-0.1-0.3-0.1-0.6-0.2-0.9c-0.2-0.7-1-1-1.3-1.6c-0.1-0.2-0.2-0.5-0.5-0.6c-0.1,0-0.2,0-0.3,0
			c-0.1,0-0.2,0.1-0.3,0.2c-0.1,0.2-0.2,0.4-0.3,0.6c-0.5,1.2-1.4,2.2-2.5,2.8c-0.1,0.1-0.2,0.1-0.3,0.1c-0.1,0-0.2,0-0.4-0.1
			c0.4-0.6,0.6-1.2,0.8-1.8c0.1-0.4,0.1-0.8,0-1.1c-0.1-0.2-0.2-0.3-0.4-0.4c-0.2-0.1-0.4-0.1-0.6,0c-0.3,0.2-0.4,0.6-0.5,1
			c-0.1,0.6-0.4,1.2-0.8,1.7c-0.4,0.5-0.9,1-1.2,1.6c-0.3,0.5-0.5,1-0.7,1.5c-0.3,1-0.4,2-0.4,3c0,0.5-0.1,1.1-0.2,1.6l-0.1,0.2
			c-0.6,1.7-8.6,16.8-9.8,18.6c-0.3,0-0.7,0-1,0c-3.8-0.3-7.5-1.2-11.1-2.7c-1.7-0.9-3.5-1.7-5.3-2.4c-0.9-0.3-1.9-0.4-2.8-0.3
			c-1,0.1-1.9,0.4-2.7,0.9c-1.2,1-2,2.3-2.2,3.9c-1.2,5.7,6,7.1,10.1,7.6C143.6,93.5,144.1,93.6,144.6,93.6z"/>
		<path class="st22" d="M150.7,89.1c0,1.9-0.5,3.9-1.4,5.6c-0.1,0.3-0.3,0.5-0.6,0.7c-0.3,0.2-0.6,0.2-0.8,0.2
			c-0.5,0-1.1-0.1-1.6-0.2c-2.9-0.4-5.8-1-8.7-1.9c-1.3-0.3-2.6-0.8-3.7-1.5c-0.7-0.4-1.2-1-1.6-1.7c-0.7-1.1-0.9-2.4-0.7-3.7
			c0.2-1.2,0.7-2.2,1.4-3.2c0.7-0.9,1.7-1.6,2.7-2.1c0.3-0.1,0.6-0.2,0.9-0.3c0.6-0.1,1.3-0.1,1.9,0c1.8,0.3,3.5,0.8,5.2,1.5l5.4,2
			c0.8,0.3,0.8,1,1,1.7C150.6,87.1,150.7,88.1,150.7,89.1z"/>
		<path class="st20" d="M150.8,49.3c-0.5,0.3-1,0.6-1.4,1c-0.3,0.3-0.4,0.7-0.5,1.2c-0.1,0.4-0.1,0.9,0,1.3c0,0.4,0.2,0.7,0.3,1.1
			c0.1,0.2,0.3,0.3,0.4,0.4c0.2,0.1,0.4,0.1,0.6,0.1c0.2,0,0.3-0.1,0.5-0.2c0.1-0.1,0.3-0.2,0.4-0.4c0.2-0.3,0.4-0.6,0.5-1
			c0.1-0.7,0.3-1.5,0.6-2.2c0.2-0.3,0.5-0.5,0.7-0.7c0.3-0.3,0.6-0.6,0.9-1c0.2-0.3,0.3-0.5,0.4-0.8c0.1-0.3,0-0.6-0.1-0.9
			c-0.5-0.7-1,0.3-1.4,0.6C152.1,48.4,151.5,48.9,150.8,49.3z"/>
	</g>
</g>
</svg>
