<?xml version="1.0" encoding="utf-8"?>
<!-- Generator: Adobe Illustrator 25.0.0, SVG Export Plug-In . SVG Version: 6.00 Build 0)  -->
<svg version="1.1" id="Layer_1" xmlns="http://www.w3.org/2000/svg" xmlns:xlink="http://www.w3.org/1999/xlink" x="0px" y="0px"
	 viewBox="0 0 379 349" style="enable-background:new 0 0 379 349;" xml:space="preserve">
<style type="text/css">
	.st0{clip-path:url(#SVGID_2_);}
	.st1{fill:none;stroke:#111111;stroke-miterlimit:10;}
	.st2{fill:#111111;}
	.st3{fill:#1E1E1E;}
	.st4{fill:#D35400;}
	.st5{fill:#FF6601;}
</style>
<g>
	<defs>
		<rect id="SVGID_1_" width="378.8" height="348.5"/>
	</defs>
	<clipPath id="SVGID_2_">
		<use xlink:href="#SVGID_1_"  style="overflow:visible;"/>
	</clipPath>
	<g class="st0">
		<path class="st1" d="M324.6,238.7c20.9,12,21,31.6,0.2,43.6l-97.4,56.6c-20.7,12.1-54.5,12.1-75.3,0l-98-56.6
			c-20.9-12.1-21-31.6-0.2-43.6l97.4-56.6c20.7-12,54.5-12,75.3,0L324.6,238.7z"/>
		<path class="st2" d="M359.4,203.7l-122.1,71c-26,15.1-68.3,15.1-94.5,0l-122.9-71C6.6,196.1,0,186.1,0,176.2v14.1
			c0,10,6.6,20,19.7,27.6l122.9,71c26.2,15.1,68.5,15.1,94.5,0l122.1-71c12.9-7.5,19.4-17.3,19.4-27.2v-14.1
			C378.8,186.4,372.3,196.2,359.4,203.7z"/>
		<path class="st3" d="M359.1,149c26.2,15.1,26.3,39.6,0.3,54.8l-122.1,71c-26,15.1-68.3,15.1-94.5,0l-122.9-71
			c-26.2-15.1-26.3-39.6-0.3-54.8l122.1-71c26-15.1,68.3-15.1,94.5,0L359.1,149z"/>
		<path class="st4" d="M148.9,160.2l9.4-5.5l8.4,4.8l0,10.9L148.9,160.2z"/>
		<path class="st4" d="M129.4,95l0,9.5L120,110l0.1-20.4L129.4,95z"/>
		<path class="st4" d="M205.8,182.1l-23.8,33.4l-9.4,5.5l23.8-33.4L205.8,182.1z"/>
		<path class="st4" d="M178.6,177.3l9.4-5.5l17.8,10.2l-9.4,5.5L178.6,177.3z"/>
		<path class="st4" d="M120.1,55.6l9.4-5.5l-0.1,20.4l-9.4,5.5L120.1,55.6z"/>
		<path class="st4" d="M79,59.1l9.4-5.5l41.1-3.5l-9.4,5.5L79,59.1z"/>
		<path class="st4" d="M178.7,123.5l9.4,5.4l-0.1,42.9l-9.4,5.5L178.7,123.5z"/>
		<path class="st4" d="M120.1,75.9l9.4-5.5l37.4,21.6l0,10.9L120.1,75.9z"/>
		<path class="st4" d="M178.8,109.8l9.4-5.5l37.4,21.6l0,10.9L178.8,109.8z"/>
		<path class="st4" d="M178.9,56l9.4,5.4l-0.1,42.9l-9.4,5.5L178.9,56z"/>
		<path class="st4" d="M235.1,111l40.9,50.9l-9.4,5.5l-40.9-50.9L235.1,111z"/>
		<path class="st5" d="M120.1,55.6l-0.1,20.4l46.8,27.1l0-10.9l0.1-42.9l-17.8-10.2l23.8-33.4l23.6,60.8l-8.4-4.8l-9.4-5.4
			l-0.2,53.8l46.8,27.1l0-10.9l0-9.5l40.9,50.9l-41.1,3.5l0.1-20.4l-37.4-21.6l-9.4-5.4l-0.1,53.9l17.8,10.2L172.5,221l-23.6-60.8
			l17.8,10.2l0-10.9l0.1-42.9L129.4,95l-9.4-5.4L120,110L79,59.1L120.1,55.6z"/>
		<path class="st4" d="M182.6,0l23.5,60.8l-9.4,5.5L173.1,5.5L182.6,0z"/>
	</g>
</g>
</svg>
