<?xml version="1.0" encoding="utf-8"?>
<!-- Generator: Adobe Illustrator 25.0.0, SVG Export Plug-In . SVG Version: 6.00 Build 0)  -->
<svg version="1.1" id="Layer_1" xmlns="http://www.w3.org/2000/svg" xmlns:xlink="http://www.w3.org/1999/xlink" x="0px" y="0px"
	 viewBox="0 0 379 344" style="enable-background:new 0 0 379 344;" xml:space="preserve">
<style type="text/css">
	.st0{clip-path:url(#SVGID_2_);}
	.st1{fill:none;stroke:#222222;stroke-miterlimit:10;}
	.st2{fill:#111111;}
	.st3{fill:#222222;}
	.st4{fill:#FF6601;}
	.st5{fill:#D55501;}
	.st6{fill:#AD2D2D;}
	.st7{fill:#FFFFFF;}
</style>
<g>
	<defs>
		<rect id="SVGID_1_" width="378.8" height="344"/>
	</defs>
	<clipPath id="SVGID_2_">
		<use xlink:href="#SVGID_1_"  style="overflow:visible;"/>
	</clipPath>
	<g class="st0">
		<path class="st1" d="M324.6,234.2c20.9,12.1,21,31.6,0.2,43.6l-97.4,56.6c-20.7,12-54.5,12-75.3,0l-98-56.6
			c-20.9-12-21-31.6-0.2-43.6l97.4-56.6c20.7-12.1,54.5-12.1,75.3,0L324.6,234.2z"/>
		<path class="st2" d="M359.4,199.2l-122.1,71c-26,15.1-68.3,15.1-94.5,0l-122.9-71C6.6,191.6,0,181.6,0,171.6v14.1
			c0,10,6.6,20,19.7,27.6l122.9,71c26.2,15.1,68.5,15.1,94.5,0l122.1-71c12.9-7.5,19.4-17.4,19.4-27.2V172
			C378.8,181.9,372.3,191.7,359.4,199.2z"/>
		<path class="st3" d="M359.1,144.5c26.2,15.1,26.3,39.6,0.3,54.8l-122.1,71c-26,15.1-68.3,15.1-94.5,0l-122.9-71
			c-26.2-15.1-26.3-39.6-0.3-54.8l122.1-71c26-15.1,68.3-15.1,94.5,0L359.1,144.5z"/>
		<path class="st4" d="M194,197.4c29.1-12.2,35.6-62.9,14.4-113.3c-21.1-50.4-61.9-81.4-91-69.2C88.4,27.1,82,77.8,103.1,128.2
			C124.2,178.6,164.9,209.6,194,197.4z"/>
		<path class="st5" d="M220.1,155c5.6-44.3-18.6-102-54.1-129c-16.8-12.8-33-16.4-46.1-12l26.8-11.3c13.5-5.7,30.7-2.4,48.5,11.1
			c35.5,27,59.8,84.8,54.1,129.1c-3,23.3-13.6,38.2-28.2,43.2l-26.6,11.2C207.7,191.4,217.3,176.9,220.1,155z"/>
		<path class="st6" d="M104.4,67c-4.5,35.4,14.8,81.5,43.2,103c16,12.2,31.4,13.9,42.7,6.8c-10.5,3.6-23.5,0.7-36.9-9.5
			c-28.4-21.6-47.7-67.7-43.2-103c2-15.4,8.1-26.2,16.8-31.7C115.3,36.5,106.8,48.4,104.4,67z"/>
		<path class="st7" d="M110.1,64.3c-4.5,35.3,14.9,81.5,43.2,103c13.4,10.2,26.5,13.1,36.9,9.5c8.7-5.5,14.9-16.3,16.8-31.7
			c4.5-35.4-14.9-81.5-43.2-103C150.5,31.9,137.5,29,127,32.6C118.3,38.1,112.1,48.9,110.1,64.3z"/>
		<path class="st5" d="M142.1,83.9l-23.1-13l11.8-5l17.4,9.8L142.1,83.9z"/>
		<path class="st5" d="M162.3,99.2l-6.8-33.1l11.8-5l6.8,33.1l22,21.2l-11.8,4.9L162.3,99.2z"/>
		<path class="st5" d="M177.3,123.2l0.3,30.6l-11.8,5l-0.3-30.9L177.3,123.2z"/>
		<path class="st4" d="M155.5,66.1l-13.3,17.8l-23.1-13.1l13.8,32.2l-7.4,25.1l21.9,2.1l18.5,28.6l-0.3-30.9l18.8-7.4l-22-21.2
			L155.5,66.1z"/>
	</g>
</g>
</svg>
