<?xml version="1.0" encoding="utf-8"?>
<!-- Generator: Adobe Illustrator 25.0.0, SVG Export Plug-In . SVG Version: 6.00 Build 0)  -->
<svg version="1.1" id="Layer_1" xmlns="http://www.w3.org/2000/svg" xmlns:xlink="http://www.w3.org/1999/xlink" x="0px" y="0px"
	 viewBox="0 0 379 316" style="enable-background:new 0 0 379 316;" xml:space="preserve">
<style type="text/css">
	.st0{clip-path:url(#SVGID_2_);}
	.st1{fill:none;stroke:#111111;stroke-miterlimit:10;}
	.st2{fill:#111111;}
	.st3{fill:#1E1E1E;}
	.st4{fill:#333333;}
	.st5{fill:#3385FF;}
	.st6{fill:#FF6601;}
	.st7{fill:#BC5602;}
	.st8{fill:#D95600;}
	.st9{fill:#A5C9FF;}
	.st10{fill:url(#SVGID_3_);}
	.st11{fill:#ABF533;}
	.st12{fill:url(#SVGID_4_);}
	.st13{fill:url(#SVGID_5_);}
	.st14{fill:url(#SVGID_6_);}
	.st15{fill:url(#SVGID_7_);}
	.st16{fill:#90D6FF;}
	.st17{fill:#B0E2FF;}
	.st18{fill:#5CA7DE;}
	.st19{fill:url(#SVGID_8_);}
	.st20{opacity:0.1;fill:#B9B0C0;enable-background:new    ;}
	.st21{fill:#FF9C78;}
	.st22{fill:#24283C;}
	.st23{fill:#33374A;}
	.st24{fill:#363B4D;}
	.st25{fill:#3B4157;}
	.st26{fill:#553012;}
</style>
<g>
	<defs>
		<rect id="SVGID_1_" width="378.8" height="315.9"/>
	</defs>
	<clipPath id="SVGID_2_">
		<use xlink:href="#SVGID_1_"  style="overflow:visible;"/>
	</clipPath>
	<g class="st0">
		<path class="st1" d="M324.6,206.1c20.9,12.1,21,31.6,0.2,43.7l-97.4,56.6c-20.7,12-54.5,12-75.3,0l-98-56.6
			c-20.9-12.1-21-31.6-0.2-43.7l97.4-56.6c20.7-12,54.5-12,75.3,0L324.6,206.1z"/>
		<path class="st2" d="M359.4,171.2l-122.1,71c-26,15.1-68.3,15.1-94.5,0l-122.9-71C6.6,163.6,0,153.6,0,143.6v14.1
			c0,10,6.6,20,19.7,27.6l122.9,71c26.2,15.1,68.5,15.1,94.5,0l122.1-71c12.9-7.5,19.4-17.3,19.4-27.2V144
			C378.8,153.9,372.3,163.7,359.4,171.2z"/>
		<path class="st3" d="M359.1,116.4c26.2,15.1,26.3,39.6,0.3,54.8l-122.1,71c-26,15.1-68.3,15.1-94.5,0l-122.9-71
			c-26.2-15.1-26.3-39.6-0.3-54.8l122.1-71c26-15.1,68.3-15.1,94.5,0L359.1,116.4z"/>
		<path class="st4" d="M155.5,62.6l-1.5-0.9L181.6,14l1.5,0.9L155.5,62.6z"/>
		<path class="st4" d="M157.2,74.7l-0.9,3c-4.8-2.8-5.9-9.9-2.4-16l1.5,0.9C152.8,67.3,153.6,72.7,157.2,74.7z"/>
		<path class="st4" d="M183.1,14.9l-1.5-0.9c3.5-6,10.2-8.7,15.1-5.9l-2.2,2.3C190.9,8.3,185.8,10.3,183.1,14.9z"/>
		<path class="st4" d="M241.9,123.4l-0.9,3l-84.7-48.7l0.9-3L241.9,123.4z"/>
		<path class="st4" d="M194.5,10.4l2.2-2.3l84.7,48.7l-2.2,2.3L194.5,10.4z"/>
		<path class="st4" d="M279.2,59c3.6,2.1,4.4,7.5,1.7,12.1l-27.7,47.8c-2.7,4.6-7.8,6.6-11.4,4.5l-84.7-48.7
			c-3.6-2.1-4.4-7.5-1.8-12.1l27.7-47.7c2.7-4.6,7.8-6.6,11.4-4.5L279.2,59z"/>
		<path class="st4" d="M256,120.4l2.8,1.6c-3.5,6-10.3,8.7-15.1,5.9l-2.7-1.6C245.8,129.2,252.5,126.5,256,120.4z"/>
		<path class="st4" d="M253.2,118.8l2.8,1.6c-3.5,6-10.3,8.7-15.1,5.9l0.9-3C245.4,125.4,250.6,123.5,253.2,118.8z"/>
		<path class="st4" d="M283.7,72.7l2.8,1.6l-27.7,47.8l-2.8-1.6L283.7,72.7z"/>
		<path class="st4" d="M280.9,71.1l2.8,1.6L256,120.4l-2.8-1.6L280.9,71.1z"/>
		<path class="st4" d="M281.4,56.8l2.8,1.6c4.8,2.8,5.9,9.9,2.4,16l-2.8-1.6C287.2,66.7,286.2,59.5,281.4,56.8z"/>
		<path class="st4" d="M279.2,59l2.2-2.3c4.8,2.8,5.9,9.9,2.4,16l-2.8-1.6C283.6,66.5,282.8,61.1,279.2,59z"/>
		<path class="st5" d="M159.5,72.1l-1.2,2.6c-4.6-2.7-5.7-9.3-2.5-14.9l1.8,1.1C155.2,65.1,156,70.1,159.5,72.1z"/>
		<path class="st6" d="M274.9,59.1c3.5,2,4.3,7,1.9,11.3l-25.6,44.2c-2.4,4.2-7.3,6-10.7,4l-80.9-46.5c-3.5-2-4.3-7.1-1.9-11.3
			l25.6-44.2c2.5-4.2,7.3-6,10.8-4L274.9,59.1z"/>
		<path class="st7" d="M253.4,115.9l0.8,0.5c-3.2,5.6-9.6,8-14.2,5.3l-0.8-0.5C243.8,123.9,250.1,121.5,253.4,115.9z"/>
		<path class="st7" d="M279,71.7l0.8,0.5l-25.6,44.2l-0.8-0.5L279,71.7z"/>
		<path class="st7" d="M276.5,56.7l0.8,0.5c4.6,2.7,5.7,9.3,2.5,14.9l-0.8-0.5C282.3,66.1,281.1,59.4,276.5,56.7z"/>
		<path class="st8" d="M274.9,59.1L194,12.6c-3.5-2-8.3-0.2-10.8,4l-25.6,44.2l-1.8-1.1l25.6-44.2c3.2-5.6,9.6-8,14.2-5.3l80.9,46.5
			c4.6,2.6,5.7,9.3,2.5,14.9l-25.6,44.2c-3.2,5.6-9.6,8-14.2,5.3l-80.9-46.5l1.2-2.6l80.9,46.5c3.5,2,8.3,0.2,10.7-4l25.6-44.2
			C279.2,66.2,278.4,61.1,274.9,59.1z"/>
		<path class="st9" d="M197.1,58.4c3.1,1.8,3.8,6.3,1.7,10.1l-4.1,7.1c-2.2,3.8-6.5,5.4-9.6,3.6l-5.9-3.4c-3.1-1.8-3.8-6.3-1.7-10.1
			l4.1-7.1c2.2-3.8,6.5-5.4,9.6-3.6L197.1,58.4z"/>
		<path class="st9" d="M195.5,76.1l0.7,0.4c-2.5,4.3-7.3,6.1-10.8,4.1l-0.7-0.4C188.1,82.2,193,80.3,195.5,76.1z"/>
		<path class="st9" d="M199.6,69l0.7,0.4l-4.1,7.1l-0.7-0.4L199.6,69z"/>
		<path class="st9" d="M197.7,57.6l0.7,0.4c3.5,2,4.3,7.1,1.9,11.4l-0.7-0.4C202.1,64.7,201.2,59.6,197.7,57.6z"/>
		
			<linearGradient id="SVGID_3_" gradientUnits="userSpaceOnUse" x1="176.2412" y1="240.8936" x2="200.205" y2="254.7358" gradientTransform="matrix(1 0 0 -1 0 315)">
			<stop  offset="0" style="stop-color:#89B8FF"/>
			<stop  offset="0.51" style="stop-color:#A5C9FF"/>
			<stop  offset="1" style="stop-color:#C7DDFF"/>
		</linearGradient>
		<path class="st10" d="M197.7,57.6l-5.9-3.4c-3.5-2-8.3-0.2-10.8,4.1l-4.1,7.1c-2.5,4.3-1.6,9.3,1.9,11.4l5.9,3.4
			c3.5,2,8.4,0.2,10.8-4.1l4.1-7.1C202.1,64.7,201.2,59.6,197.7,57.6z M198.7,68.5l-4.1,7.1c-2.2,3.8-6.5,5.4-9.6,3.6l-5.9-3.4
			c-3.1-1.8-3.8-6.3-1.7-10.1l4.1-7.1c2.2-3.8,6.5-5.4,9.6-3.6l5.9,3.4C200.1,60.2,200.9,64.7,198.7,68.5z"/>
		<path class="st11" d="M254,81.2c3.1,1.8,3.9,6.3,1.7,10.1l-4.1,7.1c-2.2,3.8-6.5,5.4-9.6,3.6l-29.4-16.9
			c-3.1-1.8-3.8-6.3-1.7-10.1l4.1-7.1c2.2-3.8,6.5-5.4,9.6-3.6L254,81.2z"/>
		
			<linearGradient id="SVGID_4_" gradientUnits="userSpaceOnUse" x1="253.08" y1="213.4278" x2="241.57" y2="213.4278" gradientTransform="matrix(1 0 0 -1 0 315)">
			<stop  offset="0.36" style="stop-color:#90CF24"/>
			<stop  offset="1" style="stop-color:#9BDD2A"/>
		</linearGradient>
		<path class="st12" d="M252.4,98.9l0.7,0.4c-2.5,4.3-7.3,6.1-10.8,4.1l-0.7-0.4C245.1,105,249.9,103.2,252.4,98.9z"/>
		
			<linearGradient id="SVGID_5_" gradientUnits="userSpaceOnUse" x1="257.21" y1="219.43" x2="252.39" y2="219.43" gradientTransform="matrix(1 0 0 -1 0 315)">
			<stop  offset="0.36" style="stop-color:#90CF24"/>
			<stop  offset="1" style="stop-color:#9BDD2A"/>
		</linearGradient>
		<path class="st13" d="M256.5,91.8l0.7,0.4l-4.1,7.1l-0.7-0.4L256.5,91.8z"/>
		
			<linearGradient id="SVGID_6_" gradientUnits="userSpaceOnUse" x1="258.6309" y1="228.675" x2="254.64" y2="228.675" gradientTransform="matrix(1 0 0 -1 0 315)">
			<stop  offset="0.36" style="stop-color:#90CF24"/>
			<stop  offset="1" style="stop-color:#9BDD2A"/>
		</linearGradient>
		<path class="st14" d="M254.6,80.4l0.7,0.4c3.5,2,4.3,7.1,1.9,11.4l-0.7-0.4C259,87.6,258.1,82.5,254.6,80.4z"/>
		
			<linearGradient id="SVGID_7_" gradientUnits="userSpaceOnUse" x1="215.5243" y1="221.4084" x2="251.2767" y2="242.0498" gradientTransform="matrix(1 0 0 -1 0 315)">
			<stop  offset="0" style="stop-color:#9ADC29"/>
			<stop  offset="0.51" style="stop-color:#ABF533"/>
			<stop  offset="1" style="stop-color:#C0F766"/>
		</linearGradient>
		<path class="st15" d="M254.6,80.4l-29.4-16.9c-3.5-2-8.3-0.2-10.8,4.1l-4.1,7.1c-2.5,4.3-1.6,9.3,1.9,11.4l29.4,16.9
			c3.5,2,8.3,0.2,10.8-4.1l4.1-7.1C259,87.6,258.1,82.5,254.6,80.4z M255.6,91.3l-4.1,7.1c-2.2,3.8-6.5,5.4-9.6,3.6l-29.4-16.9
			c-3.1-1.8-3.9-6.3-1.7-10.1l4.1-7.1c2.2-3.8,6.5-5.4,9.6-3.6L254,81.2C257.1,83,257.8,87.5,255.6,91.3L255.6,91.3z"/>
		<path class="st16" d="M241.3,18.5c3.1,1.8,3.9,6.3,1.7,10.1l-13.4,23.1c-2.2,3.8-6.5,5.4-9.6,3.6l-29.4-16.9
			c-3.1-1.8-3.9-6.3-1.7-10.1l13.4-23.1c2.2-3.8,6.5-5.4,9.6-3.6L241.3,18.5z"/>
		<path class="st17" d="M239.1,35.2l-40.7-23.4l3.8-6.6c2.2-3.8,6.5-5.4,9.6-3.6l29.4,16.9c3.1,1.8,3.9,6.3,1.7,10.1L239.1,35.2z"/>
		<path class="st18" d="M230.5,52.2l0.7,0.4c-2.5,4.3-7.3,6.1-10.8,4.1l-0.7-0.4C223.1,58.3,228,56.5,230.5,52.2z"/>
		<path class="st18" d="M243.9,29.1l0.7,0.4l-13.4,23.1l-0.7-0.4L243.9,29.1z"/>
		<path class="st18" d="M242,17.7l0.7,0.4c3.5,2,4.3,7.1,1.9,11.4l-0.7-0.4C246.3,24.8,245.5,19.7,242,17.7z"/>
		
			<linearGradient id="SVGID_8_" gradientUnits="userSpaceOnUse" x1="191.2952" y1="272.1276" x2="240.9191" y2="300.7798" gradientTransform="matrix(1 0 0 -1 0 315)">
			<stop  offset="0" style="stop-color:#63C3FF"/>
			<stop  offset="0.51" style="stop-color:#6FD6FF"/>
			<stop  offset="1" style="stop-color:#8BDEFF"/>
		</linearGradient>
		<path class="st19" d="M242,17.7L212.6,0.8c-3.5-2-8.4-0.2-10.8,4.1L188.4,28c-2.5,4.3-1.6,9.3,1.9,11.4l29.4,16.9
			c3.5,2,8.4,0.2,10.8-4.1l13.4-23.1C246.3,24.8,245.5,19.7,242,17.7z M243,28.6l-13.4,23.1c-2.2,3.8-6.5,5.4-9.6,3.6l-29.4-16.9
			c-3.1-1.8-3.9-6.3-1.7-10.1l13.4-23.1c2.2-3.8,6.5-5.4,9.6-3.6l29.4,16.9C244.4,20.3,245.2,24.8,243,28.6z"/>
		<path class="st20" d="M146.2,188.7c14.4-1.4,25.6-7.5,25-13.7c-0.6-6.2-12.8-10-27.2-8.6c-14.4,1.4-25.6,7.5-25,13.7
			C119.6,186.2,131.8,190.1,146.2,188.7z"/>
		<path class="st8" d="M142.2,42c-1.4-0.2-6-2.1-9.5-0.6c-3.5,1.5-4.3,5.6-3.7,8.7c0.6,3.1,5.2,6.5,5.2,6.5L142.2,42z"/>
		<path class="st21" d="M156.5,52.5c4.8-1,7.3-2.7,8.5-2.7h6.4l2.6-2c0,0,1.6,0.3,1.9-0.6c0.3-0.9-0.3-1.1-0.3-1.1l-1.3-0.3
			c0,0,3.3-0.5,4.1-0.6c0.8-0.1,1.4-0.8,1.4-1.1c0-0.4-1.8-0.7-1.8-0.7s-4.8-0.3-6-0.2c-1.2,0.1-7.6,2.8-9,2.9
			c-1.4,0.1-15,2.4-15,2.4S134.6,53.4,156.5,52.5z"/>
		<path class="st22" d="M156.1,176.3c-0.6,0.3-0.4,1.7-0.4,3c0,1.3,2,2.4,4.5,2.2c1.6-0.1,3.2-0.7,4.5-1.7c1.7-1,1.9-1.8,1.9-1.8
			s-0.2-1.2,2.3-2.1c1.9-0.5,3.6-1.8,4.6-3.6c0.5-0.6,0.9-1.3,1-2.1c0.2-0.8,0.1-1.6-0.1-2.3c-0.2-0.8-2-1.7-2.4-1.6
			S156.1,176.3,156.1,176.3z"/>
		<path class="st23" d="M162.8,167c3.3-2.1,6.2-2.8,7.8-2.7c1.6,0,3.2,1.7,3.5,3.6c0.1,0.8,0,1.5-0.3,2.3c-0.3,0.7-0.7,1.4-1.3,1.9
			c-1.2,1.5-2.8,2.7-4.6,3.3c-2.8,1.2-3.2,3.2-6.2,4c-3,0.8-5.3,0.1-5.7-1.2c-0.4-1.2,0.1-6.9,0.2-7.2S162.8,167,162.8,167z"/>
		<path class="st24" d="M134.2,78.6c-4.3,6-5.8,15.7-5.8,21.1s-3.3,33.2-3.6,34.9s11.2,5.7,12.8,1.7c1.7-4,10.9-36.6,10.9-36.6
			l-4.1-27.1L134.2,78.6z"/>
		<path class="st22" d="M117.4,178.5c-0.9,0.6-0.8,1.1-0.9,2.1s-0.2,2.2,2.1,2.9c1.8,0.6,3.8,0.5,5.6-0.3c0.8-0.2,1.5-0.7,1.9-1.3
			c0.4-0.5,0.5-1.2,0.9-1.4c2.4-0.7,4.7-1.5,7-2.5c1.8-1.1,3.3-3.1,3.2-4.5c-0.1-1.5-0.3-2.2-1.1-2.3
			C135.1,171.2,117.4,178.5,117.4,178.5z"/>
		<path class="st23" d="M126.4,170.7c3.4-0.8,4.1-0.8,5.8-1.5c1.7-0.7,3.8,1,4.2,2.4c0.5,1.4-0.8,3.3-1.9,4.6
			c-1.1,1-2.6,1.7-4.1,1.8c-1.9,0.5-3.8,1.3-5.4,2.5c-1.3,1.2-3.8,1.5-5.4,1.2c-1.6-0.3-2.6-1.2-2.7-1.9c0.2-2,0.7-4.1,1.3-6
			c0.4-1,2.8-2.8,2.8-2.8L126.4,170.7z"/>
		<path class="st24" d="M128,131.5c-1.9,1.4-2.3,0.3-4.5,5c-2.7,6.1-4.2,12.7-4.7,19.4c-0.5,7.2-1.2,16-0.8,18.2
			c2.8,2.4,9.6,1.3,10.2-1.4c0.6-2.7,5.7-27.8,9.4-36.2C135.9,130.5,128,131.5,128,131.5z"/>
		<path class="st25" d="M140.8,84.8c-3.4,10.6-4.8,14.4-2.7,21.1c2.1,6.7,6.6,7.6,7.8,11.2c1.2,3.7,4.1,20.7,4.8,24.5
			s9.4,2.6,10.5,1.2c1.1-1.4,2.8-2.5,3.2-5.8c0.4-3.3,1.3-22.8-1.1-35c-1.5-7.3-3.3-14.5-5.6-21.5L140.8,84.8z"/>
		<path class="st25" d="M152.1,136.3c-1.7,6.1-3,7.7-0.3,18.9s3.9,17.8,3.9,17.8s0.3,2.6,6.2,1.1c1.1-0.2,2-0.8,2.7-1.6
			c0.7-0.8,1.2-1.8,1.3-2.9c-0.1-0.5-1.6-28.8-1.3-33.9C164.8,130.6,152.1,136.3,152.1,136.3z"/>
		<path class="st6" d="M150.9,44.2c7.4,4,9,4.7,9.6,6.7s1.2,10-0.2,19.2c-1.4,9.2-0.9,15.8-0.7,16.7c0.7,3.2-6.9,8.9-22.5,4.5
			c-5.7-1.6-6.8-4.1-6.2-8.5c0.2-1.9,0.9-17.4-0.2-24.3c-1.1-7-1.6-12.3,1.4-16c3-3.7,15.6,0,15.6,0L150.9,44.2z"/>
		<path class="st21" d="M141.5,31.8c0.4,3.4,1.4,7-1.4,10c2.5,3,12.4,3.4,12.4,3.4s0.3-4.3,1-5.4c0.7-1.1,3.3,0.2,5-1.3
			c1.7-1.5,1.3-13.6,1.3-13.6s-0.1-5.9-1.8-7.3c-1.7-1.4-7.9-1.3-10,0S141.5,31.8,141.5,31.8z"/>
		<path class="st21" d="M153.8,29.1c0.1-1,0.5-1.7-0.5-1.8c-1-0.1-1.7,1-1.6,2.7c0.1,1.7,1.2,4.8,1.8,3.2
			C153.9,31.9,154,30.5,153.8,29.1z"/>
		<path class="st21" d="M158,70.1c2.3,5.7,9.8,13.5,11.4,13.7s4-1,3.4-5.5c-0.6-4.5-7.8-17-7.8-17L158,70.1z"/>
		<path class="st21" d="M170.1,77c1.7-2.2,8.7-6.9,9.5-7.6c0.8-0.7,4.3-4.1,4.3-4.1c1.5-0.6,3.1-1,4.7-1.3c1.3,0,0.6,1.2,0.6,1.2
			l-1.5,0.7c0,0,3.9-0.2,4.2-0.1c0.2,0.1,0.3,0.3,0.3,0.4c0.1,0.2,0,0.4,0,0.6c-0.6,0.3-1.2,0.4-1.8,0.5c0.8-0.1,1.5-0.2,2.3-0.1
			c0.2,0.2,0.3,0.4,0.3,0.6c0,0.2-0.1,0.5-0.3,0.6c-0.4,0.2-3.8,1.4-3.8,1.4s3.6-0.3,4-0.1c0.1,0.1,0.2,0.1,0.2,0.3
			c0.1,0.1,0.1,0.2,0.1,0.3s0,0.2-0.1,0.3c-0.1,0.1-0.1,0.2-0.2,0.3c-1.2,0.3-2.4,0.5-3.7,0.6c0,0-2.5,1.5-3.3,1.9
			c-1.2,0.4-2.4,0.7-3.6,1c-1.8,2.4-3.9,4.6-6.2,6.4c-3.3,2.4-5,2.9-6.2,2.9C168.6,83.7,170.1,77,170.1,77z"/>
		<path class="st8" d="M156.1,50.3c-3.9,3.8-5.3,6.7-3.1,11.5c1.7,3.5,3.5,6.9,5.6,10.1c0,0,4.4,0.3,6.8-1.5c1.4-1,2.5-2.5,3-4.2
			c0,0-5.3-13.8-8.2-16.2C158.8,50,157.4,50.1,156.1,50.3z"/>
		<path class="st26" d="M157.2,19.7c0.5-0.1,1-0.4,1.4-0.8c0.4-0.4,0.7-0.9,0.8-1.4c-0.1-0.1-0.1-0.3-0.2-0.4c0,0,0-0.1-0.1-0.1
			c0-0.1-0.1-0.2-0.2-0.3c-0.8-1.1-1.9-2-3.1-2.7c-4.8-2.8-12.5-3.3-14.3,2.5c-8.6,5.7-0.1,15.2,0.3,18.6c1.2,0.8,4.8,2.4,6.2,1.1
			c1.4-1.3,1.9-9.2,4.5-9.1c2.5,0.1,2,3.1,2,3.1l1.7-0.4c-0.1-1.1,0-2.1,0.5-3.1c0.4-1,1.1-1.8,2-2.4
			C158.9,23.2,157.4,20.3,157.2,19.7L157.2,19.7z"/>
	</g>
</g>
</svg>
