<?xml version="1.0" encoding="utf-8"?>
<!-- Generator: Adobe Illustrator 25.0.0, SVG Export Plug-In . SVG Version: 6.00 Build 0)  -->
<svg version="1.1" id="Layer_1" xmlns="http://www.w3.org/2000/svg" xmlns:xlink="http://www.w3.org/1999/xlink" x="0px" y="0px"
	 viewBox="0 0 379 312" style="enable-background:new 0 0 379 312;" xml:space="preserve">
<style type="text/css">
	.st0{clip-path:url(#SVGID_2_);}
	.st1{fill:none;stroke:#222222;stroke-miterlimit:10;}
	.st2{fill:#111111;}
	.st3{fill:#222222;}
	.st4{fill:#E63824;}
	.st5{fill:#E36200;}
	.st6{fill:#493C39;}
	.st7{fill:#E74924;}
	.st8{fill:#FF6601;}
	.st9{fill:#FF6500;}
</style>
<g>
	<defs>
		<rect id="SVGID_1_" width="378.8" height="311.6"/>
	</defs>
	<clipPath id="SVGID_2_">
		<use xlink:href="#SVGID_1_"  style="overflow:visible;"/>
	</clipPath>
	<g class="st0">
		<path class="st1" d="M324.6,201.8c20.9,12.1,21,31.6,0.2,43.7L227.5,302c-20.7,12-54.5,12-75.3,0l-98-56.6
			c-20.9-12.1-21-31.6-0.2-43.6l97.4-56.6c20.7-12.1,54.5-12.1,75.3,0L324.6,201.8z"/>
		<path class="st2" d="M359.4,166.8l-122.1,71c-26,15.1-68.3,15.1-94.5,0l-122.9-71C6.6,159.2,0,149.2,0,139.3v14.1
			c0,10,6.6,20,19.7,27.6l122.9,71c26.2,15.1,68.5,15.1,94.5,0l122.1-71c12.9-7.5,19.4-17.3,19.4-27.2v-14.1
			C378.8,149.5,372.3,159.3,359.4,166.8z"/>
		<path class="st3" d="M359.1,112.1c26.2,15.1,26.3,39.6,0.3,54.8l-122.1,71c-26,15.1-68.3,15.1-94.5,0l-122.9-71
			c-26.2-15.1-26.3-39.6-0.3-54.8l122.1-71c26-15.1,68.3-15.1,94.5,0L359.1,112.1z"/>
		<path class="st4" d="M170.1,83.1c-0.3,1.4-0.5,2.9-0.5,4.4v0.1c0,0.3-0.1,0.5-0.3,0.7c-0.2,0.2-0.4,0.3-0.7,0.3s-0.5-0.1-0.7-0.3
			c-0.2-0.2-0.3-0.4-0.3-0.7v-0.1c0-1.6,0.2-3.2,0.5-4.8c0-0.1,0.1-0.3,0.2-0.4c0.1-0.1,0.2-0.2,0.3-0.3c0.1-0.1,0.2-0.1,0.4-0.1
			c0.1,0,0.3,0,0.4,0c0.1,0,0.3,0.1,0.4,0.2c0.1,0.1,0.2,0.2,0.3,0.3c0.1,0.1,0.1,0.2,0.1,0.4C170.1,82.8,170.1,83,170.1,83.1z"/>
		<path class="st4" d="M170.1,92c0.3,1.5,0.8,2.9,1.3,4.3c0.1,0.1,0.1,0.3,0.1,0.4c0,0.1,0,0.3-0.1,0.4c0,0.1-0.1,0.2-0.2,0.3
			s-0.2,0.2-0.3,0.2c-0.1,0.1-0.3,0.1-0.4,0.1c-0.1,0-0.3,0-0.4-0.1c-0.1-0.1-0.2-0.1-0.3-0.2c-0.1-0.1-0.2-0.2-0.2-0.3
			c-0.6-1.5-1.1-3.1-1.5-4.7c0-0.1,0-0.3,0-0.4c0-0.1,0.1-0.3,0.1-0.4c0.1-0.1,0.2-0.2,0.3-0.3c0.1-0.1,0.2-0.1,0.4-0.2
			c0.1,0,0.3,0,0.4,0c0.1,0,0.3,0.1,0.4,0.1c0.1,0.1,0.2,0.2,0.3,0.3C170.1,91.7,170.1,91.9,170.1,92z"/>
		<path class="st4" d="M174.1,75.6c-1.1,0.9-2,2-2.6,3.3c-0.1,0.1-0.1,0.2-0.2,0.3c-0.1,0.1-0.2,0.2-0.3,0.2c-0.1,0-0.3,0.1-0.4,0
			c-0.1,0-0.3,0-0.4-0.1c-0.1-0.1-0.2-0.1-0.3-0.2c-0.1-0.1-0.2-0.2-0.2-0.3c0-0.1-0.1-0.3,0-0.4c0-0.1,0.1-0.3,0.1-0.4
			c0.8-1.6,1.8-2.9,3.2-4c0.1-0.1,0.2-0.1,0.3-0.2c0.1,0,0.3,0,0.4,0c0.1,0,0.3,0.1,0.4,0.1c0.1,0.1,0.2,0.2,0.3,0.3
			c0.1,0.1,0.2,0.2,0.2,0.4c0,0.1,0.1,0.3,0,0.4c0,0.1-0.1,0.3-0.1,0.4C174.3,75.4,174.2,75.5,174.1,75.6z"/>
		<path class="st4" d="M182.3,73.5c-0.4,0-0.8,0-1.2,0c-1.1,0-2.1,0.1-3.1,0.3c-0.1,0-0.3,0-0.4,0c-0.1,0-0.3-0.1-0.4-0.1
			c-0.1-0.1-0.2-0.2-0.3-0.3c-0.1-0.1-0.1-0.2-0.2-0.4c0-0.1,0-0.3,0-0.4s0.1-0.3,0.1-0.4c0.1-0.1,0.2-0.2,0.3-0.3
			c0.1-0.1,0.2-0.1,0.4-0.2c1.2-0.3,2.4-0.4,3.6-0.4c0.4,0,0.9,0,1.3,0.1c0.3,0,0.5,0.1,0.7,0.3c0.2,0.2,0.3,0.5,0.2,0.7
			c0,0.3-0.1,0.5-0.3,0.7C182.8,73.4,182.6,73.5,182.3,73.5L182.3,73.5z"/>
		<path class="st4" d="M176,105.5c-0.2,0.2-0.5,0.2-0.7,0.2c-0.3,0-0.5-0.2-0.7-0.4c-1-1.3-1.9-2.6-2.8-3.9
			c-0.1-0.1-0.1-0.2-0.1-0.4c0-0.1,0-0.3,0-0.4c0-0.1,0.1-0.3,0.2-0.4c0.1-0.1,0.2-0.2,0.3-0.3c0.2-0.1,0.5-0.2,0.8-0.1
			c0.3,0.1,0.5,0.2,0.6,0.4c0.8,1.3,1.7,2.6,2.6,3.7c0.1,0.1,0.1,0.2,0.2,0.4c0,0.1,0,0.3,0,0.4c0,0.1-0.1,0.3-0.1,0.4
			S176.1,105.4,176,105.5z"/>
		<path class="st4" d="M218.6,132.1c1.1,1.2,2.2,2.4,3.1,3.8c0.1,0.1,0.1,0.2,0.2,0.4c0,0.1,0,0.3,0,0.4c0,0.1-0.1,0.3-0.1,0.4
			c-0.1,0.1-0.2,0.2-0.3,0.3c-0.2,0.1-0.5,0.2-0.7,0.2c-0.3,0-0.5-0.2-0.6-0.4c-0.8-1.2-1.8-2.4-2.8-3.5c-0.2-0.2-0.3-0.4-0.3-0.7
			c0-0.3,0.1-0.5,0.3-0.7s0.4-0.3,0.7-0.3C218.2,131.8,218.5,131.9,218.6,132.1z"/>
		<path class="st4" d="M201.7,150.1c1.5,0.4,2.9,0.8,4.4,1.1c0.1,0,0.3,0.1,0.4,0.1s0.2,0.2,0.3,0.3c0.1,0.1,0.1,0.2,0.2,0.4
			c0,0.1,0,0.3,0,0.4c0,0.1-0.1,0.3-0.1,0.4s-0.2,0.2-0.3,0.3s-0.2,0.1-0.4,0.2c-0.1,0-0.3,0-0.4,0c-1.6-0.3-3.1-0.7-4.6-1.1
			c-0.1,0-0.2-0.1-0.3-0.2c-0.1-0.1-0.2-0.2-0.2-0.3c-0.1-0.1-0.1-0.2-0.1-0.4c0-0.1,0-0.3,0-0.4c0-0.1,0.1-0.2,0.2-0.4
			c0.1-0.1,0.2-0.2,0.3-0.3c0.1-0.1,0.2-0.1,0.4-0.1C201.4,150.1,201.6,150.1,201.7,150.1z"/>
		<path class="st4" d="M194.8,76.1c0.1-0.2,0.3-0.4,0.6-0.5c0.2-0.1,0.5-0.1,0.8,0c1.5,0.7,2.9,1.5,4.2,2.2c0.1,0.1,0.2,0.2,0.3,0.3
			c0.1,0.1,0.1,0.2,0.2,0.4c0,0.1,0,0.3,0,0.4c0,0.1-0.1,0.3-0.1,0.4c-0.1,0.2-0.3,0.4-0.6,0.5c-0.3,0.1-0.5,0-0.8-0.1
			c-1.3-0.8-2.6-1.5-4-2.2c-0.1-0.1-0.2-0.1-0.3-0.2c-0.1-0.1-0.2-0.2-0.2-0.3c0-0.1-0.1-0.3-0.1-0.4
			C194.7,76.4,194.7,76.2,194.8,76.1z"/>
		<path class="st4" d="M197.4,122.2c-1.4-0.6-2.9-1.3-4.3-2c-0.1-0.1-0.2-0.1-0.3-0.2c-0.1-0.1-0.2-0.2-0.2-0.3c0-0.1-0.1-0.3,0-0.4
			c0-0.1,0-0.3,0.1-0.4c0.1-0.2,0.3-0.4,0.6-0.5c0.3-0.1,0.5-0.1,0.8,0.1c1.4,0.7,2.8,1.4,4.2,2c0.1,0.1,0.2,0.1,0.3,0.2
			c0.1,0.1,0.2,0.2,0.2,0.3c0,0.1,0.1,0.3,0.1,0.4c0,0.1,0,0.3-0.1,0.4c-0.1,0.2-0.3,0.4-0.6,0.5
			C197.9,122.3,197.6,122.3,197.4,122.2z"/>
		<path class="st4" d="M193.1,146.6c1.6,0.7,3,1.3,4.3,1.9c0.1,0.1,0.2,0.1,0.3,0.2c0.1,0.1,0.2,0.2,0.2,0.3c0,0.1,0.1,0.3,0.1,0.4
			c0,0.1,0,0.3-0.1,0.4c-0.1,0.1-0.1,0.2-0.2,0.3c-0.1,0.1-0.2,0.2-0.3,0.2c-0.1,0-0.3,0.1-0.4,0.1c-0.1,0-0.3,0-0.4-0.1
			c-1.3-0.6-2.7-1.2-4.3-1.9c-0.1-0.1-0.2-0.1-0.3-0.2c-0.1-0.1-0.2-0.2-0.2-0.3c-0.1-0.1-0.1-0.3-0.1-0.4c0-0.1,0-0.3,0.1-0.4
			c0.1-0.1,0.1-0.2,0.2-0.3c0.1-0.1,0.2-0.2,0.3-0.2c0.1-0.1,0.3-0.1,0.4-0.1C192.9,146.5,193,146.5,193.1,146.6z"/>
		<path class="st4" d="M211,126.3c1.4,0.8,2.7,1.7,4,2.6c0.1,0.1,0.2,0.2,0.3,0.3c0.1,0.1,0.1,0.2,0.1,0.4c0,0.1,0,0.3,0,0.4
			c0,0.1-0.1,0.2-0.2,0.4c-0.1,0.1-0.2,0.2-0.3,0.3c-0.1,0.1-0.2,0.1-0.4,0.1c-0.1,0-0.3,0-0.4,0c-0.1,0-0.2-0.1-0.4-0.2
			c-1.2-0.9-2.5-1.8-3.8-2.5c-0.1-0.1-0.2-0.2-0.3-0.3c-0.1-0.1-0.1-0.2-0.2-0.4c0-0.1,0-0.3,0-0.4c0-0.1,0.1-0.3,0.1-0.4
			c0.1-0.1,0.2-0.2,0.3-0.3c0.1-0.1,0.2-0.1,0.4-0.2c0.1,0,0.3,0,0.4,0C210.8,126.2,210.9,126.2,211,126.3z"/>
		<path class="st4" d="M205.9,125.9c-1.4-0.7-2.8-1.3-4.2-1.9c-0.1-0.1-0.2-0.1-0.3-0.2c-0.1-0.1-0.2-0.2-0.2-0.3
			c0-0.1-0.1-0.3-0.1-0.4c0-0.1,0-0.3,0.1-0.4c0.1-0.2,0.3-0.4,0.5-0.5c0.2-0.1,0.5-0.1,0.8,0c1.4,0.6,2.9,1.3,4.3,1.9
			c0.2,0.1,0.4,0.3,0.5,0.6c0.1,0.3,0.1,0.5,0,0.8c-0.1,0.2-0.3,0.4-0.6,0.5C206.4,126.1,206.1,126.1,205.9,125.9z"/>
		<path class="st4" d="M210.6,151.8c0.9,0.1,1.9,0.1,2.8,0.1c0.6,0,1.2,0,1.8,0c0.3,0,0.5,0.1,0.7,0.2c0.2,0.2,0.3,0.4,0.3,0.7
			s-0.1,0.5-0.2,0.7c-0.2,0.2-0.4,0.3-0.7,0.3c-0.6,0-1.3,0.1-1.9,0.1c-1,0-1.9,0-2.9-0.1c-0.3,0-0.5-0.1-0.7-0.3
			c-0.2-0.2-0.3-0.5-0.2-0.7c0-0.3,0.1-0.5,0.3-0.7C210.1,152,210.4,151.9,210.6,151.8L210.6,151.8z"/>
		<path class="st4" d="M218.4,93.1c1.1,1.1,2.2,2.2,3.4,3.2c0.1,0.1,0.2,0.2,0.2,0.3c0.1,0.1,0.1,0.3,0.1,0.4c0,0.1,0,0.3-0.1,0.4
			c-0.1,0.1-0.1,0.2-0.2,0.3c-0.2,0.2-0.4,0.3-0.7,0.3c-0.3,0-0.5-0.1-0.7-0.3c-1.1-1.1-2.3-2.2-3.4-3.3c-0.1-0.1-0.2-0.2-0.2-0.3
			c-0.1-0.1-0.1-0.3-0.1-0.4c0-0.1,0-0.3,0.1-0.4c0.1-0.1,0.1-0.2,0.2-0.3c0.1-0.1,0.2-0.2,0.3-0.2c0.1,0,0.3-0.1,0.4-0.1
			c0.1,0,0.3,0,0.4,0.1C218.1,92.9,218.3,93,218.4,93.1z"/>
		<path class="st4" d="M186,73c0.1-0.3,0.2-0.5,0.5-0.6c0.2-0.1,0.5-0.2,0.8-0.1c1.5,0.4,3.1,0.9,4.6,1.5c0.1,0,0.2,0.1,0.3,0.2
			s0.2,0.2,0.2,0.3s0.1,0.3,0.1,0.4c0,0.1,0,0.3-0.1,0.4c0,0.1-0.1,0.2-0.2,0.3c-0.1,0.1-0.2,0.2-0.3,0.2c-0.1,0.1-0.2,0.1-0.4,0.1
			c-0.1,0-0.3,0-0.4-0.1c-1.4-0.5-2.9-1-4.3-1.4c-0.1,0-0.3-0.1-0.4-0.2s-0.2-0.2-0.3-0.3c-0.1-0.1-0.1-0.2-0.1-0.4
			C186,73.3,186,73.1,186,73z"/>
		<path class="st4" d="M177.8,107.5c0.2-0.2,0.4-0.3,0.7-0.3c0.3,0,0.5,0.1,0.7,0.3c1.1,1.1,2.2,2.1,3.4,3.1
			c0.1,0.1,0.2,0.2,0.3,0.3c0.1,0.1,0.1,0.2,0.1,0.4c0,0.1,0,0.3,0,0.4c0,0.1-0.1,0.2-0.2,0.3c-0.1,0.1-0.2,0.2-0.3,0.2
			c-0.1,0.1-0.2,0.1-0.4,0.1c-0.1,0-0.3,0-0.4,0s-0.2-0.1-0.3-0.2c-1.2-1-2.4-2.1-3.5-3.2c-0.1-0.1-0.2-0.2-0.2-0.3
			c-0.1-0.1-0.1-0.3-0.1-0.4c0-0.1,0-0.3,0.1-0.4C177.6,107.7,177.7,107.6,177.8,107.5z"/>
		<path class="st4" d="M167.6,170.2c1.3-0.5,2.6-1.2,3.6-2.2c0.2-0.2,0.4-0.3,0.7-0.3c0.3,0,0.5,0.1,0.7,0.3
			c0.1,0.1,0.2,0.2,0.2,0.3c0.1,0.1,0.1,0.3,0.1,0.4s0,0.3-0.1,0.4c-0.1,0.1-0.1,0.2-0.2,0.3c-1.2,1.2-2.7,2.1-4.3,2.7
			c-0.1,0-0.3,0.1-0.4,0.1c-0.1,0-0.3,0-0.4-0.1c-0.1-0.1-0.2-0.1-0.3-0.2c-0.1-0.1-0.2-0.2-0.2-0.3c-0.1-0.2-0.1-0.5,0.1-0.7
			C167.2,170.4,167.4,170.3,167.6,170.2z"/>
		<path class="st4" d="M174.1,150c0.2,0,0.5,0.1,0.7,0.3c0.2,0.2,0.3,0.4,0.3,0.7c0,0.2,0,0.5,0,0.8c0,0.3,0,0.5,0,0.8
			c0.1,1,0.2,1.9,0.3,2.9c0,0.3,0,0.5-0.2,0.8c-0.2,0.2-0.4,0.4-0.7,0.4c-0.3,0-0.5,0-0.8-0.2c-0.2-0.2-0.4-0.4-0.4-0.7
			c-0.2-1-0.3-2.1-0.4-3.2c0-0.3,0-0.6,0-0.9c0-0.3,0-0.6,0-0.9c0-0.1,0.1-0.3,0.1-0.4c0.1-0.1,0.2-0.2,0.3-0.3
			c0.1-0.1,0.2-0.1,0.4-0.2C173.8,150,174,150,174.1,150z"/>
		<path class="st4" d="M159.1,169.7c1.4,0.5,2.9,0.8,4.3,0.9c0.1,0,0.3,0,0.4,0.1c0.1,0.1,0.2,0.1,0.3,0.2c0.1,0.1,0.1,0.2,0.2,0.3
			c0,0.1,0.1,0.3,0,0.4c0,0.1,0,0.3-0.1,0.4c-0.1,0.1-0.1,0.2-0.2,0.3c-0.1,0.1-0.2,0.1-0.3,0.2c-0.1,0-0.3,0.1-0.4,0
			c-1.6-0.2-3.2-0.5-4.8-1c-0.1,0-0.2-0.1-0.3-0.2c-0.1-0.1-0.2-0.2-0.2-0.3c-0.1-0.1-0.1-0.2-0.1-0.4c0-0.1,0-0.3,0-0.4
			c0-0.1,0.1-0.2,0.2-0.3s0.2-0.2,0.3-0.2c0.1-0.1,0.2-0.1,0.4-0.1C158.8,169.6,158.9,169.6,159.1,169.7z"/>
		<path class="st4" d="M188.8,117.7c-1.3-0.8-2.5-1.7-3.8-2.6c-0.1-0.1-0.2-0.2-0.3-0.3s-0.1-0.2-0.1-0.4c0-0.1,0-0.3,0-0.4
			c0-0.1,0.1-0.3,0.2-0.4c0.1-0.1,0.2-0.2,0.3-0.3c0.1-0.1,0.2-0.1,0.4-0.1c0.1,0,0.3,0,0.4,0c0.1,0,0.2,0.1,0.4,0.2
			c1.2,0.9,2.4,1.7,3.7,2.5l0.1,0.1c0.1,0.1,0.2,0.2,0.3,0.3c0.1,0.1,0.1,0.2,0.2,0.4c0,0.1,0,0.3,0,0.4c0,0.1-0.1,0.3-0.1,0.4
			c-0.1,0.1-0.2,0.2-0.3,0.3c-0.1,0.1-0.2,0.1-0.4,0.2c-0.1,0-0.3,0-0.4,0c-0.1,0-0.3-0.1-0.4-0.1L188.8,117.7z"/>
		<path class="st4" d="M219.4,151.1c1.3-0.4,2.5-1.2,3.3-2.2c0.2-0.2,0.4-0.4,0.6-0.4c0.3,0,0.5,0,0.7,0.2c0.1,0.1,0.2,0.2,0.3,0.3
			c0.1,0.1,0.1,0.2,0.1,0.4c0,0.1,0,0.3,0,0.4c0,0.1-0.1,0.2-0.2,0.4c-1.1,1.4-2.6,2.5-4.3,3c-0.1,0-0.3,0.1-0.4,0.1
			c-0.1,0-0.3,0-0.4-0.1c-0.2-0.1-0.4-0.3-0.5-0.6c-0.1-0.3-0.1-0.5,0-0.8C219,151.4,219.2,151.2,219.4,151.1L219.4,151.1z"/>
		<path class="st4" d="M184.1,143.5c1.6,0.3,3.1,0.8,4.6,1.3c0.1,0,0.2,0.1,0.3,0.2c0.1,0.1,0.2,0.2,0.2,0.3
			c0.1,0.1,0.1,0.3,0.1,0.4c0,0.1,0,0.3-0.1,0.4c-0.1,0.3-0.3,0.5-0.5,0.6c-0.2,0.1-0.5,0.1-0.8,0c-1.4-0.5-2.9-0.9-4.4-1.2
			c-0.1,0-0.3-0.1-0.4-0.2c-0.1-0.1-0.2-0.2-0.3-0.3c-0.1-0.1-0.1-0.2-0.1-0.4c0-0.1,0-0.3,0-0.4c0.1-0.3,0.2-0.5,0.4-0.6
			C183.6,143.5,183.9,143.5,184.1,143.5z"/>
		<path class="st4" d="M174.8,147.3c-0.1-0.1-0.2-0.2-0.3-0.3c-0.1-0.1-0.1-0.2-0.1-0.4c0-0.1,0-0.3,0-0.4c0-0.1,0.1-0.3,0.2-0.4
			c0.5-0.8,1.2-1.4,2-1.8c0.8-0.4,1.7-0.7,2.6-0.8c0.3,0,0.5,0,0.7,0.2s0.4,0.4,0.4,0.7s0,0.5-0.2,0.7c-0.2,0.2-0.4,0.4-0.7,0.4
			c-0.7,0.1-1.3,0.3-1.9,0.6c-0.6,0.3-1,0.7-1.4,1.2c-0.2,0.2-0.4,0.3-0.6,0.4C175.2,147.5,175,147.5,174.8,147.3z"/>
		<path class="st4" d="M174.2,161.5c0-0.4,0-0.7-0.1-1.1c0-0.1,0-0.3,0-0.4c0-0.1,0.1-0.2,0.2-0.3c0.1-0.1,0.2-0.2,0.3-0.2
			c0.1-0.1,0.2-0.1,0.4-0.1c0.1,0,0.3,0,0.4,0c0.1,0,0.2,0.1,0.3,0.2c0.1,0.1,0.2,0.2,0.2,0.3c0.1,0.1,0.1,0.2,0.1,0.4
			c0,0.4,0.1,0.8,0.1,1.2c0,1.3-0.2,2.6-0.8,3.8c-0.1,0.2-0.3,0.4-0.5,0.5c-0.2,0.1-0.5,0.1-0.8,0c-0.1-0.1-0.2-0.1-0.3-0.2
			c-0.1-0.1-0.2-0.2-0.2-0.3c0-0.1-0.1-0.3-0.1-0.4c0-0.1,0-0.3,0.1-0.4C174.1,163.6,174.3,162.5,174.2,161.5z"/>
		<path class="st4" d="M204.8,83.3c-0.5-0.4-1-0.8-1.6-1.2c-0.1-0.1-0.2-0.2-0.3-0.3c-0.1-0.1-0.1-0.2-0.1-0.4c0-0.1,0-0.3,0-0.4
			c0-0.1,0.1-0.3,0.2-0.4c0.2-0.2,0.4-0.4,0.6-0.4c0.3,0,0.5,0,0.7,0.2c0.6,0.4,1.1,0.8,1.7,1.2c0.7,0.5,1.4,1.1,2.1,1.7
			c0.1,0.1,0.2,0.2,0.3,0.3c0.1,0.1,0.1,0.2,0.1,0.4c0,0.1,0,0.3,0,0.4c0,0.1-0.1,0.2-0.2,0.3c-0.1,0.1-0.2,0.2-0.3,0.2
			c-0.1,0.1-0.2,0.1-0.4,0.1c-0.1,0-0.3,0-0.4,0c-0.1,0-0.2-0.1-0.3-0.2C206.1,84.4,205.4,83.8,204.8,83.3z"/>
		<path class="st4" d="M245.4,87.2c1.6,0.2,3.2,0.6,4.8,1.2c0.1,0.1,0.2,0.1,0.3,0.2s0.2,0.2,0.2,0.3c0.1,0.1,0.1,0.3,0.1,0.4
			c0,0.1,0,0.3-0.1,0.4c-0.1,0.1-0.1,0.2-0.2,0.3c-0.1,0.1-0.2,0.2-0.3,0.2c-0.1,0.1-0.3,0.1-0.4,0.1c-0.1,0-0.3,0-0.4-0.1
			c-1.4-0.5-2.8-0.9-4.2-1c-0.3,0-0.5-0.2-0.7-0.4c-0.2-0.2-0.2-0.5-0.2-0.7c0-0.3,0.2-0.5,0.4-0.7
			C244.9,87.3,245.2,87.3,245.4,87.2L245.4,87.2z"/>
		<path class="st4" d="M249.3,109.5c1.4-0.4,2.7-1,3.8-1.9c0.1-0.1,0.2-0.1,0.4-0.2c0.1,0,0.3,0,0.4,0c0.1,0,0.3,0.1,0.4,0.1
			c0.1,0.1,0.2,0.2,0.3,0.3c0.1,0.1,0.1,0.2,0.2,0.4c0,0.1,0,0.3,0,0.4c0,0.1-0.1,0.3-0.1,0.4c-0.1,0.1-0.2,0.2-0.3,0.3
			c-1.3,1-2.9,1.8-4.5,2.2c-0.3,0.1-0.5,0-0.8-0.1c-0.2-0.1-0.4-0.4-0.5-0.6s0-0.5,0.1-0.8C248.8,109.7,249.1,109.5,249.3,109.5
			L249.3,109.5z"/>
		<path class="st4" d="M253,91.2c0.1-0.1,0.2-0.2,0.3-0.2c0.1-0.1,0.3-0.1,0.4-0.1c0.1,0,0.3,0,0.4,0.1c0.1,0.1,0.2,0.1,0.3,0.2
			c1.2,1.2,2.1,2.6,2.8,4.1c0.1,0.1,0.1,0.2,0.1,0.4c0,0.1,0,0.3,0,0.4c0,0.1-0.1,0.2-0.2,0.3c-0.1,0.1-0.2,0.2-0.3,0.2
			c-0.2,0.1-0.5,0.1-0.8,0.1c-0.3-0.1-0.5-0.3-0.6-0.5c-0.6-1.3-1.5-2.5-2.5-3.6c-0.1-0.1-0.2-0.2-0.2-0.3c-0.1-0.1-0.1-0.3-0.1-0.4
			c0-0.1,0-0.3,0.1-0.4C252.8,91.5,252.9,91.3,253,91.2z"/>
		<path class="st4" d="M256.6,100.8c0-0.1,0-0.3,0-0.4c0-0.1,0-0.3,0.1-0.4c0-0.1,0.1-0.2,0.2-0.3c0.1-0.1,0.2-0.2,0.3-0.2
			c0.1-0.1,0.2-0.1,0.4-0.1c0.1,0,0.3,0,0.4,0.1c0.1,0,0.2,0.1,0.3,0.2c0.1,0.1,0.2,0.2,0.2,0.3c0.1,0.1,0.1,0.2,0.1,0.4
			c0,0.2,0,0.3,0,0.5c0,1.6-0.3,3.1-1,4.5c-0.1,0.2-0.3,0.4-0.6,0.5c-0.3,0.1-0.5,0.1-0.8,0c-0.2-0.1-0.4-0.3-0.5-0.6
			c-0.1-0.3-0.1-0.5,0-0.8C256.4,103.3,256.6,102,256.6,100.8z"/>
		<path class="st4" d="M223.6,145.1c-0.2-1.5-0.6-2.9-1.3-4.2c-0.1-0.1-0.1-0.2-0.1-0.4c0-0.1,0-0.3,0.1-0.4c0-0.1,0.1-0.2,0.2-0.3
			c0.1-0.1,0.2-0.2,0.3-0.2c0.1-0.1,0.2-0.1,0.4-0.1c0.1,0,0.3,0,0.4,0.1c0.1,0,0.2,0.1,0.3,0.2c0.1,0.1,0.2,0.2,0.2,0.3
			c0.7,1.5,1.2,3.1,1.4,4.8c0,0.1,0,0.3,0,0.4c0,0.1-0.1,0.2-0.2,0.3c-0.1,0.1-0.2,0.2-0.3,0.3c-0.1,0.1-0.2,0.1-0.4,0.1
			c-0.1,0-0.3,0-0.4,0c-0.1,0-0.2-0.1-0.4-0.2c-0.1-0.1-0.2-0.2-0.3-0.3C223.6,145.3,223.6,145.2,223.6,145.1L223.6,145.1z"/>
		<path class="st4" d="M211.6,86.6c1.1,1,2.3,2.2,3.4,3.3c0.1,0.1,0.2,0.2,0.2,0.3c0.1,0.1,0.1,0.3,0.1,0.4c0,0.1,0,0.3-0.1,0.4
			c-0.1,0.1-0.1,0.2-0.2,0.3c-0.2,0.2-0.4,0.3-0.7,0.3c-0.3,0-0.5-0.1-0.7-0.3c-1.1-1.1-2.2-2.2-3.4-3.2c-0.1-0.1-0.2-0.2-0.2-0.3
			c-0.1-0.1-0.1-0.3-0.1-0.4c0-0.1,0-0.3,0.1-0.4c0-0.1,0.1-0.2,0.2-0.3c0.1-0.1,0.2-0.2,0.3-0.2c0.1-0.1,0.3-0.1,0.4-0.1
			c0.1,0,0.3,0,0.4,0.1C211.4,86.4,211.5,86.5,211.6,86.6z"/>
		<path class="st4" d="M223.7,99.6c0.1-0.1,0.2-0.2,0.3-0.2c0.1-0.1,0.2-0.1,0.4-0.1c0.1,0,0.3,0,0.4,0c0.1,0,0.2,0.1,0.3,0.2
			c1.2,1,2.4,2,3.6,2.9c0.1,0.1,0.2,0.2,0.3,0.3c0.1,0.1,0.1,0.2,0.1,0.4c0,0.1,0,0.3,0,0.4c0,0.1-0.1,0.2-0.2,0.4
			c-0.2,0.2-0.4,0.3-0.7,0.4c-0.3,0-0.5,0-0.7-0.2c-1.2-1-2.5-2-3.7-3c-0.1-0.1-0.2-0.2-0.2-0.3c-0.1-0.1-0.1-0.2-0.1-0.4
			c0-0.1,0-0.3,0-0.4C223.6,99.8,223.7,99.7,223.7,99.6z"/>
		<path class="st4" d="M240.7,108.9c1.4,0.4,2.9,0.7,4.3,0.9h0.1c0.3,0,0.5,0.2,0.7,0.4c0.2,0.2,0.2,0.5,0.2,0.7
			c0,0.3-0.2,0.5-0.4,0.7c-0.2,0.2-0.5,0.2-0.7,0.2h-0.1c-1.6-0.2-3.1-0.5-4.6-1c-0.3-0.1-0.5-0.3-0.6-0.5c-0.1-0.2-0.2-0.5-0.1-0.8
			c0.1-0.3,0.3-0.5,0.5-0.6C240.1,108.8,240.4,108.8,240.7,108.9z"/>
		<path class="st4" d="M232.5,105c1.3,0.8,2.6,1.6,4,2.2c0.2,0.1,0.4,0.3,0.5,0.6s0.1,0.5,0,0.8c-0.1,0.2-0.3,0.4-0.6,0.5
			c-0.2,0.1-0.5,0.1-0.8,0c-1.4-0.7-2.8-1.5-4.2-2.3c-0.2-0.1-0.4-0.4-0.4-0.6c-0.1-0.3,0-0.5,0.1-0.8c0.1-0.2,0.4-0.4,0.6-0.4
			C232,104.8,232.3,104.9,232.5,105L232.5,105z"/>
		<path class="st5" d="M255,81.8l15.2-8.9c5.4-3.2,8.8-9.7,8.8-18.8c0.1-18.4-12.8-40.8-28.6-50c-8-4.7-15.2-5.1-20.4-2l-15.3,9
			h-0.1c-5.2,3-8.4,9.5-8.4,18.6c0,2.7,0.3,5.5,0.8,8.2c1,5.2,2.6,10.3,4.9,15.1c2.6,5.6,18.4,30.9,22.9,38.3l4.8-2.2h1.1
			c0.3,0,0.5-0.1,0.7-0.3c0.2-0.2,0.3-0.4,0.3-0.7c4.9-2.2,10.9-5,12.7-6l0.4-0.2L255,81.8L255,81.8z M241.8,56.9
			c-1.3-0.2-2.5-0.7-3.6-1.3c-5.7-3.3-10.3-11.4-10.3-18c-0.1-1.6,0.3-3.2,1-4.6c1.3,0.2,2.5,0.7,3.6,1.4c5.7,3.3,10.3,11.4,10.3,18
			C242.8,53.9,242.5,55.5,241.8,56.9z"/>
		<path class="st5" d="M93.5,140.9c0,2.2,0.2,4.4,0.6,6.6c0.8,4.2,2.1,8.3,3.9,12.1c2.1,4.5,14.7,24.7,18.3,30.7
			c0.4-0.2,13.1-5.9,15.7-7.3l0.4-0.2h0.1l12.2-7.2c2-1.2,3.6-2.9,4.7-4.9h1c1.3,0,2.5,0.1,3.6,0.2c0.3,0,0.5-0.1,0.7-0.2
			c0.2-0.2,0.3-0.4,0.4-0.7c0-0.1,0-0.3,0-0.4c0-0.1-0.1-0.2-0.2-0.4c-0.1-0.1-0.2-0.2-0.3-0.3c-0.1-0.1-0.2-0.1-0.4-0.1
			c-1.2-0.1-2.5-0.2-3.8-0.2h-0.1c0.9-2.6,1.4-5.3,1.4-8.1c0-14.7-10.2-32.7-22.9-40.1c-6.4-3.7-12.2-4.1-16.4-1.6l-12.2,7.2
			C96.1,128.4,93.5,133.5,93.5,140.9z M122,162.8c-1-0.2-2-0.5-2.9-1.1c-4.6-2.7-8.3-9.1-8.2-14.4c0-1.3,0.3-2.5,0.8-3.7
			c1,0.2,2,0.5,2.9,1.1c4.6,2.7,8.3,9.1,8.2,14.4C122.9,160.3,122.6,161.6,122,162.8z"/>
		<path class="st6" d="M170.1,83.1c-0.3,1.4-0.5,2.9-0.5,4.4v0.1c0,0.3-0.1,0.5-0.3,0.7c-0.2,0.2-0.4,0.3-0.7,0.3s-0.5-0.1-0.7-0.3
			c-0.2-0.2-0.3-0.4-0.3-0.7v-0.1c0-1.6,0.2-3.2,0.5-4.8c0-0.1,0.1-0.3,0.2-0.4c0.1-0.1,0.2-0.2,0.3-0.3c0.1-0.1,0.2-0.1,0.4-0.1
			c0.1,0,0.3,0,0.4,0c0.1,0,0.3,0.1,0.4,0.2c0.1,0.1,0.2,0.2,0.3,0.3c0.1,0.1,0.1,0.2,0.1,0.4C170.1,82.8,170.1,83,170.1,83.1z"/>
		<path class="st6" d="M170.1,92c0.3,1.5,0.8,2.9,1.3,4.3c0.1,0.1,0.1,0.3,0.1,0.4c0,0.1,0,0.3-0.1,0.4c0,0.1-0.1,0.2-0.2,0.3
			s-0.2,0.2-0.3,0.2c-0.1,0.1-0.3,0.1-0.4,0.1c-0.1,0-0.3,0-0.4-0.1c-0.1-0.1-0.2-0.1-0.3-0.2c-0.1-0.1-0.2-0.2-0.2-0.3
			c-0.6-1.5-1.1-3.1-1.5-4.7c0-0.1,0-0.3,0-0.4c0-0.1,0.1-0.3,0.1-0.4c0.1-0.1,0.2-0.2,0.3-0.3c0.1-0.1,0.2-0.1,0.4-0.2
			c0.1,0,0.3,0,0.4,0c0.1,0,0.3,0.1,0.4,0.1c0.1,0.1,0.2,0.2,0.3,0.3C170.1,91.7,170.1,91.9,170.1,92z"/>
		<path class="st6" d="M174.1,75.6c-1.1,0.9-2,2-2.6,3.3c-0.1,0.1-0.1,0.2-0.2,0.3c-0.1,0.1-0.2,0.2-0.3,0.2c-0.1,0-0.3,0.1-0.4,0
			c-0.1,0-0.3,0-0.4-0.1c-0.1-0.1-0.2-0.1-0.3-0.2c-0.1-0.1-0.2-0.2-0.2-0.3c0-0.1-0.1-0.3,0-0.4c0-0.1,0.1-0.3,0.1-0.4
			c0.8-1.6,1.8-2.9,3.2-4c0.1-0.1,0.2-0.1,0.3-0.2c0.1,0,0.3,0,0.4,0c0.1,0,0.3,0.1,0.4,0.1c0.1,0.1,0.2,0.2,0.3,0.3
			c0.1,0.1,0.2,0.2,0.2,0.4c0,0.1,0.1,0.3,0,0.4c0,0.1-0.1,0.3-0.1,0.4C174.3,75.4,174.2,75.5,174.1,75.6z"/>
		<path class="st6" d="M240.7,89h-1.1l2.1-1c0,0.3-0.1,0.5-0.3,0.7C241.2,88.9,240.9,89,240.7,89z"/>
		<path class="st6" d="M182.3,73.5c-0.4,0-0.8,0-1.2,0c-1.1,0-2.1,0.1-3.1,0.3c-0.1,0-0.3,0-0.4,0c-0.1,0-0.3-0.1-0.4-0.1
			c-0.1-0.1-0.2-0.2-0.3-0.3c-0.1-0.1-0.1-0.2-0.2-0.4c0-0.1,0-0.3,0-0.4s0.1-0.3,0.1-0.4c0.1-0.1,0.2-0.2,0.3-0.3
			c0.1-0.1,0.2-0.1,0.4-0.2c1.2-0.3,2.4-0.4,3.6-0.4c0.4,0,0.9,0,1.3,0.1c0.3,0,0.5,0.1,0.7,0.3c0.2,0.2,0.3,0.5,0.2,0.7
			c0,0.3-0.1,0.5-0.3,0.7C182.8,73.4,182.6,73.5,182.3,73.5L182.3,73.5z"/>
		<path class="st6" d="M176,105.5c-0.2,0.2-0.5,0.2-0.7,0.2c-0.3,0-0.5-0.2-0.7-0.4c-1-1.3-1.9-2.6-2.8-3.9
			c-0.1-0.1-0.1-0.2-0.1-0.4c0-0.1,0-0.3,0-0.4c0-0.1,0.1-0.3,0.2-0.4c0.1-0.1,0.2-0.2,0.3-0.3c0.2-0.1,0.5-0.2,0.8-0.1
			c0.3,0.1,0.5,0.2,0.6,0.4c0.8,1.3,1.7,2.6,2.6,3.7c0.1,0.1,0.1,0.2,0.2,0.4c0,0.1,0,0.3,0,0.4c0,0.1-0.1,0.3-0.1,0.4
			S176.1,105.4,176,105.5z"/>
		<path class="st6" d="M218.6,132.1c1.1,1.2,2.2,2.4,3.1,3.8c0.1,0.1,0.1,0.2,0.2,0.4c0,0.1,0,0.3,0,0.4c0,0.1-0.1,0.3-0.1,0.4
			c-0.1,0.1-0.2,0.2-0.3,0.3c-0.2,0.1-0.5,0.2-0.7,0.2c-0.3,0-0.5-0.2-0.6-0.4c-0.8-1.2-1.8-2.4-2.8-3.5c-0.2-0.2-0.3-0.4-0.3-0.7
			c0-0.3,0.1-0.5,0.3-0.7s0.4-0.3,0.7-0.3C218.2,131.8,218.5,131.9,218.6,132.1z"/>
		<path class="st6" d="M201.7,150.1c1.5,0.4,2.9,0.8,4.4,1.1c0.1,0,0.3,0.1,0.4,0.1s0.2,0.2,0.3,0.3c0.1,0.1,0.1,0.2,0.2,0.4
			c0,0.1,0,0.3,0,0.4c0,0.1-0.1,0.3-0.1,0.4s-0.2,0.2-0.3,0.3s-0.2,0.1-0.4,0.2c-0.1,0-0.3,0-0.4,0c-1.6-0.3-3.1-0.7-4.6-1.1
			c-0.1,0-0.2-0.1-0.3-0.2c-0.1-0.1-0.2-0.2-0.2-0.3c-0.1-0.1-0.1-0.2-0.1-0.4c0-0.1,0-0.3,0-0.4c0-0.1,0.1-0.2,0.2-0.4
			c0.1-0.1,0.2-0.2,0.3-0.3c0.1-0.1,0.2-0.1,0.4-0.1C201.4,150.1,201.6,150.1,201.7,150.1z"/>
		<path class="st6" d="M194.8,76.1c0.1-0.2,0.3-0.4,0.6-0.5c0.2-0.1,0.5-0.1,0.8,0c1.5,0.7,2.9,1.5,4.2,2.2c0.1,0.1,0.2,0.2,0.3,0.3
			c0.1,0.1,0.1,0.2,0.2,0.4c0,0.1,0,0.3,0,0.4c0,0.1-0.1,0.3-0.1,0.4c-0.1,0.2-0.3,0.4-0.6,0.5c-0.3,0.1-0.5,0-0.8-0.1
			c-1.3-0.8-2.6-1.5-4-2.2c-0.1-0.1-0.2-0.1-0.3-0.2c-0.1-0.1-0.2-0.2-0.2-0.3c0-0.1-0.1-0.3-0.1-0.4
			C194.7,76.4,194.7,76.2,194.8,76.1z"/>
		<path class="st6" d="M197.4,122.2c-1.4-0.6-2.9-1.3-4.3-2c-0.1-0.1-0.2-0.1-0.3-0.2c-0.1-0.1-0.2-0.2-0.2-0.3c0-0.1-0.1-0.3,0-0.4
			c0-0.1,0-0.3,0.1-0.4c0.1-0.2,0.3-0.4,0.6-0.5c0.3-0.1,0.5-0.1,0.8,0.1c1.4,0.7,2.8,1.4,4.2,2c0.1,0.1,0.2,0.1,0.3,0.2
			c0.1,0.1,0.2,0.2,0.2,0.3c0,0.1,0.1,0.3,0.1,0.4c0,0.1,0,0.3-0.1,0.4c-0.1,0.2-0.3,0.4-0.6,0.5
			C197.9,122.3,197.6,122.3,197.4,122.2z"/>
		<path class="st6" d="M193.1,146.6c1.6,0.7,3,1.3,4.3,1.9c0.1,0.1,0.2,0.1,0.3,0.2c0.1,0.1,0.2,0.2,0.2,0.3c0,0.1,0.1,0.3,0.1,0.4
			c0,0.1,0,0.3-0.1,0.4c-0.1,0.1-0.1,0.2-0.2,0.3c-0.1,0.1-0.2,0.2-0.3,0.2c-0.1,0-0.3,0.1-0.4,0.1c-0.1,0-0.3,0-0.4-0.1
			c-1.3-0.6-2.7-1.2-4.3-1.9c-0.1-0.1-0.2-0.1-0.3-0.2c-0.1-0.1-0.2-0.2-0.2-0.3c-0.1-0.1-0.1-0.3-0.1-0.4c0-0.1,0-0.3,0.1-0.4
			c0.1-0.1,0.1-0.2,0.2-0.3c0.1-0.1,0.2-0.2,0.3-0.2c0.1-0.1,0.3-0.1,0.4-0.1C192.9,146.5,193,146.5,193.1,146.6z"/>
		<path class="st6" d="M211,126.3c1.4,0.8,2.7,1.7,4,2.6c0.1,0.1,0.2,0.2,0.3,0.3c0.1,0.1,0.1,0.2,0.1,0.4c0,0.1,0,0.3,0,0.4
			c0,0.1-0.1,0.2-0.2,0.4c-0.1,0.1-0.2,0.2-0.3,0.3c-0.1,0.1-0.2,0.1-0.4,0.1c-0.1,0-0.3,0-0.4,0c-0.1,0-0.2-0.1-0.4-0.2
			c-1.2-0.9-2.5-1.8-3.8-2.5c-0.1-0.1-0.2-0.2-0.3-0.3c-0.1-0.1-0.1-0.2-0.2-0.4c0-0.1,0-0.3,0-0.4c0-0.1,0.1-0.3,0.1-0.4
			c0.1-0.1,0.2-0.2,0.3-0.3c0.1-0.1,0.2-0.1,0.4-0.2c0.1,0,0.3,0,0.4,0C210.8,126.2,210.9,126.2,211,126.3z"/>
		<path class="st6" d="M205.9,125.9c-1.4-0.7-2.8-1.3-4.2-1.9c-0.1-0.1-0.2-0.1-0.3-0.2c-0.1-0.1-0.2-0.2-0.2-0.3
			c0-0.1-0.1-0.3-0.1-0.4c0-0.1,0-0.3,0.1-0.4c0.1-0.2,0.3-0.4,0.5-0.5c0.2-0.1,0.5-0.1,0.8,0c1.4,0.6,2.9,1.3,4.3,1.9
			c0.2,0.1,0.4,0.3,0.5,0.6c0.1,0.3,0.1,0.5,0,0.8c-0.1,0.2-0.3,0.4-0.6,0.5C206.4,126.1,206.1,126.1,205.9,125.9z"/>
		<path class="st6" d="M210.6,151.8c0.9,0.1,1.9,0.1,2.8,0.1c0.6,0,1.2,0,1.8,0c0.3,0,0.5,0.1,0.7,0.2c0.2,0.2,0.3,0.4,0.3,0.7
			s-0.1,0.5-0.2,0.7c-0.2,0.2-0.4,0.3-0.7,0.3c-0.6,0-1.3,0.1-1.9,0.1c-1,0-1.9,0-2.9-0.1c-0.3,0-0.5-0.1-0.7-0.3
			c-0.2-0.2-0.3-0.5-0.2-0.7c0-0.3,0.1-0.5,0.3-0.7C210.1,152,210.4,151.9,210.6,151.8L210.6,151.8z"/>
		<path class="st6" d="M218.4,93.1c1.1,1.1,2.2,2.2,3.4,3.2c0.1,0.1,0.2,0.2,0.2,0.3c0.1,0.1,0.1,0.3,0.1,0.4c0,0.1,0,0.3-0.1,0.4
			c-0.1,0.1-0.1,0.2-0.2,0.3c-0.2,0.2-0.4,0.3-0.7,0.3c-0.3,0-0.5-0.1-0.7-0.3c-1.1-1.1-2.3-2.2-3.4-3.3c-0.1-0.1-0.2-0.2-0.2-0.3
			c-0.1-0.1-0.1-0.3-0.1-0.4c0-0.3,0.1-0.5,0.3-0.7s0.4-0.3,0.7-0.3C217.9,92.8,218.1,92.9,218.4,93.1L218.4,93.1z"/>
		<path class="st6" d="M186,73c0.1-0.3,0.2-0.5,0.5-0.6c0.2-0.1,0.5-0.2,0.8-0.1c1.5,0.4,3.1,0.9,4.6,1.5c0.1,0,0.2,0.1,0.3,0.2
			s0.2,0.2,0.2,0.3s0.1,0.3,0.1,0.4c0,0.1,0,0.3-0.1,0.4c0,0.1-0.1,0.2-0.2,0.3c-0.1,0.1-0.2,0.2-0.3,0.2c-0.1,0.1-0.2,0.1-0.4,0.1
			c-0.1,0-0.3,0-0.4-0.1c-1.4-0.5-2.9-1-4.3-1.4c-0.1,0-0.3-0.1-0.4-0.2s-0.2-0.2-0.3-0.3c-0.1-0.1-0.1-0.2-0.1-0.4
			C186,73.3,186,73.1,186,73z"/>
		<path class="st6" d="M177.8,107.5c0.2-0.2,0.4-0.3,0.7-0.3c0.3,0,0.5,0.1,0.7,0.3c1.1,1.1,2.2,2.1,3.4,3.1
			c0.1,0.1,0.2,0.2,0.3,0.3c0.1,0.1,0.1,0.2,0.1,0.4c0,0.1,0,0.3,0,0.4c0,0.1-0.1,0.2-0.2,0.3c-0.1,0.1-0.2,0.2-0.3,0.2
			c-0.1,0.1-0.2,0.1-0.4,0.1c-0.1,0-0.3,0-0.4,0s-0.2-0.1-0.3-0.2c-1.2-1-2.4-2.1-3.5-3.2c-0.1-0.1-0.2-0.2-0.2-0.3
			c-0.1-0.1-0.1-0.3-0.1-0.4c0-0.1,0-0.3,0.1-0.4C177.6,107.7,177.7,107.6,177.8,107.5z"/>
		<path class="st6" d="M167.6,170.2c1.3-0.5,2.6-1.2,3.6-2.2c0.2-0.2,0.4-0.3,0.7-0.3c0.3,0,0.5,0.1,0.7,0.3
			c0.1,0.1,0.2,0.2,0.2,0.3c0.1,0.1,0.1,0.3,0.1,0.4s0,0.3-0.1,0.4c-0.1,0.1-0.1,0.2-0.2,0.3c-1.2,1.2-2.7,2.1-4.3,2.7
			c-0.1,0-0.3,0.1-0.4,0.1c-0.1,0-0.3,0-0.4-0.1c-0.1-0.1-0.2-0.1-0.3-0.2c-0.1-0.1-0.2-0.2-0.2-0.3c-0.1-0.2-0.1-0.5,0.1-0.7
			C167.2,170.4,167.4,170.3,167.6,170.2z"/>
		<path class="st6" d="M174.1,150c0.2,0,0.5,0.1,0.7,0.3c0.2,0.2,0.3,0.4,0.3,0.7c0,0.2,0,0.5,0,0.8c0,0.3,0,0.5,0,0.8
			c0.1,1,0.2,1.9,0.3,2.9c0,0.3,0,0.5-0.2,0.8c-0.2,0.2-0.4,0.4-0.7,0.4c-0.3,0-0.5,0-0.8-0.2c-0.2-0.2-0.4-0.4-0.4-0.7
			c-0.2-1-0.3-2.1-0.4-3.2c0-0.3,0-0.6,0-0.9c0-0.3,0-0.6,0-0.9c0-0.1,0.1-0.3,0.1-0.4c0.1-0.1,0.2-0.2,0.3-0.3
			c0.1-0.1,0.2-0.1,0.4-0.2C173.8,150,174,150,174.1,150z"/>
		<path class="st6" d="M159.1,169.7c1.4,0.5,2.9,0.8,4.3,0.9c0.1,0,0.3,0,0.4,0.1c0.1,0.1,0.2,0.1,0.3,0.2c0.1,0.1,0.1,0.2,0.2,0.3
			c0,0.1,0.1,0.3,0,0.4c0,0.1,0,0.3-0.1,0.4c-0.1,0.1-0.1,0.2-0.2,0.3c-0.1,0.1-0.2,0.1-0.3,0.2c-0.1,0-0.3,0.1-0.4,0
			c-1.6-0.2-3.2-0.5-4.8-1c-0.1,0-0.2-0.1-0.3-0.2c-0.1-0.1-0.2-0.2-0.2-0.3c-0.1-0.1-0.1-0.2-0.1-0.4c0-0.1,0-0.3,0-0.4
			c0-0.1,0.1-0.2,0.2-0.3s0.2-0.2,0.3-0.2c0.1-0.1,0.2-0.1,0.4-0.1C158.8,169.6,158.9,169.6,159.1,169.7z"/>
		<path class="st6" d="M188.8,117.7c-1.3-0.8-2.5-1.7-3.8-2.6c-0.1-0.1-0.2-0.2-0.3-0.3s-0.1-0.2-0.1-0.4c0-0.1,0-0.3,0-0.4
			c0-0.1,0.1-0.3,0.2-0.4c0.1-0.1,0.2-0.2,0.3-0.3c0.1-0.1,0.2-0.1,0.4-0.1c0.1,0,0.3,0,0.4,0c0.1,0,0.2,0.1,0.4,0.2
			c1.2,0.9,2.4,1.7,3.7,2.5l0.1,0.1c0.1,0.1,0.2,0.2,0.3,0.3c0.1,0.1,0.1,0.2,0.2,0.4c0,0.1,0,0.3,0,0.4c0,0.1-0.1,0.3-0.1,0.4
			c-0.1,0.1-0.2,0.2-0.3,0.3c-0.1,0.1-0.2,0.1-0.4,0.2c-0.1,0-0.3,0-0.4,0c-0.1,0-0.3-0.1-0.4-0.1L188.8,117.7z"/>
		<path class="st6" d="M150.5,168.6c1.3,0,2.6,0.1,3.8,0.2c0.1,0,0.3,0.1,0.4,0.1c0.1,0.1,0.2,0.1,0.3,0.3c0.1,0.1,0.1,0.2,0.2,0.4
			c0,0.1,0,0.3,0,0.4c0,0.3-0.2,0.5-0.4,0.7c-0.2,0.2-0.5,0.2-0.7,0.2c-1.1-0.1-2.3-0.2-3.6-0.2h-1
			C149.9,169.9,150.2,169.3,150.5,168.6L150.5,168.6z"/>
		<path class="st6" d="M219.4,151.1c1.3-0.4,2.5-1.2,3.3-2.2c0.2-0.2,0.4-0.4,0.6-0.4c0.3,0,0.5,0,0.7,0.2c0.1,0.1,0.2,0.2,0.3,0.3
			c0.1,0.1,0.1,0.2,0.1,0.4c0,0.1,0,0.3,0,0.4c0,0.1-0.1,0.2-0.2,0.4c-1.1,1.4-2.6,2.5-4.3,3c-0.1,0-0.3,0.1-0.4,0.1
			c-0.1,0-0.3,0-0.4-0.1c-0.2-0.1-0.4-0.3-0.5-0.6c-0.1-0.3-0.1-0.5,0-0.8C219,151.4,219.2,151.2,219.4,151.1L219.4,151.1z"/>
		<path class="st6" d="M184.1,143.5c1.6,0.3,3.1,0.8,4.6,1.3c0.1,0,0.2,0.1,0.3,0.2c0.1,0.1,0.2,0.2,0.2,0.3
			c0.1,0.1,0.1,0.3,0.1,0.4c0,0.1,0,0.3-0.1,0.4c-0.1,0.3-0.3,0.5-0.5,0.6c-0.2,0.1-0.5,0.1-0.8,0c-1.4-0.5-2.9-0.9-4.4-1.2
			c-0.1,0-0.3-0.1-0.4-0.2c-0.1-0.1-0.2-0.2-0.3-0.3c-0.1-0.1-0.1-0.2-0.1-0.4c0-0.1,0-0.3,0-0.4c0.1-0.3,0.2-0.5,0.4-0.6
			C183.6,143.5,183.9,143.5,184.1,143.5z"/>
		<path class="st6" d="M174.8,147.3c-0.1-0.1-0.2-0.2-0.3-0.3c-0.1-0.1-0.1-0.2-0.1-0.4c0-0.1,0-0.3,0-0.4c0-0.1,0.1-0.3,0.2-0.4
			c0.5-0.8,1.2-1.4,2-1.8c0.8-0.4,1.7-0.7,2.6-0.8c0.3,0,0.5,0,0.7,0.2s0.4,0.4,0.4,0.7s0,0.5-0.2,0.7c-0.2,0.2-0.4,0.4-0.7,0.4
			c-0.7,0.1-1.3,0.3-1.9,0.6c-0.6,0.3-1,0.7-1.4,1.2c-0.2,0.2-0.4,0.3-0.6,0.4C175.2,147.5,175,147.5,174.8,147.3z"/>
		<path class="st6" d="M174.2,161.5c0-0.4,0-0.7-0.1-1.1c0-0.1,0-0.3,0-0.4c0-0.1,0.1-0.2,0.2-0.3c0.1-0.1,0.2-0.2,0.3-0.2
			c0.1-0.1,0.2-0.1,0.4-0.1c0.1,0,0.3,0,0.4,0c0.1,0,0.2,0.1,0.3,0.2c0.1,0.1,0.2,0.2,0.2,0.3c0.1,0.1,0.1,0.2,0.1,0.4
			c0,0.4,0.1,0.8,0.1,1.2c0,1.3-0.2,2.6-0.8,3.8c-0.1,0.2-0.3,0.4-0.5,0.5c-0.2,0.1-0.5,0.1-0.8,0c-0.1-0.1-0.2-0.1-0.3-0.2
			c-0.1-0.1-0.2-0.2-0.2-0.3c0-0.1-0.1-0.3-0.1-0.4c0-0.1,0-0.3,0.1-0.4C174.1,163.6,174.3,162.5,174.2,161.5z"/>
		<path class="st6" d="M204.8,83.3c-0.5-0.4-1-0.8-1.6-1.2c-0.1-0.1-0.2-0.2-0.3-0.3c-0.1-0.1-0.1-0.2-0.1-0.4c0-0.1,0-0.3,0-0.4
			c0-0.1,0.1-0.3,0.2-0.4c0.2-0.2,0.4-0.4,0.6-0.4c0.3,0,0.5,0,0.7,0.2c0.6,0.4,1.1,0.8,1.7,1.2c0.7,0.5,1.4,1.1,2.1,1.7
			c0.1,0.1,0.2,0.2,0.3,0.3c0.1,0.1,0.1,0.2,0.1,0.4c0,0.1,0,0.3,0,0.4c0,0.1-0.1,0.2-0.2,0.3c-0.1,0.1-0.2,0.2-0.3,0.2
			c-0.1,0.1-0.2,0.1-0.4,0.1c-0.1,0-0.3,0-0.4,0c-0.1,0-0.2-0.1-0.3-0.2C206.1,84.4,205.4,83.8,204.8,83.3z"/>
		<path class="st6" d="M245.4,87.2c1.6,0.2,3.2,0.6,4.8,1.2c0.1,0.1,0.2,0.1,0.3,0.2s0.2,0.2,0.2,0.3c0.1,0.1,0.1,0.3,0.1,0.4
			c0,0.1,0,0.3-0.1,0.4c-0.1,0.1-0.1,0.2-0.2,0.3c-0.1,0.1-0.2,0.2-0.3,0.2c-0.1,0.1-0.3,0.1-0.4,0.1c-0.1,0-0.3,0-0.4-0.1
			c-1.4-0.5-2.8-0.9-4.2-1c-0.3,0-0.5-0.2-0.7-0.4c-0.2-0.2-0.2-0.5-0.2-0.7c0-0.3,0.2-0.5,0.4-0.7
			C244.9,87.3,245.2,87.3,245.4,87.2L245.4,87.2z"/>
		<path class="st6" d="M249.3,109.5c1.4-0.4,2.7-1,3.8-1.9c0.1-0.1,0.2-0.1,0.4-0.2c0.1,0,0.3,0,0.4,0c0.1,0,0.3,0.1,0.4,0.1
			c0.1,0.1,0.2,0.2,0.3,0.3c0.1,0.1,0.1,0.2,0.2,0.4c0,0.1,0,0.3,0,0.4c0,0.1-0.1,0.3-0.1,0.4c-0.1,0.1-0.2,0.2-0.3,0.3
			c-1.3,1-2.9,1.8-4.5,2.2c-0.3,0.1-0.5,0-0.8-0.1c-0.2-0.1-0.4-0.4-0.5-0.6s0-0.5,0.1-0.8C248.8,109.7,249.1,109.5,249.3,109.5
			L249.3,109.5z"/>
		<path class="st6" d="M253,91.2c0.1-0.1,0.2-0.2,0.3-0.2c0.1-0.1,0.3-0.1,0.4-0.1c0.1,0,0.3,0,0.4,0.1c0.1,0.1,0.2,0.1,0.3,0.2
			c1.2,1.2,2.1,2.6,2.8,4.1c0.1,0.1,0.1,0.2,0.1,0.4c0,0.1,0,0.3,0,0.4c0,0.1-0.1,0.2-0.2,0.3c-0.1,0.1-0.2,0.2-0.3,0.2
			c-0.2,0.1-0.5,0.1-0.8,0.1c-0.3-0.1-0.5-0.3-0.6-0.5c-0.6-1.3-1.5-2.5-2.5-3.6c-0.1-0.1-0.2-0.2-0.2-0.3c-0.1-0.1-0.1-0.3-0.1-0.4
			c0-0.1,0-0.3,0.1-0.4C252.8,91.5,252.9,91.3,253,91.2z"/>
		<path class="st6" d="M256.6,100.8c0-0.1,0-0.3,0-0.4c0-0.1,0-0.3,0.1-0.4c0-0.1,0.1-0.2,0.2-0.3c0.1-0.1,0.2-0.2,0.3-0.2
			c0.1-0.1,0.2-0.1,0.4-0.1c0.1,0,0.3,0,0.4,0.1c0.1,0,0.2,0.1,0.3,0.2c0.1,0.1,0.2,0.2,0.2,0.3c0.1,0.1,0.1,0.2,0.1,0.4
			c0,0.2,0,0.3,0,0.5c0,1.6-0.3,3.1-1,4.5c-0.1,0.2-0.3,0.4-0.6,0.5c-0.3,0.1-0.5,0.1-0.8,0c-0.2-0.1-0.4-0.3-0.5-0.6
			c-0.1-0.3-0.1-0.5,0-0.8C256.4,103.3,256.6,102,256.6,100.8z"/>
		<path class="st6" d="M223.6,145.1c-0.2-1.5-0.6-2.9-1.3-4.2c-0.1-0.1-0.1-0.2-0.1-0.4c0-0.1,0-0.3,0.1-0.4c0-0.1,0.1-0.2,0.2-0.3
			c0.1-0.1,0.2-0.2,0.3-0.2c0.1-0.1,0.2-0.1,0.4-0.1c0.1,0,0.3,0,0.4,0.1c0.1,0,0.2,0.1,0.3,0.2c0.1,0.1,0.2,0.2,0.2,0.3
			c0.7,1.5,1.2,3.1,1.4,4.8c0,0.1,0,0.3,0,0.4c0,0.1-0.1,0.2-0.2,0.3c-0.1,0.1-0.2,0.2-0.3,0.3c-0.1,0.1-0.2,0.1-0.4,0.1
			c-0.1,0-0.3,0-0.4,0c-0.1,0-0.2-0.1-0.4-0.2c-0.1-0.1-0.2-0.2-0.3-0.3C223.6,145.3,223.6,145.2,223.6,145.1L223.6,145.1z"/>
		<path class="st6" d="M211.6,86.6c1.1,1,2.3,2.2,3.4,3.3c0.1,0.1,0.2,0.2,0.2,0.3c0.1,0.1,0.1,0.3,0.1,0.4c0,0.1,0,0.3-0.1,0.4
			c-0.1,0.1-0.1,0.2-0.2,0.3c-0.2,0.2-0.4,0.3-0.7,0.3c-0.3,0-0.5-0.1-0.7-0.3c-1.1-1.1-2.2-2.2-3.4-3.2c-0.1-0.1-0.2-0.2-0.2-0.3
			c-0.1-0.1-0.1-0.3-0.1-0.4c0-0.1,0-0.3,0.1-0.4c0-0.1,0.1-0.2,0.2-0.3c0.1-0.1,0.2-0.2,0.3-0.2c0.1-0.1,0.3-0.1,0.4-0.1
			c0.1,0,0.3,0,0.4,0.1C211.4,86.4,211.5,86.5,211.6,86.6z"/>
		<path class="st6" d="M223.7,99.6c0.1-0.1,0.2-0.2,0.3-0.2c0.1-0.1,0.2-0.1,0.4-0.1c0.1,0,0.3,0,0.4,0c0.1,0,0.2,0.1,0.3,0.2
			c1.2,1,2.4,2,3.6,2.9c0.1,0.1,0.2,0.2,0.3,0.3c0.1,0.1,0.1,0.2,0.1,0.4c0,0.1,0,0.3,0,0.4c0,0.1-0.1,0.2-0.2,0.4
			c-0.2,0.2-0.4,0.3-0.7,0.4c-0.3,0-0.5,0-0.7-0.2c-1.2-1-2.5-2-3.7-3c-0.1-0.1-0.2-0.2-0.2-0.3c-0.1-0.1-0.1-0.2-0.1-0.4
			c0-0.1,0-0.3,0-0.4C223.6,99.8,223.7,99.7,223.7,99.6z"/>
		<path class="st6" d="M240.7,108.9c1.4,0.4,2.9,0.7,4.3,0.9h0.1c0.3,0,0.5,0.2,0.7,0.4c0.2,0.2,0.2,0.5,0.2,0.7
			c0,0.3-0.2,0.5-0.4,0.7c-0.2,0.2-0.5,0.2-0.7,0.2h-0.1c-1.6-0.2-3.1-0.5-4.6-1c-0.3-0.1-0.5-0.3-0.6-0.5c-0.1-0.2-0.2-0.5-0.1-0.8
			c0.1-0.3,0.3-0.5,0.5-0.6C240.1,108.8,240.4,108.8,240.7,108.9z"/>
		<path class="st6" d="M232.5,105c1.3,0.8,2.6,1.6,4,2.2c0.2,0.1,0.4,0.3,0.5,0.6s0.1,0.5,0,0.8c-0.1,0.2-0.3,0.4-0.6,0.5
			c-0.2,0.1-0.5,0.1-0.8,0c-1.4-0.7-2.8-1.5-4.2-2.3c-0.2-0.1-0.4-0.4-0.4-0.6c-0.1-0.3,0-0.5,0.1-0.8c0.1-0.2,0.4-0.4,0.6-0.4
			C232,104.8,232.3,104.9,232.5,105L232.5,105z"/>
		<path class="st7" d="M262.5,71.5c0,0.1,0,0.1-0.1,0.2c0,0.1-0.1,0.2-0.1,0.4c0,0.1,0,0.1,0,0.2c0,0.2-0.1,0.3-0.2,0.5
			c0,0.1,0,0.1-0.1,0.2l-0.1,0.3C262,72.9,262.2,72.3,262.5,71.5z"/>
		<path class="st8" d="M215,10.7l-0.3,0.2c-5.2,3-8.4,9.5-8.4,18.6c0,2.7,0.3,5.5,0.8,8.2c1,5.2,2.6,10.3,4.9,15.1
			c2.6,5.6,18.4,30.9,22.9,38.3l4.7-2.2l2.1-1c4.9-2.2,10.9-5,12.7-6l0.4-0.2l0.1-0.1h0.1l0.4-0.3l0.3-0.2l0.1-0.1h0.1l0.4-0.3
			c0.1-0.1,0.2-0.1,0.2-0.2l0.1-0.1h0.1l0.2-0.2c0.1-0.1,0.2-0.2,0.3-0.3l0.1-0.1l0.2-0.2l0.2-0.1c0,0,0,0,0.1-0.1l0.1-0.1l0.4-0.4
			l0.1-0.1l0.1-0.1l0.1-0.2l0.1-0.1v0l0.4-0.4l0.1-0.2l0.1-0.1l0.1-0.1l0.1-0.2l0.2-0.3L260,77l0.1-0.1l0-0.1l0.1-0.1l0.2-0.3
			l0.2-0.3l0.1-0.2l0.1-0.1c0,0,0.1-0.1,0.1-0.1c0-0.1,0.1-0.1,0.1-0.2c0.1-0.2,0.2-0.3,0.2-0.5l0.1-0.2v-0.1v-0.1
			c0-0.1,0.1-0.1,0.1-0.2c0-0.1,0.1-0.1,0.1-0.2l0.2-0.5l0.1-0.1c0,0,0-0.1,0-0.1v-0.1v-0.1c0,0,0.1-0.9,0.3-2.5
			c0.1-0.8,0.1-1.8,0.2-2.9c0-0.5,0-1.1,0.1-1.8v-1c0-0.3,0-0.7,0-1c0-1.3-0.1-2.8-0.2-4.4c-0.1-0.8-0.2-1.5-0.3-2.4
			s-0.3-1.6-0.4-2.4c-0.1-0.8-0.4-1.7-0.5-2.5c-0.2-0.8-0.4-1.7-0.6-2.5s-0.5-1.7-0.8-2.5l-0.4-1.3c-0.1-0.4-0.3-0.8-0.5-1.3
			c-0.6-1.7-1.3-3.3-2-5c-0.7-1.7-1.5-3.2-2.3-4.6c-0.8-1.5-1.6-2.9-2.4-4.2c-0.8-1.3-1.6-2.6-2.4-3.7c-1.5-2.2-2.9-4.1-3.9-5.4
			c-0.5-0.6-0.9-1.1-1.2-1.5l-0.4-0.5l-0.4-0.4l-0.4-0.4l-1-0.9l-0.3-0.2c-0.4-0.4-0.9-0.7-1.3-1.1l-0.2-0.2
			c-0.4-0.3-0.7-0.6-1.1-0.9l-0.4-0.3l-0.9-0.7c-0.2-0.1-0.3-0.2-0.5-0.3l-1-0.6l-0.4-0.3c-0.4-0.3-0.9-0.6-1.4-0.8
			c-0.4-0.3-0.9-0.5-1.4-0.7l-0.2-0.1l-1.3-0.6l-0.2-0.1l-1.3-0.6c-0.4-0.2-0.9-0.3-1.3-0.5l-0.2-0.1l-1.2-0.4l-0.2-0.1l-1.2-0.3
			h-0.1c-0.4-0.1-0.8-0.2-1.2-0.2h-0.3c-0.4-0.1-0.7-0.1-1.1-0.1h-0.2l-1-0.1h-1.6h-0.4h-0.2h-0.3H220h-0.1h-0.4l-0.3,0.1h-0.1h-0.2
			h-0.1h-0.2l-0.4,0.1l-0.4,0.1h-0.2l-0.5,0.1l-0.4,0.1l-0.2,0.1c-0.1,0-0.2,0.1-0.2,0.1l-0.4,0.2l-0.1,0.1
			c-0.1,0.1-0.3,0.1-0.4,0.2c-0.1,0-0.2,0.1-0.3,0.2L215,10.7z M241.8,56.9c-1.7,3-5.2,3.8-9.3,1.4c0,0-0.3-0.2-0.9-0.4l-1-0.5
			c-0.4-0.2-0.8-0.5-1.2-0.9c-0.2-0.2-0.5-0.3-0.7-0.5l-0.7-0.6c-0.2-0.2-0.5-0.4-0.7-0.7c-0.2-0.2-0.4-0.5-0.7-0.8l-0.7-0.8
			c-0.2-0.3-0.4-0.6-0.6-0.9c-0.2-0.3-0.4-0.6-0.6-0.9l-0.5-1c-0.4-0.7-0.6-1.4-0.9-2c-0.1-0.3-0.2-0.7-0.3-1s-0.2-0.7-0.3-1
			c-0.2-0.7-0.3-1.3-0.4-2c0-0.3-0.1-0.6-0.1-0.9s0-0.6-0.1-0.8c-0.1-0.6,0-1.1-0.1-1.5c-0.1-0.4,0-0.8,0-1.2c0-0.3,0-0.6,0.1-0.7
			c0.1-0.2,0-0.3,0-0.3s0,0.1,0,0.3c0,0,0,0.1,0,0.1c0.4-4.4,3.1-6.7,6.7-6.2c1.3,0.2,2.5,0.7,3.6,1.3c5.7,3.3,10.3,11.4,10.3,18
			C242.8,53.9,242.4,55.5,241.8,56.9L241.8,56.9z M219.9,62.8c0,0,1.2,1.5,2.8,3.9c0.8,1.2,1.8,2.6,2.7,4.1c0.5,0.8,1,1.5,1.5,2.3
			c0.5,0.8,1,1.6,1.5,2.4c0.5,0.8,1,1.7,1.5,2.5s0.9,1.6,1.4,2.4c0.9,1.6,1.7,3,2.4,4.3c1.4,2.5,2.2,4.3,2.2,4.3s-1.2-1.5-2.8-3.9
			c-0.8-1.2-1.8-2.6-2.7-4.1c-0.5-0.8-1-1.5-1.5-2.3c-0.5-0.8-1-1.6-1.5-2.4c-0.5-0.8-1-1.6-1.5-2.4c-0.5-0.8-0.9-1.6-1.4-2.4
			c-0.9-1.6-1.7-3-2.4-4.3C220.7,64.5,219.9,62.8,219.9,62.8L219.9,62.8z"/>
		<path class="st5" d="M232.4,58.2l-0.7-0.7c-0.2-0.2-0.5-0.5-0.9-0.7s-0.6-0.7-1-1c-0.2-0.2-0.4-0.4-0.6-0.6l-0.6-0.7l-0.6-0.7
			c-0.2-0.2-0.4-0.5-0.6-0.8l-0.6-0.8c-0.2-0.3-0.3-0.6-0.5-0.9c-0.2-0.3-0.4-0.6-0.5-0.9l-0.5-0.9c-0.3-0.6-0.6-1.2-0.9-1.9
			c-0.2-0.6-0.5-1.3-0.7-1.9c-0.2-0.6-0.4-1.2-0.6-1.8c-0.2-0.6-0.3-1.1-0.4-1.7s-0.2-1-0.3-1.4c-0.1-0.4-0.2-0.8-0.2-1.1
			c-0.1-0.3-0.1-0.4-0.1-0.6c0.4-4.4,3.1-6.7,6.7-6.2c-0.7,1.4-1.1,3-1,4.6c0,6.6,4.6,14.7,10.3,18c1.1,0.7,2.3,1.1,3.6,1.3
			C240.1,59.9,236.5,60.6,232.4,58.2z"/>
		<path class="st9" d="M262.2,70.8c0.1-0.8,0.1-1.8,0.2-2.9c0-0.6,0-1.1,0.1-1.8v-1c0-0.3,0-0.7,0-1c0-1.4-0.1-2.8-0.2-4.4
			c-0.1-0.8-0.2-1.5-0.3-2.4s-0.3-1.6-0.4-2.4c-0.1-0.8-0.4-1.7-0.5-2.5c-0.2-0.8-0.4-1.7-0.6-2.5c-0.2-0.9-0.5-1.7-0.8-2.5
			l-0.4-1.3c-0.1-0.4-0.3-0.8-0.5-1.3c-0.6-1.7-1.3-3.3-2-5c-0.7-1.7-1.5-3.2-2.3-4.6c-0.8-1.5-1.6-2.9-2.4-4.2
			c-0.8-1.3-1.6-2.6-2.4-3.7c-1.5-2.2-2.9-4.1-3.9-5.4c-0.5-0.6-0.9-1.1-1.2-1.5l-0.4-0.5c0,0,0.8,0.6,1.9,1.6
			c0.6,0.5,1.3,1.2,2.1,2c0.8,0.8,1.7,1.7,2.6,2.8c0.9,1.1,1.9,2.2,2.8,3.5c0.9,1.3,1.9,2.7,2.8,4.2c0.9,1.5,1.8,3.1,2.6,4.7
			c0.8,1.7,1.6,3.5,2.2,5.2c0.7,1.8,1.2,3.5,1.6,5.3c0.2,0.9,0.4,1.8,0.6,2.7c0.2,0.9,0.3,1.8,0.4,2.7c0.1,0.9,0.2,1.8,0.2,2.6
			s0,1.7,0.1,2.5c0,0.8,0,1.6-0.1,2.3c-0.1,0.8-0.1,1.5-0.2,2.2c-0.1,0.7-0.1,1.3-0.3,2c-0.1,0.6-0.2,1.2-0.3,1.8
			c-0.3,1.1-0.5,2.1-0.7,2.8c-0.1,0.2-0.1,0.4-0.2,0.6c-0.3,0.9-0.5,1.4-0.6,1.7l0,0.1C261.9,73.3,262,72.3,262.2,70.8z"/>
		<path class="st9" d="M222.5,40.8c0.1,0.4,0.2,0.9,0.3,1.4c0.1,0.5,0.3,1.1,0.4,1.7s0.4,1.2,0.6,1.8c0.2,0.6,0.5,1.3,0.7,1.9
			c0.3,0.6,0.5,1.3,0.9,1.9l0.5,0.9c0.2,0.3,0.4,0.6,0.5,0.9s0.3,0.6,0.5,0.9l0.6,0.8c0.2,0.3,0.4,0.5,0.6,0.8l0.6,0.7l0.6,0.7
			c0.2,0.2,0.4,0.4,0.6,0.6c0.4,0.4,0.7,0.7,1,1c0.3,0.3,0.6,0.5,0.9,0.7l0.7,0.7c0,0-0.3-0.1-0.9-0.4l-1-0.5
			c-0.4-0.2-0.8-0.5-1.2-0.9c-0.2-0.2-0.5-0.3-0.7-0.5l-0.7-0.6c-0.2-0.2-0.5-0.4-0.7-0.7c-0.2-0.2-0.4-0.5-0.7-0.8l-0.7-0.8
			c-0.2-0.3-0.4-0.6-0.6-0.9c-0.2-0.3-0.4-0.6-0.6-0.9l-0.5-1c-0.4-0.7-0.6-1.4-0.9-2c-0.1-0.3-0.2-0.7-0.3-1s-0.2-0.7-0.3-1
			c-0.2-0.7-0.3-1.3-0.4-2c0-0.3-0.1-0.6-0.1-0.9s0-0.6-0.1-0.8c-0.1-0.6,0-1.1-0.1-1.5c-0.1-0.4,0-0.8,0-1.2c0-0.3,0-0.6,0.1-0.7
			c0.1-0.2,0-0.3,0-0.3s0,0.1,0,0.3c0,0,0,0.1,0,0.1c0,0.2,0.1,0.3,0.1,0.6C222.2,40,222.5,40.4,222.5,40.8z"/>
		<path class="st9" d="M225.4,70.7c0.5,0.8,1,1.5,1.5,2.3c0.5,0.8,1,1.6,1.5,2.4c0.5,0.8,1,1.7,1.5,2.5c0.5,0.8,0.9,1.6,1.4,2.4
			c0.9,1.6,1.7,3,2.4,4.3c1.4,2.5,2.2,4.3,2.2,4.3s-1.2-1.5-2.8-3.9c-0.8-1.2-1.8-2.6-2.7-4.1c-0.5-0.8-1-1.5-1.5-2.3
			s-1-1.6-1.5-2.4c-0.5-0.8-1-1.6-1.5-2.4c-0.5-0.8-0.9-1.6-1.4-2.4c-0.9-1.6-1.7-3-2.4-4.3c-1.4-2.5-2.2-4.3-2.2-4.3
			s1.2,1.5,2.8,3.9C223.5,67.8,224.5,69.2,225.4,70.7z"/>
		<path class="st8" d="M93.5,140.9c0,2.2,0.2,4.4,0.6,6.6c0.8,4.2,2.1,8.3,3.9,12.1c2.1,4.5,14.7,24.7,18.3,30.7
			c0.4-0.2,13.1-5.9,15.7-7.3l0.4-0.2h0.1h0.1l0.4-0.2l0.2-0.2l0.1-0.1c0.1-0.1,0.2-0.2,0.3-0.3l0.2-0.1c0,0,0.1,0,0.1-0.1l0.1-0.1
			l0.2-0.1c0.1-0.1,0.2-0.1,0.2-0.2h0.1l0.1-0.1l0.1-0.1h0.1V181c0.1-0.1,0.2-0.2,0.3-0.3l0.1-0.1l0.1-0.1l0.1-0.1l0.1-0.1v-0.1
			c0.1-0.1,0.2-0.2,0.3-0.4l0.1-0.1l0.1-0.1c0,0,0,0,0.1-0.1l0.1-0.1l0.2-0.2c0.1-0.1,0.1-0.1,0.1-0.2V179v-0.1l0.1-0.1l0.1-0.2
			c0.1-0.1,0.1-0.2,0.1-0.2c0-0.1,0.1-0.1,0.1-0.2l0.1-0.1l0.1-0.1c0,0,0.1-0.1,0.1-0.1l0.2-0.4l0.1-0.2c0,0,0-0.1,0-0.1
			c0,0,0.1-0.1,0.1-0.1c0-0.1,0.1-0.1,0.1-0.2s0.1-0.3,0.2-0.4l0.1-0.1v-0.1c0,0,0,0,0-0.1v-0.1c0,0,0.1-0.8,0.2-2
			c0.1-0.6,0.1-1.4,0.2-2.3c0-0.4,0-0.9,0-1.4c0-0.2,0-0.5,0-0.8s0-0.5,0-0.8c0-1.1-0.1-2.3-0.2-3.5c-0.1-0.6-0.1-1.2-0.2-1.9
			c-0.1-0.6-0.2-1.3-0.3-2s-0.3-1.3-0.4-2c-0.1-0.3-0.2-0.7-0.3-1c-0.1-0.3-0.1-0.7-0.3-1c-0.4-1.4-0.8-2.7-1.3-4.1
			c-0.5-1.4-1-2.7-1.6-4c-0.6-1.3-1.2-2.5-1.9-3.7c-0.7-1.2-1.3-2.3-1.9-3.4s-1.3-2.1-1.9-2.9c-1.2-1.8-2.3-3.3-3.1-4.3
			c-0.8-1-1.3-1.6-1.3-1.6l-0.4-0.4l-0.3-0.3l-0.8-0.7l-0.2-0.2c-0.3-0.3-0.7-0.6-1-0.9l-0.1-0.1l-0.9-0.7l-0.3-0.2l-0.8-0.5
			l-0.3-0.2l-0.8-0.5l-0.3-0.2c-0.4-0.2-0.7-0.5-1.1-0.7h-0.1l-1.2-0.7l-0.5-0.2l-0.8-0.4l-0.5-0.2l-0.8-0.3l-0.5-0.2l-0.8-0.3
			l-0.4-0.1c-0.4-0.1-0.8-0.2-1.2-0.3h-0.1c-0.4-0.1-0.8-0.2-1.1-0.2h-0.3c-0.3,0-0.6-0.1-0.8-0.1h-0.4h-1.1h-0.3H105h-0.2h-0.2
			h-0.3H104h-0.1h-0.2h-0.1h-0.1l-0.3,0.1l-0.3,0.1h-0.2l-0.4,0.1l-0.3,0.1l-0.1,0.1l-0.2,0.1l-0.3,0.2h-0.1l-0.3,0.2
			c-0.1,0-0.2,0.1-0.3,0.1l-0.3,0.2C96.1,128.4,93.5,133.5,93.5,140.9z M114.5,163.9l-0.7-0.4l-0.8-0.4c-0.3-0.2-0.6-0.4-1-0.7
			l-0.6-0.4l-0.5-0.5l-0.6-0.6c-0.2-0.2-0.3-0.4-0.5-0.6l-0.5-0.7c-0.2-0.2-0.3-0.5-0.5-0.7c-0.2-0.2-0.3-0.5-0.5-0.8l-0.4-0.8
			c-0.3-0.5-0.5-1.1-0.7-1.6c-0.2-0.5-0.4-1.1-0.5-1.6s-0.2-1.1-0.3-1.6c-0.1-0.5-0.1-0.9-0.2-1.4c0-0.4,0-0.8,0-1.2
			c0-0.4,0-0.7,0-0.9c0-0.3,0-0.5,0.1-0.8c0,0.1,0,0.2,0,0.3c0.3-3.5,2.4-5.4,5.3-4.9c1,0.2,2,0.5,2.9,1.1c4.6,2.7,8.3,9.1,8.2,14.4
			c0,1.3-0.2,2.5-0.8,3.7C120.6,165.2,117.8,165.8,114.5,163.9L114.5,163.9z M104.4,167.4c0,0,1,1.2,2.3,3.1
			c0.7,0.9,1.4,2.1,2.2,3.3c0.4,0.6,0.8,1.2,1.2,1.9l1.2,1.9l1.2,2c0.4,0.6,0.8,1.3,1.1,1.9c0.7,1.2,1.4,2.4,1.9,3.4
			c1.1,2,1.7,3.5,1.7,3.5s-1-1.2-2.3-3.1c-0.7-1-1.4-2.1-2.2-3.3c-0.4-0.6-0.8-1.2-1.2-1.9l-1.2-1.9l-1.2-2
			c-0.4-0.7-0.8-1.3-1.1-1.9c-0.7-1.2-1.4-2.4-1.9-3.5C105.1,168.9,104.4,167.4,104.4,167.4L104.4,167.4z"/>
		<path class="st7" d="M138.6,174.4c0,0,0,0.1,0,0.1c0,0.1-0.1,0.2-0.1,0.3c0,0,0,0.1,0,0.1c0,0.1-0.1,0.2-0.1,0.4l-0.1,0.1
			c0,0.1-0.1,0.2-0.1,0.3C138.2,175.6,138.4,175.1,138.6,174.4z"/>
		<path class="st5" d="M114.5,163.8c0,0-0.2-0.2-0.6-0.5c-0.2-0.2-0.4-0.4-0.7-0.6c-0.3-0.2-0.5-0.5-0.8-0.8l-0.5-0.5l-0.5-0.5
			l-0.5-0.6c-0.2-0.2-0.3-0.4-0.5-0.6l-0.5-0.7l-0.4-0.7c-0.1-0.2-0.3-0.5-0.4-0.7l-0.4-0.8c-0.3-0.5-0.5-1-0.7-1.5
			c-0.2-0.5-0.4-1-0.6-1.5s-0.3-1-0.5-1.5c-0.1-0.5-0.2-0.9-0.3-1.3c-0.2-0.8-0.3-1.5-0.4-2c0-0.2-0.1-0.3-0.1-0.5
			c0.3-3.5,2.4-5.4,5.4-4.9c-0.6,1.1-0.9,2.4-0.8,3.7c0,5.3,3.7,11.8,8.2,14.4c0.9,0.5,1.9,0.9,2.9,1.1
			C120.6,165.2,117.8,165.8,114.5,163.8z"/>
		<path class="st9" d="M127.2,136.2c0.6,0.6,1.3,1.4,2,2.2c0.7,0.8,1.5,1.8,2.2,2.8c0.8,1,1.5,2.1,2.2,3.3c0.7,1.2,1.4,2.4,2.1,3.8
			c0.7,1.3,1.2,2.7,1.8,4.1c0.5,1.4,1,2.8,1.3,4.3c0.2,0.7,0.3,1.4,0.5,2.1s0.2,1.4,0.3,2.1c0.1,0.7,0.2,1.4,0.2,2.1
			c0,0.7,0,1.3,0.1,2s0,1.3,0,1.9c0,0.6-0.1,1.2-0.2,1.8c0,0.5-0.1,1.1-0.2,1.6c-0.1,0.5-0.2,1-0.3,1.4c-0.2,0.9-0.4,1.6-0.6,2.3
			c-0.1,0.2-0.1,0.3-0.1,0.5c-0.2,0.7-0.4,1.2-0.5,1.4v0.1c0,0,0.1-0.8,0.2-2c0.1-0.6,0.1-1.4,0.2-2.3c0-0.4,0-0.9,0-1.4
			c0-0.2,0-0.5,0-0.8c0-0.3,0-0.5,0-0.8c0-1.1-0.1-2.3-0.2-3.5c-0.1-0.6-0.1-1.2-0.2-1.9c-0.1-0.6-0.2-1.3-0.3-2
			c-0.1-0.7-0.3-1.3-0.4-2c-0.1-0.3-0.2-0.7-0.3-1s-0.1-0.7-0.3-1c-0.4-1.4-0.8-2.7-1.3-4.1c-0.5-1.4-1-2.7-1.6-4
			c-0.6-1.3-1.2-2.5-1.9-3.7c-0.7-1.2-1.3-2.3-1.9-3.4c-0.6-1.1-1.3-2.1-1.9-3c-1.2-1.8-2.3-3.3-3.1-4.3s-1.3-1.6-1.3-1.6
			s0.6,0.4,1.5,1.3C126,135,126.6,135.5,127.2,136.2z"/>
		<path class="st9" d="M106.8,151c0.1,0.4,0.2,0.9,0.4,1.3c0.1,0.5,0.3,1,0.4,1.5s0.4,1,0.6,1.5c0.2,0.5,0.4,1,0.7,1.5l0.4,0.8
			c0.1,0.2,0.3,0.5,0.4,0.7l0.4,0.7l0.5,0.7c0.2,0.2,0.3,0.4,0.5,0.6l0.5,0.6l0.4,0.5l0.5,0.5c0.3,0.3,0.6,0.6,0.8,0.8
			c0.2,0.2,0.5,0.4,0.7,0.6c0.4,0.3,0.6,0.5,0.6,0.5l-0.7-0.3L113,163c-0.3-0.2-0.6-0.4-1-0.7l-0.6-0.4l-0.5-0.5l-0.6-0.5
			c-0.2-0.2-0.3-0.4-0.5-0.6l-0.5-0.7c-0.2-0.2-0.3-0.5-0.5-0.7c-0.2-0.2-0.3-0.5-0.5-0.8l-0.4-0.8c-0.3-0.5-0.5-1.1-0.7-1.6
			c-0.2-0.5-0.4-1.1-0.5-1.6c-0.2-0.5-0.2-1.1-0.3-1.6c-0.1-0.5-0.1-0.9-0.2-1.4c0-0.4,0-0.8,0-1.2s0-0.7,0-0.9c0-0.3,0-0.5,0.1-0.8
			c0,0.1,0,0.2,0,0.3c0,0.1,0,0.3,0.1,0.5C106.5,149.5,106.6,150.2,106.8,151z"/>
		<path class="st9" d="M108.9,173.8c0.4,0.6,0.8,1.2,1.2,1.9l1.2,1.9l1.2,2c0.4,0.6,0.8,1.3,1.1,1.9c0.7,1.2,1.4,2.4,1.9,3.4
			c1.1,2,1.7,3.4,1.7,3.4s-1-1.2-2.3-3.1c-0.7-0.9-1.4-2.1-2.2-3.3c-0.4-0.6-0.8-1.2-1.2-1.9l-1.2-1.9l-1.2-2
			c-0.4-0.6-0.8-1.3-1.1-1.9c-0.7-1.2-1.4-2.4-1.9-3.4c-1.1-2-1.7-3.4-1.7-3.4s1,1.2,2.3,3.1C107.4,171.5,108.1,172.6,108.9,173.8z"
			/>
	</g>
</g>
</svg>
