<?xml version="1.0" encoding="utf-8"?>
<!-- Generator: Adobe Illustrator 25.0.0, SVG Export Plug-In . SVG Version: 6.00 Build 0)  -->
<svg version="1.1" id="Layer_1" xmlns="http://www.w3.org/2000/svg" xmlns:xlink="http://www.w3.org/1999/xlink" x="0px" y="0px"
	 viewBox="0 0 379 315" style="enable-background:new 0 0 379 315;" xml:space="preserve">
<style type="text/css">
	.st0{clip-path:url(#SVGID_2_);}
	.st1{fill:none;stroke:#222222;stroke-miterlimit:10;}
	.st2{fill:#111111;}
	.st3{fill:#222222;}
	.st4{opacity:0.1;}
	.st5{fill:#B9B0C0;}
	.st6{fill:#959595;}
	.st7{fill:#2E364F;}
	.st8{fill:#424960;}
	.st9{fill:#FFFFFF;}
	.st10{fill:#E6E6E6;}
	.st11{fill:#BDBDBD;}
	.st12{fill:#C5C5C5;}
	.st13{fill:#B3B3B3;}
	.st14{fill:#FF6601;}
	.st15{fill:#FF9C78;}
	.st16{fill:#696D7E;}
	.st17{fill:#7F8391;}
	.st18{fill:url(#SVGID_3_);}
	.st19{fill:#F8F7FB;}
	.st20{opacity:0.1;fill:#B9B0C0;enable-background:new    ;}
	.st21{fill:#90601B;}
	.st22{fill:#CC8B4A;}
	.st23{fill:#4184D1;}
	.st24{fill:#BB97FF;}
	.st25{fill:#3D82D4;}
	.st26{fill:#EAEEF9;}
	.st27{fill:#DCD8E0;}
	.st28{fill:#553012;}
	.st29{fill:#B7C5EB;}
	.st30{fill:#D95600;}
	.st31{fill:#FFF556;}
</style>
<g>
	<defs>
		<rect id="SVGID_1_" width="378.8" height="314.6"/>
	</defs>
	<clipPath id="SVGID_2_">
		<use xlink:href="#SVGID_1_"  style="overflow:visible;"/>
	</clipPath>
	<g class="st0">
		<path class="st1" d="M324.6,204.8c20.9,12,21,31.6,0.2,43.6L227.5,305c-20.7,12.1-54.5,12.1-75.3,0l-98-56.6
			c-20.9-12.1-21-31.6-0.2-43.6l97.4-56.6c20.7-12.1,54.5-12.1,75.3,0L324.6,204.8z"/>
		<path class="st2" d="M359.4,169.9l-122.1,71c-26,15.1-68.3,15.1-94.5,0l-122.9-71C6.6,162.2,0,152.3,0,142.3v14.1
			c0,10,6.6,20,19.7,27.6l122.9,71c26.2,15.1,68.5,15.1,94.5,0l122.1-71c12.9-7.5,19.4-17.3,19.4-27.2v-14.1
			C378.8,152.5,372.3,162.4,359.4,169.9z"/>
		<path class="st3" d="M359.1,115.1c26.2,15.1,26.3,39.6,0.3,54.8l-122.1,71c-26,15.1-68.3,15.1-94.5,0l-122.9-71
			c-26.2-15.1-26.3-39.6-0.3-54.8l122.1-71c26-15.1,68.3-15.1,94.5,0L359.1,115.1z"/>
		<g class="st4">
			<path class="st5" d="M260.9,165.2l-5.7,3.3c-0.6,0.4-1.3,0.5-2,0.5c-0.7,0-1.4-0.2-2-0.5L170.3,123c-0.2-0.1-0.4-0.3-0.6-0.5
				c-0.1-0.2-0.2-0.5-0.2-0.7s0.1-0.5,0.2-0.7c0.1-0.2,0.3-0.4,0.6-0.5l5.7-3.3c0.6-0.3,1.3-0.5,2-0.5c0.7,0,1.4,0.2,2,0.5
				l80.9,45.5c0.2,0.1,0.4,0.3,0.5,0.5c0.1,0.2,0.2,0.5,0.2,0.7c0,0.3-0.1,0.5-0.2,0.7C261.3,164.9,261.1,165.1,260.9,165.2z"/>
		</g>
		<path class="st6" d="M236.3,28.2l-6.3,5.7V35l6.3,2.1V28.2z"/>
		<path class="st7" d="M252.7,41L182.4,0.6C181.7,0.2,180.8,0,180,0c-0.9,0-1.7,0.3-2.4,0.8l-3,1.7l1.1,0.8
			c-0.1,0.4-0.2,0.9-0.2,1.3v102.2c0,3,0.8,5.9,2.3,8.4c1.5,2.6,3.6,4.7,6.2,6.1l70.3,40.4c0.5,0.3,1,0.4,1.5,0.5l-0.1,1.3l3.2-1.8
			c0.7-0.4,1.3-1,1.7-1.7c0.4-0.7,0.6-1.5,0.6-2.3V55.6c0-3-0.8-5.9-2.3-8.4C257.4,44.6,255.3,42.5,252.7,41z"/>
		<path class="st8" d="M251.1,163.6l-70.3-40.4c-2.6-1.5-4.7-3.6-6.2-6.1c-1.5-2.6-2.3-5.5-2.3-8.4V6.4c0-0.8,0.2-1.6,0.6-2.3
			s1-1.3,1.7-1.7c0.7-0.4,1.5-0.6,2.3-0.6c0.8,0,1.6,0.2,2.3,0.6l70.3,40.4c2.6,1.5,4.7,3.6,6.2,6.1c1.5,2.6,2.3,5.5,2.3,8.4v102.2
			c0,0.8-0.2,1.6-0.6,2.3c-0.4,0.7-1,1.3-1.7,1.7c-0.7,0.4-1.5,0.6-2.3,0.6C252.5,164.3,251.7,164,251.1,163.6z"/>
		<path class="st9" d="M250.4,155.2l-70.6-40.6V12.3l70.6,40.6V155.2z"/>
		<path class="st10" d="M200,60.2L187,52.7V37.8l13.1,7.5V60.2z"/>
		<path class="st9" d="M188.2,52V39.9l10.6,6.1V58L188.2,52z"/>
		<path class="st10" d="M200,89.6L187,82.1V67.2l13.1,7.5V89.6z"/>
		<path class="st9" d="M188.2,81.4V69.4l10.6,6.1v12.1L188.2,81.4z"/>
		<path class="st10" d="M200,119.1l-13.1-7.5V96.7l13.1,7.5V119.1z"/>
		<path class="st9" d="M188.2,110.9V98.8l10.6,6.1v12.1L188.2,110.9z"/>
		<path class="st10" d="M207.1,52c0-0.7,0.4-1,0.9-0.7l30,17.2c0.3,0.2,0.5,0.5,0.7,0.8c0.2,0.3,0.2,0.6,0.2,1c0,0.7-0.4,1-0.9,0.7
			l-30-17.2c-0.3-0.2-0.5-0.5-0.7-0.8S207.2,52.3,207.1,52z"/>
		<path class="st10" d="M207.1,56.8c0-0.7,0.4-1,0.9-0.7l25.2,14.5c0.3,0.2,0.5,0.5,0.7,0.8c0.2,0.3,0.2,0.6,0.3,1
			c0,0.7-0.4,1-0.9,0.7l-25.2-14.5c-0.3-0.2-0.5-0.5-0.7-0.8S207.2,57.2,207.1,56.8z"/>
		<path class="st10" d="M207.1,61.7c0-0.7,0.4-1,0.9-0.7l15.1,8.7c0.3,0.2,0.5,0.5,0.7,0.8c0.2,0.3,0.2,0.6,0.3,1
			c0,0.7-0.4,1-0.9,0.7l-15.1-8.7c-0.3-0.2-0.5-0.5-0.7-0.8C207.2,62.3,207.2,62,207.1,61.7z"/>
		<path class="st10" d="M207.1,81.4c0-0.7,0.4-1,0.9-0.7l30,17.2c0.3,0.2,0.5,0.5,0.7,0.8c0.2,0.3,0.2,0.6,0.2,1
			c0,0.7-0.4,1-0.9,0.7l-30-17.2c-0.3-0.2-0.5-0.5-0.7-0.8C207.2,82.1,207.2,81.8,207.1,81.4z"/>
		<path class="st10" d="M207.1,86.3c0-0.7,0.4-1,0.9-0.7l25.2,14.5c0.3,0.2,0.5,0.5,0.7,0.8c0.2,0.3,0.2,0.6,0.3,1
			c0,0.7-0.4,1-0.9,0.7L208.1,88c-0.3-0.2-0.5-0.5-0.7-0.8C207.2,86.9,207.2,86.6,207.1,86.3z"/>
		<path class="st10" d="M207.1,91.1c0-0.7,0.4-1,0.9-0.7l15.1,8.7c0.3,0.2,0.5,0.5,0.7,0.8c0.2,0.3,0.2,0.6,0.3,1
			c0,0.7-0.4,1-0.9,0.7l-15.1-8.7c-0.3-0.2-0.5-0.5-0.7-0.8C207.2,91.8,207.2,91.4,207.1,91.1z"/>
		<path class="st10" d="M207.1,110.9c0-0.7,0.4-1,0.9-0.7l30,17.2c0.3,0.2,0.5,0.5,0.7,0.8c0.2,0.3,0.2,0.6,0.2,1
			c0,0.7-0.4,1-0.9,0.7l-30-17.2c-0.3-0.2-0.5-0.5-0.7-0.8C207.2,111.6,207.2,111.2,207.1,110.9z"/>
		<path class="st10" d="M207.1,115.7c0-0.7,0.4-1,0.9-0.7l25.2,14.5c0.3,0.2,0.5,0.5,0.7,0.8s0.2,0.6,0.2,1c0,0.7-0.4,1-0.9,0.7
			l-25.2-14.5c-0.3-0.2-0.5-0.5-0.7-0.8C207.2,116.4,207.2,116.1,207.1,115.7z"/>
		<path class="st10" d="M207.1,120.6c0-0.7,0.4-1,0.9-0.7l15.1,8.7c0.3,0.2,0.5,0.5,0.7,0.8c0.2,0.3,0.2,0.6,0.3,1
			c0,0.7-0.4,1-0.9,0.7l-15.1-8.7c-0.3-0.2-0.5-0.5-0.7-0.8C207.2,121.2,207.2,120.9,207.1,120.6z"/>
		<path class="st6" d="M198.7,11.5l2.8,15.3l23.1,15.6l2-1.2l5.4-10.5L198.7,11.5z"/>
		<path class="st6" d="M236.3,28.2l-6.3,3.6V33l6.3-3.6V28.2z"/>
		<path class="st11" d="M196.7,12.7l2.8,15.3l25.1,14.4l5.4-10.5L196.7,12.7z"/>
		<path class="st12" d="M210.1,20.4L204.8,31l-5-2.9l5.3-10.6L210.1,20.4z"/>
		<path class="st12" d="M223.8,28.3l-5.3,10.6l-8.1-4.7l5.3-10.6L223.8,28.3z"/>
		<path class="st13" d="M203,9.1l-6.3,3.6L230,31.8l6.3-3.6L203,9.1z"/>
		<path class="st6" d="M224.2,11.1l-13.3-7.6l-0.8,0.5l19.6,21.4l0.8-0.5L224.2,11.1z"/>
		<path class="st11" d="M223.4,11.5l-13.3-7.7l-2.4,9.6l22,11.8L223.4,11.5z"/>
		<path class="st14" d="M199.8,36.8L192,46l-4.3-6.4l-2.6,2.9l7.3,10.9L202.9,41L199.8,36.8z"/>
		<path class="st14" d="M199.8,66.3l-7.7,9.2l-4.3-6.4l-2.6,2.9l7.3,10.9l10.5-12.5L199.8,66.3z"/>
		<path class="st14" d="M199.8,95.8l-7.7,9.2l-4.3-6.4l-2.6,2.9l7.3,10.9l10.5-12.5L199.8,95.8z"/>
		<path class="st15" d="M129.3,57.6c-0.5,1.6-0.1,9.7,0,11.7c0.1,2.1,1.7,21.5,1.7,21.5s-3.1,4-3.2,5.2s1.3,4.9,1.3,4.9l3.2,2.4h2.8
			l2.3-7.2L135,61.8L129.3,57.6z"/>
		<path class="st16" d="M146.4,105.6l-5.7-17.1c-0.2-0.7-1-0.7-1.7,0l-15.7,14.8c-0.3,0.3-0.6,0.7-0.8,1.1c-0.2,0.4-0.2,0.9-0.1,1.3
			l5.7,17.1c0,0.1,0.1,0.2,0.1,0.3c0.1,0.1,0.1,0.1,0.2,0.2l0.9,0.5l1.4-1.8l14.8-13.9c0.3-0.3,0.6-0.7,0.7-1.1
			C146.4,106.5,146.4,106.1,146.4,105.6z"/>
		<path class="st17" d="M146.4,108.6l-15.7,14.8c-0.7,0.7-1.5,0.7-1.7,0l-5.7-17.1c-0.1-0.4,0-0.9,0.1-1.3c0.2-0.4,0.4-0.8,0.8-1.1
			L139.8,89c0.7-0.7,1.5-0.7,1.7,0l5.7,17.1c0.1,0.4,0,0.9-0.1,1.3C147,107.9,146.7,108.3,146.4,108.6z"/>
		
			<linearGradient id="SVGID_3_" gradientUnits="userSpaceOnUse" x1="123.7632" y1="208.8131" x2="146.7332" y2="208.8131" gradientTransform="matrix(1 0 0 -1 0 315)">
			<stop  offset="0" style="stop-color:#7BAEFA"/>
			<stop  offset="0.72" style="stop-color:#0066FF"/>
		</linearGradient>
		<path class="st18" d="M146.3,107.9l-15.9,15c-0.3,0.3-0.7,0.3-0.8,0l-5.8-17.2c0-0.2,0-0.4,0.1-0.6c0.1-0.2,0.2-0.4,0.4-0.5
			l15.9-15c0.4-0.3,0.7-0.3,0.8,0l5.8,17.2c0,0.2,0,0.4-0.1,0.7C146.6,107.5,146.4,107.7,146.3,107.9z"/>
		<path class="st15" d="M129.6,96.1c1.4-0.2,0.8,0.7,1.3,2.3c0.5,1.7,1,2.6,1.5,2.6c0.4-0.1,1-0.3,0.6-1.4c-0.1-1.7,0-3.4,0.5-5
			c0.3-1,0.3-2-0.1-3c-0.5-1-2.2,0.8-2.9,1.9C130,94.3,129.7,95.2,129.6,96.1z"/>
		<path class="st19" d="M136.3,43.1c-1.6,0-3.1,0.5-4.3,1.5c-1.2,1-2.1,2.4-2.4,3.9c-0.8,4-1.3,8.1-1.6,12.2c0.2,0.8,6,3.5,8,2.8
			S136.3,43.1,136.3,43.1z"/>
		<path class="st20" d="M172.4,173.2c1.4-5.3-7.5-12.4-20.1-15.7c-12.5-3.4-23.8-1.7-25.2,3.6c-1.4,5.3,7.6,12.4,20.1,15.7
			C159.7,180.2,171,178.5,172.4,173.2z"/>
		<path class="st21" d="M127.7,160.1c-0.5,0.2-0.5,0.4-0.5,1.2s0.2,1.8,2.2,2.6c1,0.4,2.1,0.5,3.1,0.4c1.1-0.1,2.1-0.5,3-1
			c1.7-1,1.8-1.8,4-3c2.1-1.2,2-0.2,3.7-0.9c1.7-0.7,3.1-1.4,3.2-2.5c0-0.8,0-1.5,0-2.3c0-0.2-1.4-0.5-1.4-0.5L127.7,160.1z"/>
		<path class="st22" d="M138.3,150.5c-0.9,2-7.5,5.8-9.2,6.9c-0.6,0.3-1.1,0.8-1.4,1.4c-0.3,0.6-0.4,1.3-0.3,1.9
			c0,0.9,1.9,3.3,5.5,2.5c3.6-0.8,5.1-3.4,7-4c1.9-0.6,6.2-1.7,6.3-4.9c0-2.4-0.3-4.7-0.9-7L138.3,150.5z"/>
		<path class="st21" d="M154.1,174.7c-0.2,0.2-0.4,0.5-0.5,0.8c-0.1,0.3-0.1,0.6-0.1,0.9c0,0.6,0.3,1.2,1.8,1.8
			c1.7,0.8,3.7,0.9,5.5,0.3c2.3-0.7,4.3-2.1,5.8-4c1-1.5,0.9-2.4,1.5-2.8s1.9-0.8,2-2.3c0.1-1.5-0.1-1.7-0.2-1.9
			c-0.2-0.5-1-0.3-1.6-0.2C167.6,167.4,154.1,174.7,154.1,174.7z"/>
		<path class="st22" d="M162.6,161.7c-1.4,1.4-1.7,0.1-2.2,2.1c-1.2,4.6-5.4,6.7-6.2,9.2c-0.3,0.8-0.4,1.6-0.3,2.5
			c0,0.3,0.1,0.5,0.2,0.7c0.1,0.2,0.3,0.4,0.6,0.5c1.7,0.9,3.5,1.2,5.4,1c1.2-0.5,2.4-1.1,3.5-1.8c1.7-1,3-2.5,3.8-4.3
			c0.3-0.8,0.4-0.9,0.8-1.1c0.8-0.6,1.9-0.8,1.8-2.6c-0.1-2.2-0.3-6.5-0.7-7.6c-0.3-0.8-3-1.1-3-1.1L162.6,161.7z"/>
		<path class="st23" d="M148.7,92.9c0,0-0.1,4.8-0.4,10.4c-0.2,6.2-0.6,13.6-0.9,16.9c-0.1,0.5-0.1,0.9-0.2,1.2
			c-0.6,3.3-1.1,5.1-3.1,6.3c-0.4,0.3-0.8,0.5-1.3,0.7c-3,1.3-7.1-1.3-7.7-2.8c-0.6-1.5-1.2-17.6-1.6-27.1s-0.4-7,0.3-15.1
			L148.7,92.9z"/>
		<path class="st23" d="M146.3,150.4c-0.1,0.7-0.4,1.3-0.8,1.8c-0.5,0.5-1.1,0.8-1.8,1c-2.4,0.7-5.7,0-5.9-0.9
			c-0.4-1.5-0.4-19.2-2.6-26.6c0,0,5.5-4.5,9.1-5.9c1.5-0.6,2.7-0.7,3,0.3v0.1C148.6,124,148.1,141.7,146.3,150.4z"/>
		<g>
			<path class="st24" d="M147.4,120.3c1.2,3.7,0.7,21.5-1.1,30.2c-0.1,0.7-0.4,1.3-0.8,1.8c-0.5,0.5-1.1,0.8-1.8,1
				c0.3-4.9,0.7-9.9,1-13.3c0.4-5.3,0.2-10.7-0.4-16c-0.3-5.6,0.2-17.4-2.9-19.8l6.9-0.8C148.1,109.6,147.8,117,147.4,120.3z"/>
		</g>
		<path class="st25" d="M164.8,107.7c-0.2,6.2-0.5,17.2-0.9,22.1c0,0.6-0.1,1.2-0.3,1.9c-0.4,1.5-1,2.9-1.8,4.1
			c-0.5,0.9-1.2,1.8-2.1,2.4c-1.1,0.6-4.9,1.1-6-1c-0.3-0.6-0.5-1.3-0.6-2c-1.6-6.2-5.1-24.1-6.2-26.2c-1.2-2.5-4.4-2.7-5.3-4.3
			c-0.9-1.6-1.4-7.4-1.3-12.2c0,0,15.6-10,18.2-8.3c0.9,0.6,1.9,2.5,2.8,5.2C163.3,94.7,165,102.8,164.8,107.7z"/>
		<path class="st25" d="M169.1,160.9c0,0,0,1.7-2.7,2.7c-0.4,0.2-0.8,0.3-1.2,0.4c-3.8,1.1-5.1-0.8-5.1-0.8l-1.4-9.8
			c-1.4-9.8-3.8-12.7-5.2-16.8c-0.2-0.5-0.3-1-0.4-1.5c-0.4-2-0.3-4,0.4-5.9l7.5-3.9l0.4-0.2c0,0,1,1.8,2.4,4.6
			c1.6,3.2,3,6.6,4.1,10C170.7,147.9,169.1,160.9,169.1,160.9z"/>
		<g>
			<path class="st24" d="M169.1,160.9c0,0,0,1.7-2.7,2.7c-0.4,0.2-0.8,0.3-1.2,0.4c1.8-25.2-1.6-26.5-3.4-28.3
				c-0.7-0.7-1.1-1.4-1-3.6c0.1-1.7,0.2-4.1,0.2-6.8c0.1-4.6,0.1-10.3-0.3-15.8c-0.5-7-1.6-13.9-3.7-18.2c1.4-0.8,2.9-1.4,4.4-2
				c1.9,5.4,3.6,13.6,3.4,18.4c-0.2,6.2-0.5,17.2-0.9,22.1c1.6,3.2,3,6.6,4.1,10C170.7,147.9,169.1,160.9,169.1,160.9z"/>
		</g>
		<path class="st26" d="M146.5,43.5c3.9,1.2,7.7,2.7,11.4,4.5c0,0,5.9,8,4.9,13.6c-1,5.6-4.2,18.2-3.9,24c-0.7,6.7-5.1,7.8-12.2,7.8
			c-4.5,0-12.9-1.9-13.2-6.1s-0.9-13.7-2.1-20.7c-1.2-7.1-1.5-15.3,0.5-19.7c2-4.4,5.8-4.1,11.5-4.3
			C144.4,42.8,145.5,43.1,146.5,43.5z"/>
		<path class="st14" d="M139.4,66c0,0-3.2-7.8-2.6-14.9c0.7-7.1,5.1-7.8,5.1-7.8s-4.1-0.6-5.6-0.2c-1.6,0.3-4.8,4.8-4.7,14.6
			c0.2,9.8,0,10.2,0.3,13c0.3,2.8,1.1,12,1.3,14c0.2,3.1,4.6,5.2,5.7,5.6c1.1,0.4,2.2-0.9,2.2-0.9L139.4,66z"/>
		<path class="st14" d="M150.2,45.1c2.3,4.7-5.4,16.9-10.7,20.9c0.3,7.9,0.4,22.4,0.4,24.3c0,1.9,18.7,1.6,19.4-3.9
			c0.8-5.5,3.6-23.2,3.6-23.2l-0.9,0.5c0,0-0.2,7.4-5,7.9c-4.8,0.5-5.7-10.7-4.5-15.5c1.3-4.8,2.2-8,4.3-8.4
			c-2.4-1.2-4.8-2.3-7.3-3.2L150.2,45.1z"/>
		<path class="st19" d="M132.1,70.3l0.4,3.8c6.9,6.8,21.6,5.1,26.5,3.3l0.4-3.7C154.4,75.6,139.2,77.4,132.1,70.3z"/>
		<path class="st19" d="M133.1,80.5l0.4,3.8c6.9,6.8,20.9,3.9,25.4,1.6l0.4-3.1C154.4,85.2,139.4,88,133.1,80.5z"/>
		<g>
			<path class="st27" d="M162.5,63.4l0.4-0.2c0,0-2.8,17.6-3.6,23.2c-0.1,0.7-0.4,1.3-0.9,1.7c-0.2,0.7-0.6,1.3-1,1.9l-1.8-0.2
				c0,0,0-0.1,0-0.1c0.2-1.1,2-10.8,2.1-15.6c0-0.9,0-1.8-0.2-2.7c-0.5-2.9-1.4-5.8-2.7-8.4c0,0,4.7-4,8.1-3.2c0,0.6,0,1.2-0.1,1.8
				C162.7,62.2,162.6,62.8,162.5,63.4z"/>
		</g>
		<path class="st15" d="M137.1,42.4c2.3,1.5,0.8,6.3,1,7.5c0.3,1.8,3.8,1.7,5,1.4c3.3-0.7,6.7-4.3,6.3-6.1c-0.2-1-2-4.3-1.2-8.7
			c0.8-4.4,1.8-7.9-0.2-8C145.8,28.4,137.1,42.4,137.1,42.4z"/>
		<g>
			<path class="st27" d="M138.3,45.6c0,1.7,1,3,3.6,1.9c2.6-1.1,4.4-5.8,3.1-8.1S138.3,45.6,138.3,45.6z"/>
		</g>
		<path class="st19" d="M149,44.1c0.1,0.9-2.5,7.3-9.5,6.2c-0.1,0.2-0.1,0.3-0.1,0.5c0,0.2,0.1,0.3,0.2,0.4l1.4,2.7
			c2.1,0,4.1-0.6,5.9-1.8c3.2-2.1,4.2-4.6,3.3-6.8c-0.7-1.2-1.3-2.2-1.7-2.3L149,44.1z"/>
		<path class="st19" d="M140,50.7l-0.5-0.4c0,0-1.5-0.8-1.4-1.8l0.1-1c-0.3,0.4-0.6,0.8-0.8,1.2c-0.2,0.4-1.5,2.7,0.7,4.6
			C138.7,52.5,140,50.7,140,50.7z"/>
		<path class="st15" d="M146.1,32.8c0,0,0.2,8.9-0.9,10c-1.1,1.2-5.7,3.5-7.2,3.6c-0.6,0.1-1.3,0-1.9-0.2c-0.6-0.2-1.1-0.6-1.6-1
			c-1.5-4.1-2.3-8.3-2.4-12.7c0.1-5.2,0.3-6.7,2.9-8.1c2.6-1.4,7.5-1.6,9.4,0C146.4,25.9,146.1,32.8,146.1,32.8z"/>
		<path class="st28" d="M135.8,27.9c1.9,0.4,3.9,0.5,5.9,0.2v3.5c0,0,2.4,1.7,2.4,2.9s0.2,1.4,0.2,1.4l1.8-0.3c0,0-0.1-3,1.3-2.9
			c1.1,0.1,0.3,3,0.3,3l0.3,3.3c1.2-1.6,2.2-3.3,2.9-5.1c1.1-3,1.9-12.3-3.6-12.9c-3.7-3.1-12.6-3-14.5-0.2
			c-2.5,3.5,0.2,5.7,0.2,5.7C133.8,27.2,134.8,27.7,135.8,27.9z"/>
		<path class="st29" d="M144.3,30.9c2.1,4.4,0.1,12.9-1.7,13.8c2-1.1,2-1.3,2-1.3s3.2-3.9,1.2-12.5
			C143.9,22.8,144.3,30.9,144.3,30.9z"/>
		<path class="st29" d="M145.9,39.3c1.2-0.7,3.8-6.6,3.4-9.6l1.1-0.5c0,0-0.3,8.9-5.1,11.3C145.4,40.1,145.6,39.7,145.9,39.3z"/>
		<path class="st14" d="M141,15.1c-1.4,0-2.7,0.3-4,0.9c-1.3,0.6-2.4,1.4-3.4,2.4c-1,1-1.7,2.2-2.2,3.5c-0.5,1.3-0.7,2.7-0.7,4.1
			c0,2.9,5,5.5,11.2,6s11.2-1.4,11.2-4.3C153.1,16.7,146.5,15,141,15.1z"/>
		<path class="st30" d="M153.1,27.6c0-4-0.9-6.8-2.3-8.7c0,7.6-18,8.8-19.7,4.1c-0.2,0.9-0.3,1.9-0.3,2.8c0,2.9,5,5.5,11.2,6
			S153.1,30.4,153.1,27.6z"/>
		<path class="st14" d="M141.9,31.5c-6.2-0.5-11.2-3.2-11.2-6c0,0.1,0-0.2,0,0c-1.7,1.3-2.4,2.9-1.9,4.4c1,2.8,6.2,4.3,11.7,3.3
			c1.3-0.2,2.6-0.6,3.9-1.2C143.6,31.7,142.8,31.5,141.9,31.5z"/>
		<g>
			<path class="st27" d="M173.9,73.6c-1-0.2-2-0.7-2.8-1.4c-0.9,1.2-6.9,12.8-7.2,13C167.3,83.1,171.9,75.5,173.9,73.6z"/>
		</g>
		<path class="st31" d="M140.8,16.8c0.2,0.6-0.7,1.4-2,1.8s-2.5,0.2-2.7-0.4c-0.2-0.6,0.7-1.4,2-1.8C139.4,16,140.6,16.2,140.8,16.8
			z"/>
		<path class="st15" d="M146.8,34.8c-0.2-1.6,0.9-2.6,2.1-2.1c1.2,0.6,0.6,2.4-0.2,4c-0.8,1.6-1.2,2.1-1.9,1.9c-0.7-0.2,0-2.4,0-2.4
			L146.8,34.8z"/>
		<path class="st15" d="M157.7,61.2c3.2,3.9,12,9.7,13.7,11.2s10.4,2.6,10-0.8c-0.4-3.4-8.3-11.4-12.5-14s-7.3-1.8-7.3-1.8
			L157.7,61.2z"/>
		<path class="st15" d="M174.6,70.3c-1.8,0.6-2.6,0.7-3.5,1.9c-0.9,1.2-6.9,12.8-7.2,13c-0.3,0.2-3.2-1.4-3.2-1.4l-2.8-2.3
			c0,0-0.6,0.8-0.6,1.1c0.2,0.7,0.4,1.3,0.7,1.9l-8.3,3c0,0-0.6,0.9,0,1.3c-1.3,0.7-1.3,1.2-1.1,1.7c0.1,0.1,0.2,0.2,0.3,0.3
			c0.1,0.1,0.3,0.1,0.4,0.1c0,0-0.1,1.5,0.5,1.4c0.6-0.1,5.1-0.7,5.1-0.7l-3.2,1.1c0,0,0.1,1.2,1.2,1.1c1.6-0.3,3.2-0.6,4.8-1
			c1.9-0.2,3.8-0.6,5.7-1c1.7-0.6,3.3-1.6,4.7-2.8c0,0,13.4-11.9,13.2-17.4C179.8,68.3,174.6,70.3,174.6,70.3z"/>
		<path class="st19" d="M155.8,47.9c-2.1,1.8-2.7,4.6-3,8.5s1.2,6.2,2,6.7c2.5,1.6,7.1,3.6,7.7,3.6c0.7,0,7-8.3,7-9.3
			c0-1-9.5-7.9-11.2-9C156.7,47.3,155.8,47.9,155.8,47.9z"/>
	</g>
</g>
</svg>
