<svg width="379" height="317" viewBox="0 0 379 317" fill="none" xmlns="http://www.w3.org/2000/svg">
<g clip-path="url(#clip0_26_1013)">
<path d="M324.65 206.45C345.53 218.5 345.65 238.04 324.89 250.1L227.53 306.68C206.79 318.73 173.06 318.73 152.19 306.68L54.1902 250.1C33.3102 238.04 33.1902 218.51 53.9402 206.45L151.3 149.87C172.04 137.82 205.78 137.82 226.65 149.87L324.65 206.45Z" stroke="#222222" stroke-miterlimit="10"/>
<path d="M359.37 171.49L237.24 242.49C211.24 257.61 168.9 257.61 142.71 242.49L19.77 171.49C6.59 163.88 0 153.89 0 143.92V158.05C0 168.05 6.55 178.05 19.73 185.61L142.67 256.61C168.86 271.73 211.18 271.73 237.2 256.61L359.33 185.61C372.26 178.1 378.73 168.27 378.76 158.43V144.3C378.77 154.15 372.3 164 359.37 171.49Z" fill="#111111"/>
<path d="M359.06 116.73C385.25 131.85 385.39 156.37 359.37 171.49L237.24 242.49C211.24 257.61 168.9 257.61 142.71 242.49L19.7701 171.49C-6.4199 156.37 -6.5499 131.86 19.4701 116.74L141.6 45.74C167.6 30.62 209.94 30.62 236.13 45.74L359.06 116.73Z" fill="#222222"/>
<path d="M264.14 213.23C263.62 217.283 261.17 221.09 256.79 224.65L258.99 207.45C263.37 203.89 265.82 200.083 266.34 196.03L264.14 213.23Z" fill="#D55501"/>
<path d="M258.99 207.45L256.79 224.65L245.35 218.83L247.56 201.63L258.99 207.45Z" fill="#D45501"/>
<path d="M253.3 191C253.375 191.621 253.375 192.249 253.3 192.87C252.94 195.67 251.077 198.543 247.71 201.49C246.465 200.132 245.095 198.894 243.62 197.79C238.382 193.788 232.341 190.963 225.91 189.51C219.558 188.044 212.986 187.793 206.54 188.77C200.519 189.633 194.627 191.239 189 193.55C183.053 196.037 178.417 198.75 175.09 201.69C173.957 200.148 173.098 198.423 172.55 196.59C172.175 195.316 172.062 193.979 172.22 192.66C172.669 190.012 173.98 187.586 175.95 185.76C179.323 182.34 184.407 179.203 191.2 176.35C196.824 174.053 202.708 172.451 208.72 171.58C215.166 170.601 221.739 170.856 228.09 172.33C234.522 173.773 240.564 176.595 245.8 180.6C250.413 184.113 252.913 187.58 253.3 191Z" fill="#D55501"/>
<path d="M247.14 87.7501C247.555 85.1594 247.019 82.5059 245.63 80.2801C244.893 79.1417 243.908 78.1845 242.75 77.4801C241.628 76.7929 240.402 76.293 239.12 76.0001C236.16 75.2801 230.953 75.0167 223.5 75.2101L202.76 75.7501L201.05 89.1401L199.43 101.73L221.87 101.15C227.95 100.99 232.356 100.543 235.09 99.8101C241.56 98.07 246.29 94.3501 247.14 87.7501ZM246.63 125.35C247.111 122.448 246.428 119.473 244.73 117.07C244.064 116.156 243.261 115.35 242.35 114.68C240.777 113.555 239.001 112.747 237.12 112.3C233.726 111.44 228.726 111.107 222.12 111.3L198.12 111.93L195.94 128.93L194.33 141.52C220.64 140.83 225.93 140.83 229.55 140.19C232.404 139.744 235.176 138.881 237.78 137.63C240.077 136.458 242.077 134.779 243.63 132.72C245.279 130.581 246.316 128.033 246.63 125.35ZM260.85 124.98C260.313 129.072 258.759 132.964 256.33 136.3C254.055 139.604 251.115 142.397 247.7 144.5C239.49 149.43 228.45 150.67 218.88 150.92L179.32 151.92L190.32 65.9201L229.24 64.9201C237.173 64.7201 243.42 65.4234 247.98 67.0301C252.171 68.3666 255.778 71.0981 258.2 74.7701C259.042 76.0655 259.714 77.4636 260.2 78.9301C262.2 84.9801 260.39 91.2401 255.91 96.5001C255.073 97.4746 254.161 98.3808 253.18 99.2101C250.425 101.486 247.331 103.319 244.01 104.64C250.076 105.973 254.566 108.447 257.48 112.06C258.721 113.578 259.667 115.315 260.27 117.18V117.23C261.032 119.746 261.23 122.399 260.85 125V124.98Z" fill="#575757"/>
<path d="M256.39 105C257.684 109.053 258.97 113.11 260.25 117.17C259.647 115.304 258.701 113.568 257.46 112.05C254.56 108.457 250.07 105.983 243.99 104.63C247.311 103.308 250.405 101.476 253.16 99.2C254.586 100.823 255.662 102.722 256.32 104.78C256.34 104.89 256.37 105 256.39 105Z" fill="#414142"/>
<path d="M172.23 192.66C172.072 193.979 172.185 195.316 172.56 196.59C173.108 198.423 173.967 200.148 175.1 201.69C176.629 203.746 178.451 205.565 180.51 207.09C185.844 211.076 192.053 213.73 198.62 214.83C206.058 216.091 213.676 215.809 221 214L227.45 222.07C217.511 224.237 207.239 224.39 197.24 222.52C188.144 220.844 179.562 217.079 172.17 211.52C164.737 205.86 160.447 200.527 159.3 195.52C158.921 193.912 158.833 192.249 159.04 190.61C159.647 186.967 161.382 183.605 164 181C168.233 176.333 174.167 172.417 181.8 169.25C198.185 162.299 216.472 161.239 233.55 166.25C241.303 168.516 248.586 172.157 255.05 177C261.95 182.253 265.714 187.523 266.34 192.81C266.48 193.892 266.48 194.988 266.34 196.07C265.82 200.13 263.37 203.937 258.99 207.49L247.56 201.67L247.7 201.54C251.074 198.593 252.937 195.72 253.29 192.92C253.365 192.299 253.365 191.671 253.29 191.05C252.91 187.623 250.414 184.153 245.8 180.64C240.564 176.635 234.522 173.813 228.09 172.37C221.739 170.896 215.166 170.641 208.72 171.62C202.708 172.491 196.824 174.093 191.2 176.39C184.4 179.217 179.333 182.34 176 185.76C174.015 187.58 172.689 190.006 172.23 192.66Z" fill="#FF6601"/>
<path d="M256.27 66.6C257.603 70.72 258.91 74.84 260.19 78.96C259.704 77.4935 259.032 76.0954 258.19 74.8C255.775 71.1335 252.18 68.4026 248 67.06C243.427 65.4533 237.18 64.75 229.26 64.95L190.34 65.95L186.34 53.51L225.26 52.51C233.187 52.2967 239.433 53 244 54.62C248.196 55.947 251.805 58.6808 254.22 62.36C255.084 63.6785 255.773 65.1038 256.27 66.6Z" fill="#9B9B9B"/>
<path d="M246.63 125.35C246.304 128.009 245.268 130.531 243.63 132.65C242.078 134.709 240.077 136.388 237.78 137.56C235.177 138.811 232.404 139.674 229.55 140.12C225.93 140.76 220.64 140.76 194.33 141.45L196 128.86C216.58 128.33 222.13 128.3 225.67 127.68C228.519 127.227 231.288 126.365 233.89 125.12C236.185 123.944 238.184 122.266 239.74 120.21C241.003 118.574 241.906 116.689 242.39 114.68C243.302 115.35 244.104 116.156 244.77 117.07C246.454 119.478 247.122 122.453 246.63 125.35Z" fill="#9B9B9B"/>
<path d="M245.63 80.28C247.019 82.5058 247.556 85.1593 247.14 87.75C246.29 94.35 241.56 98.07 235.14 99.82C232.413 100.547 228.007 100.993 221.92 101.16L199.48 101.74L201.1 89.15L217.97 88.71C224.05 88.55 228.457 88.1033 231.19 87.37C236.67 85.9 241.19 82.91 242.8 77.48C243.941 78.1904 244.907 79.1471 245.63 80.28Z" fill="#9B9B9B"/>
<path d="M156.88 207.73L159.08 190.53C158.873 192.169 158.961 193.832 159.34 195.44C160.48 200.447 164.77 205.78 172.21 211.44C179.602 216.999 188.184 220.764 197.28 222.44C207.279 224.31 217.551 224.157 227.49 221.99L225.29 239.18C215.352 241.35 205.08 241.506 195.08 239.64C185.986 237.96 177.404 234.195 170.01 228.64C162.57 222.98 158.28 217.647 157.14 212.64C156.76 211.032 156.672 209.369 156.88 207.73Z" fill="#FF6601"/>
<path d="M183.56 75.6L186.38 53.53L190.33 65.97L179.32 151.96L175.38 139.51L177.88 119.99L183.56 75.6Z" fill="#C1C1C1"/>
<path d="M183.56 75.6L177.88 119.99L173.87 121.67L156.66 14.18L172.65 7.48999L183.56 75.6Z" fill="#D55501"/>
<path d="M154.12 48.9999C153.66 45.7699 153.25 42.8199 152.87 40.1199C151.65 31.2899 150.87 24.9699 150.37 19.3199C148.851 24.0187 146.902 28.5679 144.55 32.9099C140.99 39.4499 137.39 45.9333 133.75 52.3599L157.13 70.1699C156 61.8999 155 54.9999 154.12 48.9999ZM156.66 14.1899L173.87 121.68L163.47 113.76L158.77 81.5899L138.72 66.3099L129.93 59.6099L119 79.8899L109.31 72.5099L146.82 6.68994L156.66 14.1899Z" fill="#FF6601"/>
<path d="M172.65 7.49L156.66 14.18L146.82 6.69L162.82 0L172.65 7.49Z" fill="#D45501"/>
<path d="M157.13 70.16L133.75 52.35L149.75 45.66L154.12 49C155 55 156 61.9 157.13 70.16Z" fill="#D45501"/>
<path d="M150.37 19.3101C150.87 24.9601 151.65 31.3101 152.87 40.1101C151.83 41.9634 150.787 43.8134 149.74 45.6601L133.74 52.3501C137.38 45.9301 140.98 39.4467 144.54 32.9001C146.896 28.5584 148.848 24.0092 150.37 19.3101Z" fill="#D55501"/>
<path d="M138.72 66.31L135.02 73.2L119.02 79.89L129.93 59.61L138.72 66.31Z" fill="#D55501"/>
<g style="mix-blend-mode:multiply">
<path d="M197 222.38C207.087 224.295 217.453 224.194 227.5 222.08L226.26 231.79C226.905 232.044 227.576 232.228 228.26 232.34C229.19 232.335 230.105 232.577 230.91 233.043C231.715 233.509 232.381 234.181 232.84 234.99C234.1 236.89 235.55 238.65 237.03 240.61C222.83 244.2 208.98 241.61 194.85 239.61C195.31 233.87 196.15 228.39 197 222.38Z" fill="#B4A8C3"/>
<path d="M256.79 224.65L258.99 207.45C262.794 204.695 265.419 200.606 266.34 196C266.93 196.34 267.04 197.52 267.46 197.88C269.929 199.916 272.053 202.337 273.75 205.05C276.82 210.3 277.07 216.32 272.75 221.68C272.31 222.23 271.82 222.75 271.36 223.29C269.73 225.29 267.9 226.29 265.14 225.59C262.38 225.098 259.591 224.784 256.79 224.65Z" fill="#B4A8C3"/>
</g>
</g>
<defs>
<clipPath id="clip0_26_1013">
<rect width="378.8" height="316.22" fill="white"/>
</clipPath>
</defs>
</svg>
