<?xml version="1.0" encoding="utf-8"?>
<!-- Generator: Adobe Illustrator 25.0.0, SVG Export Plug-In . SVG Version: 6.00 Build 0)  -->
<svg version="1.1" id="Layer_1" xmlns="http://www.w3.org/2000/svg" xmlns:xlink="http://www.w3.org/1999/xlink" x="0px" y="0px"
	 viewBox="0 0 379 353" style="enable-background:new 0 0 379 353;" xml:space="preserve">
<style type="text/css">
	.st0{clip-path:url(#SVGID_2_);}
	.st1{fill:none;stroke:#222222;stroke-miterlimit:10;}
	.st2{fill:#111111;}
	.st3{fill:#222222;}
	.st4{opacity:0.1;fill:#B9B0C0;enable-background:new    ;}
	.st5{fill:#F8F7FB;}
	.st6{fill:#33374A;}
	.st7{fill:#FF9C78;}
	.st8{fill:#FF6601;}
	.st9{fill:#363B4D;}
	.st10{fill:#3B4157;}
	.st11{fill:#553012;}
	.st12{fill:#969AB1;}
	.st13{fill:#FFB322;}
	.st14{fill:#FFFF54;}
	.st15{fill:#E2E1E2;}
	.st16{fill:#B8BCD1;}
	.st17{fill:#B0B3C4;}
	.st18{fill:#B1B4C5;}
	.st19{fill:#FFE6CF;}
	.st20{fill:#FFFF7F;}
	.st21{fill:#FFFF9B;}
	.st22{fill:#F5F6F6;}
	.st23{fill:#FFFFFF;}
</style>
<g>
	<defs>
		<rect id="SVGID_1_" width="378.8" height="353"/>
	</defs>
	<clipPath id="SVGID_2_">
		<use xlink:href="#SVGID_1_"  style="overflow:visible;"/>
	</clipPath>
	<g class="st0">
		<path class="st1" d="M324.6,243.2c20.9,12.1,21,31.6,0.2,43.6l-97.4,56.6c-20.7,12.1-54.5,12.1-75.3,0l-98-56.6
			c-20.9-12.1-21-31.6-0.2-43.6l97.4-56.6c20.7-12,54.5-12,75.3,0L324.6,243.2z"/>
		<path class="st2" d="M359.4,208.2l-122.1,71c-26,15.1-68.3,15.1-94.5,0l-122.9-71C6.6,200.6,0,190.7,0,180.7v14.1
			c0,10,6.6,20,19.7,27.6l122.9,71c26.2,15.1,68.5,15.1,94.5,0l122.1-71c12.9-7.5,19.4-17.3,19.4-27.2v-14.1
			C378.8,190.9,372.3,200.7,359.4,208.2z"/>
		<path class="st3" d="M359.1,153.5c26.2,15.1,26.3,39.6,0.3,54.8l-122.1,71c-26,15.1-68.3,15.1-94.5,0l-122.9-71
			c-26.2-15.1-26.3-39.6-0.3-54.8l122.1-71c26-15.1,68.3-15.1,94.5,0L359.1,153.5z"/>
		<path class="st4" d="M209.1,222c-1.5,5.6-12.2,7.6-23.9,4.5c-11.7-3.1-19.9-10.2-18.4-15.8c1.5-5.6,12.2-7.6,23.9-4.5
			C202.4,209.3,210.6,216.4,209.1,222z"/>
		<path class="st5" d="M164,208.5c-0.6,0.2-0.6,0.5-0.6,1.3c0,0.9,0.2,2,2.5,2.9c1.1,0.4,2.3,0.5,3.5,0.4c1.2-0.1,2.3-0.5,3.3-1.1
			c1.9-1.1,2.1-2,4.5-3.3c2.5-1.3,2.3-0.2,4.1-0.9c1.8-0.8,3.4-1.6,3.6-2.8c0.1-0.8,0.1-1.7,0-2.5c0.1-0.3-1.5-0.6-1.5-0.6
			L164,208.5z"/>
		<path class="st6" d="M175.9,197.8c-1,2.2-8.4,6.5-10.3,7.7c-0.7,0.3-1.2,0.9-1.5,1.6c-0.3,0.7-0.4,1.4-0.3,2.1
			c0,1,2.1,3.7,6.1,2.8c4-0.9,5.7-3.8,7.8-4.5c2.1-0.6,7-1.9,7-5.4c0-2.7-0.4-5.3-1-7.9L175.9,197.8z"/>
		<path class="st5" d="M193.5,224.9c-0.2,0.3-0.4,0.6-0.5,0.9c-0.1,0.3-0.1,0.7-0.1,1c0,0.7,0.3,1.3,2,2c1.9,0.9,4.1,1,6.1,0.3
			c2.9-1.1,5.4-2.8,6.5-4.5s0.9-2.7,1.6-3.1c0.7-0.5,2.1-0.9,2.2-2.6c0.1-1.7-0.1-1.9-0.2-2.2c-0.2-0.6-1.1-0.4-1.8-0.2
			C208.6,216.7,193.5,224.9,193.5,224.9z"/>
		<path class="st6" d="M203,210.4c-1.6,1.6-1.9,0.1-2.5,2.3c-1.3,5.1-6.1,7.5-7,10.2c-0.4,0.9-0.5,1.8-0.3,2.8
			c0,0.3,0.1,0.6,0.3,0.8c0.2,0.2,0.4,0.4,0.6,0.5c3.6,1.6,6.1,1.1,6.1,1.1c1.4-0.5,2.7-1.2,3.9-2c1.9-1.1,3.3-2.8,4.2-4.8
			c0.3-0.9,0.4-1,0.9-1.2c0.9-0.6,2.1-0.9,2-3c-0.1-2.4-0.3-7.3-0.8-8.6c-0.3-0.8-3.4-1.2-3.4-1.2L203,210.4z"/>
		<path class="st7" d="M163.6,77.2c-6.4-0.7-12.7-2.5-15.4-2.3c-2.7,0.2-9.6,4.2-5.7,6.6c3.9,2.4,20.5,7.1,22.2,7
			S163.6,77.2,163.6,77.2z"/>
		<path class="st8" d="M176.2,77.1c-8-0.9-12.5-0.6-13.1-0.2c-0.6,0.4-1.6,9.8-0.2,11.8c1.4,2,5.5,1,7.1,3
			C171.6,93.7,176.2,77.1,176.2,77.1z"/>
		<path class="st9" d="M170.9,122.9c-0.8,9-0.8,6.2-0.3,16.8s1.2,34,1.8,35.6c0.6,1.6,5.2,4.6,8.6,3.1s4-3.4,4.8-7.8
			c0.8-4.4,1.6-37.3,1.6-37.3L170.9,122.9z"/>
		<path class="st9" d="M172.4,175.4c2.4,8.3,2.4,22.8,2.9,24.5s9.3,2.6,9.6-2.1c2-9.8,2.6-24.8,1.2-28.6
			C184.6,165.4,172.4,175.4,172.4,175.4z"/>
		<path class="st10" d="M178.1,132.8c-0.1,5.4,0.4,11.9,1.4,13.7s4.6,2,6,4.8c1.4,2.8,6.3,29.1,7.6,31.5s5.4,1.9,6.7,1.2
			c1.3-0.7,3.7-4.2,4.4-7.3c0.7-3.1,1.1-18.6,1.3-26.7c0.3-8.1-4.1-24.5-7-26.4C195.6,121.6,178.1,132.8,178.1,132.8z"/>
		<path class="st10" d="M192.9,173.9c-1,2.7-1,5.7,0,8.4c1.6,4.6,4.3,7.8,5.8,18.8l1.5,11c0,0,1.8,2.5,7.1,0.5c2.9-1.1,3-3.1,3-3.1
			s1.8-14.6-1.2-23.6c-1.9-5.7-4.4-11.2-7.4-16.4L192.9,173.9z"/>
		<path class="st8" d="M188.8,78.4c7.9,2,11.7,4.2,12.8,4.9s2,10.2-0.1,22s-1.7,19-1.6,20.8c0.3,3.1-5.7,7.7-13.4,7.7
			c-7.6,0-15.1-2.8-15.7-6c-0.6-3.2,0.4-18.9-1.8-33.9c-1.1-7.3,1.5-16.6,6.5-16.9c3.2-0.2,6.4,0.3,9.5,1.4L188.8,78.4z"/>
		<path class="st7" d="M175.5,74.6c1.9,1.5,2.6,6.9,2.7,9.1c0.1,2.2,5,3.8,8.1,2.2c3.1-1.6,4.2-3.3,4.5-5.9c0.1-0.6-1.4-5.4,0.2-8.9
			c1.6-3.4,1-6.2-1.6-7.7S175.5,74.6,175.5,74.6z"/>
		<path class="st7" d="M189.5,65.8c0,0-2.9,7.9-3.7,9.1c-0.8,1.1-6,2.2-8.2,2.2s-3.7-0.5-4.2-1.3c-0.5-0.8,0-11.7,0.9-15.5
			c0.9-3.8,2.6-6.1,4.4-6.4c1.8-0.3,7.4-1.3,9.9,1.1S189.5,65.8,189.5,65.8z"/>
		<path class="st11" d="M179.1,55.9c2.4,0.8,4.8,1.3,7.3,1.7c-0.3,1.5-0.6,3.1-0.7,4.6c0.1,0.5,1.8,1.7,1.9,2.7c0.1,1,0,2.4,0,2.4
			l0.8,0.5c0,0,1.5-2.2,2.6-2.2c1.1,0.1,0.8,2.4,0,3.9c-0.5,1.3-0.7,2.8-0.7,4.2c0,0,2.7-3.8,4.6-6.4c1.8-2.6,2.7-12.1-1.7-12.9
			c-4-4.6-11.8-5.1-15.1-2.8s-1.8,4.1-1.8,4.1L179.1,55.9z"/>
		<path class="st7" d="M190,67.1c0.7-1.4,1.3-1.7,2.4-1c1.1,0.7,0.8,2.4,0,3.3s-2.9,3.4-3.7,2.6C187.9,71.2,190,67.1,190,67.1z"/>
		<path class="st7" d="M145.5,80.2c3.8-1.4,4.8-3.9,4-5.3c-0.8-1.4-6-12.7-7.2-15.7c-0.7-1.9-0.8-3.9-0.4-5.8
			c0.3-2.4,0.3-4.9,0.1-7.3c-0.4-4.4-0.6-8.6-1.5-9.6c-1-1-1.5,0.9-1.4,1.4c0.1,0.5,0.8,6.6,0.8,6.6s-6.3,2.7-6.5,3.8
			c-0.2,1.9,0.1,3.8,0.9,5.4c0.5,0.7,0.8,1.4,0.9,2.2c0,0,2.1,13.5,3.9,18.9s2.8,6,2.8,6L145.5,80.2z"/>
		<path class="st7" d="M134,48.8c0.7,0.1,1.4,1.3,1.6,2c0.2,0.7,0.2,1.4,0.9,1.6c0.2,0.1,0.4,0.1,0.5,0c0.2-0.1,0.3-0.2,0.5-0.3
			c0,0,0.3,0.9,1.1,0.9c0.8,0,1-0.6,0.8-1.2c0.1,0,0.3,0,0.4,0c0.1,0,0.3-0.1,0.4-0.2c0.1-0.1,0.2-0.2,0.3-0.4
			c0.1-0.1,0.1-0.3,0.1-0.4c-0.1-1.8-0.2-3.6-0.6-5.3c-0.1-0.3-0.2-0.6-0.4-0.8c0,0-0.3-0.2-1.2,0c-0.9,0.2-1.1,0.2-1.3,0.8
			c-0.4,0-0.7,0.1-1,0.2c-0.3,0.1-0.6,0.4-0.9,0.6c-0.6,0-1.2,0.2-1.7,0.5c-0.5,0.5-0.3,2.2-0.3,2.2L134,48.8z"/>
		<path class="st7" d="M142.3,46.8c-1,0-1.6,0.3-1.9,0.1c-0.4-0.2-0.9-0.3-1.3-0.1c-0.1,0.1-0.2,0.2-0.2,0.4
			c-0.1,0.1-0.1,0.3-0.1,0.4c0,0.1,0.1,0.3,0.2,0.4c0.1,0.1,0.2,0.2,0.3,0.3c0.5,0.3,1,0.5,1.6,0.6c0,0,0.5,1.3,0.2,1.5
			c-0.7,0.2-1.5,0.4-2.1,0.7c-0.4,0.3-0.7,0.7-0.9,1.2c-0.2,0.5-0.2,1-0.1,1.5c0.3,0.3,0.8,0.6,1.2,0.7c0.5,0.1,0.9,0.2,1.4,0.1
			c0.8-0.2,3.4-2.9,3.4-4.4C144.1,48.8,142.3,46.8,142.3,46.8z"/>
		<path class="st7" d="M202.4,99.9c6.2,2.5,12.2,10.6,14.6,11.9s8.9-0.9,8.3-3.3s-9.5-12.8-13.7-15.5S202.4,99.9,202.4,99.9z"/>
		<path class="st8" d="M200.3,82.9c-2.2,0.7-3.7,8.3-3.7,12c0.1,3.7,3,6.2,4.3,6.3c1.6,0.2,3.1,0.5,4.6,0.9c0,0,8.1-3.9,7.2-8.8
			C211.2,90.5,203.8,83.8,200.3,82.9z"/>
		<path class="st7" d="M220.1,107.2c-4.8,1-4.6,1.6-5.1,3c-0.5,1.4-9.1,17-10.8,18c-1.7,1-4.9,4.9-4.9,4.9s-1.5,5.3-1.9,6.1
			c-0.4,0.8,0.7,1.4,0.7,1.4l-1.7,2.9l0.4,0.7c0,0-0.2,1,0.2,1.1c0.7,0,1.5,0,2.2,0c0,0,5.7-4,6.7-5.9s1.6-6.3,2.4-7.1
			s18.9-19,17.1-23.6C223.9,106.5,220.1,107.2,220.1,107.2z"/>
		<path class="st8" d="M177.1,10.9c-0.5-2.1-1.5-4.1-2.9-5.7c-1.4-1.7-3.2-3-5.2-3.8c-2-0.8-4.2-1.2-6.4-1c-2.2,0.2-4.3,0.8-6.1,2
			c-0.5,0.3-1.1,0.7-1.5,1c-0.3,0.2-0.6,0.5-0.9,0.8c-0.7,0.7-1.3,1.4-1.9,2.2c-0.5,0.8-1,1.6-1.3,2.4c-0.4,0.8-0.6,1.7-0.8,2.6
			c-0.4,1.9-0.4,3.9,0.1,5.8c0.4,1.9,1.2,3.7,2.4,5.2c0,0,0.1,0.1,0.1,0.1v0.1l0.1,0.2l0.3,0.4c0.3,0.4,0.6,0.9,0.9,1.3
			c0.1,0.1,0.2,0.3,0.2,0.4v0l0.2,0.3c0,0.1,0.1,0.2,0.1,0.2c0.4,0.9,0.7,1.9,0.7,2.9c0,0.8,0.2,1.5,0.4,2.2c-0.3,1.4,0.5,2.9,2.4,4
			c1.8,0.9,3.7,1.3,5.7,1.3c2,0,3.9-0.5,5.7-1.4c1.8-1.1,2.5-2.5,2.2-3.8c0.3-0.7,0.4-1.5,0.5-2.2c0-1.1,0.3-2.2,0.8-3.2v-0.1
			l0.2-0.4l0.1-0.2c0.2-0.4,0.5-0.7,0.7-1l0.1-0.1c0.1-0.1,0.2-0.3,0.3-0.4c0.1-0.2,0.3-0.4,0.4-0.5v-0.1c1.6-2.1,2.6-4.7,2.8-7.3
			C177.4,13.7,177.4,12.3,177.1,10.9z"/>
		<path class="st12" d="M163.5,45.4c-1.2,0-2.5-0.2-3.6-0.7c-0.7-0.3-1.4-0.7-2-1.2c-0.5-0.4-0.9-0.9-1.3-1.4
			c-0.4-0.5-0.7-1.1-0.9-1.8c-0.2-0.6-0.3-1.2-0.3-1.8v-3v-0.1c-0.2-0.4-0.3-0.8-0.3-1.2v-2.6h0.6c0.1,0.6,0.4,1.2,0.8,1.7
			c0.4,0.5,0.9,0.9,1.5,1.1c1.7,0.9,3.5,1.3,5.4,1.3c2,0,3.9-0.4,5.6-1.4c0.5-0.3,1-0.6,1.3-1.1c0.4-0.5,0.6-1,0.7-1.6h0.6v2.6
			c0,0.4-0.1,0.9-0.3,1.2v0.1v3c0,0.5-0.1,1-0.2,1.5c-0.1,0.6-0.4,1.1-0.6,1.6c-0.6,1-1.5,1.9-2.5,2.5c-0.6,0.4-1.2,0.6-1.9,0.8
			c-0.7,0.2-1.5,0.3-2.3,0.4C163.9,45.4,163.7,45.4,163.5,45.4z"/>
		<path class="st13" d="M163.6,36.3c-2,0-4-0.4-5.7-1.3c-1.9-1-2.9-2.6-2.6-4.1v-0.1v-0.1c-0.3-0.7-0.4-1.4-0.4-2.2
			c0-1-0.3-1.9-0.7-2.8c0-0.1-0.1-0.1-0.1-0.2c0-0.1-0.1-0.2-0.2-0.3l-0.3-0.5c-0.3-0.5-0.6-1-0.9-1.3l-0.5-0.6l-0.1-0.1
			c-1.2-1.6-2.1-3.4-2.5-5.4c-0.4-1.9-0.5-4-0.1-5.9c0.4-1.9,1.1-3.6,2.2-5.2c0.6-0.8,1.2-1.6,1.9-2.2c0.2-0.2,0.6-0.5,0.9-0.8
			c0.5-0.4,1.1-0.8,1.5-1.1c2.9-1.8,6.4-2.4,9.7-1.8c2.7,0.5,5.3,1.7,7.3,3.6c2,1.9,3.5,4.3,4.1,7c0.5,2,0.5,4.1,0.1,6.1
			c-0.4,2-1.2,3.9-2.4,5.6l-0.4,0.5l-0.5,0.8c-0.2,0.3-0.5,0.7-0.7,1l-0.2,0.4l-0.3,0.6c-0.4,0.9-0.7,1.8-0.7,2.8
			c0,0.7-0.2,1.5-0.4,2.2v0.1v0.1c0.2,1.5-0.6,3-2.3,4C167.7,35.8,165.6,36.3,163.6,36.3z"/>
		<path class="st14" d="M168.7,34c0.5-0.3,0.9-0.6,1.3-1c0.4-0.4,0.7-0.8,1-1.3c0.6-1,0.9-2.1,0.9-3.2c0,0.5-0.2,1-0.4,1.5
			c-0.5,0.8-1.1,1.4-1.9,1.8c-1.8,1-3.9,1.5-5.9,1.5c-2.1,0-4.1-0.4-6-1.4c-0.9-0.5-1.7-1.1-2.2-2c-0.3-0.4-0.4-0.9-0.4-1.5
			c0,1.1,0.3,2.2,0.9,3.2c0.6,1,1.4,1.8,2.3,2.4c0.1,0.1,0.3,0.2,0.4,0.2c1.5,0.8,3.2,1.1,4.9,1.1c1.7,0,3.4-0.4,4.9-1.2L168.7,34z"
			/>
		<path class="st8" d="M154.2,25L154.2,25c-0.1-0.2-0.2-0.3-0.2-0.5c-0.3-0.5-0.6-1-0.9-1.3l-0.3-0.4l-0.1-0.2v-0.1l-0.2-0.2
			l-0.1-0.1l-0.1-0.2c0.1,0.1,0.2,0.3,0.2,0.4c0.7,1,1.7,1.9,2.8,2.5c4.8,2.6,12.4,2.6,16.9-0.2c1.1-0.6,2-1.5,2.7-2.6l-0.3,0.4
			l-0.1,0.1c-0.1,0.2-0.2,0.4-0.4,0.5l-0.3,0.4l-0.1,0.1c-0.2,0.3-0.5,0.7-0.7,1l-0.1,0.2l-0.2,0.4v0.1c-0.5,1-0.8,2.1-0.9,3.2
			c0,0.5-0.2,1-0.4,1.5c-0.5,0.8-1.1,1.4-1.9,1.8c-1.8,1-3.9,1.5-5.9,1.5c-2.1,0-4.1-0.4-6-1.4c-0.9-0.5-1.7-1.1-2.2-2
			c-0.3-0.4-0.4-0.9-0.4-1.5c0-1-0.3-2-0.7-2.9c0-0.1-0.1-0.2-0.1-0.2L154.2,25z"/>
		<path class="st8" d="M174.5,22.7c1.7-2.2,2.8-4.8,3-7.6c0.2-2.8-0.4-5.5-1.8-7.9c-0.9-1.6-2.2-3-3.6-4.1c-1.5-1.1-3.1-1.9-4.9-2.4
			c-1.8-0.5-3.6-0.6-5.5-0.3c-1.8,0.3-3.6,0.9-5.2,1.8c1.8-1.1,4.4-1,7.2,0.6c-2.8-1.6-5.4-1.7-7.2-0.6c-0.5,0.3-1.1,0.7-1.5,1
			c-0.3,0.2-0.6,0.5-0.9,0.8c-0.7,0.7-1.3,1.4-1.9,2.2c-0.5,0.8-1,1.6-1.3,2.4c-0.4,0.8-0.6,1.7-0.8,2.6c-0.4,2-0.4,4,0.1,5.9
			c0.5,2,1.3,3.8,2.6,5.4c0.7,0.9,1.6,1.6,2.6,2.1c4.8,2.6,12.4,2.6,16.9-0.2C173.1,24.1,173.8,23.5,174.5,22.7z"/>
		<path class="st15" d="M163.6,27.1c3.3,0,7.4,1.4,7.4,3.9v7.8c0,0-14.9-0.9-14.9-4.7C156.1,30.2,156.6,27.1,163.6,27.1z"/>
		<path class="st16" d="M171.3,38.5v-4.8c-0.1,0.7-0.3,1.3-0.7,1.8c-0.4,0.5-0.9,1-1.5,1.3c-1.7,0.9-3.6,1.4-5.5,1.4
			c-1.9,0-3.8-0.4-5.5-1.3c-1.6-0.9-2.4-2-2.4-3.2v4.8c0,1.2,0.8,2.3,2.4,3.2c1.7,0.8,3.6,1.3,5.5,1.3c1.9,0,3.8-0.5,5.5-1.4
			c0.6-0.3,1.1-0.7,1.5-1.2C171,39.8,171.2,39.2,171.3,38.5z"/>
		<path class="st17" d="M158.1,40.2c1.7,0.8,3.6,1.3,5.5,1.2c1.9,0,3.8-0.5,5.5-1.4c0.6-0.3,1.1-0.7,1.5-1.2
			c0.4-0.5,0.6-1.1,0.7-1.8v0.7c-0.1,0.7-0.3,1.3-0.7,1.8c-0.4,0.5-0.9,1-1.5,1.3c-1.7,0.9-3.6,1.3-5.5,1.4c-1.9,0-3.8-0.4-5.5-1.3
			c-1.6-0.9-2.4-2.1-2.4-3.2V37C155.8,38.1,156.6,39.3,158.1,40.2z"/>
		<path class="st17" d="M158.1,39c1.7,0.8,3.6,1.3,5.5,1.3c1.9,0,3.8-0.5,5.5-1.4c0.6-0.3,1.1-0.7,1.5-1.3c0.4-0.5,0.6-1.2,0.7-1.8
			v0.8c-0.1,0.7-0.3,1.3-0.7,1.8c-0.4,0.5-0.9,1-1.5,1.3c-1.7,0.9-3.6,1.3-5.5,1.4c-1.9,0-3.8-0.4-5.5-1.3c-1.6-0.9-2.4-2.1-2.4-3.2
			v-0.7C155.8,36.9,156.6,38.1,158.1,39z"/>
		<path class="st18" d="M168.1,43.9c1-0.6,1.8-1.4,2.4-2.4c0.3-0.5,0.5-1,0.6-1.5c0.1-0.5,0.2-0.9,0.2-1.4c-0.1,0.7-0.3,1.3-0.7,1.8
			c-0.4,0.5-0.9,1-1.5,1.3c-1.7,0.9-3.6,1.3-5.5,1.4c-1.9,0-3.8-0.4-5.5-1.3c-1.6-0.9-2.4-2.1-2.4-3.2c0,0.6,0.1,1.2,0.3,1.8
			c0.2,0.6,0.5,1.2,0.8,1.7c0.3,0.5,0.8,0.9,1.2,1.3c0.6,0.5,1.2,0.8,1.9,1.1c1.3,0.5,2.7,0.7,4.1,0.7c0.7,0,1.5-0.2,2.2-0.4
			C166.9,44.5,167.5,44.2,168.1,43.9z"/>
		<path class="st16" d="M171.6,34.2v-2.9c-0.1,0.7-0.3,1.3-0.7,1.9c-0.4,0.6-0.9,1-1.5,1.3c-1.8,0.9-3.7,1.4-5.7,1.4
			c-2,0-3.9-0.4-5.7-1.3c-1.7-0.9-2.5-2.1-2.5-3.4v2.9c0,1.2,0.8,2.5,2.5,3.4c1.8,0.9,3.7,1.3,5.7,1.3c2,0,3.9-0.5,5.7-1.4
			c0.6-0.3,1.1-0.7,1.5-1.3C171.3,35.6,171.5,34.9,171.6,34.2z"/>
		<path class="st19" d="M169.1,28c3.2,1.8,3.3,4.7,0.2,6.5c-1.8,0.9-3.7,1.4-5.7,1.4c-2,0-3.9-0.4-5.7-1.3c-3.2-1.8-3.3-4.7-0.2-6.6
			c1.8-0.9,3.7-1.4,5.7-1.4C165.4,26.7,167.3,27.1,169.1,28z M158.5,28.5c-2.7,1.6-2.6,4.1,0.2,5.7c1.5,0.8,3.2,1.1,4.9,1.1
			c1.7,0,3.4-0.4,4.9-1.2c2.7-1.6,2.6-4.1-0.2-5.7c-1.5-0.8-3.2-1.1-4.9-1.1C161.7,27.3,160,27.8,158.5,28.5z"/>
		<path class="st8" d="M158.5,28.5c1.5-0.8,3.2-1.2,4.9-1.2c1.7,0,3.4,0.4,4.9,1.1c2.8,1.5,2.9,4.1,0.2,5.7
			c-1.5,0.8-3.2,1.2-4.9,1.2c-1.7,0-3.4-0.4-4.9-1.1C155.9,32.7,155.8,30.1,158.5,28.5z"/>
		<path class="st13" d="M159.9,29.9c-1.9,1.2-1.9,3,0.1,4.1c1.1,0.6,2.3,0.8,3.6,0.8c1.2,0,2.5-0.3,3.6-0.9c1.9-1.2,1.9-3-0.2-4.1
			c-1.1-0.6-2.3-0.8-3.6-0.8C162.2,29,161,29.3,159.9,29.9z"/>
		<path class="st20" d="M165.7,31.7v-1.5c0,0.2-0.1,0.4-0.2,0.5c-0.1,0.2-0.3,0.3-0.4,0.4c-0.5,0.2-1,0.4-1.6,0.4
			c-0.6,0-1.1-0.1-1.6-0.4c-0.2-0.1-0.4-0.2-0.5-0.4c-0.1-0.2-0.2-0.4-0.2-0.6v1.5c0,0.2,0.1,0.4,0.2,0.6c0.1,0.2,0.3,0.3,0.5,0.4
			c0.5,0.2,1,0.4,1.6,0.4s1.1-0.1,1.6-0.4c0.2-0.1,0.3-0.2,0.4-0.4C165.6,32,165.7,31.9,165.7,31.7z"/>
		<path class="st20" d="M165.6,30.4l0.6-1.7c-0.1,0.3-0.4,0.6-0.7,0.8c-0.6,0.3-1.3,0.5-2,0.5s-1.4-0.2-2-0.5
			c-0.4-0.2-0.7-0.5-0.8-0.9c0.2,0.6,0.4,1.1,0.6,1.7c0.1,0.3,0.4,0.5,0.6,0.7c0.5,0.2,1,0.4,1.6,0.4s1.1-0.1,1.6-0.4
			C165.3,30.9,165.5,30.7,165.6,30.4z"/>
		<path class="st20" d="M166.2,28.7c0.1-0.3,0.2-0.7,0.2-1c0,0.2-0.1,0.5-0.3,0.7c-0.1,0.2-0.3,0.4-0.6,0.5
			c-0.6,0.3-1.4,0.5-2.1,0.5c-0.7,0-1.4-0.2-2.1-0.5c-0.2-0.1-0.5-0.3-0.6-0.5c-0.2-0.2-0.3-0.5-0.3-0.7c0,0.3,0.1,0.7,0.2,1
			c0.2,0.4,0.4,0.7,0.8,0.9c0.6,0.3,1.3,0.5,2,0.5s1.4-0.2,2-0.5C165.8,29.3,166.1,29.1,166.2,28.7z"/>
		<path class="st21" d="M166.4,27.7v-3.3c0,0.2-0.1,0.5-0.3,0.7c-0.1,0.2-0.3,0.4-0.6,0.5c-0.6,0.3-1.4,0.5-2.1,0.5
			c-0.7,0-1.4-0.2-2.1-0.5c-0.2-0.1-0.5-0.3-0.6-0.5c-0.2-0.2-0.3-0.5-0.3-0.7v3.2c0,0.3,0.1,0.5,0.3,0.7c0.2,0.2,0.4,0.4,0.6,0.5
			c0.6,0.3,1.4,0.5,2.1,0.5c0.7,0,1.4-0.2,2.1-0.5c0.2-0.1,0.4-0.3,0.6-0.5C166.3,28.2,166.4,27.9,166.4,27.7z"/>
		<path class="st20" d="M166.4,26.6v1.1c0,0.2-0.1,0.5-0.2,0.7c-0.1,0.2-0.3,0.4-0.6,0.5c-0.6,0.3-1.4,0.5-2.1,0.5
			c-0.7,0-1.4-0.2-2.1-0.5c-0.2-0.1-0.5-0.3-0.6-0.5c-0.2-0.2-0.3-0.5-0.3-0.7v-1.1C162.5,26.8,164.4,26.8,166.4,26.6z"/>
		<path class="st21" d="M165,22c-0.5-0.3-1.1-0.4-1.6-0.4c-0.3,0-0.5,0-0.8,0.1c-0.3,0.1-0.6,0.2-0.8,0.3c0.1,0,0.1,0,0.2,0
			c0.4-0.2,0.9-0.3,1.4-0.3c0.5,0,1,0.1,1.4,0.3c0.8,0.4,0.8,1.2,0.1,1.6c-0.4,0.2-0.9,0.3-1.4,0.3c-0.5,0-1-0.1-1.4-0.3
			c-0.8-0.4-0.8-1.2-0.1-1.6c-0.1,0-0.2,0-0.2,0.1c-0.1,0.1-0.2,0.1-0.3,0.2c-0.1,0.1-0.2,0.1-0.3,0.2c-0.2,0.2-0.3,0.4-0.4,0.6
			c-0.2,0.4-0.3,0.9-0.3,1.4c0,0.3,0.1,0.5,0.3,0.7c0.2,0.2,0.4,0.4,0.6,0.5c0.6,0.3,1.4,0.5,2.1,0.5c0.7,0,1.4-0.2,2.1-0.5
			c0.2-0.1,0.4-0.3,0.6-0.5c0.1-0.2,0.2-0.4,0.3-0.7c0-0.5-0.1-1-0.4-1.5c-0.1-0.2-0.3-0.4-0.4-0.5C165.4,22.3,165.2,22.1,165,22z"
			/>
		<path class="st22" d="M163.4,17.5C163.5,17.5,163.5,17.5,163.4,17.5L163.4,17.5z"/>
		<path class="st21" d="M164.1,17.4c-0.2-0.1-0.4-0.2-0.6-0.2c-0.2,0-0.4,0.1-0.6,0.2c0.1-0.1,0.2-0.1,0.3-0.1c0.1,0,0.2,0,0.3,0.1
			h0.1c0,0-0.1,0-0.1,0c-0.1-0.1-0.2-0.1-0.3-0.1c-0.1,0-0.2,0-0.3,0.1c-0.1,0.1-0.2,0.1-0.3,0.2c-0.1,0.1-0.2,0.2-0.2,0.2
			c-0.1,0.2-0.2,0.5-0.3,0.8c0,0.2,0.1,0.5,0.4,0.7c0.3,0.2,0.7,0.2,1,0.2c0.3,0,0.7-0.1,1-0.2c0.1-0.1,0.2-0.1,0.3-0.3
			c0.1-0.1,0.1-0.2,0.1-0.4c0-0.3-0.1-0.5-0.3-0.8C164.5,17.7,164.3,17.5,164.1,17.4z"/>
		<path class="st21" d="M165.4,22.7c-0.2-1.3-0.4-2.7-0.6-4c0,0.1,0,0.3-0.1,0.4c-0.1,0.1-0.2,0.2-0.3,0.3c-0.3,0.2-0.7,0.2-1,0.2
			c-0.3,0-0.7-0.1-1-0.2c-0.3-0.2-0.5-0.4-0.4-0.7c-0.2,1.4-0.4,2.7-0.6,4c0,0.2,0.1,0.4,0.2,0.6c0.1,0.2,0.3,0.3,0.4,0.4
			c0.4,0.2,0.9,0.3,1.4,0.3c0.5,0,1-0.1,1.4-0.3c0.2-0.1,0.3-0.2,0.4-0.4C165.4,23.1,165.5,22.9,165.4,22.7z"/>
		<path class="st23" d="M165,23.7l-0.2,0l2.3-10.3l0.2,0L165,23.7z"/>
		<path class="st23" d="M161.5,22.4l-1.7-13.1l0.2,0l1.7,13.1L161.5,22.4z"/>
		<path class="st23" d="M165,23.6h-0.2v8.9h0.2V23.6z"/>
		<path class="st23" d="M161.7,22.4h-0.2v8.9h0.2V22.4z"/>
		<path class="st23" d="M166.9,13.5c-0.1,0-0.1,0-0.2,0c-0.1,0-0.1-0.1-0.2-0.2c0-0.1-0.1-0.2,0-0.3c0-0.2,0.1-0.4,0.2-0.6
			c0.1-0.2,0.3-0.4,0.4-0.5c0.1,0,0.2-0.1,0.3-0.1c0.1,0,0.2,0,0.3,0.1c0.1,0,0.1,0.1,0.2,0.2c0,0.1,0.1,0.2,0,0.3
			c0,0.2-0.1,0.4-0.2,0.6c-0.1,0.2-0.3,0.4-0.4,0.5C167.1,13.5,167,13.5,166.9,13.5z M167.4,12c-0.1,0-0.1,0-0.2,0.1
			c-0.2,0.1-0.3,0.2-0.4,0.4c-0.1,0.2-0.2,0.3-0.2,0.5c0,0.1,0,0.1,0,0.2c0,0.1,0.1,0.1,0.1,0.1c0,0,0.1,0,0.2,0s0.1,0,0.2,0
			c0.2-0.1,0.3-0.2,0.4-0.4c0.1-0.2,0.1-0.3,0.2-0.5c0-0.1,0-0.1,0-0.2c0-0.1-0.1-0.1-0.1-0.1C167.5,12,167.5,12,167.4,12L167.4,12z
			"/>
		<path class="st23" d="M159.6,9.5c-0.1,0-0.1,0-0.2-0.1c-0.1,0-0.1-0.1-0.2-0.2c0-0.1-0.1-0.2,0-0.3c0-0.2,0.1-0.4,0.2-0.6
			c0.1-0.2,0.3-0.3,0.5-0.5c0.1,0,0.2-0.1,0.2-0.1c0.1,0,0.2,0,0.2,0.1c0.1,0,0.1,0.1,0.2,0.2c0,0.1,0.1,0.2,0,0.3
			c0,0.2-0.1,0.4-0.2,0.6c-0.1,0.2-0.3,0.4-0.4,0.5C159.8,9.5,159.7,9.5,159.6,9.5z M160.1,8c-0.1,0-0.2,0-0.2,0.1
			c-0.2,0.1-0.3,0.2-0.4,0.4c-0.1,0.2-0.1,0.3-0.2,0.5c0,0.1,0,0.1,0,0.2c0,0.1,0.1,0.1,0.1,0.1c0,0,0.1,0,0.2,0s0.1,0,0.2,0
			c0.2-0.1,0.3-0.2,0.4-0.4c0.1-0.2,0.1-0.3,0.2-0.5c0-0.1,0-0.1,0-0.2C160.3,8.1,160.3,8.1,160.1,8C160.2,8,160.2,8,160.1,8
			L160.1,8z"/>
		<path class="st23" d="M166.6,13.1L166.6,13.1l-0.1-0.2c0.1,0,0.2,0,0.4-0.1c0.1-0.1,0.2-0.1,0.3-0.2c0.1-0.1,0.1-0.1,0.1-0.2
			c0-0.1,0-0.2,0-0.2c-0.1-0.2-0.5-0.6-2.2-0.7c-3.3-0.2-4-2.1-4.2-2.7c0-0.1-0.1-0.2-0.1-0.3s-0.2-0.1-0.3-0.1
			c-0.1,0-0.3,0-0.4,0.1c-0.1,0.1-0.2,0.1-0.3,0.3l-0.4,0.7l-0.2-0.1l0.4-0.7c0.1-0.1,0.2-0.3,0.4-0.3c0.2-0.1,0.3-0.1,0.5-0.1
			c0.1,0,0.3,0.1,0.4,0.2c0.1,0.1,0.2,0.2,0.2,0.4c0.1,0.5,0.8,2.4,4,2.6c1.6,0.1,2.2,0.5,2.3,0.8c0,0.1,0.1,0.2,0,0.3
			c0,0.1-0.1,0.2-0.1,0.3c-0.1,0.1-0.2,0.2-0.3,0.3C166.9,13.1,166.8,13.1,166.6,13.1z"/>
		<path class="st19" d="M169.8,9.6c1.3,1.7,3.2,2.5,4.2,1.8c1-0.7,0.6-2.8-0.7-4.5c-1.4-1.7-3.2-2.5-4.2-1.8S168.5,7.9,169.8,9.6z"
			/>
		<path class="st8" d="M190.5,78.2c-0.1,1-0.3,2-0.8,2.9c-0.5,0.9-1.1,1.7-1.9,2.3c-1.7,1.4-4.9,2-6.4,1.9l-0.1,0.9l1.3,2.8
			c2.6-0.2,5.1-1.1,7.1-2.7c3.7-2.7,2.5-5.8,2.2-6.6c-0.2-0.9-0.6-1.7-1-2.5c-0.4-0.5-0.6-0.5-0.6-0.5
			C190.3,77.2,190.4,77.7,190.5,78.2z"/>
		<path class="st8" d="M181.9,85.6c0,0,0.1-0.1-0.5-0.3c-0.6-0.2-2.8-0.8-3.3-3c-0.2,0.8-0.4,1.6-0.8,2.4c-0.1,0.7,0,1.4,0.3,2
			c0.3,0.6,0.9,1.1,1.5,1.3c0.8-0.5,1.5-1.1,2.1-1.8L181.9,85.6z"/>
	</g>
</g>
</svg>
