<?xml version="1.0" encoding="utf-8"?>
<!-- Generator: Adobe Illustrator 25.0.0, SVG Export Plug-In . SVG Version: 6.00 Build 0)  -->
<svg version="1.1" id="Layer_1" xmlns="http://www.w3.org/2000/svg" xmlns:xlink="http://www.w3.org/1999/xlink" x="0px" y="0px"
	 viewBox="0 0 379 345" style="enable-background:new 0 0 379 345;" xml:space="preserve">
<style type="text/css">
	.st0{clip-path:url(#SVGID_2_);}
	.st1{fill:none;stroke:#222222;stroke-miterlimit:10;}
	.st2{fill:#111111;}
	.st3{fill:#222222;}
	.st4{fill:#E7EAF8;}
	.st5{fill:#251B28;}
	.st6{fill:#2C2230;}
	.st7{fill:#3A3240;}
	.st8{fill:#EFA682;}
	.st9{fill:#DFE1F6;}
	.st10{fill:#F1A481;}
	.st11{fill:#EDEDED;}
	.st12{fill:#FBC4AA;}
	.st13{fill:#FBBC9F;}
	.st14{fill:#F0F1F6;}
	.st15{fill:#413948;}
	.st16{fill:#EA5E02;}
	.st17{fill:#FB6762;}
	.st18{fill:#FFFFFF;filter:url(#Adobe_OpacityMaskFilter);}
	.st19{mask:url(#mask0_26_1607_1_);}
	.st20{fill:#FFFFFF;filter:url(#Adobe_OpacityMaskFilter_1_);}
	.st21{mask:url(#mask1_26_1607_1_);}
	.st22{fill:#FFFFFF;filter:url(#Adobe_OpacityMaskFilter_2_);}
	.st23{mask:url(#mask2_26_1607_1_);}
	.st24{fill:#FF6601;}
	.st25{fill:#FFFFFF;filter:url(#Adobe_OpacityMaskFilter_3_);}
	.st26{mask:url(#mask3_26_1607_1_);}
	.st27{fill:#FFFFFF;filter:url(#Adobe_OpacityMaskFilter_4_);}
	.st28{mask:url(#mask4_26_1607_1_);}
	.st29{fill:#FFFFFF;filter:url(#Adobe_OpacityMaskFilter_5_);}
	.st30{mask:url(#mask5_26_1607_1_);}
	.st31{fill:#95A1DC;}
	.st32{fill:#FFFFFF;filter:url(#Adobe_OpacityMaskFilter_6_);}
	.st33{mask:url(#mask6_26_1607_1_);}
	.st34{fill:#BBC3E9;}
	.st35{fill:#C7D0E9;}
	.st36{fill:#FFFFFF;filter:url(#Adobe_OpacityMaskFilter_7_);}
	.st37{mask:url(#mask7_26_1607_1_);}
	.st38{fill:#FFFFFF;filter:url(#Adobe_OpacityMaskFilter_8_);}
	.st39{mask:url(#mask8_26_1607_1_);}
	.st40{fill:#FFFFFF;filter:url(#Adobe_OpacityMaskFilter_9_);}
	.st41{mask:url(#mask9_26_1607_1_);}
	.st42{fill:#FFFFFF;filter:url(#Adobe_OpacityMaskFilter_10_);}
	.st43{mask:url(#mask10_26_1607_1_);}
	.st44{fill:url(#SVGID_3_);}
	.st45{fill:#0A1934;}
	.st46{fill:#D6DBF2;}
	.st47{fill:#FBB400;}
	.st48{fill:#FFFFFF;filter:url(#Adobe_OpacityMaskFilter_11_);}
	.st49{mask:url(#mask11_26_1607_1_);}
	.st50{fill:#FFFFFF;filter:url(#Adobe_OpacityMaskFilter_12_);}
	.st51{mask:url(#mask12_26_1607_1_);}
	.st52{fill:#FFFFFF;filter:url(#Adobe_OpacityMaskFilter_13_);}
	.st53{mask:url(#mask13_26_1607_1_);}
	.st54{fill:#FFFFFF;filter:url(#Adobe_OpacityMaskFilter_14_);}
	.st55{mask:url(#mask14_26_1607_1_);}
	.st56{fill:#FFFFFF;filter:url(#Adobe_OpacityMaskFilter_15_);}
	.st57{mask:url(#mask15_26_1607_1_);}
	.st58{fill:#FFFFFF;filter:url(#Adobe_OpacityMaskFilter_16_);}
	.st59{mask:url(#mask16_26_1607_1_);}
	.st60{fill:#FFFFFF;filter:url(#Adobe_OpacityMaskFilter_17_);}
	.st61{mask:url(#mask17_26_1607_1_);}
	.st62{fill:#FBD037;}
	.st63{fill:#FFFFFF;filter:url(#Adobe_OpacityMaskFilter_18_);}
	.st64{mask:url(#mask18_26_1607_1_);}
	.st65{fill:#FFFFFF;filter:url(#Adobe_OpacityMaskFilter_19_);}
	.st66{mask:url(#mask19_26_1607_1_);}
	.st67{fill:#FFFFFF;filter:url(#Adobe_OpacityMaskFilter_20_);}
	.st68{mask:url(#mask20_26_1607_1_);}
	.st69{fill:#FFFFFF;filter:url(#Adobe_OpacityMaskFilter_21_);}
	.st70{mask:url(#mask21_26_1607_1_);}
	.st71{fill:#FFFFFF;filter:url(#Adobe_OpacityMaskFilter_22_);}
	.st72{mask:url(#mask22_26_1607_1_);}
	.st73{fill:#FFFFFF;filter:url(#Adobe_OpacityMaskFilter_23_);}
	.st74{mask:url(#mask23_26_1607_1_);}
	.st75{fill:#FFFFFF;filter:url(#Adobe_OpacityMaskFilter_24_);}
	.st76{mask:url(#mask24_26_1607_1_);}
	.st77{fill:#FFFFFF;filter:url(#Adobe_OpacityMaskFilter_25_);}
	.st78{mask:url(#mask25_26_1607_1_);}
	.st79{fill:#FFFFFF;filter:url(#Adobe_OpacityMaskFilter_26_);}
	.st80{mask:url(#mask26_26_1607_1_);}
	.st81{fill:#FBB996;}
	.st82{fill:#FFFFFF;filter:url(#Adobe_OpacityMaskFilter_27_);}
	.st83{mask:url(#mask27_26_1607_1_);}
	.st84{fill:#FFFFFF;filter:url(#Adobe_OpacityMaskFilter_28_);}
	.st85{mask:url(#mask28_26_1607_1_);}
	.st86{fill:#FFFFFF;filter:url(#Adobe_OpacityMaskFilter_29_);}
	.st87{mask:url(#mask29_26_1607_1_);}
	.st88{fill:#3472DC;}
	.st89{fill:#F6C4AA;}
	.st90{fill:#FBF4F1;}
	.st91{fill:#C59980;}
	.st92{fill:#6B4AAF;}
</style>
<g>
	<defs>
		<rect id="SVGID_1_" width="378.8" height="344.2"/>
	</defs>
	<clipPath id="SVGID_2_">
		<use xlink:href="#SVGID_1_"  style="overflow:visible;"/>
	</clipPath>
	<g class="st0">
		<path class="st1" d="M324.6,234.5c20.9,12.1,21,31.6,0.2,43.6l-97.4,56.6c-20.7,12-54.5,12-75.3,0l-98-56.6
			c-20.9-12-21-31.6-0.2-43.6l97.4-56.6c20.7-12.1,54.5-12.1,75.3,0L324.6,234.5z"/>
		<path class="st2" d="M359.4,199.5l-122.1,71c-26,15.1-68.3,15.1-94.5,0l-122.9-71C6.6,191.9,0,181.9,0,171.9v14.1
			c0,10,6.6,20,19.7,27.6l122.9,71c26.2,15.1,68.5,15.1,94.5,0l122.1-71c12.9-7.5,19.4-17.3,19.4-27.2v-14.1
			C378.8,182.2,372.3,192,359.4,199.5z"/>
		<path class="st3" d="M359.1,144.8c26.2,15.1,26.3,39.6,0.3,54.8l-122.1,71c-26,15.1-68.3,15.1-94.5,0l-122.9-71
			c-26.2-15.1-26.3-39.6-0.3-54.8l122.1-71c26-15.1,68.3-15.1,94.5,0L359.1,144.8z"/>
		<path class="st4" d="M105.8,60.2c-0.5-1.5-0.3-3.2,0.3-4.6c0.2-0.5,0.5-1,1-1.2c0.2-0.1,0.5-0.1,0.7-0.1c0.2,0,0.5,0.1,0.7,0.3
			c0.7,0.4,1.1,1.1,1.4,1.8c0.6,1.5,1.3,2.8,2,4.2c0.5,1.1,1.1,2.2,1.7,3.3c2.1,2.8,4.4,5.5,6.9,8c0.9,0.8,1.7,1.6,2.6,2.4h-1.8v4.5
			l-0.2-0.1c-1.6-1.1-3.3-2.2-4.9-3.3c-1.1-0.8-2-1.6-2.9-2.6c-0.9-1.2-1.9-2.3-2.8-3.5c-1.4-2.2-2.7-4.6-3.8-7
			c-0.2-0.5-0.6-1-0.8-1.5C105.9,60.6,105.9,60.4,105.8,60.2z"/>
		<path class="st5" d="M98.7,129.9c2.1,1.8,4,3.7,5.9,5.7c0.6,0.6,1.1,1.2,1.5,1.8c0.5,0.5,0.7,1.2,0.8,1.9c-0.1,0.9-2,1.1-2.7,1.1
			c-1,0.1-1.9-0.1-2.8-0.5c-0.8-0.4-1.5-1-1.8-1.8c-0.3-0.8-0.8-1.5-1.5-2.1c-0.7-0.4-1.6-0.6-2-1.2c-0.2-0.4-0.3-0.8-0.2-1.2
			c0-0.8,0.2-1.5,0.2-2.3c-0.1-0.6,0-1.2,0.1-1.7c0.1-0.2,0.3-0.4,0.5-0.6s0.5-0.2,0.7-0.2c0.5,0,1,0.2,1.4,0.6L98.7,129.9z"/>
		<path class="st5" d="M104.7,126.4c2.4,1.4,4.7,2.9,6.9,4.5c0.7,0.4,1.3,0.9,1.8,1.5c0.5,0.4,1.1,1.1,1.1,1.7
			c0,0.9-1.8,1.4-2.5,1.6c-0.9,0.2-1.9,0.2-2.8,0c-0.9-0.2-1.6-0.7-2.1-1.4c-0.4-0.7-1.1-1.4-1.8-1.8c-0.8-0.3-1.7-0.2-2.2-0.8
			c-0.3-0.3-0.4-0.7-0.5-1.1c-0.1-0.8-0.1-1.6-0.2-2.3c-0.2-0.6-0.3-1.1-0.3-1.7c0.1-0.2,0.2-0.5,0.4-0.6c0.2-0.2,0.4-0.3,0.6-0.4
			c0.5-0.1,1.1,0,1.5,0.3L104.7,126.4z"/>
		<path class="st6" d="M101.8,116.7c-0.2-4.9,0.7-6.3,1-8.6c-0.4-0.9-0.7-1.8-0.7-2.8c-0.1-1.7,0.1-4,0.1-5.7
			c-0.1-3.4-3-14.6,4.1-16.4c1.1-0.3,2.8-2.3,3.6-1.5c0.6,0.7,0.9,1.6,1.1,2.5c0.2,1.2,0.3,2.3,0.4,3.5c0.2,2.3,0.1,4.7-0.3,7
			c-0.6,3.4-0.7,11.4-2.4,15c-0.9,4-1.4,18.3-1.4,18.4c-0.2,1-0.8,2-4.2,1.8c-0.9-0.1-1.3-2.7-1.4-3.4
			C101.3,123.4,101.9,119.8,101.8,116.7z"/>
		<path class="st7" d="M95.2,83.7c0,0,0.4-0.6,0.4-0.6c1.6,0.8,3.4,0.5,5.2,0.7c3.9,0.4,4.2,1.1,6.8-0.7c0.3,1.9,0.3,3.9,0,5.8
			c0.2,3.1-2.7,3.4-2.8,5c-0.2,3.8-0.5,11.2-1,15c-0.1,1.1-0.3,2.1-0.7,3.1c-0.1,1.3-0.1,2.5-0.2,3.8c-0.5,9.5-0.4,14.3-1.2,16.3
			c-0.6,1.7-2.8,1.6-4.2,1.1c-0.6-0.2-1.2-0.5-1.6-1.1c-0.3-0.5-0.5-1.1-0.6-1.8c-0.9-5.6-0.8-11.4,0.3-17c0.2-3.4-0.1-6.8-0.9-10.1
			C93.4,97.5,92.8,91.1,95.2,83.7z"/>
		<path class="st8" d="M95,77.4c0.1,1,0.2,2,0.2,3C95.2,79.4,95.1,78.4,95,77.4z"/>
		<path class="st8" d="M95.2,80.4c0,0.6,0.1,1.2,0.1,1.8C95.3,81.6,95.3,81,95.2,80.4z"/>
		<path class="st9" d="M95.2,80.4c0-1-0.1-2-0.2-3c-0.2-1.3-0.4-2.5-0.7-3.7c-0.5-2.2-1.1-4-1.7-6.1c-0.3-1.2-1.1-3.1-1.2-3.9
			c-0.2-2,0.9-3.6,3.5-5.3c2.7-1.6,5.6-2.9,8.7-3.8c4.8-1.5,5.4,0.2,6.8,4.1c1.3,3.6,0.9,9.4,0.3,13.2c-0.3,2-0.5,4-0.6,6
			c0,1.7,0.1,3.4,0.4,5.1c-4.2,3-9.9,2.2-14.7,1c-0.3-0.1-0.6-0.1-0.9-0.3C95.3,82.5,95.3,81.5,95.2,80.4z"/>
		<path class="st6" d="M103.7,80.5l1.6,1.4c0.7-1.2,0.8-1.3,1.5-2.4c0-6.9-0.3-13.4-1.9-20c-0.6,0.5-1,0.7-1.6,1.1
			C104.3,67.2,104.5,73.9,103.7,80.5z"/>
		<path class="st5" d="M105.6,59.3C105.6,59.3,105.6,59.4,105.6,59.3c0,0.3-0.1,0.5-0.2,0.7c-0.1,0.4-0.3,0.8-0.5,1.1
			c-0.1,0.2-0.3,0.4-0.5,0.5c-0.1,0-0.3,0.1-0.4,0c-0.1,0-0.3-0.1-0.4-0.1c-0.3-0.1-0.7-0.4-0.7-0.7c0.1-0.3,0.1-0.6,0.2-0.8
			c0.2-0.6,0.5-1.2,1-1.6c0.6-0.4,1,0.2,1.3,0.6C105.5,59.2,105.6,59.2,105.6,59.3z"/>
		<path class="st10" d="M98.4,56.5c-0.1,3.9,7.1,3.9,7,0.3c-0.2-5.1-0.5-5.6-2.8-6.4c-0.6-0.2-1.3-0.4-2-0.4c-2.5,0-1.5,1.2-1.4,2.1
			C99.3,54.8,98.4,55.1,98.4,56.5z"/>
		<path class="st11" d="M104.2,58.9c0.1,0.4,0.7,0.6,1,0.8c0.2,0.1,0.4,0.3,0.6,0.3c0.2,0,0.3-0.3,0.4-0.5c0.5-1.3,0.8-2.6,0.8-4
			c0-0.2,0-0.4-0.1-0.6c-0.1-0.2-0.2-0.4-0.3-0.6c-0.2-0.1-0.4-0.2-0.6-0.2c-0.2,0-0.4,0-0.6,0.1c-0.4,0.2-0.5,1-0.3,1.3
			c0.2,0.6,0.3,1.3,0.1,1.9C105.1,57.9,104.7,58.5,104.2,58.9z"/>
		<path class="st11" d="M104.2,58.9c-0.4,0.6-0.9,1.2-1.4,1.7c-0.2,0.2-0.3,0.4-0.6,0.3c-1.2-0.4-3.9-2.6-4.4-4c0-0.3,0-0.6,0.1-0.8
			c0.1-0.3,0.2-0.5,0.4-0.7c0.2-0.2,0.3-0.5,0.5-0.7c0.2,0.6,0.4,1.2,0.8,1.7c0.6,0.7,1.3,1.3,2.1,1.7
			C102.5,58.6,103.3,58.8,104.2,58.9z"/>
		<path class="st12" d="M108.6,44.2c0.6,0.9,0.8,1.9,0.8,2.9c0,0.5-0.1,0.9-0.2,1.3c-0.2,0.4-0.3,0.8-0.4,1.2
			c0.1,0.6,0.3,1.1,0.5,1.6c0.2,0.4,0.2,0.9,0.1,1.4c-0.1,0.2-0.3,0.5-0.4,0.7c-0.7,1.1,0,2.7-1.2,3.4c-0.3,0.2-0.7,0.3-1,0.2
			c-1.1-0.2-2.2-0.5-3.2-0.9c-0.9-0.5-1.7-1.2-2.3-2c-0.6-0.6-1.1-1.2-1.6-1.9c-0.1-0.2,0.1-0.2-0.1-0.3c-0.2-0.1-0.3-0.9-0.4-0.9
			c-0.2-0.1-0.4-0.2-0.5-0.3c-0.3-0.2-0.4,0.5-0.5,0.2c-0.5-1.3-0.7-2.6-0.8-4c-0.1-1.2,0.2-2.4,0.8-3.4c0.6-0.8,1.5-1.4,2.4-1.8
			c1.5-0.6,3.1-0.6,4.6-0.1C106.6,42.1,107.8,43,108.6,44.2z"/>
		<path class="st5" d="M103.8,45.4c-0.3-0.1-0.7,0-1,0.1c-0.3,0.1-0.5,0.3-0.7,0.6c-0.2,0.3-0.3,0.5-0.3,0.9c-0.2,1.3,0.3,2.7,0.3,4
			c0,0.2,0,0.4-0.1,0.6c-0.3,0.5-0.8,0.2-1-0.1s-0.3-0.4-0.5-0.6c-0.2-0.2-0.4-0.4-0.7-0.4c-0.1,0-0.2,0-0.3,0
			c-0.1,0-0.2,0.1-0.3,0.1c-0.1,0.1-0.1,0.1-0.2,0.2c0,0.1-0.1,0.2-0.1,0.3c0,0.3,0,0.7,0.1,1c0,0.1,0.2,0.7,0,0.7
			c-0.2,0-2.4-2.3-2.5-6.1c-0.1-3.7,2.5-4.4,2.5-4.4c0.5-0.6,1.1-1.1,1.8-1.4c0.7-0.3,1.5-0.4,2.3-0.3c1.6,0.1,3.1,0.6,4.4,1.4
			l0.2,0.1c0.7,0.4,1.2,0.9,1.7,1.6c1.1,1.8-0.4,3.2-2.2,2.9c-0.9-0.2-1.7-0.5-2.5-0.8C104.3,45.5,104.1,45.4,103.8,45.4z"/>
		<path class="st12" d="M99.3,49.2c-1-0.1-1.3,1.2-0.6,2.1c0.2,0.3,0.5,0.5,0.8,0.8c1.8,1.5,2.2-0.1,1.7-0.6
			C99.9,50.3,100.6,49.3,99.3,49.2z"/>
		<path class="st8" d="M99.8,51.5c-0.1-0.1-1.2-0.8-0.5-1.2c0,0,0.1,0,0.2,0c0.1,0,0.1,0,0.2,0c0,0,0.1,0.1,0.1,0.1
			c0,0,0,0.1,0.1,0.2c0,0.1,0,0.2,0,0.4c0,0.1,0,0.1,0.1,0.2c0.1,0.2,0.4,0.3,0.4,0.5S99.9,51.6,99.8,51.5z"/>
		<path class="st13" d="M110,81.9c-0.5-1-3.6-1.2-4.6-1.2c-1.7-0.1-5.4-2-8.7-3.2l-0.5,5c3.2,0.6,7.2,1.3,10.1,2
			c0.6,0.1,0.7-0.3,1.2-0.6C108.2,83.3,110.4,82.7,110,81.9z"/>
		<path class="st14" d="M95,75.8c-0.8-1-0.1-2.4,0.2-3.5c0.3-1.5,0.8-2.9,1.2-4.4c0.4-1.5,1.3-5.4-0.5-7c-0.4-0.4-0.8-0.6-1.4-0.8
			s-1.1-0.1-1.6,0.1c-0.9,0.6-1.6,1.4-2.1,2.3c-1.1,2.2-1.1,4.5-1.3,6.9c-0.1,1.2-0.9,6.2-0.6,7.4c0.4,1.9,2,3,3.6,4
			c1.6,0.9,3.4,1.6,5.3,2c1.3,0.3,2.6,0.8,4,1c0.3,0.1,0.7,0.1,1,0.1c0.1,0,0.3,0,0.4,0c0.1-0.1,0.2-0.1,0.3-0.3
			c0.2-0.4,0.4-0.7,0.5-1.1c0.2-0.5,0.4-1,0.5-1.5c0.1-0.4,0.2-0.9-0.3-1.1c-1.9-0.8-3.8-1.6-5.8-2.4C97.3,77.2,96.1,76.6,95,75.8z"
			/>
		<path class="st13" d="M110.3,81.4c0.2,0.1,0.3,0.2,0.4,0.3c0.2,0.2,0.3,0.4,0.3,0.7c0,0.2,0,0.4-0.1,0.5c-0.1,0.2-0.2,0.3-0.3,0.5
			c0,0-0.2,0.1-0.2,0.2c0,0.1,0.1,0.1,0.1,0.2c0.4,0.4,0.1,1.2-0.9,1.4c0,1.4-4,0.5-5.2-0.4c-0.4-0.3-0.4-0.6-0.5-1l1.4-2.8
			c0.8-0.2,1.6-0.3,2.5-0.3c0.6,0,1.2,0,1.7,0.2c0.2,0,0.3,0.1,0.4,0.2c0.1,0.1,0.2,0.2,0.3,0.4C110.2,81.4,110.2,81.4,110.3,81.4z"
			/>
		<path class="st13" d="M110.3,80.2c0,0.1,0.1,0.1,0.1,0.2c0,0.1,0,0.2-0.1,0.2c-0.1,0.1-0.2,0.2-0.4,0.3c-0.2,0-0.3,0.1-0.4,0.1
			c-0.6,0.4-1.3,0.7-2.1,0.7c-0.2,0-0.4,0-0.7,0c-0.1,0-0.2-0.1-0.3-0.1c-0.1-0.1-0.2-0.2-0.2-0.3c0-0.1-0.1-0.1-0.1-0.2
			c0-0.1,0-0.2,0.1-0.2c0.1-0.1,0.1-0.1,0.2-0.1c0.6-0.2,1.2-0.5,1.9-0.6c0.1,0,0.2,0,0.4-0.1c0.2-0.1,0.3-0.1,0.5-0.1
			c0.3-0.1,0.7-0.1,1,0C110.2,80,110.3,80.1,110.3,80.2C110.4,80.2,110.4,80.2,110.3,80.2C110.3,80.2,110.3,80.2,110.3,80.2z"/>
		<path class="st13" d="M109.2,80.9c0.7,0,1.3,0.1,2,0.2c0.7,0.1,1.3,0.2,2,0.4c0.2,0.1,0.4,0.1,0.6,0.2c0.2,0.1,0.7,0.5,0.5,0.7
			c-0.1,0.1-0.1,0.1-0.2,0.2c-0.2,0.1-0.5,0.2-0.8,0.1c-0.7-0.1-1.3-0.2-2-0.4c-0.7-0.2-1.4-0.4-2.1-0.6L109.2,80.9z"/>
		<path class="st15" d="M114.9,76.1l10.5-6l-0.5-0.3l-10.5,6L114.9,76.1z"/>
		<path class="st6" d="M114.9,76.1l-4.3,13l-0.3-0.6l4-12.7L114.9,76.1z"/>
		<path class="st6" d="M110.6,89.1l10.5-6l4.3-13l-10.5,6L110.6,89.1z"/>
		<path class="st13" d="M122.4,79.4c0.7,0.3,1-0.5,0.7-0.7s-1.3-0.4-1.5,0.2S121.9,79.2,122.4,79.4z"/>
		<path class="st13" d="M124.1,75.7c0.4,0.3,0.1,1-0.1,1s-0.2-0.1-0.3-0.1c-0.3-0.1-0.6-0.1-0.8-0.1c-0.1,0-0.2,0-0.4,0
			c-0.1,0-0.1,0-0.2-0.1c0,0-0.1-0.1-0.1-0.1c-0.2-0.5,0.6-0.8,0.9-0.9c0.2-0.1,0.4-0.1,0.6,0C123.8,75.5,124,75.6,124.1,75.7z"/>
		<path class="st13" d="M123.9,77.7c-0.3,0.3-0.4-0.3-1.3-0.1c-0.1,0-0.2,0-0.3,0c-0.1,0-0.1,0-0.2-0.1c0,0-0.1-0.1-0.1-0.1
			c-0.2-0.5,0.6-0.8,0.8-0.8C123.9,76.3,124.5,77.1,123.9,77.7z"/>
		<path class="st13" d="M123.5,78.6c-0.4,0.1-0.4,0-1.1-0.1c-1.1-0.1-0.7-1.1,0.6-0.9c0.2,0,0.3,0.1,0.5,0.1c0.1,0,0.2,0.1,0.2,0.2
			c0.1,0.1,0.1,0.2,0.1,0.3c0,0.1,0,0.2-0.1,0.3C123.7,78.5,123.6,78.5,123.5,78.6z"/>
		<path class="st16" d="M246.4,71.4l2.1-1.2l3.8-8.6l-2.1,1.2L246.4,71.4z"/>
		<path class="st17" d="M238.1,36.9l-2.1,1.2c0.4-0.2,0.8-0.2,1.2-0.2c0.4,0,0.8,0.2,1.1,0.4l2.1-1.2c-0.3-0.2-0.7-0.4-1.1-0.4
			C238.9,36.6,238.5,36.7,238.1,36.9z"/>
		<defs>
			<filter id="Adobe_OpacityMaskFilter" filterUnits="userSpaceOnUse" x="236" y="36.7" width="4.4" height="1.7">
				<feColorMatrix  type="matrix" values="1 0 0 0 0  0 1 0 0 0  0 0 1 0 0  0 0 0 1 0"/>
			</filter>
		</defs>
		<mask maskUnits="userSpaceOnUse" x="236" y="36.7" width="4.4" height="1.7" id="mask0_26_1607_1_">
			<path class="st18" d="M238.1,36.9l-2.1,1.2c0.4-0.2,0.8-0.2,1.2-0.2c0.4,0,0.8,0.2,1.1,0.4l2.1-1.2c-0.3-0.2-0.7-0.4-1.1-0.4
				C238.9,36.6,238.5,36.7,238.1,36.9z"/>
		</mask>
		<g class="st19">
			<path class="st16" d="M238.3,38.3l2.1-1.2c-0.3-0.2-0.7-0.4-1.1-0.4c-0.4,0-0.8,0-1.2,0.2l-2.1,1.2c0.4-0.2,0.8-0.2,1.2-0.2
				C237.6,37.9,238,38.1,238.3,38.3z"/>
		</g>
		<path class="st17" d="M256.9,65.5l2.1-1.2c0.3-0.2,0.6-0.5,0.8-0.9c0.2-0.4,0.2-0.8,0.2-1.2l-2.1,1.2c0,0.4,0,0.8-0.2,1.2
			C257.5,65,257.2,65.3,256.9,65.5z"/>
		<defs>
			<filter id="Adobe_OpacityMaskFilter_1_" filterUnits="userSpaceOnUse" x="256.9" y="62.2" width="3.1" height="3.3">
				<feColorMatrix  type="matrix" values="1 0 0 0 0  0 1 0 0 0  0 0 1 0 0  0 0 0 1 0"/>
			</filter>
		</defs>
		<mask maskUnits="userSpaceOnUse" x="256.9" y="62.2" width="3.1" height="3.3" id="mask1_26_1607_1_">
			<path class="st20" d="M256.9,65.5l2.1-1.2c0.3-0.2,0.6-0.5,0.8-0.9c0.2-0.4,0.2-0.8,0.2-1.2l-2.1,1.2c0,0.4,0,0.8-0.2,1.2
				C257.5,65,257.2,65.3,256.9,65.5z"/>
		</mask>
		<g class="st21">
			<path class="st16" d="M256.9,65.5l2.1-1.2c0.3-0.2,0.6-0.5,0.8-0.9c0.2-0.4,0.2-0.8,0.2-1.2l-2.1,1.2c0,0.4,0,0.8-0.2,1.2
				C257.5,65,257.2,65.3,256.9,65.5z"/>
		</g>
		<path class="st16" d="M257.8,63.5l2.1-1.2l0-10.1l-2.1,1.2L257.8,63.5z"/>
		<path class="st16" d="M254.6,47.7l2.1-1.2l-16.3-9.4l-2.1,1.2L254.6,47.7z"/>
		<path class="st17" d="M257.9,53.3l2.1-1.2c-0.1-1.1-0.4-2.2-0.9-3.2c-0.6-1-1.3-1.8-2.3-2.4l-2.1,1.2c0.9,0.6,1.7,1.4,2.3,2.4
			C257.5,51.1,257.8,52.2,257.9,53.3z"/>
		<defs>
			<filter id="Adobe_OpacityMaskFilter_2_" filterUnits="userSpaceOnUse" x="254.6" y="46.5" width="5.3" height="6.8">
				<feColorMatrix  type="matrix" values="1 0 0 0 0  0 1 0 0 0  0 0 1 0 0  0 0 0 1 0"/>
			</filter>
		</defs>
		<mask maskUnits="userSpaceOnUse" x="254.6" y="46.5" width="5.3" height="6.8" id="mask2_26_1607_1_">
			<path class="st22" d="M257.9,53.3l2.1-1.2c-0.1-1.1-0.4-2.2-0.9-3.2c-0.6-1-1.3-1.8-2.3-2.4l-2.1,1.2c0.9,0.6,1.7,1.4,2.3,2.4
				C257.5,51.1,257.8,52.2,257.9,53.3z"/>
		</mask>
		<g class="st23">
			<path class="st16" d="M257.9,53.3l2.1-1.2c-0.1-1.1-0.4-2.2-0.9-3.2c-0.6-1-1.3-1.8-2.3-2.4l-2.1,1.2c0.9,0.6,1.7,1.4,2.3,2.4
				C257.5,51.1,257.8,52.2,257.9,53.3z"/>
		</g>
		<path class="st24" d="M238.3,38.3c-1.8-1-3.2-0.2-3.2,1.8v10.1c0.1,1.1,0.4,2.2,0.9,3.2c0.6,1,1.3,1.8,2.3,2.4l4.4,2.5l3.8,13
			l3.8-8.6l4.4,2.5c1.8,1,3.2,0.2,3.2-1.8V53.3c-0.1-1.1-0.4-2.2-0.9-3.2c-0.6-1-1.3-1.8-2.3-2.4L238.3,38.3z"/>
		<path class="st14" d="M244.5,45.5c-0.3-0.2-0.7-0.4-1.1-0.4c-0.4-0.1-0.8,0-1.2,0.1c-1.9,0.8-1.9,5.6,4.8,14.2
			c6.7-0.9,6.8-5.6,4.9-8.6c-0.6-0.9-1.3-1.7-2.2-2.2c-1-0.6-2-0.7-2.6,0.2C246.6,47.3,245.7,46.2,244.5,45.5z"/>
		<path class="st16" d="M152.4,54.4l2.1-1.2l3.8-8.6l-2.1,1.2L152.4,54.4z"/>
		<path class="st17" d="M144.1,19.9l-2.1,1.2c0.4-0.2,0.8-0.2,1.2-0.2c0.4,0,0.8,0.2,1.1,0.4l2.1-1.2c-0.3-0.2-0.7-0.4-1.1-0.4
			S144.5,19.7,144.1,19.9z"/>
		<defs>
			<filter id="Adobe_OpacityMaskFilter_3_" filterUnits="userSpaceOnUse" x="142" y="19.7" width="4.4" height="1.7">
				<feColorMatrix  type="matrix" values="1 0 0 0 0  0 1 0 0 0  0 0 1 0 0  0 0 0 1 0"/>
			</filter>
		</defs>
		<mask maskUnits="userSpaceOnUse" x="142" y="19.7" width="4.4" height="1.7" id="mask3_26_1607_1_">
			<path class="st25" d="M144.1,19.9l-2.1,1.2c0.4-0.2,0.8-0.2,1.2-0.2c0.4,0,0.8,0.2,1.1,0.4l2.1-1.2c-0.3-0.2-0.7-0.4-1.1-0.4
				S144.5,19.7,144.1,19.9z"/>
		</mask>
		<g class="st26">
			<path class="st16" d="M144.3,21.3l2.1-1.2c-0.3-0.2-0.7-0.4-1.1-0.4c-0.4,0-0.8,0-1.2,0.2l-2.1,1.2c0.4-0.2,0.8-0.2,1.2-0.2
				C143.6,20.9,144,21.1,144.3,21.3z"/>
		</g>
		<path class="st17" d="M162.9,48.5l2.1-1.2c0.3-0.2,0.6-0.5,0.8-0.9c0.2-0.4,0.2-0.8,0.2-1.2l-2.1,1.2c0,0.4,0,0.8-0.2,1.2
			C163.5,48,163.2,48.3,162.9,48.5z"/>
		<defs>
			<filter id="Adobe_OpacityMaskFilter_4_" filterUnits="userSpaceOnUse" x="162.9" y="45.2" width="3.1" height="3.3">
				<feColorMatrix  type="matrix" values="1 0 0 0 0  0 1 0 0 0  0 0 1 0 0  0 0 0 1 0"/>
			</filter>
		</defs>
		<mask maskUnits="userSpaceOnUse" x="162.9" y="45.2" width="3.1" height="3.3" id="mask4_26_1607_1_">
			<path class="st27" d="M162.9,48.5l2.1-1.2c0.3-0.2,0.6-0.5,0.8-0.9c0.2-0.4,0.2-0.8,0.2-1.2l-2.1,1.2c0,0.4,0,0.8-0.2,1.2
				C163.5,48,163.2,48.3,162.9,48.5z"/>
		</mask>
		<g class="st28">
			<path class="st16" d="M162.9,48.5l2.1-1.2c0.3-0.2,0.6-0.5,0.8-0.9c0.2-0.4,0.2-0.8,0.2-1.2l-2.1,1.2c0,0.4,0,0.8-0.2,1.2
				C163.5,48,163.2,48.3,162.9,48.5z"/>
		</g>
		<path class="st16" d="M163.8,46.5l2.1-1.2l0-10.1l-2.1,1.2L163.8,46.5z"/>
		<path class="st16" d="M160.6,30.7l2.1-1.2l-16.3-9.4l-2.1,1.2L160.6,30.7z"/>
		<path class="st17" d="M163.9,36.3l2.1-1.2c-0.1-1.1-0.4-2.2-0.9-3.2c-0.6-1-1.3-1.8-2.3-2.4l-2.1,1.2c0.9,0.6,1.7,1.4,2.3,2.4
			C163.5,34.1,163.8,35.2,163.9,36.3z"/>
		<defs>
			<filter id="Adobe_OpacityMaskFilter_5_" filterUnits="userSpaceOnUse" x="160.7" y="29.5" width="5.3" height="6.8">
				<feColorMatrix  type="matrix" values="1 0 0 0 0  0 1 0 0 0  0 0 1 0 0  0 0 0 1 0"/>
			</filter>
		</defs>
		<mask maskUnits="userSpaceOnUse" x="160.7" y="29.5" width="5.3" height="6.8" id="mask5_26_1607_1_">
			<path class="st29" d="M163.9,36.3l2.1-1.2c-0.1-1.1-0.4-2.2-0.9-3.2c-0.6-1-1.3-1.8-2.3-2.4l-2.1,1.2c0.9,0.6,1.7,1.4,2.3,2.4
				C163.5,34.1,163.8,35.2,163.9,36.3z"/>
		</mask>
		<g class="st30">
			<path class="st16" d="M163.9,36.3l2.1-1.2c-0.1-1.1-0.4-2.2-0.9-3.2c-0.6-1-1.3-1.8-2.3-2.4l-2.1,1.2c0.9,0.6,1.7,1.4,2.3,2.4
				C163.5,34.1,163.8,35.2,163.9,36.3z"/>
		</g>
		<path class="st24" d="M144.3,21.3c-1.8-1-3.2-0.2-3.2,1.9v10.1c0.1,1.1,0.4,2.2,0.9,3.2c0.6,1,1.3,1.8,2.3,2.4l4.4,2.5l3.8,13
			l3.8-8.6l4.4,2.5c1.8,1,3.2,0.2,3.2-1.8V36.3c-0.1-1.1-0.4-2.2-0.9-3.2c-0.6-1-1.3-1.8-2.3-2.4L144.3,21.3z"/>
		<path class="st14" d="M158,40.8l-2.4-1.4l0.6,4.2l-1.5-0.9l-0.6-4.2l-2-1.1l0.6,4.2l-1.5-0.9l-0.6-4.2l-2.8-1.6l-0.2-1.9l2.7,1.6
			l-0.3-2.4l-2.8-1.6l-0.2-1.9l2.7,1.6l-0.6-4.2l1.5,0.9l0.6,4.2l2,1.1l-0.6-4.2l1.5,0.9l0.6,4.2l2.5,1.4l0.2,1.9l-2.5-1.4l0.3,2.4
			l2.4,1.4L158,40.8z M153.8,36.6l-0.3-2.4l-2-1.2l0.3,2.4L153.8,36.6z"/>
		<path class="st14" d="M155.6,118.5h-0.1h-0.2c-0.1,0-0.1,0-0.2,0.1l0.2-0.1l0.2-0.1l0.2-0.1l0.6-0.3l0.7-0.2l0.7-0.2l0.7-0.2h0.2
			l0.4-0.1h0.1c1.8-0.3,3.7-0.3,5.6,0h0.2c0.2,0,0.5,0.1,0.7,0.1l0.7,0.2l0.7,0.2l0.6,0.2c0.4,0.2,0.9,0.4,1.3,0.6l6,3.5l6,3.5
			l6,3.5l6,3.5l6,3.5l6,3.5l6,3.5l6,3.5l6,3.5l6,3.5l6,3.5l6,3.5l6,3.5l6,3.5l6,3.5l6,3.5l6,3.5l6,3.5l6,3.5l6,3.5
			c0,0-0.1,0-0.1-0.1l-119.9-69.4c-0.1,0-0.2-0.1-0.4,0c-0.1,0-0.2,0.1-0.3,0.1c-1.9-1-4-1.4-6.1-1.4c-2.1,0-4.2,0.5-6.1,1.4
			C155.8,118.6,155.8,118.6,155.6,118.5L155.6,118.5z"/>
		<path class="st14" d="M168.8,118.6c-0.1-0.1-0.3-0.1-0.4-0.1c-0.1,0-0.3,0-0.4,0.1c-1.9-1-4-1.4-6.1-1.4c-2.1,0-4.2,0.5-6.1,1.4
			c-0.1-0.1-0.3-0.1-0.4-0.1s-0.3,0-0.4,0.1c1-0.6,2.1-1,3.3-1.3c2.4-0.5,4.8-0.5,7.2,0c0.2,0.1,0.5,0.1,0.7,0.2
			c0.4,0.1,0.9,0.3,1.3,0.5c0.2,0.1,0.5,0.2,0.7,0.3L168.8,118.6z"/>
		<path class="st14" d="M105.2,147.9l50.6-29.2l-0.1-0.1l-2.5,1.4l-2.5,1.5l-2.5,1.5l-2.5,1.5l-2.5,1.5l-2.5,1.5l-2.6,1.5l-2.5,1.5
			l-2.5,1.5l-2.5,1.5l-2.5,1.5l-2.5,1.5l-2.5,1.5l-2.6,1.4l-2.5,1.5l-2.5,1.5l-2.5,1.5l-2.5,1.5l-2.5,1.5l-2.5,1.5L105.2,147.9z"/>
		<path class="st14" d="M105.1,147.8l2.5-1.5l2.5-1.5l2.5-1.5l2.5-1.5l2.5-1.5l2.5-1.5l2.5-1.5l2.5-1.5l2.5-1.5l2.5-1.5l2.6-1.4
			l2.5-1.5l2.5-1.5l2.5-1.5l2.5-1.5l2.5-1.5l2.5-1.5l2.5-1.5l2.5-1.5l2.5-1.5c-0.1-0.1-0.2-0.1-0.3-0.1c-0.1,0-0.2,0-0.3,0.1
			l-5.1,2.9l-5,2.9l-5.1,2.9l-5.1,2.9l-5.1,2.9l-5.1,2.9l-5.1,2.9l-5.1,3l-5.1,2.9l-2.5,1.4l-2.5,1.5c0.1-0.1,0.2-0.1,0.3-0.1
			C104.9,147.7,105,147.7,105.1,147.8z"/>
		<path class="st31" d="M100.7,154.8c0,0.3,0,0.6,0.1,0.9c0,0.3,0.1,0.6,0.2,0.9c0.2,0.6,0.4,1.2,0.8,1.8c0.3,0.5,0.7,0.9,1.1,1.4
			c0.3,0.3,0.5,0.5,0.8,0.7c0.3,0.2,0.6,0.4,0.9,0.6c-0.3-0.2-0.5-0.5-0.6-0.9c-0.1-0.3-0.2-0.7-0.1-1
			C101.7,157.9,100.7,156.4,100.7,154.8z"/>
		<defs>
			<filter id="Adobe_OpacityMaskFilter_6_" filterUnits="userSpaceOnUse" x="100.7" y="154.8" width="3.8" height="6.2">
				<feColorMatrix  type="matrix" values="1 0 0 0 0  0 1 0 0 0  0 0 1 0 0  0 0 0 1 0"/>
			</filter>
		</defs>
		<mask maskUnits="userSpaceOnUse" x="100.7" y="154.8" width="3.8" height="6.2" id="mask6_26_1607_1_">
			<path class="st32" d="M100.7,154.8c0,0.3,0,0.6,0.1,0.9c0,0.3,0.1,0.6,0.2,0.9c0.2,0.6,0.4,1.2,0.8,1.8c0.3,0.5,0.7,0.9,1.1,1.4
				c0.3,0.3,0.5,0.5,0.8,0.7c0.3,0.2,0.6,0.4,0.9,0.6c-0.3-0.2-0.5-0.5-0.6-0.9c-0.1-0.3-0.2-0.7-0.1-1
				C101.7,157.9,100.7,156.4,100.7,154.8z"/>
		</mask>
		<g class="st33">
			<path class="st31" d="M100.7,154.8c0,1.3,0.4,2.5,1,3.6c0.7,1.1,1.6,2,2.8,2.6c-0.3-0.2-0.5-0.5-0.6-0.9c-0.1-0.3-0.2-0.7-0.1-1
				C101.7,157.9,100.7,156.4,100.7,154.8z"/>
		</g>
		<path class="st34" d="M100.7,154.1v0.7c0,1.6,1,3.1,3.1,4.3v-0.7C101.7,157.2,100.7,155.7,100.7,154.1z"/>
		<path class="st35" d="M288.2,188l-119.4-69.4c-0.1-0.1-0.3-0.1-0.4-0.1s-0.3,0-0.4,0.1L287.4,188c0.1-0.1,0.3-0.1,0.4-0.1
			C288,187.9,288.1,187.9,288.2,188z"/>
		<defs>
			<filter id="Adobe_OpacityMaskFilter_7_" filterUnits="userSpaceOnUse" x="168" y="118.5" width="120.1" height="69.5">
				<feColorMatrix  type="matrix" values="1 0 0 0 0  0 1 0 0 0  0 0 1 0 0  0 0 0 1 0"/>
			</filter>
		</defs>
		<mask maskUnits="userSpaceOnUse" x="168" y="118.5" width="120.1" height="69.5" id="mask7_26_1607_1_">
			<path class="st36" d="M288.2,188l-119.4-69.4c-0.1-0.1-0.3-0.1-0.4-0.1s-0.3,0-0.4,0.1L287.4,188c0.1-0.1,0.3-0.1,0.4-0.1
				C288,187.9,288.1,187.9,288.2,188z"/>
		</mask>
		<g class="st37">
			<path class="st14" d="M168,118.6L287.4,188c0.1-0.1,0.2-0.1,0.3-0.1c0.1,0,0.2,0,0.3,0l-119.4-69.4c-0.1,0-0.2,0-0.4,0
				C168.2,118.5,168.1,118.6,168,118.6z"/>
		</g>
		<path class="st31" d="M288.2,201.2c1.1-0.6,2.1-1.5,2.8-2.6c0.7-1.1,1-2.4,1.1-3.7c0,1.6-1,3.2-3.1,4.4c0,0.3,0,0.7-0.1,1
			C288.7,200.6,288.5,200.9,288.2,201.2z"/>
		<path class="st34" d="M288.9,198.6v0.7c2.1-1.2,3.1-2.8,3.1-4.4v-0.7C292,195.8,291,197.4,288.9,198.6z"/>
		<path class="st14" d="M292,194.2c0-1.3-0.4-2.5-1-3.6c-0.7-1.1-1.6-2-2.8-2.6c-0.1-0.1-0.3-0.1-0.4-0.1c-0.1,0-0.3,0-0.4,0.1
			c3.3,1.9,3.3,5.1,0,7c0.8,0.5,1.5,2.1,1.5,3.6C291,197.4,292,195.8,292,194.2z"/>
		<path class="st34" d="M288.1,187.9c4.7,2.7,5.1,7.7,0.7,10c0,0.2,0,0.5,0.1,0.7c2.1-1.2,3.1-2.8,3.1-4.4c0-0.1,0-0.3,0-0.4
			c0-0.3,0-0.6-0.1-0.9l-0.1-0.4c0-0.1-0.1-0.3-0.1-0.5l-0.1-0.4c-0.1-0.2-0.1-0.4-0.2-0.5l-0.2-0.4l-0.3-0.5l-0.3-0.4l-0.6-0.6
			l-0.4-0.4c-0.4-0.3-0.8-0.6-1.2-0.9C288.2,188,288.1,187.9,288.1,187.9z"/>
		<path class="st31" d="M104.4,161l11.9,6.9l11.9,6.9l11.9,6.9l11.9,6.9l11.9,6.9l11.9,6.9l11.9,6.9l12,6.9l11.9,6.9l11.9,6.9
			c-0.3-0.2-0.5-0.5-0.6-0.9c-0.1-0.3-0.2-0.7-0.1-1l-119.4-69.4c0,0.3,0,0.7,0.1,1C104,160.5,104.2,160.8,104.4,161z"/>
		<defs>
			<filter id="Adobe_OpacityMaskFilter_8_" filterUnits="userSpaceOnUse" x="103.7" y="159.1" width="120.2" height="71.3">
				<feColorMatrix  type="matrix" values="1 0 0 0 0  0 1 0 0 0  0 0 1 0 0  0 0 0 1 0"/>
			</filter>
		</defs>
		<mask maskUnits="userSpaceOnUse" x="103.7" y="159.1" width="120.2" height="71.3" id="mask8_26_1607_1_">
			<path class="st38" d="M104.4,161l11.9,6.9l11.9,6.9l11.9,6.9l11.9,6.9l11.9,6.9l11.9,6.9l11.9,6.9l12,6.9l11.9,6.9l11.9,6.9
				c-0.3-0.2-0.5-0.5-0.6-0.9c-0.1-0.3-0.2-0.7-0.1-1l-119.4-69.4c0,0.3,0,0.7,0.1,1C104,160.5,104.2,160.8,104.4,161z"/>
		</mask>
		<g class="st39">
			<path class="st31" d="M223.1,228.5l-119.4-69.4c0,0.3,0,0.7,0.1,1c0.1,0.3,0.3,0.6,0.6,0.9l11.9,6.9l11.9,6.9l11.9,6.9l11.9,6.9
				l11.9,6.9l11.9,6.9l11.9,6.9l12,6.9l11.9,6.9l11.9,6.9c-0.3-0.2-0.5-0.5-0.6-0.8C223.2,229.2,223.1,228.9,223.1,228.5z"/>
		</g>
		<path class="st31" d="M237.6,230.4l5.1-2.9l5.1-2.9l5.1-2.9l5.1-2.9l5.1-2.9l5.1-2.9l5.1-2.9l5.1-2.9l5.1-2.9l5.1-2.9
			c0.3-0.2,0.5-0.5,0.6-0.9c0.1-0.3,0.2-0.7,0.1-1l-50.6,29.2c0,0.3,0,0.7-0.1,1C238,229.9,237.8,230.2,237.6,230.4z"/>
		<defs>
			<filter id="Adobe_OpacityMaskFilter_9_" filterUnits="userSpaceOnUse" x="237.6" y="199.3" width="51.3" height="31.1">
				<feColorMatrix  type="matrix" values="1 0 0 0 0  0 1 0 0 0  0 0 1 0 0  0 0 0 1 0"/>
			</filter>
		</defs>
		<mask maskUnits="userSpaceOnUse" x="237.6" y="199.3" width="51.3" height="31.1" id="mask9_26_1607_1_">
			<path class="st40" d="M237.6,230.4l5.1-2.9l5.1-2.9l5.1-2.9l5.1-2.9l5.1-2.9l5.1-2.9l5.1-2.9l5.1-2.9l5.1-2.9l5.1-2.9
				c0.3-0.2,0.5-0.5,0.6-0.9c0.1-0.3,0.2-0.7,0.1-1l-50.6,29.2c0,0.3,0,0.7-0.1,1C238,229.9,237.8,230.2,237.6,230.4z"/>
		</mask>
		<g class="st41">
			<path class="st31" d="M288.9,199.3l-50.6,29.2c0,0.3,0,0.7-0.1,1c-0.1,0.3-0.3,0.6-0.6,0.9l5.1-2.9l5.1-2.9l5.1-2.9l5.1-2.9
				l5.1-2.9l5.1-2.9l5.1-2.9l5.1-2.9l5.1-2.9l5.1-2.9c0.3-0.2,0.5-0.5,0.6-0.9C288.9,200,288.9,199.6,288.9,199.3z"/>
		</g>
		<path class="st34" d="M103.7,158.4l0,0.7l119.4,69.4v-0.7L103.7,158.4z"/>
		<path class="st34" d="M238.2,227.8l0,0.7l50.6-29.2v-0.7L238.2,227.8z"/>
		<path class="st14" d="M224.7,224.3l-119.4-69.4c-0.1,0.1-0.2,0.2-0.3,0.3l119.4,69.4C224.4,224.4,224.5,224.4,224.7,224.3z"/>
		<path class="st14" d="M287.4,195l-50.6,29.2c0.1,0.1,0.2,0.2,0.3,0.3l50.6-29.2C287.6,195.2,287.5,195.1,287.4,195z"/>
		<path class="st14" d="M287.7,195.3l-50.6,29.2c0.3,0.3,0.5,0.7,0.7,1.1l50.6-29.2C288.3,196,288,195.6,287.7,195.3z"/>
		<path class="st14" d="M288.4,196.4l-50.6,29.2c0.2,0.5,0.3,1,0.4,1.5l50.6-29.2C288.8,197.4,288.6,196.9,288.4,196.4z"/>
		<path class="st34" d="M288.8,197.9l-50.6,29.2c0,0.2,0.1,0.5,0.1,0.7l50.6-29.2C288.9,198.4,288.9,198.1,288.8,197.9z"/>
		<path class="st31" d="M223.9,230.4l0.6,0.3c0.2,0.1,0.5,0.2,0.7,0.3c0.4,0.1,0.9,0.3,1.3,0.5c0.2,0.1,0.5,0.1,0.7,0.2
			c1.2,0.3,2.4,0.4,3.6,0.4c1.2,0,2.4-0.1,3.6-0.4c0.2,0,0.5-0.1,0.7-0.2c0.4-0.1,0.9-0.3,1.3-0.5c0.4-0.2,0.9-0.4,1.3-0.6
			c0.4-0.2,0.7-0.9,0.7-1.9c-4.2,2.4-11,2.4-15.1,0c0,0.3,0,0.7,0.1,1C223.4,229.9,223.6,230.2,223.9,230.4z"/>
		<defs>
			<filter id="Adobe_OpacityMaskFilter_10_" filterUnits="userSpaceOnUse" x="223.1" y="228.5" width="15.1" height="3.6">
				<feColorMatrix  type="matrix" values="1 0 0 0 0  0 1 0 0 0  0 0 1 0 0  0 0 0 1 0"/>
			</filter>
		</defs>
		<mask maskUnits="userSpaceOnUse" x="223.1" y="228.5" width="15.1" height="3.6" id="mask10_26_1607_1_">
			<path class="st42" d="M223.9,230.4l0.6,0.3c0.2,0.1,0.5,0.2,0.7,0.3c0.4,0.1,0.9,0.3,1.3,0.5c0.2,0.1,0.5,0.1,0.7,0.2
				c1.2,0.3,2.4,0.4,3.6,0.4c1.2,0,2.4-0.1,3.6-0.4c0.2,0,0.5-0.1,0.7-0.2c0.4-0.1,0.9-0.3,1.3-0.5c0.4-0.2,0.9-0.4,1.3-0.6
				c0.4-0.2,0.7-0.9,0.7-1.9c-4.2,2.4-11,2.4-15.1,0c0,0.3,0,0.7,0.1,1C223.4,229.9,223.6,230.2,223.9,230.4z"/>
		</mask>
		<g class="st43">
			<path class="st31" d="M223.9,230.4c2.1,1.1,4.5,1.7,6.9,1.7s4.7-0.6,6.9-1.7c0.4-0.2,0.7-0.9,0.7-1.9c-4.2,2.4-11,2.4-15.1,0
				c0,0.3,0,0.7,0.1,1C223.4,229.9,223.6,230.2,223.9,230.4z"/>
		</g>
		<path class="st34" d="M223.1,227.8v0.7c4.1,2.4,10.9,2.4,15.1,0v-0.7c-2.3,1.2-4.9,1.8-7.6,1.8S225.5,229,223.1,227.8z"/>
		<path class="st14" d="M223.2,227.1c0-0.5,0.2-1.1,0.4-1.6c0.2-0.5,0.6-0.9,1-1.3c1.9,1,4,1.4,6.1,1.4c2.1,0,4.2-0.5,6.1-1.4
			c0.4,0.4,0.8,0.8,1,1.3c0.2,0.5,0.4,1,0.4,1.6c-2.3,1.2-4.9,1.8-7.5,1.8C228.1,228.9,225.5,228.3,223.2,227.1z"/>
		<path class="st34" d="M238.2,227.1c0,0.2,0.1,0.5,0.1,0.7c-2.3,1.2-4.9,1.8-7.5,1.8c-2.6,0-5.2-0.6-7.5-1.8c0-0.2,0-0.5,0-0.7
			c2.3,1.2,4.9,1.8,7.5,1.8S235.9,228.3,238.2,227.1z"/>
		<path class="st14" d="M236.8,224.3c-1.9,1-4,1.4-6.1,1.4c-2.1,0-4.2-0.5-6.1-1.4c-0.4,0.4-0.8,0.8-1,1.3c-0.2,0.5-0.4,1-0.4,1.6
			c0-1.5,0.7-3.1,1.5-3.6c1.9,1,4,1.4,6.1,1.4c2.1,0,4.2-0.5,6.1-1.4c0.8,0.5,1.5,2.1,1.5,3.6h0c0-0.5-0.2-1.1-0.5-1.6
			C237.5,225.1,237.2,224.6,236.8,224.3z"/>
		<path class="st14" d="M105.2,154.9c-3.3-1.9-3.3-5.1,0-7l50.6-29.2c1.9-1,4-1.4,6.1-1.4c2.1,0,4.2,0.5,6.1,1.4l1.6,0.9l-62.8,36.2
			L105.2,154.9z"/>
		
			<linearGradient id="SVGID_3_" gradientUnits="userSpaceOnUse" x1="94.2664" y1="249.0983" x2="221.0561" y2="155.4482" gradientTransform="matrix(1 0 0 -1 0 345)">
			<stop  offset="0" style="stop-color:#4DAEE9"/>
			<stop  offset="0.19" style="stop-color:#48A5E8"/>
			<stop  offset="0.49" style="stop-color:#398DE7"/>
			<stop  offset="0.87" style="stop-color:#2267E4"/>
			<stop  offset="1" style="stop-color:#1958E3"/>
		</linearGradient>
		<path class="st44" d="M169.6,119.5L287.4,188c3.3,1.9,3.3,5.1,0,7l-50.6,29.2c-1.9,1-4,1.4-6.1,1.4c-2.1,0-4.2-0.5-6.1-1.4
			l-117.9-68.4L169.6,119.5z"/>
		<path class="st14" d="M104.9,155.1l119.4,69.4c-0.6,0.7-1.1,1.6-1.2,2.6l-119.4-68.9C103.8,157.1,104.2,156,104.9,155.1z"/>
		<path class="st34" d="M223.2,227.1c0,0.2,0,0.5,0,0.7l-119.4-69.4c0-0.1,0-0.2,0-0.3L223.2,227.1z"/>
		<path class="st14" d="M104.5,147.8c-1.1,0.6-2.1,1.5-2.8,2.6c-0.7,1.1-1,2.4-1,3.7c0,1.6,1,3.1,3.1,4.3c0-1.4,0.7-3.1,1.5-3.6
			c-3.3-1.9-3.3-5.1,0-7c-0.1-0.1-0.2-0.1-0.4-0.1C104.7,147.7,104.6,147.8,104.5,147.8z"/>
		<path class="st34" d="M100.7,153.4c0,0.2,0,0.3,0,0.5c0,1.6,1,3.1,3.1,4.3c0,0.1,0,0.2,0,0.3c-2-1.2-3.1-2.8-3.1-4.3
			C100.7,153.9,100.7,153.6,100.7,153.4z"/>
		<path class="st45" d="M157.2,122.5c0.3,0.1,0.5,0.2,0.6,0.5c0.2,0.2,0.2,0.5,0.2,0.7s-0.1,0.5-0.2,0.7c-0.2,0.2-0.4,0.4-0.6,0.5
			c-0.6,0.3-1.4,0.5-2.1,0.5s-1.4-0.2-2.1-0.5c-0.3-0.1-0.5-0.2-0.6-0.5c-0.2-0.2-0.2-0.5-0.2-0.7s0.1-0.5,0.2-0.7
			c0.2-0.2,0.4-0.4,0.6-0.5c0.6-0.3,1.4-0.5,2.1-0.5S156.6,122.2,157.2,122.5z"/>
		<path class="st45" d="M160.9,120.3c0.2,0.1,0.3,0.2,0.4,0.3c0.1,0.1,0.2,0.3,0.2,0.5c0,0.2-0.1,0.3-0.2,0.5
			c-0.1,0.1-0.2,0.2-0.4,0.3c-0.4,0.2-0.9,0.3-1.3,0.3c-0.5,0-0.9-0.1-1.3-0.3c-0.7-0.4-0.7-1.1,0-1.5c0.4-0.2,0.9-0.3,1.3-0.3
			C160.1,119.9,160.5,120.1,160.9,120.3z"/>
		<path class="st45" d="M136.9,136.1l4.1-2.4c0.2-0.1,0.3-0.2,0.4-0.3c0.1-0.2,0.2-0.3,0.2-0.5c0-0.2-0.1-0.4-0.2-0.5
			c-0.1-0.2-0.3-0.3-0.4-0.3c-0.5-0.2-1-0.4-1.5-0.4c-0.5,0-1,0.1-1.5,0.4l-4.1,2.4c-0.2,0.1-0.3,0.2-0.4,0.3
			c-0.1,0.2-0.2,0.3-0.2,0.5c0,0.2,0.1,0.4,0.2,0.5c0.1,0.2,0.3,0.3,0.4,0.3c0.5,0.2,1,0.3,1.5,0.3
			C136,136.5,136.5,136.4,136.9,136.1z"/>
		<path class="st9" d="M241.7,226.7c0,0.3-0.1,0.6-0.3,0.8c-0.1,0.3-0.4,0.5-0.6,0.6c-0.3,0.2-0.6,0.1-0.8-0.1
			c-0.1-0.1-0.1-0.2-0.1-0.4c0-0.3,0.1-0.6,0.2-0.8c0.1-0.3,0.4-0.5,0.6-0.6c0.1-0.1,0.2-0.1,0.3-0.1
			C241.5,226.1,241.7,226.3,241.7,226.7z"/>
		<path class="st45" d="M241.3,226.5c0,0.3-0.1,0.6-0.3,0.8c-0.1,0.3-0.4,0.5-0.6,0.6c-0.1,0.1-0.2,0.1-0.3,0.1
			c-0.1-0.1-0.1-0.2-0.1-0.4c0-0.3,0.1-0.6,0.2-0.8c0.1-0.3,0.4-0.5,0.6-0.6c0.1-0.1,0.2-0.1,0.3-0.1
			C241.3,226.2,241.3,226.3,241.3,226.5z"/>
		<path class="st9" d="M266.7,212.1c0,0.3-0.1,0.6-0.3,0.8c-0.1,0.3-0.4,0.5-0.6,0.6l-2.4,1.4c-0.1,0.1-0.2,0.1-0.4,0.1
			c-0.1,0-0.1,0-0.2,0c-0.1,0-0.1-0.1-0.2-0.2c-0.1-0.1-0.1-0.3-0.1-0.4c0-0.3,0.1-0.6,0.3-0.8c0.1-0.3,0.4-0.5,0.6-0.6l2.4-1.4
			l0.2-0.1h0.1C266.5,211.5,266.7,211.7,266.7,212.1z"/>
		<path class="st45" d="M266.2,212c0,0.3-0.1,0.6-0.2,0.8c-0.1,0.3-0.4,0.5-0.6,0.6l-2.4,1.3c-0.1,0-0.2,0.1-0.2,0.1
			c-0.1-0.1-0.1-0.3-0.1-0.4c0-0.3,0.1-0.6,0.3-0.8c0.1-0.3,0.4-0.5,0.6-0.6l2.4-1.4l0.2-0.1C266.2,211.7,266.2,211.8,266.2,212z"/>
		<path class="st46" d="M191.4,75.9l-0.5,74.5l-33.2,19.3l0.5-74.5L191.4,75.9z"/>
		<path class="st34" d="M158.2,95.2l-0.5,74.5l-33.4-19.3l0.5-74.5L158.2,95.2z"/>
		<path class="st14" d="M191.4,75.9l-33.2,19.3l-33.4-19.3L158,56.6L191.4,75.9z"/>
		<path class="st24" d="M233.7,51.6l-0.5,123.2L200,194.1l0.5-123.2L233.7,51.6z"/>
		<path class="st16" d="M200.5,70.9L200,194.1l-33.4-19.3l0.5-123.2L200.5,70.9z"/>
		<path class="st24" d="M233.7,51.6l-33.2,19.3l-33.4-19.3l33.2-19.3L233.7,51.6z"/>
		<path class="st46" d="M276,152.9l-0.5,46.3l-33.2,19.3l0.5-46.3L276,152.9z"/>
		<path class="st34" d="M242.8,172.2l-0.5,46.3l-33.4-19.3l0.5-46.3L242.8,172.2z"/>
		<path class="st14" d="M276,152.9l-33.2,19.3l-33.4-19.3l33.2-19.3L276,152.9z"/>
		<path class="st47" d="M176.7,9.8l7.4-4.3c0.1-0.1,0.3-0.1,0.5-0.1c0.2,0,0.3,0,0.5,0.1l-7.4,4.3c-0.1-0.1-0.3-0.1-0.5-0.1
			C177,9.7,176.8,9.7,176.7,9.8z"/>
		<defs>
			<filter id="Adobe_OpacityMaskFilter_11_" filterUnits="userSpaceOnUse" x="176.7" y="5.3" width="8.3" height="4.4">
				<feColorMatrix  type="matrix" values="1 0 0 0 0  0 1 0 0 0  0 0 1 0 0  0 0 0 1 0"/>
			</filter>
		</defs>
		<mask maskUnits="userSpaceOnUse" x="176.7" y="5.3" width="8.3" height="4.4" id="mask11_26_1607_1_">
			<path class="st48" d="M176.7,9.8l7.4-4.3c0.1-0.1,0.3-0.1,0.5-0.1c0.2,0,0.3,0,0.5,0.1l-7.4,4.3c-0.1-0.1-0.3-0.1-0.5-0.1
				C177,9.7,176.8,9.7,176.7,9.8z"/>
		</mask>
		<g class="st49">
			<path class="st47" d="M176.7,9.8l7.4-4.3c0.1-0.1,0.3-0.1,0.5-0.1c0.2,0,0.3,0,0.5,0.1l-7.4,4.3c-0.1-0.1-0.3-0.1-0.5-0.1
				C177,9.7,176.8,9.7,176.7,9.8z"/>
		</g>
		<path class="st47" d="M220,57l-7.4,4.3c0.2-0.2,0.4-0.4,0.5-0.6c0.1-0.2,0.1-0.5,0.1-0.8l7.4-4.3c0.1,0.3,0,0.5,0,0.8
			C220.4,56.6,220.2,56.8,220,57z"/>
		<defs>
			<filter id="Adobe_OpacityMaskFilter_12_" filterUnits="userSpaceOnUse" x="212.6" y="55.7" width="7.9" height="5.6">
				<feColorMatrix  type="matrix" values="1 0 0 0 0  0 1 0 0 0  0 0 1 0 0  0 0 0 1 0"/>
			</filter>
		</defs>
		<mask maskUnits="userSpaceOnUse" x="212.6" y="55.7" width="7.9" height="5.6" id="mask12_26_1607_1_">
			<path class="st50" d="M220,57l-7.4,4.3c0.2-0.2,0.4-0.4,0.5-0.6c0.1-0.2,0.1-0.5,0.1-0.8l7.4-4.3c0.1,0.3,0,0.5,0,0.8
				C220.4,56.6,220.2,56.8,220,57z"/>
		</mask>
		<g class="st51">
			<path class="st47" d="M213.1,60l7.4-4.3c0.1,0.2,0,0.5-0.1,0.7c-0.1,0.2-0.2,0.4-0.4,0.6l-7.4,4.3c0.2-0.2,0.3-0.4,0.4-0.6
				C213.1,60.5,213.1,60.2,213.1,60z"/>
		</g>
		<path class="st47" d="M177.6,9.7l7.4-4.3l12.2,4.2l-7.4,4.3L177.6,9.7z"/>
		<path class="st47" d="M198.1,9.6l-7.4,4.3c-0.1,0.1-0.3,0.1-0.5,0.1c-0.2,0-0.3,0-0.5-0.1l7.4-4.3c0.1,0.1,0.3,0.1,0.5,0.1
			S198,9.6,198.1,9.6z"/>
		<defs>
			<filter id="Adobe_OpacityMaskFilter_13_" filterUnits="userSpaceOnUse" x="189.8" y="9.6" width="8.4" height="4.4">
				<feColorMatrix  type="matrix" values="1 0 0 0 0  0 1 0 0 0  0 0 1 0 0  0 0 0 1 0"/>
			</filter>
		</defs>
		<mask maskUnits="userSpaceOnUse" x="189.8" y="9.6" width="8.4" height="4.4" id="mask13_26_1607_1_">
			<path class="st52" d="M198.1,9.6l-7.4,4.3c-0.1,0.1-0.3,0.1-0.5,0.1c-0.2,0-0.3,0-0.5-0.1l7.4-4.3c0.1,0.1,0.3,0.1,0.5,0.1
				S198,9.6,198.1,9.6z"/>
		</mask>
		<g class="st53">
			<path class="st47" d="M189.8,13.9l7.4-4.3c0.1,0.1,0.3,0.1,0.5,0.1s0.3,0,0.5-0.1l-7.4,4.3c-0.1,0.1-0.3,0.1-0.5,0.1
				C190.1,14,189.9,14,189.8,13.9z"/>
		</g>
		<path class="st47" d="M211.7,45l7.4-4.3l1.4,15l-7.4,4.3L211.7,45z"/>
		<path class="st47" d="M212.1,43.6l7.4-4.3c-0.2,0.2-0.3,0.4-0.4,0.6c-0.1,0.2-0.1,0.5,0,0.7l-7.4,4.4c-0.1-0.3-0.1-0.5,0-0.8
			C211.8,44,211.9,43.8,212.1,43.6z"/>
		<defs>
			<filter id="Adobe_OpacityMaskFilter_14_" filterUnits="userSpaceOnUse" x="211.6" y="39.3" width="7.9" height="5.7">
				<feColorMatrix  type="matrix" values="1 0 0 0 0  0 1 0 0 0  0 0 1 0 0  0 0 0 1 0"/>
			</filter>
		</defs>
		<mask maskUnits="userSpaceOnUse" x="211.6" y="39.3" width="7.9" height="5.7" id="mask14_26_1607_1_">
			<path class="st54" d="M212.1,43.6l7.4-4.3c-0.2,0.2-0.3,0.4-0.4,0.6c-0.1,0.2-0.1,0.5,0,0.7l-7.4,4.4c-0.1-0.3-0.1-0.5,0-0.8
				C211.8,44,211.9,43.8,212.1,43.6z"/>
		</mask>
		<g class="st55">
			<path class="st47" d="M212.1,43.6l7.4-4.3c-0.2,0.2-0.3,0.4-0.4,0.6c-0.1,0.2-0.1,0.5,0,0.7l-7.4,4.4c-0.1-0.3-0.1-0.5,0-0.8
				C211.8,44,211.9,43.8,212.1,43.6z"/>
		</g>
		<path class="st47" d="M206.2,22.5l7.4-4.3c0.3,0.7,0.7,1.2,1.2,1.7l-7.4,4.3C206.9,23.7,206.5,23.1,206.2,22.5z"/>
		<defs>
			<filter id="Adobe_OpacityMaskFilter_15_" filterUnits="userSpaceOnUse" x="206.2" y="18.1" width="8.6" height="6">
				<feColorMatrix  type="matrix" values="1 0 0 0 0  0 1 0 0 0  0 0 1 0 0  0 0 0 1 0"/>
			</filter>
		</defs>
		<mask maskUnits="userSpaceOnUse" x="206.2" y="18.1" width="8.6" height="6" id="mask15_26_1607_1_">
			<path class="st56" d="M206.2,22.5l7.4-4.3c0.3,0.7,0.7,1.2,1.2,1.7l-7.4,4.3C206.9,23.7,206.5,23.1,206.2,22.5z"/>
		</mask>
		<g class="st57">
			<path class="st47" d="M206.2,22.5l7.4-4.3c0.3,0.7,0.7,1.2,1.2,1.7l-7.4,4.3C206.9,23.7,206.5,23.1,206.2,22.5z"/>
		</g>
		<path class="st47" d="M197.4,4.4l7.4-4.3C205,0,205.2,0,205.5,0c0.2,0,0.4,0.1,0.6,0.2l-7.4,4.3c-0.2-0.1-0.4-0.2-0.6-0.2
			C197.8,4.3,197.6,4.3,197.4,4.4z"/>
		<defs>
			<filter id="Adobe_OpacityMaskFilter_16_" filterUnits="userSpaceOnUse" x="197.4" y="0" width="8.7" height="4.6">
				<feColorMatrix  type="matrix" values="1 0 0 0 0  0 1 0 0 0  0 0 1 0 0  0 0 0 1 0"/>
			</filter>
		</defs>
		<mask maskUnits="userSpaceOnUse" x="197.4" y="0" width="8.7" height="4.6" id="mask16_26_1607_1_">
			<path class="st58" d="M197.4,4.4l7.4-4.3C205,0,205.2,0,205.5,0c0.2,0,0.4,0.1,0.6,0.2l-7.4,4.3c-0.2-0.1-0.4-0.2-0.6-0.2
				C197.8,4.3,197.6,4.3,197.4,4.4z"/>
		</mask>
		<g class="st59">
			<path class="st47" d="M197.4,4.4l7.4-4.3C205,0,205.2,0,205.5,0c0.2,0,0.4,0.1,0.6,0.2l-7.4,4.3c-0.2-0.1-0.4-0.2-0.6-0.2
				C197.8,4.3,197.6,4.3,197.4,4.4z"/>
		</g>
		<path class="st47" d="M200.2,6.5l7.4-4.3l6.1,16l-7.4,4.3L200.2,6.5z"/>
		<path class="st47" d="M198.6,4.6l7.4-4.3c0.7,0.5,1.3,1.1,1.5,1.9l-7.4,4.3C199.9,5.7,199.4,5,198.6,4.6z"/>
		<defs>
			<filter id="Adobe_OpacityMaskFilter_17_" filterUnits="userSpaceOnUse" x="198.6" y="0.2" width="9" height="6.2">
				<feColorMatrix  type="matrix" values="1 0 0 0 0  0 1 0 0 0  0 0 1 0 0  0 0 0 1 0"/>
			</filter>
		</defs>
		<mask maskUnits="userSpaceOnUse" x="198.6" y="0.2" width="9" height="6.2" id="mask17_26_1607_1_">
			<path class="st60" d="M198.6,4.6l7.4-4.3c0.7,0.5,1.3,1.1,1.5,1.9l-7.4,4.3C199.9,5.7,199.4,5,198.6,4.6z"/>
		</mask>
		<g class="st61">
			<path class="st47" d="M198.6,4.6l7.4-4.3c0.7,0.5,1.3,1.1,1.5,1.9l-7.4,4.3C199.9,5.7,199.4,5,198.6,4.6z"/>
		</g>
		<path class="st47" d="M220.6,37.9l7.4-4.3l-8.4,5.7l-7.4,4.3L220.6,37.9z"/>
		<path class="st47" d="M207.4,24.1l7.4-4.3l12.2,9.9l-7.4,4.3L207.4,24.1z"/>
		<path class="st62" d="M198.6,4.6c0.7,0.5,1.3,1.1,1.6,1.9l6.1,16c0.2,0.7,0.7,1.2,1.2,1.7l12.2,9.8c1.4,1.1,1.9,3.3,0.9,3.9
			l-8.4,5.7c-0.2,0.2-0.3,0.4-0.4,0.6c-0.1,0.2-0.1,0.5,0,0.7l1.4,15c0.1,1.3-0.8,1.8-1.8,1.3c-0.3-0.2-0.5-0.4-0.7-0.6l-11.3-12.5
			c-0.2-0.2-0.5-0.5-0.7-0.6c-0.2-0.1-0.5-0.2-0.8-0.2l-11.3-0.6c-0.3,0-0.5-0.1-0.8-0.2c-0.5-0.4-1-0.8-1.3-1.4
			c-0.3-0.6-0.5-1.2-0.5-1.9l1.5-13.4c0-0.7-0.1-1.3-0.4-1.9l-8.4-15.4c-0.9-1.7-0.4-3.3,1-2.8l12.2,4.2c0.2,0.1,0.4,0.1,0.7,0.1
			c0.2-0.1,0.4-0.2,0.5-0.4l6.1-8.9C197.4,4.2,198,4.2,198.6,4.6z"/>
		<path class="st47" d="M219.6,34l7.4-4.3c1.4,1.1,1.9,3.3,1,3.9l-7.4,4.3C221.5,37.3,221,35.1,219.6,34z"/>
		<defs>
			<filter id="Adobe_OpacityMaskFilter_18_" filterUnits="userSpaceOnUse" x="219.6" y="29.7" width="8.8" height="8.3">
				<feColorMatrix  type="matrix" values="1 0 0 0 0  0 1 0 0 0  0 0 1 0 0  0 0 0 1 0"/>
			</filter>
		</defs>
		<mask maskUnits="userSpaceOnUse" x="219.6" y="29.7" width="8.8" height="8.3" id="mask18_26_1607_1_">
			<path class="st63" d="M219.6,34l7.4-4.3c1.4,1.1,1.9,3.3,1,3.9l-7.4,4.3C221.5,37.3,221,35.1,219.6,34z"/>
		</mask>
		<g class="st64">
			<path class="st47" d="M219.6,34l7.4-4.3c1.4,1.1,1.9,3.3,1,3.9l-7.4,4.3C221.5,37.3,221,35.1,219.6,34z"/>
		</g>
		<path class="st46" d="M227.6,130.3l4.4-2.5c0.1,0,0.2-0.1,0.3-0.1s0.2,0,0.3,0.1l-4.4,2.5c-0.1,0-0.2-0.1-0.3-0.1
			C227.8,130.3,227.7,130.3,227.6,130.3z"/>
		<defs>
			<filter id="Adobe_OpacityMaskFilter_19_" filterUnits="userSpaceOnUse" x="227.6" y="127.7" width="5" height="2.6">
				<feColorMatrix  type="matrix" values="1 0 0 0 0  0 1 0 0 0  0 0 1 0 0  0 0 0 1 0"/>
			</filter>
		</defs>
		<mask maskUnits="userSpaceOnUse" x="227.6" y="127.7" width="5" height="2.6" id="mask19_26_1607_1_">
			<path class="st65" d="M227.6,130.3l4.4-2.5c0.1,0,0.2-0.1,0.3-0.1s0.2,0,0.3,0.1l-4.4,2.5c-0.1,0-0.2-0.1-0.3-0.1
				C227.8,130.3,227.7,130.3,227.6,130.3z"/>
		</mask>
		<g class="st66">
			<path class="st46" d="M227.6,130.3l4.4-2.5c0.1,0,0.2-0.1,0.3-0.1s0.2,0,0.3,0.1l-4.4,2.5c-0.1,0-0.2-0.1-0.3-0.1
				C227.8,130.3,227.7,130.3,227.6,130.3z"/>
		</g>
		<path class="st46" d="M253.1,158.2l-4.4,2.6c0.1-0.1,0.2-0.2,0.3-0.4c0.1-0.1,0.1-0.3,0-0.5l4.4-2.6c0,0.2,0,0.3,0,0.5
			C253.3,158,253.2,158.1,253.1,158.2z"/>
		<defs>
			<filter id="Adobe_OpacityMaskFilter_20_" filterUnits="userSpaceOnUse" x="248.7" y="157.4" width="4.7" height="3.4">
				<feColorMatrix  type="matrix" values="1 0 0 0 0  0 1 0 0 0  0 0 1 0 0  0 0 0 1 0"/>
			</filter>
		</defs>
		<mask maskUnits="userSpaceOnUse" x="248.7" y="157.4" width="4.7" height="3.4" id="mask20_26_1607_1_">
			<path class="st67" d="M253.1,158.2l-4.4,2.6c0.1-0.1,0.2-0.2,0.3-0.4c0.1-0.1,0.1-0.3,0-0.5l4.4-2.6c0,0.2,0,0.3,0,0.5
				C253.3,158,253.2,158.1,253.1,158.2z"/>
		</mask>
		<g class="st68">
			<path class="st46" d="M249,159.9l4.4-2.6c0,0.2,0,0.3,0,0.5c-0.1,0.1-0.1,0.3-0.3,0.4l-4.4,2.6c0.1-0.1,0.2-0.2,0.3-0.4
				C249,160.2,249,160.1,249,159.9z"/>
		</g>
		<path class="st46" d="M228.1,130.3l4.4-2.5l7.2,2.5l-4.4,2.6L228.1,130.3z"/>
		<path class="st46" d="M240.2,130.2l-4.4,2.5c-0.1,0-0.2,0.1-0.3,0.1c-0.1,0-0.2,0-0.3-0.1l4.4-2.5c0.1,0,0.2,0.1,0.3,0.1
			C240,130.3,240.1,130.3,240.2,130.2z"/>
		<defs>
			<filter id="Adobe_OpacityMaskFilter_21_" filterUnits="userSpaceOnUse" x="235.3" y="130.3" width="4.9" height="2.6">
				<feColorMatrix  type="matrix" values="1 0 0 0 0  0 1 0 0 0  0 0 1 0 0  0 0 0 1 0"/>
			</filter>
		</defs>
		<mask maskUnits="userSpaceOnUse" x="235.3" y="130.3" width="4.9" height="2.6" id="mask21_26_1607_1_">
			<path class="st69" d="M240.2,130.2l-4.4,2.5c-0.1,0-0.2,0.1-0.3,0.1c-0.1,0-0.2,0-0.3-0.1l4.4-2.5c0.1,0,0.2,0.1,0.3,0.1
				C240,130.3,240.1,130.3,240.2,130.2z"/>
		</mask>
		<g class="st70">
			<path class="st46" d="M235.3,132.8l4.4-2.5c0.1,0,0.2,0.1,0.3,0.1c0.1,0,0.2,0,0.3-0.1l-4.4,2.5c-0.1,0-0.2,0.1-0.3,0.1
				C235.5,132.9,235.4,132.8,235.3,132.8z"/>
		</g>
		<path class="st46" d="M248.2,151.1l4.4-2.5l0.8,8.8l-4.4,2.5L248.2,151.1z"/>
		<path class="st46" d="M248.5,150.3l4.4-2.5c-0.1,0.1-0.2,0.2-0.2,0.4c0,0.1-0.1,0.3,0,0.4l-4.4,2.5c0-0.1,0-0.3,0-0.4
			C248.3,150.5,248.4,150.4,248.5,150.3z"/>
		<defs>
			<filter id="Adobe_OpacityMaskFilter_22_" filterUnits="userSpaceOnUse" x="248.2" y="147.7" width="4.7" height="3.3">
				<feColorMatrix  type="matrix" values="1 0 0 0 0  0 1 0 0 0  0 0 1 0 0  0 0 0 1 0"/>
			</filter>
		</defs>
		<mask maskUnits="userSpaceOnUse" x="248.2" y="147.7" width="4.7" height="3.3" id="mask22_26_1607_1_">
			<path class="st71" d="M248.5,150.3l4.4-2.5c-0.1,0.1-0.2,0.2-0.2,0.4c0,0.1-0.1,0.3,0,0.4l-4.4,2.5c0-0.1,0-0.3,0-0.4
				C248.3,150.5,248.4,150.4,248.5,150.3z"/>
		</mask>
		<g class="st72">
			<path class="st46" d="M248.5,150.3l4.4-2.5c-0.1,0.1-0.2,0.2-0.2,0.4c0,0.1-0.1,0.3,0,0.4l-4.4,2.5c0-0.1,0-0.3,0-0.4
				C248.3,150.5,248.4,150.4,248.5,150.3z"/>
		</g>
		<path class="st46" d="M245,137.8l4.4-2.6c0.1,0.4,0.4,0.7,0.7,1l-4.4,2.6C245.4,138.6,245.1,138.2,245,137.8z"/>
		<defs>
			<filter id="Adobe_OpacityMaskFilter_23_" filterUnits="userSpaceOnUse" x="245" y="135.3" width="5.1" height="3.6">
				<feColorMatrix  type="matrix" values="1 0 0 0 0  0 1 0 0 0  0 0 1 0 0  0 0 0 1 0"/>
			</filter>
		</defs>
		<mask maskUnits="userSpaceOnUse" x="245" y="135.3" width="5.1" height="3.6" id="mask23_26_1607_1_">
			<path class="st73" d="M245,137.8l4.4-2.6c0.1,0.4,0.4,0.7,0.7,1l-4.4,2.6C245.4,138.6,245.1,138.2,245,137.8z"/>
		</mask>
		<g class="st74">
			<path class="st46" d="M245,137.8l4.4-2.6c0.1,0.4,0.4,0.7,0.7,1l-4.4,2.6C245.4,138.6,245.1,138.2,245,137.8z"/>
		</g>
		<path class="st46" d="M239.8,127.2l4.4-2.5c0.1-0.1,0.2-0.1,0.4-0.1c0.1,0,0.3,0.1,0.4,0.1l-4.4,2.5c-0.1-0.1-0.2-0.1-0.4-0.1
			C240,127.1,239.9,127.2,239.8,127.2z"/>
		<defs>
			<filter id="Adobe_OpacityMaskFilter_24_" filterUnits="userSpaceOnUse" x="239.8" y="124.6" width="5.1" height="2.7">
				<feColorMatrix  type="matrix" values="1 0 0 0 0  0 1 0 0 0  0 0 1 0 0  0 0 0 1 0"/>
			</filter>
		</defs>
		<mask maskUnits="userSpaceOnUse" x="239.8" y="124.6" width="5.1" height="2.7" id="mask24_26_1607_1_">
			<path class="st75" d="M239.8,127.2l4.4-2.5c0.1-0.1,0.2-0.1,0.4-0.1c0.1,0,0.3,0.1,0.4,0.1l-4.4,2.5c-0.1-0.1-0.2-0.1-0.4-0.1
				C240,127.1,239.9,127.2,239.8,127.2z"/>
		</mask>
		<g class="st76">
			<path class="st46" d="M239.8,127.2l4.4-2.5c0.1-0.1,0.2-0.1,0.4-0.1c0.1,0,0.3,0.1,0.4,0.1l-4.4,2.5c-0.1-0.1-0.2-0.1-0.4-0.1
				C240,127.1,239.9,127.2,239.8,127.2z"/>
		</g>
		<path class="st46" d="M241.4,128.4l4.4-2.5l3.6,9.4l-4.4,2.6L241.4,128.4z"/>
		<path class="st46" d="M240.5,127.3l4.4-2.5c0.4,0.3,0.7,0.7,0.9,1.1l-4.4,2.5C241.3,128,240.9,127.6,240.5,127.3z"/>
		<defs>
			<filter id="Adobe_OpacityMaskFilter_25_" filterUnits="userSpaceOnUse" x="240.5" y="124.7" width="5.3" height="3.7">
				<feColorMatrix  type="matrix" values="1 0 0 0 0  0 1 0 0 0  0 0 1 0 0  0 0 0 1 0"/>
			</filter>
		</defs>
		<mask maskUnits="userSpaceOnUse" x="240.5" y="124.7" width="5.3" height="3.7" id="mask25_26_1607_1_">
			<path class="st77" d="M240.5,127.3l4.4-2.5c0.4,0.3,0.7,0.7,0.9,1.1l-4.4,2.5C241.3,128,240.9,127.6,240.5,127.3z"/>
		</mask>
		<g class="st78">
			<path class="st46" d="M240.5,127.3l4.4-2.5c0.4,0.3,0.7,0.7,0.9,1.1l-4.4,2.5C241.3,128,240.9,127.6,240.5,127.3z"/>
		</g>
		<path class="st46" d="M253.4,146.9l4.4-2.5l-5,3.3l-4.4,2.5L253.4,146.9z"/>
		<path class="st46" d="M245.7,138.8l4.4-2.5l7.2,5.8l-4.4,2.6L245.7,138.8z"/>
		<path class="st34" d="M240.5,127.3c0.4,0.3,0.7,0.7,0.9,1.1l3.6,9.4c0.2,0.4,0.4,0.7,0.7,1l7.2,5.8c0.8,0.6,1.1,2,0.6,2.3l-5,3.3
			c-0.1,0.1-0.2,0.2-0.2,0.4c0,0.1-0.1,0.3,0,0.4l0.8,8.8c0.1,0.8-0.5,1.1-1,0.8c-0.2-0.1-0.3-0.2-0.4-0.4l-6.7-7.3
			c-0.1-0.1-0.3-0.3-0.4-0.4c-0.1-0.1-0.3-0.1-0.4-0.1l-6.7-0.3c-0.2,0-0.3-0.1-0.4-0.2c-0.3-0.2-0.6-0.5-0.8-0.8
			c-0.2-0.3-0.3-0.7-0.2-1.1l0.9-7.9c0-0.4-0.1-0.8-0.3-1.1l-5-9.1c-0.5-1-0.2-1.9,0.6-1.7l7.2,2.5c0.1,0.1,0.3,0.1,0.4,0
			c0.1,0,0.2-0.1,0.3-0.2l3.6-5.2C239.8,127.1,240.2,127.1,240.5,127.3z"/>
		<path class="st46" d="M252.9,144.6l4.4-2.6c0.8,0.6,1.1,1.9,0.6,2.3l-4.4,2.6C254,146.6,253.7,145.3,252.9,144.6z"/>
		<defs>
			<filter id="Adobe_OpacityMaskFilter_26_" filterUnits="userSpaceOnUse" x="252.9" y="142.1" width="5.2" height="4.9">
				<feColorMatrix  type="matrix" values="1 0 0 0 0  0 1 0 0 0  0 0 1 0 0  0 0 0 1 0"/>
			</filter>
		</defs>
		<mask maskUnits="userSpaceOnUse" x="252.9" y="142.1" width="5.2" height="4.9" id="mask26_26_1607_1_">
			<path class="st79" d="M252.9,144.6l4.4-2.6c0.8,0.6,1.1,1.9,0.6,2.3l-4.4,2.6C254,146.6,253.7,145.3,252.9,144.6z"/>
		</mask>
		<g class="st80">
			<path class="st46" d="M252.9,144.6l4.4-2.6c0.8,0.6,1.1,1.9,0.6,2.3l-4.4,2.6C254,146.6,253.7,145.3,252.9,144.6z"/>
		</g>
		<path class="st81" d="M129.4,148.6c-0.1-0.2,3.2-2.6,4.9-3.9c0.7-0.6,1.3-1.4,1.7-2.2c0.4-1.1,0.3-1.4,1-1.8
			c0.3-0.2,0.6-0.5,0.8-0.8c0.3-0.3,0.6-0.5,1-0.5c0.4-0.1,0.8,0,1.2,0.1c0.1,0,0.1,0,0.2,0.1c0,0.1,0,0.1,0,0.2v0.4
			c0,0.1,0,0.2-0.1,0.3c0,0-0.1,0.1-0.1,0.1c0,0-0.1,0-0.1,0c-0.2,0-0.4,0-0.6,0c-0.2,0-0.4,0-0.6,0.1c-0.1,0.1,0,0.3,0,0.4
			s0,0.2,0.1,0.3c0.1,0.1,0.2,0.2,0.3,0.4c0.1,0.4,0.1,0.9,0.1,1.4c0,0.5-0.1,1-0.3,1.4c-0.3,0.6-0.7,1.2-1.2,1.6
			c-0.7,0.5-5.6,6-5.9,6.2C131.5,152.3,129.7,149.5,129.4,148.6z"/>
		<path class="st6" d="M141.3,146.5h-0.4c0.1,0,0.1,0,0.2-0.1c0.1,0,0.1-0.1,0.1-0.2l0.4-0.1c0,0.1,0,0.1-0.1,0.2
			C141.4,146.4,141.3,146.5,141.3,146.5z"/>
		<defs>
			<filter id="Adobe_OpacityMaskFilter_27_" filterUnits="userSpaceOnUse" x="140.8" y="146.2" width="0.7" height="0.3">
				<feColorMatrix  type="matrix" values="1 0 0 0 0  0 1 0 0 0  0 0 1 0 0  0 0 0 1 0"/>
			</filter>
		</defs>
		<mask maskUnits="userSpaceOnUse" x="140.8" y="146.2" width="0.7" height="0.3" id="mask27_26_1607_1_">
			<path class="st82" d="M141.3,146.5h-0.4c0.1,0,0.1,0,0.2-0.1c0.1,0,0.1-0.1,0.1-0.2l0.4-0.1c0,0.1,0,0.1-0.1,0.2
				C141.4,146.4,141.3,146.5,141.3,146.5z"/>
		</mask>
		<g class="st83">
			<path class="st6" d="M141.1,146.3l0.4-0.1c0,0.1-0.1,0.1-0.1,0.2c-0.1,0-0.1,0.1-0.2,0.1h-0.4c0.1,0,0.1,0,0.2-0.1
				C141.1,146.4,141.1,146.3,141.1,146.3z"/>
		</g>
		<path class="st6" d="M140.3,135.5h0.4c0.1,0,0.1,0,0.2,0h-0.4C140.5,135.5,140.4,135.5,140.3,135.5z"/>
		<defs>
			<filter id="Adobe_OpacityMaskFilter_28_" filterUnits="userSpaceOnUse" x="140.3" y="135.5" width="0.6" height="0">
				<feColorMatrix  type="matrix" values="1 0 0 0 0  0 1 0 0 0  0 0 1 0 0  0 0 0 1 0"/>
			</filter>
		</defs>
		<mask maskUnits="userSpaceOnUse" x="140.3" y="135.5" width="0.6" height="0" id="mask28_26_1607_1_">
			<path class="st84" d="M140.3,135.5h0.4c0.1,0,0.1,0,0.2,0h-0.4C140.5,135.5,140.4,135.5,140.3,135.5z"/>
		</mask>
		<g class="st85">
			<path class="st6" d="M140.3,135.5h0.4c0.1,0,0.1,0,0.2,0h-0.4C140.5,135.5,140.4,135.5,140.3,135.5z"/>
		</g>
		<path class="st6" d="M140.5,135.6l0.4-0.1l3.3,1.9l-0.4,0.1L140.5,135.6z"/>
		<path class="st6" d="M144.1,138.1l0.4,0l-2.9,8.2l-0.4,0.1L144.1,138.1z"/>
		<path class="st6" d="M143.9,137.5h0.4c0.1,0.1,0.2,0.2,0.2,0.3c0,0.1,0,0.2,0,0.3h-0.4c0-0.1,0-0.2,0-0.3
			C144,137.6,144,137.5,143.9,137.5z"/>
		<defs>
			<filter id="Adobe_OpacityMaskFilter_29_" filterUnits="userSpaceOnUse" x="143.9" y="137.5" width="0.7" height="0.6">
				<feColorMatrix  type="matrix" values="1 0 0 0 0  0 1 0 0 0  0 0 1 0 0  0 0 0 1 0"/>
			</filter>
		</defs>
		<mask maskUnits="userSpaceOnUse" x="143.9" y="137.5" width="0.7" height="0.6" id="mask29_26_1607_1_">
			<path class="st86" d="M143.9,137.5h0.4c0.1,0.1,0.2,0.2,0.2,0.3c0,0.1,0,0.2,0,0.3h-0.4c0-0.1,0-0.2,0-0.3
				C144,137.6,144,137.5,143.9,137.5z"/>
		</mask>
		<g class="st87">
			<path class="st6" d="M143.9,137.5h0.4c0.1,0.1,0.2,0.2,0.2,0.3c0,0.1,0,0.2,0,0.3h-0.4c0-0.1,0-0.2,0-0.3
				C144,137.6,144,137.5,143.9,137.5z"/>
		</g>
		<path class="st88" d="M144.1,138.1l-2.9,8.2c0,0.1,0,0.1-0.1,0.1c0,0-0.1,0.1-0.1,0.1c0,0-0.1,0-0.2,0c-0.1,0-0.1,0-0.1,0
			l-3.3-1.9c-0.1-0.1-0.2-0.2-0.2-0.3c0-0.1,0-0.2,0-0.3l2.9-8.2c0-0.1,0-0.1,0.1-0.1c0,0,0.1-0.1,0.1-0.1c0,0,0.1,0,0.2,0
			c0.1,0,0.1,0,0.1,0l0.8,0.5h0.1l1.7,1l0.1,0.1l0.7,0.4c0.1,0.1,0.2,0.2,0.2,0.3C144.1,137.9,144.1,138,144.1,138.1z"/>
		<path class="st15" d="M143.9,137.5l-0.7-0.4l-0.1-0.1l-1.7-1h-0.1l-0.8-0.5c0,0-0.1,0-0.1,0c-0.1,0-0.1,0-0.2,0
			c0,0-0.1,0.1-0.1,0.1c0,0-0.1,0.1-0.1,0.1l-2.9,8.2c0,0.1,0,0.2,0,0.3c0,0.1,0.1,0.2,0.2,0.3l3.3,1.9c0,0,0.1,0,0.1,0
			c0.1,0,0.1,0,0.2,0c0,0,0.1-0.1,0.1-0.1c0,0,0.1-0.1,0.1-0.1l2.9-8.2c0-0.1,0.1-0.2,0-0.4C144,137.6,144,137.5,143.9,137.5z
			 M144,138.1l-2.8,7.8c0,0.1-0.1,0.1-0.1,0.2c-0.1,0-0.1,0.1-0.2,0.1c0,0-0.1,0-0.1,0l-3.3-1.9c-0.1-0.1-0.2-0.1-0.2-0.2
			c0-0.1,0-0.2,0-0.3l2.8-7.8c0-0.1,0.1-0.1,0.1-0.2s0.1-0.1,0.2-0.1c0,0,0.1,0,0.1,0l0.9,0.5l1.7,1l0.1,0.1l0.7,0.4
			c0.1,0.1,0.1,0.1,0.2,0.2C144,137.9,144,138,144,138.1L144,138.1z"/>
		<path class="st89" d="M138.9,141.5l-0.8,0.6c0,0-0.1,0.1-0.1,0.1c0,0,0,0.1,0,0.1c-0.2,0.6-0.3,1.2-0.3,1.9c0,0.1-0.1,0.2-0.2,0.3
			c-0.1,0.1-0.2,0.2-0.3,0.2c-0.1,0-0.2,0.1-0.3,0.1c-0.1,0-0.2,0-0.3-0.1c-0.8-0.3-1.1-1.6,0.1-2.8l0.4-0.4
			c0.1-0.1,0.2-0.2,0.3-0.3c0.3-0.2,0.5-0.3,0.8-0.5l0.4-0.2c0.1-0.1,0.2-0.1,0.4-0.1C139.3,140.5,139.5,140.9,138.9,141.5z"/>
		<path class="st6" d="M124.4,212c0,0.4,0,0.8,0.2,1.1c0,0.2,0.1,0.5,0.1,0.7c0,0.2,0.1,0.4,0.2,0.6c0.1,0.1,0.3,0.2,0.4,0.2
			c0.3,0.1,0.7,0.1,1,0c0.3,0,0.5,0,0.6-0.3c0-0.3,0-0.7,0-1c0-0.3,0-0.5,0-0.8c-0.1-0.4-0.9-0.6-1.3-0.7c-0.3-0.1-0.7-0.1-0.8-0.3
			C124.7,211.3,124.4,211.8,124.4,212z"/>
		<path class="st8" d="M128.9,207.3c0,0.2,0.1,0.3,0.1,0.5c0.2,0.6,0.4,1.1,0.7,1.6c0.1,0.2,0.2,0.3,0.4,0.4
			c0.2,0.1,0.5,0.2,0.7,0.2c0.1,0.1,0.3,0.2,0.4,0.2c0.1,0,0.2,0,0.3,0.1c0.1,0,0.2,0,0.3,0.1c0.1,0,0.2,0.1,0.2,0.2
			c0.1,0.1,0.1,0.2,0.1,0.3c0,0.1,0,0.3,0,0.4c0,0.1,0,0.2,0,0.2c0,0.1-0.1,0.1-0.2,0.2c-0.2,0.3-0.5,0.4-0.8,0.5
			c-0.1,0-0.3,0-0.4,0c-0.9,0-1.8-0.3-2.5-0.8c-0.8-0.4-1.6-0.9-2.3-1.4c-0.2-0.2-0.5-0.3-0.7-0.4s-0.1-0.1-0.1-0.2
			c0-0.2,0.1-0.4,0.2-0.6c0.2-0.3,0.2-0.7,0.2-1c0-0.4,0-0.9-0.1-1.3c-0.1-0.7-0.3-1.4-0.6-2c-0.1-0.3-0.3-0.6-0.4-1
			c-0.1-0.4-0.4-0.9-0.5-1.3c-0.1-0.5-0.2-1-0.3-1.5c-0.1-1-0.2-2-0.1-3c0.1-1.7,0.4-3.5,0.8-5.2c0.1-0.4,0.2-0.9,0.2-1.3
			c0-0.3-0.1-0.5-0.2-0.8c0.1-0.9,0.2-1.8,0.4-2.7c0-0.6,0.1-1.2,0.3-1.7c0.3-0.4,0.8-0.7,1.3-0.8c0.5-0.1,1.1,0,1.6,0.2
			c0.8,0.4,1.4,1,1.9,1.7c0.4,0.8,0.6,1.6,0.5,2.4c0.1,1,0.1,2,0,2.9c-0.2,2.3-0.6,4.6-1,6.9c-0.1,0.8-0.2,1.6-0.3,2.5
			c-0.1,0.8-0.2,1.5-0.3,2.2c0,0.6,0,1.1,0,1.7C128.9,206.2,128.9,206.7,128.9,207.3z"/>
		<path class="st15" d="M124.8,209.1c-0.1,0.1-0.1,0.1-0.2,0.2c-0.3,0.5-0.5,1-0.5,1.5c-0.1,0.3,0,0.6,0,0.9
			c0.1,0.3,0.2,0.6,0.4,0.8c0.3,0.3,0.7,0.5,1.2,0.5c0.6,0,1.1-0.1,1.6-0.3c0.5-0.1,1-0.1,1.5,0c0.2,0,0.4,0.1,0.6,0.2
			c0.2,0.1,0.5,0.1,0.7,0.2c0.5,0,1-0.1,1.5-0.4c0.4-0.2,0.7-0.5,0.8-0.8c0.2-0.4,0.3-0.8,0.3-1.3c0-0.1,0-0.2-0.1-0.3
			c0-0.1-0.1-0.3-0.2-0.4c-0.2-0.2-0.4-0.3-0.7-0.4c-0.3-0.1-0.5-0.1-0.8,0c-0.3,0-0.7,0.1-1,0.2c0.3,0.1,0.7,0.1,0.7,0.5
			c0.2,1.1-1.2,1.1-1.9,1c-0.7-0.1-1.4-0.4-2-0.8c-0.4-0.4-0.8-0.8-1.2-1.2C125.4,209.1,125.1,209,124.8,209.1z"/>
		<path class="st12" d="M136.6,215.9c-0.6-0.7-1.1-1.4-1.5-2.2c-0.5-0.8-0.2-2-0.1-2.8c0.3-2,0.6-4.1,1-6.1c0.3-1.4,0.5-2.8,0.6-4.2
			c0-2,0-3.9,0.2-5.9c0.1-0.6,0.1-1.2,0-1.8c0-0.5,0-1,0.1-1.4c0-0.5,0-0.9,0.1-1.4l-4.7,2.7c-0.6,0.1-0.9,0.8-1.1,1.3
			c-0.5,1.6-0.8,3.2-0.9,4.8c-0.2,1.6-0.2,3.2,0,4.8c0.2,1.4,0.4,2.8,0.7,4.2c0.3,1.3,0.5,2.7,0.4,4c0,0.6-0.2,1.2-0.5,1.8
			c-0.1,0.2-0.4,0.4-0.4,0.6c0.5,0.1,0.7,0.5,1.1,0.8c0.4,0.3,0.8,0.4,1.2,0.6c0.3,0.2,0.6,0.4,0.8,0.6c0.2,0.2,0.5,0.4,0.7,0.6
			c0.2,0.3,0.4,0.5,0.6,0.7c0.2,0.2,0.5,0.4,0.8,0.5c0.2,0.1,0.4,0.2,0.7,0.2c0.2,0,0.5,0,0.7-0.1c0.2-0.1,0.3-0.3,0.4-0.5
			c0.1-0.2,0.1-0.4,0-0.6C137.3,216.6,137,216.2,136.6,215.9z"/>
		<path class="st6" d="M129.6,216.4c0,0.9,0,1.9,0.1,2.8c0,0.4,0,0.5,0.4,0.6c0.6,0.2,1.6,0.3,1.9-0.3c0.2-0.6,0.2-1.1,0.1-1.7
			c0.1-0.4,0.1-0.8,0.1-1.2c-0.1-0.3-0.8-0.2-1.1-0.3c-0.3-0.1-0.6-0.2-0.9-0.2C130,216.1,129.8,216.2,129.6,216.4z"/>
		<path class="st15" d="M131.7,214.3c-0.1-0.1-0.2-0.2-0.3-0.2c-0.1,0-0.2-0.1-0.3-0.1c-0.1,0-0.2,0-0.4,0c-0.2,0.1-0.4,0.2-0.6,0.4
			c-0.3,0.4-0.4,0.9-0.6,1.3c-0.1,0.5-0.1,1.1,0,1.6c0.1,0.2,0.2,0.4,0.4,0.6c0.2,0.2,0.4,0.3,0.7,0.3c0.4,0.1,0.8,0.1,1.2,0
			c0.5-0.1,1,0,1.5,0.1l0.3,0.1c0.3,0.1,0.6,0.2,0.9,0.4c0.3,0.1,0.5,0.2,0.8,0.3c0.8,0.1,1.5,0.1,2.2-0.3c0.3-0.1,0.6-0.3,0.9-0.5
			c0.3-0.3,0.5-0.6,0.6-1c0.1-0.2,0.1-0.5,0.1-0.7s-0.1-0.5-0.2-0.7c-0.1-0.2-0.3-0.3-0.5-0.4c-0.2-0.1-0.4-0.1-0.6-0.1
			c-0.2,0-0.4,0.1-0.6,0.1c-0.2,0-0.4,0.1-0.6,0.2c0.1,0.3,0.5,0.6,0.6,1c0,0.1,0,0.3,0,0.4c0,0.1-0.1,0.2-0.2,0.3
			c-0.2,0.2-0.6,0.2-0.8,0.1c-0.6-0.2-1.2-0.5-1.8-0.9c-0.4-0.4-0.8-0.7-1.2-1.1C132.7,215.2,132.2,214.7,131.7,214.3z"/>
		<path class="st90" d="M124.7,143.5c-0.2,0.3-0.2,0.6-0.2,1c0,0.3,0.2,0.6,0.4,0.9c0.4,0.6,1.1,1,1.8,1.2c0.9,0.3,1.8,0.5,2.8,0.4
			c1-0.1,1.9-0.3,2.7-0.7c0.2-0.1,0.4-0.2,0.6-0.2c0.1,0,0.2,0,0.3,0c0.1,0,0.2,0.1,0.3,0.1c0-0.4-0.4-0.8-0.7-1
			c-0.4-0.2-0.8-0.3-1.3-0.2c-0.9,0.1-1.9,0-2.8-0.1c-0.8-0.2-1.6-0.5-2.3-1c-0.3-0.2-0.6-0.4-0.7-0.8c0,0-0.1-0.4,0-0.5
			c-0.2,0.1-0.4,0.2-0.5,0.3S124.8,143.3,124.7,143.5z"/>
		<path class="st4" d="M121.4,150.8c-0.6-1.8-1-3.7-1-5.7c0-1.5-0.4-3.7,1.3-4.5c0.5-0.2,1-0.2,1.6-0.2c0.5,0.1,1,0.2,1.5,0.5
			c0.3,0.2,1.4,0.7,1.6,0.8c1.5,0.6,3,1.4,4.5,2.1c0.8,0.4,1.7,0.8,2.5,1.1c1.2,0.6,2.2,1.4,3,2.4c1.1,1.2,1.1,3.6,1.2,5.2
			c0.2,2.1,0,4.1-0.1,6.2c-0.1,2.1-0.3,4,0.3,6c0.3,0.5,0.3,1.2,0.2,1.8c-0.2,0.6-0.5,1.1-1,1.4c-0.6,0.6-1.4,0.3-2.2,0.2
			s-1.6,0.2-2.4,0.1c-2.2-0.1-4.8-0.3-6.8-1.4c-0.4-0.2-0.7-0.5-1-0.8c-0.3-0.4-0.4-0.8-0.5-1.2c0-0.6,0.3-1.2,0.7-1.6
			c0.4-0.8,0.5-1.8,0.3-2.7c-0.2-0.9-0.4-1.7-0.7-2.5c-0.3-1-0.7-1.9-1.1-2.9c-0.5-1.2-1.1-2.4-1.6-3.6L121.4,150.8z"/>
		<path class="st12" d="M124.1,139.9c-0.1,0.1,0,0.4,0,0.6c0.1,0.5,0.1,0.9,0,1.4c-0.1,0.2-0.1,0.4-0.1,0.6c0,0.2,0.1,0.4,0.2,0.6
			c0.5,0.9,1.6,1.1,2.5,1.3c0.7,0.2,1.4,0.3,2.2,0.2c0.3,0,0.7-0.1,0.9-0.2c0.1,0,0.2-0.1,0.3-0.2c0.3-0.3,0.3-0.8,0.3-1.2
			c0-0.4,0.1-0.8,0.2-1.1c0.1-0.3,0.4-0.6,0.7-0.8l-4.4-0.8l-2.3-0.4c-0.1,0-0.2-0.1-0.3-0.1C124.2,139.8,124.2,139.8,124.1,139.9z"
			/>
		<path class="st12" d="M132.4,130.7c0.4,0.4,0.8,0.9,0.9,1.5c0.3,1.1,0,2.3,0.2,3.4c0,1.1-0.1,2.2-0.4,3.3c0,0.3-0.1,0.6-0.2,0.9
			c-0.1,0.3-0.3,0.6-0.6,0.8c-0.3,0.2-0.7,0.2-1.1,0.5c-0.3,0.2-0.6,0.3-0.7,0.4c-0.6,0.4-1.3,0.5-2,0.4c-0.7,0-1.3-0.1-1.9-0.3
			c-1.1-0.5-2.1-1.4-2.8-2.4C117.7,131.2,128.4,126.6,132.4,130.7z"/>
		<path class="st91" d="M121.9,130.4c2.1-3.7,7.2-4.8,10.5-1.9c1.5,1.3,1.9,3.1,0.6,4.7c-0.3,0.4-0.5,0.8-0.6,1.2
			c-0.1,0.4,0,0.8-0.4,1c-0.7,0.5-1.1-0.4-1.8,0.1c-1.4,0.8-0.2,3.3-1.2,4.4c-1,1.1-3.3,1-4.6,0.4
			C121,138.6,120.2,133.3,121.9,130.4z"/>
		<path class="st5" d="M138.8,176.7c0.1-2.2,0.1-4.4-0.1-6.6c0-0.4-1-7.2-1.3-7.1c0,0-8.8,2.7-12.4-0.4c-0.6,0.9-1.2,1.9-1.6,2.9
			c-0.7,1.9-1,3.8-1,5.8c-0.1,2.7,0,5.3,0.2,8c0.2,3.4-0.3,6.8-0.6,10.2c-0.1,0.5,0,1.1,0.2,1.6s0.5,0.9,1,1.3
			c0.8,0.5,1.9,0.3,2.8,0.6c0.9,0.3,1.6,1.2,2.5,1.6c1.2,0.4,2.5-0.1,3.7,0.2c1.2,0.3,1.9,1.4,3,1.7c0.5,0.2,1,0.2,1.5,0.1
			c0.5-0.1,1-0.4,1.3-0.7c1-1,0.9-2.8,0.8-4.2c-0.1-2-0.2-4-0.3-6C138.4,182.7,138.7,179.7,138.8,176.7z"/>
		<path class="st12" d="M141.4,173.3c-0.2-0.2-0.4-0.5-0.6-0.7c-0.2-0.2-0.4-0.4-0.5-0.7c-0.2-0.5-0.3-1.1-0.3-1.6
			c0-0.1-2.7,0.2-2.7,0.2c0.2,0.9,0.5,2.2,0.6,2.5c0,0.4,0.1,0.7,0.1,1.1c0,1.4,0.1,2.8,0.3,4.2c0,0.1,0,0.2,0.1,0.3
			c0.1,0.1,0.1,0.1,0.2,0.1c0.2,0.1,0.4,0.2,0.5,0c0.1-0.2,0.1-0.1,0.1-0.1c0,0,0,0,0,0c0,0,0,0,0,0c0.2,0.4,0.4,0.8,0.4,1.3
			c0,0.2,0.1,0.4,0.3,0.4c0.2,0,0.3-0.4,0.6-0.3c0.3,0.1,0.4,0.7,0.7,0.3c0.1-0.2,0.2-0.5,0.2-0.8c0-0.1,0-0.1,0.1-0.2
			c0,0,0.1-0.1,0.1-0.1c0,0,0.1,0,0.2,0c0,0,0.1-0.1,0.1-0.1c0,0,0.1-0.1,0.1-0.1c0-0.1,0-0.2,0-0.3c-0.1-0.4-0.1-0.9-0.2-1.4
			c-0.1-0.4-0.2-0.9,0-1.2c0,0,0-0.1,0.1-0.1c0,0,0.1,0,0.1,0l0.4,0.3c0.1-0.1,0.1-0.2,0.2-0.2c0-0.1,0-0.2,0-0.3
			C142.4,175,142,174.1,141.4,173.3z"/>
		<path class="st12" d="M138.9,162.3c-0.2-2-0.4-4-0.6-6.1c-0.1-1-0.2-2.1-0.2-3.1c0-0.5-0.1-1-0.1-1.6c0-0.4,0-0.7,0-1.1
			c0-0.6-0.2-1.2-0.5-1.7c-0.3-0.5-0.7-1-1.2-1.4c-0.3-0.2-0.7-0.2-1-0.2c-0.3,0.1-0.7,0.2-1,0.4c-0.3,0.2-0.6,0.4-0.8,0.7
			c-0.4,0.6-0.7,1.2-0.8,1.9c-0.2,1.3-0.2,2.6,0,3.9c0.2,1.6,0.5,3.1,0.9,4.7c0.2,0.9,0.4,1.7,0.6,2.6c0.7,2.8,1.6,5.5,2.7,8.2
			c0.4,1.2,0.7,2.5,0.9,3.8c0.8-0.6,1.6-1.2,2.3-1.9c-0.3-1.9-0.6-3.8-0.9-5.7C139.1,164.6,139,163.4,138.9,162.3z"/>
		<path class="st91" d="M130.7,134.8c-0.6,0.8-1,1.7-1.1,2.7c-0.1,1,0.1,2,0.5,2.9c0.9,1.9,2.2,3.5,3.8,4.8
			c-1.1-0.1-1.5,1.6-2.6,1.9c-0.3,0-0.6,0-0.9-0.1c-0.3-0.1-0.5-0.3-0.8-0.5c-0.7-0.4-1.3-1-1.8-1.7c-0.4-0.8-0.7-1.6-0.8-2.5
			c-0.3-1.6-0.4-3.2-0.4-4.8c-0.1-1.3,0.1-2.7,0.6-3.9c0.2-0.6,0.6-1.2,1.1-1.6c0.5-0.4,1.1-0.8,1.8-0.9c1.1-0.2,2.7,0.4,2.7,1.7
			C132.8,134.1,131.4,134.1,130.7,134.8z"/>
		<path class="st12" d="M129.7,134.8c-1,0.1-1.1,1.4-0.2,2.3c0.3,0.3,0.6,0.5,1,0.6c2.1,1.3,2.3-0.5,1.6-0.9
			C130.5,135.8,131,134.7,129.7,134.8z"/>
		<path class="st8" d="M130.4,136.7c-0.1-0.1-1.4-0.6-0.7-1.2c0,0,0.1-0.1,0.2-0.1c0.1,0,0.1,0,0.2,0c0.1,0,0.1,0.1,0.1,0.1
			c0,0,0.1,0.1,0.1,0.2c0,0.1,0,0.2,0.1,0.4c0,0.1,0.1,0.1,0.1,0.2c0.1,0.2,0.5,0.2,0.5,0.5C130.8,137.1,130.4,136.8,130.4,136.7z"
			/>
		<path class="st91" d="M121.5,144.2c0.2,1.5,0.4,3,0.4,4.6c-0.1,1.1,0,2.3,0.4,3.4c0.4,1.1,1.9,1.8,2.9,2.2
			c0.8,0.4,1.6,0.5,2.4,0.4c0.5-0.1,0.9-0.3,1.3-0.6c0.4-0.3,0.6-0.7,0.8-1.2c0.4-2.8-1-5.6-1.6-8.4c-0.5-2.2-0.7-4.4-0.5-6.6
			c0.2-1.3,0.2-2.6-0.1-3.9c-0.2-0.6-0.6-1.2-1.1-1.6c-0.5-0.4-1.1-0.8-1.7-0.9c-0.9-0.2-1.6-2.4-2.3-1.6c-0.7,0.8-1.7,2.5-1.5,7
			c0.1,1.7,0.6,3.4,0.6,5.1C121.4,142.7,121.4,143.4,121.5,144.2z"/>
		<path class="st12" d="M173.1,139.2c-0.1,0-0.1,0-0.2,0c-0.1,0-0.1,0.1-0.2,0.1c-0.1,0.1-0.2,0.2-0.2,0.4c-0.6,1.3-1.1,2.6-1.5,4
			v-0.1l-0.2,0.5c0,0,0,0.1,0,0.1c-0.3,0.2-0.6,0.5-0.8,0.9c-0.1,0.3-0.1,0.5,0,0.8c0.2,0.7,0.4,1.4,0.7,2c0.1,0.1,0.2,0.1,0.3,0.2
			c0.1,0,0.2,0.1,0.3,0.1c0,0,0,0,0,0c0,0,0,0,0,0c0.4,0.1,0.7,0.2,1,0.5c0.2,0.2,0.5,0,0.8,0c0.5-1.8,1.5-3,1.7-4.9
			c0-0.2,0-0.4-0.1-0.6c0,0-0.1-0.1-0.1-0.1c0,0-0.1,0-0.2-0.1c-0.1,0-0.1,0-0.2,0c-0.1,0-0.1,0-0.2,0.1c0-0.1,0-0.2-0.1-0.3
			c-0.1-0.1-0.2-0.2-0.3-0.2c-0.1,0-0.2,0-0.4,0c-0.1,0-0.2,0.1-0.3,0.2c0-0.1-0.1-0.2-0.2-0.3c-0.1-0.1-0.2-0.1-0.3-0.1
			c-0.1,0-0.2,0-0.3,0c0.3-0.7,0.5-1.5,0.7-2.2c0.1-0.3,0.2-0.6,0.1-0.9C173.3,139.3,173.2,139.2,173.1,139.2z"/>
		<path class="st6" d="M149.2,226.4c0.1-0.2,0.2-0.4,0.7-0.4s1.1-0.1,1.6-0.1l2.2-0.1c0-0.6,0-1.2-0.1-1.8c0.7,0.1,1.4,0,2-0.3
			c0.9-0.3,1.8-0.6,2.7-0.9c0.4-0.1,0.8-0.2,1.2-0.1c1,0.2,1.5,1.8,1.4,2.7c-0.1,0.6-0.5,1.1-1,1.5c-0.8,0.6-1.7,1-2.6,1.2
			c-1,0.1-1.9,0.5-2.7,1.1c-1,0.8-1.7,1.6-3.1,1.7c-0.3,0-0.6,0-0.9-0.1c-0.3-0.1-0.6-0.2-0.8-0.4c-0.2-0.2-0.4-0.4-0.6-0.7
			c-0.1-0.3-0.2-0.6-0.2-0.9c0-0.5,0.1-1,0.2-1.5C149.1,226.9,149.2,226.7,149.2,226.4z"/>
		<path class="st6" d="M156.1,228.9c0-0.1,0-0.2,0-0.3c0-1,0.3-2.1,0.8-3c0.1-0.4,0.3-0.7,0.6-1c0.2-0.1,0.4-0.2,0.6-0.2
			c0.2,0,0.5,0,0.7,0.1c0.2,0.1,0.4,0.2,0.6,0.3c0.2,0.1,0.3,0.3,0.4,0.5c0.2,0.4,0.3,0.8,0.5,1.2c0.2,0.4,0.4,0.8,0.8,1.1
			c0.3,0.3,0.8,0.5,1.2,0.6c1.2,0.1,2.5-0.4,3.7-0.4c0.5-0.1,0.9,0,1.4,0.1c1,0.4,1.3,2.1,1,3c-0.3,0.6-0.8,1-1.4,1.2
			c-0.9,0.4-1.9,0.6-2.8,0.6c-1-0.1-1.9,0.1-2.8,0.4c-1.5,0.7-3.3,1.8-4.9,0.4c-0.4-0.4-0.6-0.9-0.7-1.5
			C155.8,230.9,155.9,229.9,156.1,228.9z"/>
		<path class="st6" d="M151.6,183.4c0.7,0.8,3.6-0.6,3.6-0.9c3.4-2.5,2.7,7.8,1.7,11.9c-0.6,2.2-0.5,4.5-0.9,6.7
			c-0.4,2.5-1,5-1.8,7.4c-0.1,0.5-0.4,1-0.7,1.5c-0.8,0.8-2.1,0.7-3.2,0.5c-0.5,0-1-0.2-1.4-0.4c-0.4-0.2-0.8-0.6-1.1-1
			c-0.2-0.6-0.3-1.2-0.2-1.8c0.1-1.6,0-3.2-0.2-4.8c-0.3-1.7-0.6-3.3-0.9-5c-0.3-1.5-0.5-2.9-0.6-4.4c-0.1-2.7,0-5.4,0.6-8
			c0.2-1.4-0.1-4,1.8-4.2C150.1,180.7,151.1,182.9,151.6,183.4z"/>
		<path class="st92" d="M155.2,206.5l0.6-2.3C155.6,204.9,155.4,205.7,155.2,206.5z"/>
		<path class="st6" d="M153.9,207.6c-0.3-0.3-0.7-0.5-1.1-0.7c-0.4-0.1-0.9-0.1-1.3,0.1c-0.4,0.2-3.1-1.5-3.8-2.1
			c0,0.3,0,0.5-0.1,0.8c0,0.3-0.1,0.5-0.1,0.8c0,0.5-0.1,1.1-0.1,1.6c-0.1,1.1-0.1,2.1-0.1,3.2c0,5.1,0.6,10.2,1.5,15.2
			c0,0.4,0.2,0.8,0.4,1.1c0.4,0.3,0.9,0.6,1.3,0.7c0.5,0.1,1,0.1,1.5,0c0.5-0.1,0.9-0.3,1.2-0.6c0.4-0.3,0.6-0.7,0.8-1.1
			c0.2-0.8,0.3-1.7,0.2-2.5c-0.2-3.3-0.4-6.6-0.4-10c0-2.7,0.3-5.4,0.8-8L153.9,207.6z"/>
		<path class="st7" d="M163.1,190.9c0.2,3.3,0.1,6.5-0.1,9.8c-0.2,2-0.4,3.9-0.7,5.8c-0.2,1-0.3,1.9-0.5,2.9c0,0.4-0.1,0.7-0.3,1
			c-0.2,0.3-0.5,0.5-0.8,0.7c-1.6,1.1-4.6,1-5.8-0.8c-1.2-1.8-0.9-5.1-1.3-7.4c-0.7-3.3-2.9-5.6-4-8.7c-0.4-1.1-0.6-2.2-0.6-3.3
			H163.1z"/>
		<path class="st16" d="M145.4,175.5c-0.1-0.6-0.2-1.2-0.3-1.7c-0.5-2.8-1.3-5.4-1.7-8.2c-0.3-2.2-0.5-4.9,1.2-6.5
			c0.3-0.3,0.6-0.5,0.9-0.7c3.3-1.9,6.5,0.4,9.6,1.5c2.1,0.7,4,1.7,5.9,2.9c0.7,0.3,1.2,0.8,1.7,1.3c0.5,0.7,0.7,1.4,0.8,2.2
			c0,0.9-0.1,1.9-0.3,2.8c-1,5.3-1.2,10.7-0.6,16.1c0.3,2.3,0.5,8.6,0.5,8.6c-0.8,0.3-1.3,0.6-5,0.7c-7.7,0.1-11.9-1.8-12.4-2.2
			c-0.4-0.4-0.3-1.3-0.3-1.9c0-1.7,0-3.3,0-5C145.8,182,145.7,178.7,145.4,175.5z"/>
		<path class="st7" d="M161.7,210.9c-0.1,1.7-0.2,3.4-0.3,5.1c-0.1,1.3-0.1,2.7-0.1,4c0,1,0,2.1-0.1,3.1c-0.1,5.6,0.6,6.9-2.1,7.7
			c-0.6,0.2-1.2,0.2-1.8,0.1c-1.7-0.4-2.1-1.9-2.3-3.8c-0.1-1.1-0.2-2.3-0.3-3.4c-0.1-0.9-0.1-1.8-0.1-2.7c0-1.2-0.1-2.5-0.1-3.7
			c0-1.6-0.1-3.2-0.2-4.8c-0.1-2.1-0.3-4.2-0.4-6.2c0-0.2,0-0.3,0.1-0.4c0.1-0.1,0.2-0.3,0.3-0.3c0.3-0.2,6.6,1.9,7.2,2.6
			C161.8,209,161.8,210,161.7,210.9z"/>
		<path class="st24" d="M159.8,161.7c1.8-1.1,5.8-3.9,6.6-5c1.7-2.8,2.9-5.8,3.7-9c0.2-0.7,4.2-0.1,4.4,0.4c-0.1,2-0.4,4-0.7,6
			c-0.4,2.4-1.2,4.7-2.4,6.8c-1.3,1.7-7,7.6-7.3,7.9c-1.1,0.8-3.8,0.6-4.7-0.1C153.6,164.6,159.1,162.2,159.8,161.7z"/>
		<path class="st12" d="M156.2,157.1c0.1-0.8,0.7-0.6,0.4-1.4c-0.3-0.6-0.7-1.2-1.2-1.6c-0.5-0.4-1.2-0.7-1.9-0.6
			c-0.2,0-0.4,0.2-0.6,0.2c-0.7,0-1.3,0-2,0c-0.7,0.1-1.2,0.1-1.2,0.9c0.1,1,0,1.9-0.3,2.9c-0.2,0.5-0.4,1-0.5,1.5
			c0,0.5,0.1,1,0.4,1.5c0.3,0.4,0.7,0.8,1.2,1c1.2,0.5,2.5,0.6,3.7,0.3c0.6-0.1,1.5-0.2,1.9-0.8c0.2-0.5,0.2-1,0.1-1.5
			C156.1,158.6,156.1,157.9,156.2,157.1z"/>
		<path class="st12" d="M159,146.6c0.4,0.5,0.7,1,0.8,1.7c0.2,1.4-0.4,2.8,0,4.2c0.3,1.4-0.3,4.4-3,5.2c-1.6,0.3-3.3,0.1-4.8-0.5
			c-1.1-0.7-2-1.6-2.6-2.7C143.8,145.6,155.2,142,159,146.6z"/>
		<path class="st6" d="M146.8,150.5c0,0.3,0.1,0.5,0.1,0.8c0,0.2,0.1,0.4,0.1,0.6c0,0.2,0.1,0.3,0.2,0.5c0.3,0.6,0.6,1.1,1,1.7
			c0.4,0.8,1.1,1.4,1.9,1.9c0.4,0.2,0.7,0.3,1.1,0.4c1,0.2,2.6,0.3,3.4-0.6c0.3-0.4,0.5-0.9,0.6-1.4c0-0.5,0.1-1,0.2-1.4
			c0-0.1,0.1-0.2,0.1-0.4c0.1-0.2,0.1-0.4,0.2-0.6c0.2-0.3,0.4-0.5,0.7-0.6c0.6-0.2,1.2,0.1,1.7-0.2c0.2-0.2,0.4-0.4,0.5-0.7
			c0.1-0.3,0.2-0.6,0.3-0.9c0.1-0.4,0.3-0.8,0.6-1.1c0.1-0.2,0.3-0.3,0.4-0.5c0.2-0.2,0.3-0.5,0.3-0.8c0-1.3-1-2.6-1.9-3.4
			c-0.5-0.5-1-0.8-1.6-1.1c-0.5-0.2-1.1-0.3-1.7-0.4c-1.7-0.4-3.4-0.1-5,0.6c-0.4,0.2-0.8,0.5-1,0.9c0,0.1-0.1,0.2-0.1,0.3
			c-0.1,0.1-0.2,0.2-0.3,0.2c-0.4,0.2-0.7,0.4-1,0.7C146.3,146.2,146.5,148.6,146.8,150.5z"/>
		<path class="st12" d="M155.9,150.5c-1.1-0.1-1.4,1.2-0.6,2.3c0.3,0.3,0.5,0.6,0.9,0.8c1.9,1.7,2.4-0.1,1.8-0.7
			C156.5,151.6,157.3,150.6,155.9,150.5z"/>
		<path class="st8" d="M156.2,152.6c-0.1-0.1-1.3-0.9-0.5-1.3c0.2-0.1,0.5,0.1,0.5,0.3c0,0.2,0,0.2,0,0.4c0,0.1,0,0.1,0.1,0.2
			c0.1,0.2,0.5,0.3,0.4,0.6C156.6,153,156.3,152.6,156.2,152.6z"/>
	</g>
</g>
</svg>
