<svg width="512" height="512" viewBox="0 0 512 512" fill="none" xmlns="http://www.w3.org/2000/svg">
<g clip-path="url(#clip0_12_199)">
<path d="M360 110H300C294.5 110 290 105.5 290 100C290 94.5 294.5 90 300 90H360C365.5 90 370 94.5 370 100C370 105.5 365.5 110 360 110Z" fill="#999999"/>
<path d="M500 450H10C4.5 450 0 445.5 0 440V100C0 94.5 4.5 90 10 90H70C75.5 90 80 94.5 80 100C80 105.5 75.5 110 70 110H20V430H490V100C490 94.5 494.5 90 500 90C505.5 90 510 94.5 510 100V440C510 445.5 505.5 450 500 450Z" fill="#999999"/>
<path d="M280 510C274.5 510 270 505.5 270 500V440C270 434.5 274.5 430 280 430C285.5 430 290 434.5 290 440V500C290 505.5 285.5 510 280 510ZM220 510C214.5 510 210 505.5 210 500V440C210 434.5 214.5 430 220 430C225.5 430 230 434.5 230 440V500C230 505.5 225.5 510 220 510Z" fill="#999999"/>
<path d="M325 510H175C169.5 510 165 505.5 165 500C165 494.5 169.5 490 175 490H325C330.5 490 335 494.5 335 500C335 505.5 330.5 510 325 510ZM220 170H110C104.5 170 100 165.5 100 160V40C100 34.5 104.5 30 110 30H220C225.5 30 230 34.5 230 40V160C230 165.5 225.5 170 220 170ZM120 150H210V50H120V150Z" fill="#999999"/>
<path d="M300 200C298.8 200 297.6 199.8 296.5 199.4L216.5 169.4C212.6 167.9 210 164.2 210 160V39.9999C210 35.7999 212.6 32.0999 216.5 30.5999L296.5 0.599877C299.6 -0.600123 303 -0.100123 305.7 1.69988C308.4 3.59988 310 6.59988 310 9.89988V189.9C310 193.2 308.4 196.3 305.7 198.1C304 199.4 302 200 300 200ZM230 153.1L290 175.6V24.3999L230 46.8999V153.1ZM110 140H100C77.9 140 60 122.1 60 99.9999C60 77.8999 77.9 59.9999 100 59.9999H110C115.5 59.9999 120 64.4999 120 69.9999V130C120 135.5 115.5 140 110 140ZM100 79.9999C89 79.9999 80 88.9999 80 99.9999C80 111 89 120 100 120V79.9999ZM140 290C117.9 290 100 272.1 100 250V160C100 154.5 104.5 150 110 150H170C175.5 150 180 154.5 180 160V250C180 272.1 162.1 290 140 290ZM120 170V250C120 261 129 270 140 270C151 270 160 261 160 250V170H120ZM390 200C388.1 200 386.2 199.5 384.6 198.4C381.7 196.6 380 193.4 380 190V170H360C354.5 170 350 165.5 350 160V39.9999C350 34.4999 354.5 29.9999 360 29.9999H500C505.5 29.9999 510 34.4999 510 39.9999V160C510 165.5 505.5 170 500 170H457.2L394.2 199.1C392.9 199.7 391.4 200 390 200ZM370 150H390C395.5 150 400 154.5 400 160V174.4L450.8 150.9C452.1 150.3 453.5 150 455 150H490V49.9999H370V150Z" fill="#999999"/>
<path d="M450 360H290C284.5 360 280 355.5 280 350V240C280 234.5 284.5 230 290 230H450C455.5 230 460 234.5 460 240V350C460 352.7 458.9 355.2 457.1 357.1C455.2 358.9 452.7 360 450 360ZM300 340H440V250H300V340Z" fill="#999999"/>
<path d="M370 310C367.9 310 365.8 309.3 364 308L284 248C279.6 244.7 278.7 238.4 282 234C285.3 229.6 291.6 228.7 296 232L370 287.5L444 232C448.4 228.7 454.7 229.6 458 234C461.3 238.4 460.4 244.7 456 248L376 308C374.2 309.3 372.1 310 370 310ZM230 370H70C64.5 370 60 365.5 60 360V320C60 314.5 64.5 310 70 310H230C235.5 310 240 314.5 240 320V360C240 365.5 235.5 370 230 370ZM80 350H220V330H80V350Z" fill="#999999"/>
</g>
<defs>
<clipPath id="clip0_12_199">
<rect width="512" height="512" fill="white"/>
</clipPath>
</defs>
</svg>
