<svg width="512" height="512" viewBox="0 0 512 512" fill="none" xmlns="http://www.w3.org/2000/svg">
<path d="M415.08 421.356C463.45 377.092 491 314.821 491 249.001C491 120.172 386.19 15.3608 257.36 15.3608C128.53 15.3608 23.72 120.172 23.72 249.001C23.72 402.943 171.23 515.946 320.699 473.933C437.915 500.867 431.783 499.856 434.435 499.856C443.558 499.856 449.521 490.238 445.433 482.059L415.08 421.356ZM320.355 448.936C319.177 448.936 318.001 449.106 316.861 449.443C182.247 489.344 48.3137 387.728 48.3137 249C48.3137 133.731 142.092 39.9533 257.36 39.9533C372.628 39.9533 466.406 133.731 466.406 249C466.406 310.799 439.257 369.105 391.921 408.968C389.809 410.747 388.357 413.184 387.799 415.888C387.241 418.592 387.608 421.405 388.843 423.874L411.76 469.706C318.494 448.297 322.989 448.936 320.355 448.936Z" fill="#999999"/>
</svg>
