<svg width="512" height="512" viewBox="0 0 512 512" fill="none" xmlns="http://www.w3.org/2000/svg">
<path d="M480 424H472V144C472 137.635 469.471 131.53 464.971 127.029C460.47 122.529 454.365 120 448 120H392C392 117.878 391.157 115.843 389.657 114.343C388.157 112.843 386.122 112 384 112H371.616C368.996 102.537 365.212 93.4358 360.352 84.904L369.152 76.104C370.652 74.6038 371.494 72.5693 371.494 70.448C371.494 68.3267 370.652 66.2922 369.152 64.792L335.2 30.864C333.7 29.3642 331.665 28.5217 329.544 28.5217C327.423 28.5217 325.388 29.3642 323.888 30.864L315.088 39.664C306.56 34.7991 297.461 31.0102 288 28.384V16C288 13.8783 287.157 11.8434 285.657 10.3431C284.157 8.84285 282.122 8 280 8H232C229.878 8 227.843 8.84285 226.343 10.3431C224.843 11.8434 224 13.8783 224 16V28.384C214.537 31.0045 205.436 34.788 196.904 39.648L188.104 30.848C186.604 29.3482 184.569 28.5057 182.448 28.5057C180.327 28.5057 178.292 29.3482 176.792 30.848L142.864 64.8C141.364 66.3002 140.522 68.3347 140.522 70.456C140.522 72.5773 141.364 74.6118 142.864 76.112L151.664 84.912C146.799 93.4405 143.01 102.539 140.384 112H128C125.878 112 123.843 112.843 122.343 114.343C120.843 115.843 120 117.878 120 120H64C57.6348 120 51.5303 122.529 47.0294 127.029C42.5286 131.53 40 137.635 40 144V424H32C25.6348 424 19.5303 426.529 15.0294 431.029C10.5286 435.53 8 441.635 8 448V464C8.0127 474.605 12.2311 484.772 19.7298 492.27C27.2285 499.769 37.3952 503.987 48 504H464C474.605 503.987 484.772 499.769 492.27 492.27C499.769 484.772 503.987 474.605 504 464V448C504 441.635 501.471 435.53 496.971 431.029C492.47 426.529 486.365 424 480 424ZM128 176H140.384C143.004 185.463 146.788 194.564 151.648 203.096L142.848 211.896C141.348 213.396 140.506 215.431 140.506 217.552C140.506 219.673 141.348 221.708 142.848 223.208L176.8 257.136C178.3 258.636 180.335 259.478 182.456 259.478C184.577 259.478 186.612 258.636 188.112 257.136L196.912 248.336C205.442 253.198 214.54 256.987 224 259.616V272C224 274.122 224.843 276.157 226.343 277.657C227.843 279.157 229.878 280 232 280H280C282.122 280 284.157 279.157 285.657 277.657C287.157 276.157 288 274.122 288 272V259.616C297.462 256.993 306.563 253.209 315.096 248.352L323.896 257.152C325.396 258.652 327.431 259.494 329.552 259.494C331.673 259.494 333.708 258.652 335.208 257.152L369.136 223.2C370.636 221.7 371.478 219.665 371.478 217.544C371.478 215.423 370.636 213.388 369.136 211.888L360.336 203.088C365.201 194.559 368.99 185.461 371.616 176H384C386.122 176 388.157 175.157 389.657 173.657C391.157 172.157 392 170.122 392 168H424V392H88V168H120C120 170.122 120.843 172.157 122.343 173.657C123.843 175.157 125.878 176 128 176ZM136 128H146.64C148.465 128 150.234 127.377 151.656 126.233C153.078 125.09 154.066 123.494 154.456 121.712C157.083 109.729 161.829 98.3127 168.472 88C169.459 86.4627 169.89 84.6338 169.694 82.8174C169.497 81.0011 168.685 79.3067 167.392 78.016L159.832 70.464L182.464 47.832L190.016 55.392C191.307 56.685 193.001 57.4972 194.817 57.6937C196.634 57.8902 198.463 57.4591 200 56.472C210.313 49.8292 221.729 45.0826 233.712 42.456C235.494 42.0655 237.09 41.0776 238.233 39.656C239.377 38.2344 240 36.4645 240 34.64V24H272V34.64C272 36.4645 272.623 38.2344 273.767 39.656C274.91 41.0776 276.506 42.0655 278.288 42.456C290.271 45.0826 301.687 49.8292 312 56.472C313.537 57.4591 315.366 57.8902 317.183 57.6937C318.999 57.4972 320.693 56.685 321.984 55.392L329.536 47.832L352.168 70.464L344.608 78.016C343.315 79.3067 342.503 81.0011 342.306 82.8174C342.11 84.6338 342.541 86.4627 343.528 88C350.171 98.3127 354.917 109.729 357.544 121.712C357.934 123.494 358.922 125.09 360.344 126.233C361.766 127.377 363.535 128 365.36 128H376V160H365.36C363.535 160 361.766 160.623 360.344 161.767C358.922 162.91 357.934 164.506 357.544 166.288C354.917 178.271 350.171 189.687 343.528 200C342.541 201.537 342.11 203.366 342.306 205.183C342.503 206.999 343.315 208.693 344.608 209.984L352.168 217.536L329.536 240.168L321.984 232.608C320.693 231.315 318.999 230.503 317.183 230.306C315.366 230.11 313.537 230.541 312 231.528C301.691 238.17 290.276 242.914 278.296 245.536C276.512 245.925 274.915 246.912 273.77 248.334C272.625 249.756 272 251.526 272 253.352V264H240V253.352C240 251.526 239.375 249.756 238.23 248.334C237.085 246.912 235.488 245.925 233.704 245.536C221.724 242.914 210.309 238.17 200 231.528C198.463 230.541 196.634 230.11 194.817 230.306C193.001 230.503 191.307 231.315 190.016 232.608L182.464 240.168L159.832 217.536L167.392 209.984C168.685 208.693 169.497 206.999 169.694 205.183C169.89 203.366 169.459 201.537 168.472 200C161.829 189.687 157.083 178.271 154.456 166.288C154.066 164.506 153.078 162.91 151.656 161.767C150.234 160.623 148.465 160 146.64 160H136V128ZM56 144C56 141.878 56.8429 139.843 58.3431 138.343C59.8434 136.843 61.8783 136 64 136H120V152H80C77.8783 152 75.8434 152.843 74.3431 154.343C72.8429 155.843 72 157.878 72 160V400C72 402.122 72.8429 404.157 74.3431 405.657C75.8434 407.157 77.8783 408 80 408H432C434.122 408 436.157 407.157 437.657 405.657C439.157 404.157 440 402.122 440 400V160C440 157.878 439.157 155.843 437.657 154.343C436.157 152.843 434.122 152 432 152H392V136H448C450.122 136 452.157 136.843 453.657 138.343C455.157 139.843 456 141.878 456 144V424H56V144ZM216 440H296V448C296 450.122 295.157 452.157 293.657 453.657C292.157 455.157 290.122 456 288 456H224C221.878 456 219.843 455.157 218.343 453.657C216.843 452.157 216 450.122 216 448V440ZM488 464C488 470.365 485.471 476.47 480.971 480.971C476.47 485.471 470.365 488 464 488H48C41.6348 488 35.5303 485.471 31.0294 480.971C26.5286 476.47 24 470.365 24 464V448C24 445.878 24.8429 443.843 26.3431 442.343C27.8434 440.843 29.8783 440 32 440H200V448C200 454.365 202.529 460.47 207.029 464.971C211.53 469.471 217.635 472 224 472H288C294.365 472 300.47 469.471 304.971 464.971C309.471 460.47 312 454.365 312 448V440H480C482.122 440 484.157 440.843 485.657 442.343C487.157 443.843 488 445.878 488 448V464Z" fill="#999999"/>
<path d="M256 232C273.405 232 290.419 226.839 304.89 217.169C319.362 207.5 330.641 193.756 337.301 177.676C343.962 161.596 345.705 143.902 342.309 126.832C338.914 109.762 330.532 94.0817 318.225 81.7746C305.918 69.4676 290.238 61.0864 273.168 57.6909C256.098 54.2954 238.404 56.0381 222.324 62.6986C206.244 69.3592 192.5 80.6383 182.831 95.1099C173.161 109.581 168 126.595 168 144C168.028 167.331 177.308 189.698 193.805 206.195C210.302 222.692 232.669 231.973 256 232ZM216 203.824V192C216 185.763 217.458 179.613 220.259 174.04C223.059 168.467 227.124 163.626 232.128 159.904C238.978 165.155 247.369 168.001 256 168.001C264.631 168.001 273.022 165.155 279.872 159.904C284.876 163.626 288.941 168.467 291.741 174.04C294.542 179.613 296 185.763 296 192V203.824C284.169 211.759 270.246 215.997 256 215.997C241.754 215.997 227.831 211.759 216 203.824ZM256 152C251.253 152 246.613 150.592 242.666 147.955C238.72 145.318 235.643 141.57 233.827 137.184C232.01 132.799 231.535 127.973 232.461 123.318C233.387 118.662 235.673 114.386 239.029 111.029C242.386 107.673 246.662 105.387 251.318 104.461C255.973 103.535 260.799 104.01 265.184 105.827C269.57 107.643 273.318 110.72 275.955 114.666C278.592 118.613 280 123.253 280 128C280 134.365 277.471 140.47 272.971 144.971C268.47 149.471 262.365 152 256 152ZM256 72C269.611 71.99 282.947 75.8416 294.457 83.1074C305.967 90.3732 315.179 100.755 321.025 113.048C326.87 125.34 329.109 139.038 327.48 152.552C325.851 166.066 320.423 178.84 311.824 189.392C311.455 181.353 309.355 173.489 305.669 166.336C301.982 159.183 296.796 152.91 290.464 147.944C294.047 141.905 295.958 135.022 296 128C296 117.391 291.786 107.217 284.284 99.7158C276.783 92.2143 266.609 88 256 88C245.391 88 235.217 92.2143 227.716 99.7158C220.214 107.217 216 117.391 216 128C216.042 135.022 217.953 141.905 221.536 147.944C215.204 152.91 210.018 159.183 206.331 166.336C202.645 173.489 200.545 181.353 200.176 189.392C191.577 178.84 186.149 166.066 184.52 152.552C182.891 139.038 185.13 125.34 190.975 113.048C196.821 100.755 206.033 90.3732 217.543 83.1074C229.053 75.8416 242.388 71.99 256 72ZM168 376H184C190.365 376 196.47 373.471 200.971 368.971C205.471 364.47 208 358.365 208 352H192C192 354.122 191.157 356.157 189.657 357.657C188.157 359.157 186.122 360 184 360H168C165.878 360 163.843 359.157 162.343 357.657C160.843 356.157 160 354.122 160 352V320C160 317.878 160.843 315.843 162.343 314.343C163.843 312.843 165.878 312 168 312H184C186.122 312 188.157 312.843 189.657 314.343C191.157 315.843 192 317.878 192 320H208C208 313.635 205.471 307.53 200.971 303.029C196.47 298.529 190.365 296 184 296H168C161.635 296 155.53 298.529 151.029 303.029C146.529 307.53 144 313.635 144 320V352C144 358.365 146.529 364.47 151.029 368.971C155.53 373.471 161.635 376 168 376ZM232 344H245.6L247.616 345.344C252.661 348.708 256.797 353.267 259.656 358.616C262.514 363.964 264.006 369.936 264 376H280C279.999 363.213 275.351 350.862 266.92 341.248C271.72 338.811 275.558 334.825 277.812 329.937C280.067 325.048 280.606 319.542 279.343 314.308C278.08 309.075 275.089 304.421 270.853 301.098C266.616 297.776 261.383 295.98 256 296H224C221.878 296 219.843 296.843 218.343 298.343C216.843 299.843 216 301.878 216 304V376H232V344ZM232 312H256C258.122 312 260.157 312.843 261.657 314.343C263.157 315.843 264 317.878 264 320C264 322.122 263.157 324.157 261.657 325.657C260.157 327.157 258.122 328 256 328H232V312ZM304 337.888L320.8 371.576C321.539 372.816 322.588 373.843 323.843 374.555C325.098 375.268 326.517 375.643 327.96 375.643C329.403 375.643 330.822 375.268 332.077 374.555C333.332 373.843 334.381 372.816 335.12 371.576L352 337.888V376H368V304C368.02 302.182 367.421 300.41 366.3 298.978C365.178 297.546 363.603 296.539 361.833 296.123C360.062 295.706 358.203 295.905 356.561 296.687C354.919 297.469 353.592 298.787 352.8 300.424L328 350.112L303.2 300.424C302.408 298.787 301.081 297.469 299.439 296.687C297.797 295.905 295.938 295.706 294.167 296.123C292.397 296.539 290.822 297.546 289.7 298.978C288.579 300.41 287.98 302.182 288 304V376H304V337.888Z" fill="#999999"/>
</svg>
