<svg width="512" height="512" viewBox="0 0 512 512" fill="none" xmlns="http://www.w3.org/2000/svg">
<path d="M66.6434 494.623V466.702C66.6434 461.883 70.5552 457.999 75.3458 457.999C80.1364 457.999 84.0483 461.883 84.0483 466.702V494.623H241.798V466.702C241.798 461.883 245.71 457.999 250.501 457.999C255.291 457.999 259.203 461.883 259.203 466.702V494.623H297.585V448.957C297.585 409.129 265.156 376.729 225.329 376.729H212.714L169.769 431.779C166.339 436.172 159.507 436.172 156.078 431.779L113.132 376.729H100.518C60.6905 376.729 28.2618 409.129 28.2618 448.957V494.623H66.6434ZM492.441 269.465H276.155C271.336 269.465 267.452 265.553 267.452 260.762V163.136C267.452 158.345 271.336 154.462 276.155 154.462H492.441C497.231 154.462 501.115 158.345 501.115 163.136V260.762C501.115 265.553 497.231 269.465 492.441 269.465ZM284.829 252.06H483.738V171.838H284.829V252.06ZM428.519 204.551H340.048C335.258 204.551 331.346 200.667 331.346 195.848C331.346 191.057 335.258 187.174 340.048 187.174H428.519C433.338 187.174 437.221 191.057 437.221 195.848C437.221 200.667 433.338 204.551 428.519 204.551ZM457.688 236.752H310.879C306.06 236.752 302.177 232.841 302.177 228.05C302.177 223.259 306.06 219.348 310.879 219.348H457.688C462.507 219.348 466.39 223.259 466.39 228.05C466.39 232.841 462.507 236.752 457.688 236.752ZM492.441 512H339.226C334.237 512 330.155 507.606 330.552 502.646L341.806 356.178C342.174 351.67 345.944 348.155 350.48 348.155H371.088V325.308C371.088 303.112 389.117 285.084 411.312 285.084H420.326C442.522 285.084 460.579 303.112 460.579 325.308V348.155H481.159C485.694 348.155 489.493 351.67 489.833 356.178L501.086 502.646C501.483 507.606 497.43 512 492.441 512ZM388.465 348.155H443.174V325.308C443.174 312.722 432.941 302.46 420.326 302.46H411.312C398.726 302.46 388.465 312.722 388.465 325.308V348.155ZM348.609 494.623H483.03L473.108 365.56H358.53L348.609 494.623ZM122.883 138.843C121.608 138.843 120.304 138.559 119.113 137.964L83.4247 120.786L47.736 137.964C41.5281 140.969 34.413 135.781 35.3485 128.978L40.6777 89.7176L13.2947 61.0873C8.53241 56.1266 11.2537 47.7643 18.0286 46.5454L57.0054 39.4587L75.771 4.59214C79.0309 -1.47407 87.8184 -1.47407 91.0783 4.59214L109.844 39.4587L148.821 46.5171C155.596 47.7643 158.317 56.1266 153.555 61.0873L126.172 89.7176L131.501 128.978C132.181 134.137 128.014 138.843 122.883 138.843ZM87.1948 103.296L112.083 115.286L108.37 87.9034C108.03 85.2955 108.88 82.6309 110.723 80.7317L129.8 60.7472L102.615 55.8148C100.008 55.3613 97.7682 53.7172 96.5209 51.3927L83.4247 27.0428L70.3284 51.3927C69.0812 53.7172 66.8418 55.3613 64.2339 55.8148L37.0209 60.7472L56.1267 80.7317C57.9692 82.6309 58.8196 85.2955 58.4511 87.9034L54.7377 115.286L79.6545 103.296C82.0357 102.162 84.8137 102.162 87.1948 103.296ZM207.924 128.978L213.253 89.7176L185.87 61.0873C181.108 56.1266 183.829 47.7643 190.604 46.5454L229.581 39.4587L248.346 4.59214C251.606 -1.47407 260.394 -1.47407 263.654 4.59214L282.419 39.4587L321.396 46.5171C328.171 47.7643 330.892 56.1266 326.13 61.0873L298.747 89.7176L304.076 128.978C305.012 135.781 297.897 140.969 291.689 137.964L256 120.786L220.311 137.964C214.188 140.94 207.017 135.81 207.924 128.978ZM259.77 103.296L284.687 115.286L280.974 87.9034C280.605 85.2955 281.455 82.6309 283.298 80.7317L302.404 60.7472L275.191 55.8148C272.583 55.3613 270.344 53.7172 269.096 51.3927L256 27.0428L242.904 51.3927C241.657 53.7172 239.417 55.3613 236.809 55.8148L209.625 60.7472L228.702 80.7317C230.545 82.6309 231.395 85.2955 231.055 87.9034L227.341 115.286L252.23 103.296C254.611 102.162 257.389 102.162 259.77 103.296ZM468.034 138.843C466.759 138.843 465.455 138.559 464.264 137.964L428.575 120.786L392.915 137.964C386.707 140.969 379.592 135.781 380.499 128.978L385.828 89.7176L358.445 61.0873C353.711 56.1266 356.433 47.7643 363.179 46.5454L402.156 39.4587L420.922 4.59214C424.182 -1.47407 432.969 -1.47407 436.229 4.59214L454.995 39.4587L493.971 46.5171C500.746 47.7643 503.468 56.1266 498.705 61.0873L471.322 89.7176L476.652 128.978C477.36 134.137 473.193 138.843 468.034 138.843ZM432.345 103.296L457.262 115.286L453.549 87.9034C453.18 85.2955 454.031 82.6309 455.873 80.7317L474.979 60.7472L447.794 55.8148C445.187 55.3613 442.919 53.7172 441.672 51.3927L428.575 27.0428L415.479 51.3927C414.232 53.7172 411.992 55.3613 409.385 55.8148L382.2 60.7472L401.306 80.7317C403.12 82.6309 403.97 85.2955 403.63 87.9034L399.917 115.286L424.805 103.296C427.186 102.162 429.993 102.162 432.345 103.296ZM222.693 241.316C236.809 195.706 183.177 164.411 149.359 170.988C136.263 173.539 128.354 181.136 125.86 193.58C125.265 196.613 123.082 199.108 120.162 200.1C120.077 200.157 106.159 205.231 101.85 218.27C99.4973 225.442 100.263 233.918 104.118 243.584C126.654 205.174 200.554 193.155 222.693 241.316ZM97.7965 268.643C84.1617 247.496 80.023 228.645 85.4373 212.544C90.5964 197.209 103.126 189.073 109.929 185.672C114.89 168.919 127.816 157.466 146.043 153.923C176.431 148.027 214.075 164.496 231.764 191.454C240.693 205.061 251.918 232.982 228.589 268.813V287.04C228.589 308.527 218.157 327.661 202.084 339.566L213.48 359.324H225.329C274.766 359.324 314.961 399.548 314.961 448.957V503.297C314.961 508.116 311.078 512 306.259 512H19.5877C14.7687 512 10.8852 508.116 10.8852 503.297V448.957C10.8852 399.548 51.081 359.324 100.518 359.324H112.367L123.932 339.311C108.058 327.349 97.7965 308.385 97.7965 287.04V268.643ZM163.193 352.436C154.689 352.436 146.553 350.792 139.098 347.815L127.844 367.318L162.909 412.276L198.002 367.318L186.862 347.985C179.52 350.848 171.527 352.436 163.193 352.436ZM115.173 266.091V287.04C115.173 304.785 124.868 320.319 139.211 328.624L140.402 329.276C147.177 332.962 154.944 335.031 163.193 335.031C189.158 335.031 211.184 313.884 211.184 287.04V266.545C208.547 229.949 179.917 226.803 167.7 227.171C143.095 227.88 115.457 244.009 115.173 266.091Z" fill="#999999"/>
</svg>
