<svg width="512" height="512" viewBox="0 0 512 512" fill="none" xmlns="http://www.w3.org/2000/svg">
<g clip-path="url(#clip0_12_195)">
<path d="M356.157 409.6H279.357V341.333C279.357 317.77 260.254 298.667 236.69 298.667H185.49V251.819L301.373 169.045C302.302 168.387 303.09 167.55 303.691 166.583C304.292 165.616 304.693 164.538 304.871 163.413C305.04 162.292 304.983 161.149 304.705 160.05C304.426 158.951 303.932 157.919 303.25 157.013L277.65 122.88C276.323 121.115 274.363 119.934 272.183 119.584C270.003 119.234 267.772 119.742 265.959 121.003L178.493 181.504C193.959 152.365 182.875 116.204 153.735 100.738C124.596 85.2715 88.4352 96.3563 72.9696 125.495C60.5333 148.925 65.0379 177.748 84.0288 196.267H74.5568C73.366 196.269 72.189 196.521 71.1014 197.006C70.0138 197.491 69.0399 198.199 68.2421 199.083L13.1168 260.352C-2.01815 277.262 -1.26828 303.059 14.8235 319.061L59.9648 364.459C60.8412 365.336 61.8983 366.012 63.0625 366.44C64.2267 366.867 65.4701 367.035 66.7061 366.933C67.9575 366.837 69.1722 366.466 70.2637 365.846C71.3551 365.227 72.2966 364.374 73.0208 363.349L83.0901 349.099V503.467C83.0901 505.73 83.9892 507.9 85.5895 509.501C87.1898 511.101 89.3603 512 91.6235 512H142.823C145.087 512 147.257 511.101 148.857 509.501C150.458 507.9 151.357 505.73 151.357 503.467V366.933H211.09V409.6H185.49C183.227 409.6 181.056 410.499 179.456 412.099C177.856 413.7 176.957 415.87 176.957 418.133V503.467C176.957 505.73 177.856 507.9 179.456 509.501C181.056 511.101 183.227 512 185.49 512H356.157C358.42 512 360.59 511.101 362.191 509.501C363.791 507.9 364.69 505.73 364.69 503.467V418.133C364.69 415.87 363.791 413.7 362.191 412.099C360.59 410.499 358.42 409.6 356.157 409.6ZM83.0901 153.6C83.0901 130.036 102.193 110.933 125.757 110.933C149.321 110.933 168.423 130.036 168.423 153.6C168.423 177.164 149.321 196.267 125.757 196.267C102.193 196.267 83.0901 177.164 83.0901 153.6ZM146.066 213.333L134.29 236.885L122.514 213.333H146.066ZM83.0901 304.725L69.4368 290.133L83.0901 276.48V304.725ZM142.823 349.867C140.56 349.867 138.39 350.766 136.789 352.366C135.189 353.966 134.29 356.137 134.29 358.4V494.933H100.157V256C100.148 254.315 99.6415 252.671 98.7 251.274C97.7585 249.877 96.4245 248.79 94.8661 248.149C93.3121 247.496 91.5994 247.317 89.944 247.636C88.2886 247.955 86.7648 248.757 85.5648 249.941L51.4315 284.075C49.8679 285.67 48.9921 287.814 48.9921 290.048C48.9921 292.282 49.8679 294.426 51.4315 296.021L79.3355 325.12L64.9141 345.259L26.6848 307.2C16.9365 297.553 16.5226 281.937 25.7461 271.787L78.3968 213.333H103.399L126.695 259.84C127.412 261.238 128.5 262.411 129.84 263.23C131.18 264.049 132.72 264.482 134.29 264.482C135.861 264.482 137.401 264.049 138.741 263.23C140.081 262.411 141.169 261.238 141.885 259.84L166.546 210.603L268.946 139.691L284.391 160.256L172.007 240.555C170.904 241.34 170.004 242.376 169.381 243.578C168.758 244.78 168.43 246.113 168.423 247.467V307.2C168.423 309.463 169.322 311.634 170.923 313.234C172.523 314.834 174.694 315.733 176.957 315.733H236.69C250.829 315.733 262.29 327.195 262.29 341.333V409.6H228.157V358.4C228.157 356.137 227.258 353.966 225.657 352.366C224.057 350.766 221.887 349.867 219.623 349.867H142.823ZM347.623 494.933H194.023V426.667H347.623V494.933ZM501.223 68.2667C468.234 68.2667 441.49 41.5232 441.49 8.53333C441.49 6.27015 440.591 4.09967 438.991 2.49936C437.39 0.899045 435.22 0 432.957 0C430.694 0 428.523 0.899045 426.923 2.49936C425.323 4.09967 424.423 6.27015 424.423 8.53333C424.423 41.5232 397.68 68.2667 364.69 68.2667C362.427 68.2667 360.256 69.1657 358.656 70.766C357.056 72.3663 356.157 74.5368 356.157 76.8C356.157 79.0632 357.056 81.2337 358.656 82.834C360.256 84.4343 362.427 85.3333 364.69 85.3333C397.68 85.3333 424.423 112.077 424.423 145.067C424.423 147.33 425.323 149.5 426.923 151.101C428.523 152.701 430.694 153.6 432.957 153.6C435.22 153.6 437.39 152.701 438.991 151.101C440.591 149.5 441.49 147.33 441.49 145.067C441.49 112.077 468.234 85.3333 501.223 85.3333C503.487 85.3333 505.657 84.4343 507.257 82.834C508.858 81.2337 509.757 79.0632 509.757 76.8C509.757 74.5368 508.858 72.3663 507.257 70.766C505.657 69.1657 503.487 68.2667 501.223 68.2667ZM432.957 109.909C425.599 95.7221 414.035 84.1574 399.847 76.8C414.034 69.442 425.599 57.8774 432.957 43.6907C440.315 57.8774 451.879 69.442 466.066 76.8C451.879 84.158 440.315 95.7226 432.957 109.909Z" fill="#999999"/>
<path d="M265.771 232.023L289.029 214.968L299.12 228.731L275.862 245.785L265.771 232.023ZM308.494 200.772L393.801 138.173L403.898 151.933L318.591 214.531L308.494 200.772ZM308.721 129.409L359.91 95.2812L369.377 109.481L318.188 143.609L308.721 129.409Z" fill="#999999"/>
</g>
<defs>
<clipPath id="clip0_12_195">
<rect width="512" height="512" fill="white"/>
</clipPath>
</defs>
</svg>
