<svg width="512" height="512" viewBox="0 0 512 512" fill="none" xmlns="http://www.w3.org/2000/svg">
<g clip-path="url(#clip0_12_76)">
<path d="M385.9 181.8C385.9 111 328.3 53.4 257.5 53.4C186.7 53.4 129 111 129 181.8C129 252.6 186.6 310.2 257.4 310.2C328.2 310.2 385.9 252.7 385.9 181.8ZM257.5 293.2C196.1 293.2 146.2 243.3 146.2 181.9C146.2 120.5 196.1 70.6 257.5 70.6C318.9 70.6 368.8 120.5 368.8 181.9C368.8 243.2 318.9 293.2 257.5 293.2Z" fill="#999999"/>
<path d="M278.7 152.6L257.5 87.2L236.3 152.6H167.6L223.2 193L202 258.4L257.6 218L313.2 258.4L291.8 193L347.4 152.6H278.7ZM280.5 213.5L257.5 196.8L234.5 213.5L243.3 186.4L220.3 169.7H248.8L257.6 142.6L266.4 169.7H294.8L271.8 186.4L280.5 213.5Z" fill="#999999"/>
<path d="M404.9 268.9L418.5 259.4C434.6 248.1 441.3 228.3 435.1 209.9L428.3 189.9C426.5 184.5 426.5 178.8 428.3 173.5L435 153.5C441.2 135.2 434.5 115.3 418.4 104.1L400.7 91.7C395.9 88.3 392.3 83.7 390.5 78.2L383.7 58.2C377.6 40.1 360.2 27.9 340.5 27.9H318.6C312.5 27.9 306.7 26.1 301.8 22.7L284 10.3C268.1 -0.800024 246.7 -0.800024 230.8 10.3L213.1 22.7C208.2 26.1 202.4 27.9 196.3 27.9H174.4C154.7 27.9 137.3 40.1 131.2 58.3L124.4 78.3C122.6 83.7 119 88.4 114.2 91.8L96.5 104.2C80.4 115.5 73.7 135.3 79.9 153.7L86.7 173.7C88.5 179.1 88.5 184.8 86.7 190.1L79.9 210.1C73.7 228.4 80.4 248.3 96.5 259.5L105.5 265.8L2.5 444.8L74.4 440.2L106.3 504.8L203.4 336.6C206.9 337.4 210.2 338.8 213.2 340.9L230.9 353.3C238.9 358.8 248.2 361.6 257.5 361.6C266.8 361.6 276.2 358.8 284.1 353.3L301.8 340.9C303.3 339.9 304.8 339.1 306.4 338.3L405.6 510L437.5 445.4L509.4 450L404.9 268.9ZM84.7 422.5L33.3 425.8L119.2 276.5C121.5 279.1 123.3 282.1 124.5 285.5L131.3 305.5C137.4 323.6 154.8 335.8 174.5 335.8H184.2L107.5 468.6L84.7 422.5ZM292.1 326.9L274.4 339.3C264.4 346.3 250.9 346.3 240.8 339.3L223 326.9C215.2 321.5 206 318.6 196.4 318.6H174.5C162.1 318.6 151.3 311.1 147.5 299.9L140.7 279.9C137.7 271 131.9 263.4 124.1 257.9L106.4 245.5C96.6 238.6 92.5 226.6 96.2 215.6L103 195.6C106 186.6 106 177.1 103 168.2L96.2 148.2C92.5 137.2 96.6 125.1 106.4 118.3L124.1 105.9C132 100.4 137.7 92.8 140.7 83.9L147.5 63.9C151.3 52.7 162.1 45.2 174.5 45.2H196.4C206 45.2 215.2 42.3 223 36.9L240.7 24.5C250.8 17.5 264.3 17.5 274.3 24.5L292 36.9C299.8 42.3 309 45.2 318.6 45.2H340.5C352.9 45.2 363.7 52.7 367.5 63.9L374.3 83.9C377.3 92.8 383.1 100.4 390.9 105.9L408.6 118.3C418.4 125.2 422.5 137.2 418.8 148.2L412.1 168.2C409.1 177.2 409.1 186.6 412.1 195.6L418.9 215.6C422.6 226.6 418.5 238.7 408.7 245.5L391 257.9C383.2 263.4 377.4 271 374.4 279.9L367.6 299.9C363.8 311.1 353 318.6 340.6 318.6H318.7C309.1 318.6 299.9 321.5 292.1 326.9ZM427.2 427.6L404.4 473.7L324.7 335.7H340.5C360.2 335.7 377.6 323.5 383.7 305.3L390.5 285.3C391 283.9 391.5 282.6 392.2 281.4L478.6 431L427.2 427.6Z" fill="#999999"/>
</g>
<defs>
<clipPath id="clip0_12_76">
<rect width="512" height="512" fill="white"/>
</clipPath>
</defs>
</svg>
