<svg width="512" height="512" viewBox="0 0 512 512" fill="none" xmlns="http://www.w3.org/2000/svg">
<path d="M220.353 492.658C219.158 492.659 217.974 492.424 216.869 491.966C215.765 491.509 214.761 490.839 213.915 489.993C213.07 489.148 212.4 488.144 211.943 487.04C211.485 485.935 211.25 484.751 211.251 483.556V310.227L79.5534 153.919C77.2779 151.211 76.7659 147.422 78.2564 144.213C79.7468 141.005 82.9668 138.945 86.5052 138.945H425.472C429.01 138.945 432.23 140.993 433.721 144.213C434.452 145.786 434.718 147.536 434.489 149.255C434.259 150.975 433.542 152.593 432.424 153.919L300.749 310.227V429.204C300.748 430.605 300.425 431.986 299.803 433.241C299.182 434.496 298.279 435.591 297.165 436.44L225.872 490.792C224.288 492.005 222.348 492.661 220.353 492.658ZM106.086 157.15L227.305 301.033C228.684 302.675 229.441 304.749 229.444 306.893V465.158L282.533 424.687V306.904C282.533 304.754 283.295 302.683 284.672 301.045L405.902 157.161L106.086 157.15ZM256.865 87.4041C251.836 87.4041 247.762 83.3309 247.762 78.3019V66.1504C247.762 61.1214 251.836 57.0482 256.865 57.0482C261.894 57.0482 265.967 61.1214 265.967 66.1504V78.3019C265.967 83.3309 261.894 87.4041 256.865 87.4041Z" fill="#999999"/>
<path d="M273.135 157.161C271.394 157.161 269.642 156.661 268.083 155.625C263.908 152.826 262.781 147.172 265.58 142.996C266.069 142.268 266.342 141.54 266.411 140.8C266.422 140.675 266.433 140.561 266.456 140.436C267.571 131.88 254.327 126.612 251.654 125.645C227.191 116.736 225.166 102.901 227.772 92.854C231.526 78.4612 242.87 69.1996 256.717 69.1996H256.922C264.784 69.2565 272.316 72.4537 277.595 77.9719C282.863 83.4788 285.605 91.0108 285.309 99.1801C285.127 104.209 280.929 108.157 275.877 107.952C274.683 107.91 273.509 107.632 272.423 107.135C271.336 106.638 270.358 105.932 269.544 105.057C268.731 104.183 268.097 103.156 267.681 102.036C267.264 100.916 267.072 99.7255 267.116 98.5316C267.241 95.232 266.331 92.5468 264.442 90.5671C262.542 88.5874 259.755 87.4382 256.796 87.4155H256.728C254.054 87.4155 247.751 88.4167 245.396 97.4507C244.85 99.5442 243.837 103.435 257.877 108.544C272.179 113.744 286.675 125.417 284.524 142.632C284.16 146.375 282.874 149.902 280.713 153.122C279.879 154.366 278.751 155.386 277.429 156.09C276.108 156.795 274.633 157.163 273.135 157.161Z" fill="#999999"/>
<path d="M340.139 157.161C339.115 157.161 338.068 156.991 337.055 156.615C332.322 154.908 329.876 149.697 331.571 144.964C334.698 136.259 336.292 127.078 336.282 117.828C336.282 73.5573 300.271 37.5467 256 37.5467C211.729 37.5467 175.718 73.5573 175.718 117.828C175.718 127.169 177.3 136.294 180.429 144.964C182.135 149.697 179.678 154.908 174.945 156.615C170.212 158.322 165.001 155.864 163.294 151.131C159.46 140.47 157.514 129.274 157.514 117.828C157.514 63.5221 201.694 19.3422 256 19.3422C310.306 19.3422 354.486 63.5221 354.486 117.828C354.486 129.274 352.54 140.481 348.706 151.131C348.072 152.896 346.909 154.422 345.376 155.501C343.843 156.58 342.014 157.16 340.139 157.161Z" fill="#999999"/>
</svg>
