<svg width="512" height="512" viewBox="0 0 512 512" fill="none" xmlns="http://www.w3.org/2000/svg">
<path d="M369.828 461.91C368.028 461.91 365.929 461.31 364.429 460.11L338.334 440.014C336.234 438.514 334.735 435.815 334.735 433.115V382.125C334.735 377.026 338.934 373.127 343.733 373.127H397.722C402.821 373.127 406.721 377.026 406.721 382.125V433.115C406.721 435.815 405.221 438.514 402.821 440.314L374.927 460.41C373.427 461.31 371.627 461.91 369.828 461.91ZM442.714 512H69.2865C64.1875 512 60.2882 507.801 60.2882 503.002V349.132C60.2882 296.642 111.278 254.65 175.166 254.35H203.06L206.66 240.253C185.064 226.456 172.166 202.76 171.267 176.665C138.873 154.77 145.772 87.5829 153.27 55.4892C159.269 27.8946 171.566 18.5964 193.762 10.198C242.953 -8.99824 341.033 -5.099 359.33 58.1886C367.428 84.8834 367.728 127.775 353.031 158.369H352.731C346.132 171.566 339.834 175.166 339.834 177.265C339.834 204.26 327.536 227.955 305.34 241.453L308.64 254.35H336.834C394.423 254.35 451.712 292.743 451.712 349.132V503.002C451.712 507.801 447.813 512 442.714 512ZM206.96 272.347H188.063L215.958 333.235L242.953 299.641L206.96 272.347ZM168.267 272.347C118.177 275.046 78.2847 308.34 78.2847 349.132V494.004H433.715V349.132C433.715 305.04 388.124 274.746 343.433 272.347L305.94 353.931C303.241 360.23 294.842 360.83 290.943 355.731L282.845 345.533L279.545 350.332L296.942 447.513C297.542 450.812 296.342 454.111 293.643 456.211L261.549 481.106C258.25 483.506 253.75 483.506 250.451 481.106L218.357 456.211C215.958 454.111 214.458 450.812 215.058 447.513L232.455 350.332L229.155 345.533C224.056 351.831 219.557 360.23 212.958 359.03C209.659 358.73 207.26 356.63 205.76 353.931L168.267 272.347ZM323.937 272.347H305.04L268.748 299.641L296.042 333.235L323.937 272.347ZM255.85 379.126C250.751 379.126 248.951 375.827 246.852 372.527L233.954 445.113L256.15 462.51L278.346 445.113L265.148 372.527C263.049 375.827 260.949 379.126 255.85 379.126ZM241.153 330.835L256.15 353.631L270.847 330.835L255.85 312.539L241.153 330.835ZM256.15 287.044L291.543 259.749L288.544 248.651C271.747 253.75 239.953 253.75 223.156 248.351L220.157 259.749L256.15 287.044ZM188.963 171.566C188.963 208.159 213.858 234.254 248.052 234.254H263.948C299.941 234.254 323.937 207.559 321.837 173.966C319.438 137.973 323.337 139.773 317.338 98.3808C310.139 100.78 302.341 103.78 294.542 106.779C263.649 118.777 225.856 133.474 191.363 103.48C186.264 125.975 189.263 148.471 188.963 171.566ZM253.451 17.9965C233.654 17.9965 214.458 21.2958 200.361 26.9947C169.167 38.9924 175.466 51.5899 170.667 59.6883C164.068 86.0832 161.968 124.176 170.667 146.671C170.067 125.675 170.067 105.579 178.765 83.3837C181.165 76.785 189.563 75.5852 194.062 80.6842C234.554 127.775 277.746 87.8828 323.337 78.5846C328.136 77.6848 332.935 80.9842 333.835 86.0832C337.134 106.479 339.534 124.176 339.234 145.172C348.232 122.076 349.732 87.8828 342.233 62.9877C332.035 27.8946 287.044 17.9965 253.451 17.9965ZM352.731 428.616L370.128 441.814L388.724 428.316V391.124H352.731V428.616Z" fill="#999999"/>
</svg>
