<svg width="512" height="512" viewBox="0 0 512 512" fill="none" xmlns="http://www.w3.org/2000/svg">
<path d="M161.716 198.808L165.38 209.588C166.018 211.475 165.929 213.533 165.13 215.358C164.331 217.183 162.88 218.644 161.06 219.456L123.452 238.088C121.596 238.995 119.461 239.15 117.493 238.519C115.526 237.888 113.879 236.521 112.896 234.704L83.996 181.064C83.1407 179.478 82.8475 177.649 83.1642 175.876C83.4808 174.102 84.3887 172.488 85.74 171.296L185.396 76.8358L164.824 51.1918C163.502 49.5414 162.89 47.4337 163.122 45.332C163.354 43.2303 164.41 41.3066 166.06 39.9838C166.46 39.6435 166.9 39.3545 167.372 39.1238V39.0958C179.944 32.5598 192.364 32.8398 204.228 36.9518C214.248 40.4078 223.688 46.5958 232.424 53.5358C247.092 52.8038 260.72 54.6438 273.32 58.6318C309.468 70.0678 336.736 98.8438 355.564 133.656C374.016 167.784 384.392 207.872 387.016 242.756C388.76 266.028 387.064 287.208 382.072 303.036C381.571 304.631 380.583 306.03 379.246 307.034C377.91 308.039 376.292 308.599 374.62 308.636C367.628 309.22 360.564 312.528 354.884 317.552C350.156 321.716 346.448 326.988 344.556 332.824C342.585 338.658 342.673 344.992 344.808 350.768C347.364 357.684 352.916 364.776 362.536 371.472C364.277 372.683 365.467 374.535 365.844 376.621C366.222 378.708 365.758 380.859 364.552 382.604C363.813 383.66 362.831 384.523 361.689 385.12C360.546 385.717 359.277 386.029 357.988 386.032H156.62C152.86 386.032 149.68 383.432 148.844 379.9C147.032 373.744 130.468 311.972 183.96 258.48C223.236 219.204 226.896 208.12 220.56 193.228C209.452 203.648 193.752 201.432 179.336 199.412C172.044 198.376 165.252 197.416 161.716 198.808ZM148.012 208.128L145.004 199.292C144.652 198.25 144.519 197.147 144.615 196.052C144.711 194.956 145.032 193.893 145.56 192.928C152.832 179.552 166.512 181.468 181.532 183.592C194.38 185.404 208.744 187.452 214.196 174.4V174.428C214.916 172.699 216.22 171.278 217.88 170.412C219.752 169.432 221.937 169.236 223.953 169.866C225.97 170.496 227.654 171.901 228.636 173.772L229.972 176.344C230.048 176.472 230.12 176.624 230.2 176.752C245.272 205.376 250.24 214.844 195.264 269.8C155.18 309.908 159.696 354.588 162.848 370.036H337.608C334.052 365.544 331.5 360.928 329.812 356.28C326.204 346.468 326.452 336.716 329.36 327.888C332.188 319.304 337.564 311.6 344.304 305.644C351.172 299.588 359.5 295.244 368.156 293.48C371.516 280.096 372.5 262.908 371.064 243.948C368.612 211.032 358.844 173.292 341.5 141.208C324.516 109.78 300.248 83.9318 268.496 73.8838C256.884 70.2238 244.188 68.6318 230.428 69.6678V69.6438C228.383 69.7996 226.357 69.1574 224.776 67.8518C216.596 61.1358 207.836 55.0558 199.028 51.9998C194.256 50.3598 189.408 49.6238 184.512 50.2078L202.408 72.5478L202.436 72.5758C205.012 75.7838 204.756 80.4758 201.724 83.3518L100.936 178.872L123.3 220.34L148.012 208.128Z" fill="#999999"/>
<path d="M129.584 370.036H381.912C384.065 370.035 386.198 370.461 388.186 371.288C390.174 372.115 391.979 373.328 393.496 374.856C395.017 376.377 396.223 378.183 397.046 380.171C397.869 382.158 398.292 384.289 398.292 386.44V413.704C398.292 418.22 396.448 422.304 393.496 425.288C390.421 428.355 386.255 430.077 381.912 430.076H129.584C125.247 430.075 121.088 428.353 118.02 425.288C116.494 423.769 115.282 421.964 114.455 419.976C113.628 417.988 113.202 415.857 113.2 413.704V386.44C113.2 381.924 115.044 377.808 118.02 374.856H118.048C119.557 373.33 121.353 372.118 123.333 371.291C125.313 370.463 127.438 370.037 129.584 370.036ZM381.912 386.036H129.584C129.484 386.045 129.388 386.08 129.304 386.136L129.332 386.168C129.294 386.203 129.264 386.245 129.242 386.291C129.221 386.338 129.209 386.388 129.208 386.44V413.704C129.208 413.752 129.219 413.8 129.241 413.844C129.262 413.888 129.294 413.926 129.332 413.956C129.408 414.036 129.484 414.08 129.584 414.08H381.912C382.012 414.08 382.116 414.032 382.164 413.956C382.244 413.908 382.288 413.808 382.288 413.704V386.44C382.287 386.388 382.276 386.338 382.254 386.291C382.233 386.244 382.202 386.202 382.164 386.168C382.116 386.088 382.016 386.044 381.912 386.044V386.036Z" fill="#999999"/>
<path d="M85.684 462.144H425.808C426.29 462.147 426.768 462.055 427.215 461.872C427.661 461.69 428.066 461.42 428.408 461.08V461.056C428.753 460.712 429.027 460.303 429.213 459.853C429.399 459.402 429.494 458.919 429.492 458.432V433.792C429.499 432.811 429.116 431.867 428.428 431.168L428.404 431.144C428.062 430.804 427.656 430.535 427.21 430.352C426.764 430.17 426.286 430.077 425.804 430.08H85.684C84.711 430.078 83.7766 430.46 83.084 431.144L83.06 431.168C82.3718 431.867 81.9892 432.811 81.996 433.792V458.432C81.996 459.464 82.424 460.376 83.08 461.056V461.08C83.7733 461.765 84.7095 462.147 85.684 462.144ZM425.812 478.144H85.684C83.1023 478.137 80.5474 477.621 78.1656 476.625C75.7838 475.629 73.6219 474.173 71.804 472.34L71.78 472.364C69.9482 470.536 68.4949 468.365 67.5031 465.975C66.5112 463.585 66.0005 461.023 66 458.436V433.796C66 428.396 68.22 423.476 71.78 419.888H71.804V419.864C75.4833 416.176 80.4747 414.098 85.684 414.084H425.808C431.184 414.084 436.104 416.304 439.692 419.864L439.716 419.888C443.408 423.576 445.487 428.577 445.496 433.796V458.436C445.496 461.023 444.985 463.586 443.993 465.976C443.001 468.365 441.548 470.536 439.716 472.364V472.34C437.894 474.174 435.728 475.631 433.342 476.627C430.956 477.623 428.397 478.139 425.812 478.144Z" fill="#999999"/>
</svg>
