<svg width="512" height="512" viewBox="0 0 512 512" fill="none" xmlns="http://www.w3.org/2000/svg">
<path d="M200.878 21.4839C101.88 21.4839 21.4839 101.88 21.4839 200.878C21.4839 299.875 101.88 380.271 200.878 380.271C299.875 380.271 380.272 299.875 380.272 200.878C380.272 101.88 299.875 21.4839 200.878 21.4839ZM200.878 49.083C284.668 49.083 352.672 117.087 352.672 200.878C352.672 284.668 284.668 352.672 200.878 352.672C117.087 352.672 49.083 284.668 49.083 200.878C49.083 117.087 117.087 49.083 200.878 49.083Z" fill="#999999"/>
<path d="M486.638 467.098L327.695 308.183C325.093 305.669 321.607 304.278 317.989 304.31C314.371 304.341 310.909 305.792 308.351 308.351C305.792 310.909 304.341 314.371 304.31 317.989C304.278 321.607 305.669 325.093 308.183 327.695L467.098 486.638C469.747 488.922 473.162 490.12 476.657 489.991C480.152 489.861 483.469 488.415 485.942 485.942C488.415 483.469 489.861 480.152 489.991 476.657C490.12 473.162 488.922 469.747 486.638 467.098Z" fill="#999999"/>
</svg>
