<svg width="512" height="512" viewBox="0 0 512 512" fill="none" xmlns="http://www.w3.org/2000/svg">
<path d="M110.814 302.437L134.753 306.727C137.216 315.083 140.491 323.198 144.548 330.936L131.043 350.45C129.895 352.11 129.297 354.089 129.331 356.108C129.366 358.126 130.032 360.083 131.236 361.704C141.2 375.128 153.244 386.875 166.912 396.501C170.283 398.867 174.785 398.838 178.137 396.433L196.057 383.478C203.515 387.603 211.369 390.927 219.513 393.409L223.184 414.759C223.527 416.749 224.485 418.581 225.923 419.998C227.361 421.416 229.207 422.347 231.202 422.661C239.503 423.972 247.895 424.631 256.299 424.632C264.559 424.632 272.828 423.955 280.895 422.651C282.878 422.327 284.71 421.392 286.137 419.978C287.563 418.563 288.514 416.739 288.855 414.759L292.536 393.409C300.67 390.946 308.523 387.613 316.02 383.459L334.123 396.452C337.456 398.829 341.929 398.867 345.291 396.52C358.959 386.975 370.99 375.28 380.918 361.887C382.123 360.267 382.789 358.31 382.823 356.291C382.858 354.273 382.259 352.294 381.112 350.633L367.5 330.936C371.557 323.207 374.842 315.093 377.296 306.727L401.234 302.437C403.209 302.085 405.026 301.127 406.432 299.695C407.837 298.264 408.762 296.43 409.078 294.448C410.402 286.082 411.039 278.055 411.039 269.892C411.039 261.468 410.383 253.025 409.078 244.775C408.761 242.783 407.828 240.942 406.411 239.507C404.994 238.073 403.163 237.118 401.176 236.776L377.354 232.661C374.914 224.241 371.612 216.096 367.5 208.355L380.928 188.86C382.065 187.212 382.662 185.251 382.636 183.249C382.61 181.246 381.963 179.302 380.783 177.683C370.886 164.192 358.844 152.414 345.136 142.819C343.491 141.665 341.527 141.051 339.518 141.063C337.508 141.075 335.552 141.712 333.921 142.887L315.972 155.861C308.524 151.773 300.674 148.467 292.545 145.997L288.865 124.474C288.525 122.491 287.574 120.663 286.145 119.247C284.716 117.83 282.881 116.895 280.895 116.572C264.182 113.848 246.34 113.973 230.97 116.784C226.99 117.519 223.879 120.658 223.193 124.648L219.513 145.997C211.398 148.47 203.563 151.774 196.067 155.88L178.195 143.051C176.56 141.877 174.6 141.244 172.587 141.239C170.575 141.233 168.611 141.857 166.97 143.022C153.338 152.674 141.309 164.41 131.323 177.799C130.116 179.423 129.449 181.384 129.416 183.407C129.383 185.429 129.986 187.411 131.14 189.073L144.548 208.374C140.437 216.113 137.135 224.254 134.695 232.67L111.046 236.776C109.1 237.117 107.304 238.046 105.902 239.438C104.499 240.83 103.557 242.618 103.202 244.562C101.753 252.513 101.009 261.033 101.009 269.892C101.009 278.055 101.656 286.082 102.98 294.448C103.295 296.428 104.219 298.261 105.622 299.693C107.026 301.124 108.841 302.083 110.814 302.437ZM121.209 254.619L144.152 250.639C146.032 250.311 147.773 249.435 149.155 248.12C150.537 246.805 151.499 245.109 151.919 243.248C154.238 232.97 158.392 222.681 164.255 212.693C165.186 211.102 165.643 209.278 165.571 207.436C165.499 205.594 164.902 203.811 163.85 202.298L151.079 183.905C157.454 176.176 164.69 169.134 172.679 162.874L189.875 175.22C193.043 177.49 197.265 177.635 200.588 175.597C209.787 169.903 219.815 165.673 230.313 163.058C232.133 162.607 233.783 161.636 235.061 160.264C236.339 158.892 237.19 157.177 237.51 155.329L241.046 134.801C250.494 133.671 260.936 133.613 271.012 134.724L274.538 155.31C274.855 157.165 275.706 158.888 276.988 160.266C278.27 161.644 279.927 162.618 281.755 163.067C292.12 165.618 302.119 169.829 311.47 175.597C313.095 176.599 314.981 177.098 316.89 177.029C318.799 176.96 320.644 176.327 322.193 175.21L339.504 162.69C347.445 168.861 354.665 175.906 361.028 183.692L348.179 202.337C347.139 203.849 346.552 205.626 346.485 207.46C346.418 209.294 346.875 211.109 347.803 212.693C353.456 222.185 357.613 232.491 360.129 243.248C360.55 245.111 361.513 246.807 362.897 248.122C364.281 249.437 366.024 250.313 367.906 250.639L390.898 254.599C391.448 259.661 391.719 264.781 391.719 269.892C391.719 274.818 391.458 279.697 390.898 284.662L367.848 288.787C366.004 289.119 364.296 289.979 362.933 291.264C361.569 292.549 360.609 294.202 360.168 296.023C357.56 306.775 353.406 317.063 347.803 326.627C346.867 328.222 346.409 330.052 346.482 331.9C346.556 333.747 347.158 335.535 348.218 337.051L361.173 355.772C354.809 363.51 347.603 370.516 339.688 376.658L322.174 364.1C318.986 361.81 314.735 361.685 311.412 363.762C302.157 369.558 292.188 373.789 281.755 376.349C279.931 376.799 278.278 377.77 276.999 379.144C275.719 380.519 274.867 382.236 274.548 384.087L271.022 404.509C261.051 405.574 250.995 405.565 241.026 404.48L237.51 384.097C237.192 382.247 236.342 380.53 235.063 379.156C233.785 377.782 232.135 376.81 230.313 376.359C219.82 373.757 209.806 369.505 200.646 363.762C199.016 362.74 197.119 362.228 195.196 362.292C193.274 362.356 191.414 362.992 189.855 364.119L172.544 376.629C164.607 370.428 157.373 363.376 150.972 355.599L163.83 337.051C164.891 335.536 165.496 333.749 165.571 331.901C165.646 330.053 165.19 328.223 164.255 326.627C158.652 317.063 154.489 306.765 151.89 296.023C151.45 294.199 150.489 292.543 149.124 291.256C147.758 289.969 146.047 289.108 144.2 288.778L121.151 284.662C120.036 274.678 120.055 264.599 121.209 254.619Z" fill="#999999"/>
<path d="M256.029 348.662C299.617 348.662 335.08 313.209 335.08 269.611C335.08 226.014 299.617 190.561 256.029 190.561C212.441 190.561 176.968 226.024 176.968 269.611C176.968 313.199 212.432 348.662 256.029 348.662ZM256.029 209.881C271.865 209.899 287.047 216.198 298.245 227.396C309.442 238.593 315.741 253.776 315.759 269.611C315.741 285.447 309.442 300.63 298.245 311.827C287.047 323.025 271.865 329.324 256.029 329.342C240.191 329.326 225.007 323.029 213.807 311.831C202.607 300.633 196.307 285.449 196.289 269.611C196.307 253.774 202.607 238.59 213.807 227.392C225.007 216.194 240.191 209.897 256.029 209.881ZM219.851 484.468C308.746 500.205 396.636 459.428 443.392 386.357L446.85 402.548C447.386 405.054 448.895 407.244 451.045 408.637C453.196 410.03 455.812 410.512 458.317 409.977C460.823 409.441 463.013 407.932 464.407 405.782C465.8 403.631 466.282 401.016 465.746 398.51L456.955 357.405C456.42 354.899 454.911 352.707 452.761 351.313C450.611 349.918 447.995 349.434 445.488 349.966L404.48 358.738C401.973 359.274 399.781 360.783 398.387 362.934C396.993 365.086 396.511 367.703 397.046 370.21C397.582 372.717 399.091 374.908 401.243 376.302C403.394 377.697 406.011 378.179 408.518 377.643L428.795 373.296C386.154 442.339 304.476 479.812 223.222 465.437C190.276 459.592 159.313 445.605 133.149 424.747C132.159 423.946 131.021 423.348 129.799 422.988C128.577 422.628 127.296 422.513 126.03 422.65C124.764 422.787 123.537 423.173 122.42 423.786C121.304 424.399 120.32 425.227 119.524 426.222C118.729 427.216 118.138 428.359 117.786 429.583C117.433 430.807 117.327 432.088 117.471 433.354C117.616 434.619 118.01 435.843 118.63 436.956C119.25 438.069 120.083 439.048 121.083 439.837C149.77 462.715 183.722 478.058 219.851 484.468ZM278.547 27.5224C277.718 26.5626 276.708 25.7757 275.574 25.2067C274.441 24.6377 273.206 24.2977 271.941 24.2062C270.676 24.1147 269.405 24.2734 268.202 24.6734C266.998 25.0733 265.885 25.7066 264.926 26.537L236.36 51.2676C235.401 52.0968 234.614 53.1071 234.045 54.2407C233.476 55.3742 233.136 56.6088 233.044 57.8739C232.953 59.139 233.111 60.4097 233.511 61.6133C233.911 62.817 234.545 63.93 235.375 64.8887L260.048 93.3868C260.865 94.3879 261.875 95.2147 263.018 95.8184C264.16 96.4221 265.412 96.7904 266.7 96.9016C267.987 97.0127 269.284 96.8643 270.513 96.4653C271.743 96.0662 272.879 95.4246 273.856 94.5785C274.833 93.7323 275.63 92.6987 276.2 91.539C276.77 90.3792 277.102 89.1169 277.175 87.8266C277.249 86.5364 277.063 85.2446 276.628 84.0275C276.193 82.8105 275.519 81.6931 274.645 80.7414L263.41 67.7482C273.379 68.0187 283.358 68.9364 293.26 70.7043C399.447 89.542 472.653 191.556 456.424 298.139C456.04 300.672 456.678 303.255 458.198 305.319C459.718 307.382 461.995 308.757 464.529 309.142C467.063 309.526 469.646 308.888 471.709 307.368C473.773 305.848 475.148 303.571 475.532 301.037C494.689 175.162 400.113 55.1124 268.993 48.5627L277.562 41.1435C278.522 40.3143 279.309 39.304 279.878 38.1705C280.447 37.0369 280.787 35.8023 280.878 34.5372C280.97 33.2722 280.811 32.0015 280.411 30.7978C280.011 29.5941 279.378 28.4811 278.547 27.5224ZM41.3367 385.604L82.2388 395.757C87.7645 397.167 92.6333 393.506 93.8602 388.849C94.5171 386.357 91.8026 397.254 104.062 347.928C104.368 346.696 104.429 345.416 104.24 344.161C104.052 342.906 103.618 341.7 102.964 340.612C101.642 338.415 99.5021 336.834 97.0143 336.215C95.7825 335.909 94.5024 335.848 93.2471 336.036C91.9918 336.225 90.7859 336.658 89.6982 337.313C87.5015 338.634 85.9199 340.774 85.3011 343.262L80.8573 361.182C60.079 321.902 53.0397 276.8 60.8604 233.057C73.129 163.869 119.595 107.182 185.131 81.4176C186.341 80.9757 187.451 80.2962 188.394 79.4191C189.338 78.542 190.096 77.4851 190.625 76.3105C191.154 75.136 191.443 73.8675 191.475 72.5797C191.506 71.2919 191.28 70.0108 190.809 68.8117C190.338 67.6127 189.632 66.52 188.732 65.5979C187.833 64.6758 186.758 63.9429 185.571 63.4424C184.384 62.9418 183.109 62.6837 181.821 62.6833C180.532 62.6828 179.257 62.94 178.07 63.4397C106.235 91.677 55.3056 153.832 41.8487 229.675C33.1691 278.109 41.1041 328.054 64.3671 371.413L45.993 366.843C44.7612 366.537 43.4812 366.477 42.2262 366.666C40.9711 366.855 39.7655 367.289 38.6783 367.944C37.5911 368.599 36.6435 369.462 35.8896 370.483C35.1358 371.504 34.5904 372.663 34.2847 373.895C33.9789 375.127 33.9188 376.407 34.1077 377.662C34.2967 378.917 34.731 380.123 35.3858 381.21C36.0407 382.297 36.9032 383.245 37.9243 383.999C38.9454 384.752 40.1049 385.298 41.3367 385.604Z" fill="#999999"/>
</svg>
